%TF.GenerationSoftware,KiCad,Pcbnew,9.0.5*%
%TF.CreationDate,2025-10-19T11:10:53+01:00*%
%TF.ProjectId,loco-decoder-v1a,6c6f636f-2d64-4656-936f-6465722d7631,rev?*%
%TF.SameCoordinates,Original*%
%TF.FileFunction,Legend,Bot*%
%TF.FilePolarity,Positive*%
%FSLAX46Y46*%
G04 Gerber Fmt 4.6, Leading zero omitted, Abs format (unit mm)*
G04 Created by KiCad (PCBNEW 9.0.5) date 2025-10-19 11:10:53*
%MOMM*%
%LPD*%
G01*
G04 APERTURE LIST*
%ADD10C,0.150000*%
%ADD11C,0.012700*%
%ADD12C,0.000000*%
%ADD13C,0.120000*%
%ADD14C,0.152400*%
%ADD15C,0.127000*%
%ADD16C,0.200000*%
G04 APERTURE END LIST*
D10*
X123562030Y-81869819D02*
X124038220Y-81869819D01*
X124038220Y-81869819D02*
X124038220Y-80869819D01*
X123085839Y-81869819D02*
X123181077Y-81822200D01*
X123181077Y-81822200D02*
X123228696Y-81774580D01*
X123228696Y-81774580D02*
X123276315Y-81679342D01*
X123276315Y-81679342D02*
X123276315Y-81393628D01*
X123276315Y-81393628D02*
X123228696Y-81298390D01*
X123228696Y-81298390D02*
X123181077Y-81250771D01*
X123181077Y-81250771D02*
X123085839Y-81203152D01*
X123085839Y-81203152D02*
X122942982Y-81203152D01*
X122942982Y-81203152D02*
X122847744Y-81250771D01*
X122847744Y-81250771D02*
X122800125Y-81298390D01*
X122800125Y-81298390D02*
X122752506Y-81393628D01*
X122752506Y-81393628D02*
X122752506Y-81679342D01*
X122752506Y-81679342D02*
X122800125Y-81774580D01*
X122800125Y-81774580D02*
X122847744Y-81822200D01*
X122847744Y-81822200D02*
X122942982Y-81869819D01*
X122942982Y-81869819D02*
X123085839Y-81869819D01*
X121895363Y-81822200D02*
X121990601Y-81869819D01*
X121990601Y-81869819D02*
X122181077Y-81869819D01*
X122181077Y-81869819D02*
X122276315Y-81822200D01*
X122276315Y-81822200D02*
X122323934Y-81774580D01*
X122323934Y-81774580D02*
X122371553Y-81679342D01*
X122371553Y-81679342D02*
X122371553Y-81393628D01*
X122371553Y-81393628D02*
X122323934Y-81298390D01*
X122323934Y-81298390D02*
X122276315Y-81250771D01*
X122276315Y-81250771D02*
X122181077Y-81203152D01*
X122181077Y-81203152D02*
X121990601Y-81203152D01*
X121990601Y-81203152D02*
X121895363Y-81250771D01*
X121323934Y-81869819D02*
X121419172Y-81822200D01*
X121419172Y-81822200D02*
X121466791Y-81774580D01*
X121466791Y-81774580D02*
X121514410Y-81679342D01*
X121514410Y-81679342D02*
X121514410Y-81393628D01*
X121514410Y-81393628D02*
X121466791Y-81298390D01*
X121466791Y-81298390D02*
X121419172Y-81250771D01*
X121419172Y-81250771D02*
X121323934Y-81203152D01*
X121323934Y-81203152D02*
X121181077Y-81203152D01*
X121181077Y-81203152D02*
X121085839Y-81250771D01*
X121085839Y-81250771D02*
X121038220Y-81298390D01*
X121038220Y-81298390D02*
X120990601Y-81393628D01*
X120990601Y-81393628D02*
X120990601Y-81679342D01*
X120990601Y-81679342D02*
X121038220Y-81774580D01*
X121038220Y-81774580D02*
X121085839Y-81822200D01*
X121085839Y-81822200D02*
X121181077Y-81869819D01*
X121181077Y-81869819D02*
X121323934Y-81869819D01*
X119228696Y-81774580D02*
X119276315Y-81822200D01*
X119276315Y-81822200D02*
X119419172Y-81869819D01*
X119419172Y-81869819D02*
X119514410Y-81869819D01*
X119514410Y-81869819D02*
X119657267Y-81822200D01*
X119657267Y-81822200D02*
X119752505Y-81726961D01*
X119752505Y-81726961D02*
X119800124Y-81631723D01*
X119800124Y-81631723D02*
X119847743Y-81441247D01*
X119847743Y-81441247D02*
X119847743Y-81298390D01*
X119847743Y-81298390D02*
X119800124Y-81107914D01*
X119800124Y-81107914D02*
X119752505Y-81012676D01*
X119752505Y-81012676D02*
X119657267Y-80917438D01*
X119657267Y-80917438D02*
X119514410Y-80869819D01*
X119514410Y-80869819D02*
X119419172Y-80869819D01*
X119419172Y-80869819D02*
X119276315Y-80917438D01*
X119276315Y-80917438D02*
X119228696Y-80965057D01*
X118657267Y-81869819D02*
X118752505Y-81822200D01*
X118752505Y-81822200D02*
X118800124Y-81774580D01*
X118800124Y-81774580D02*
X118847743Y-81679342D01*
X118847743Y-81679342D02*
X118847743Y-81393628D01*
X118847743Y-81393628D02*
X118800124Y-81298390D01*
X118800124Y-81298390D02*
X118752505Y-81250771D01*
X118752505Y-81250771D02*
X118657267Y-81203152D01*
X118657267Y-81203152D02*
X118514410Y-81203152D01*
X118514410Y-81203152D02*
X118419172Y-81250771D01*
X118419172Y-81250771D02*
X118371553Y-81298390D01*
X118371553Y-81298390D02*
X118323934Y-81393628D01*
X118323934Y-81393628D02*
X118323934Y-81679342D01*
X118323934Y-81679342D02*
X118371553Y-81774580D01*
X118371553Y-81774580D02*
X118419172Y-81822200D01*
X118419172Y-81822200D02*
X118514410Y-81869819D01*
X118514410Y-81869819D02*
X118657267Y-81869819D01*
X117895362Y-81203152D02*
X117895362Y-81869819D01*
X117895362Y-81298390D02*
X117847743Y-81250771D01*
X117847743Y-81250771D02*
X117752505Y-81203152D01*
X117752505Y-81203152D02*
X117609648Y-81203152D01*
X117609648Y-81203152D02*
X117514410Y-81250771D01*
X117514410Y-81250771D02*
X117466791Y-81346009D01*
X117466791Y-81346009D02*
X117466791Y-81869819D01*
X117133457Y-81203152D02*
X116752505Y-81203152D01*
X116990600Y-80869819D02*
X116990600Y-81726961D01*
X116990600Y-81726961D02*
X116942981Y-81822200D01*
X116942981Y-81822200D02*
X116847743Y-81869819D01*
X116847743Y-81869819D02*
X116752505Y-81869819D01*
X116419171Y-81869819D02*
X116419171Y-81203152D01*
X116419171Y-81393628D02*
X116371552Y-81298390D01*
X116371552Y-81298390D02*
X116323933Y-81250771D01*
X116323933Y-81250771D02*
X116228695Y-81203152D01*
X116228695Y-81203152D02*
X116133457Y-81203152D01*
X115657266Y-81869819D02*
X115752504Y-81822200D01*
X115752504Y-81822200D02*
X115800123Y-81774580D01*
X115800123Y-81774580D02*
X115847742Y-81679342D01*
X115847742Y-81679342D02*
X115847742Y-81393628D01*
X115847742Y-81393628D02*
X115800123Y-81298390D01*
X115800123Y-81298390D02*
X115752504Y-81250771D01*
X115752504Y-81250771D02*
X115657266Y-81203152D01*
X115657266Y-81203152D02*
X115514409Y-81203152D01*
X115514409Y-81203152D02*
X115419171Y-81250771D01*
X115419171Y-81250771D02*
X115371552Y-81298390D01*
X115371552Y-81298390D02*
X115323933Y-81393628D01*
X115323933Y-81393628D02*
X115323933Y-81679342D01*
X115323933Y-81679342D02*
X115371552Y-81774580D01*
X115371552Y-81774580D02*
X115419171Y-81822200D01*
X115419171Y-81822200D02*
X115514409Y-81869819D01*
X115514409Y-81869819D02*
X115657266Y-81869819D01*
X114752504Y-81869819D02*
X114847742Y-81822200D01*
X114847742Y-81822200D02*
X114895361Y-81726961D01*
X114895361Y-81726961D02*
X114895361Y-80869819D01*
X114228694Y-81869819D02*
X114323932Y-81822200D01*
X114323932Y-81822200D02*
X114371551Y-81726961D01*
X114371551Y-81726961D02*
X114371551Y-80869819D01*
X113466789Y-81822200D02*
X113562027Y-81869819D01*
X113562027Y-81869819D02*
X113752503Y-81869819D01*
X113752503Y-81869819D02*
X113847741Y-81822200D01*
X113847741Y-81822200D02*
X113895360Y-81726961D01*
X113895360Y-81726961D02*
X113895360Y-81346009D01*
X113895360Y-81346009D02*
X113847741Y-81250771D01*
X113847741Y-81250771D02*
X113752503Y-81203152D01*
X113752503Y-81203152D02*
X113562027Y-81203152D01*
X113562027Y-81203152D02*
X113466789Y-81250771D01*
X113466789Y-81250771D02*
X113419170Y-81346009D01*
X113419170Y-81346009D02*
X113419170Y-81441247D01*
X113419170Y-81441247D02*
X113895360Y-81536485D01*
X112990598Y-81869819D02*
X112990598Y-81203152D01*
X112990598Y-81393628D02*
X112942979Y-81298390D01*
X112942979Y-81298390D02*
X112895360Y-81250771D01*
X112895360Y-81250771D02*
X112800122Y-81203152D01*
X112800122Y-81203152D02*
X112704884Y-81203152D01*
X111704883Y-81203152D02*
X111466788Y-81869819D01*
X111466788Y-81869819D02*
X111228693Y-81203152D01*
X110323931Y-81869819D02*
X110895359Y-81869819D01*
X110609645Y-81869819D02*
X110609645Y-80869819D01*
X110609645Y-80869819D02*
X110704883Y-81012676D01*
X110704883Y-81012676D02*
X110800121Y-81107914D01*
X110800121Y-81107914D02*
X110895359Y-81155533D01*
X109942978Y-81584104D02*
X109466788Y-81584104D01*
X110038216Y-81869819D02*
X109704883Y-80869819D01*
X109704883Y-80869819D02*
X109371550Y-81869819D01*
X108323930Y-80965057D02*
X108276311Y-80917438D01*
X108276311Y-80917438D02*
X108181073Y-80869819D01*
X108181073Y-80869819D02*
X107942978Y-80869819D01*
X107942978Y-80869819D02*
X107847740Y-80917438D01*
X107847740Y-80917438D02*
X107800121Y-80965057D01*
X107800121Y-80965057D02*
X107752502Y-81060295D01*
X107752502Y-81060295D02*
X107752502Y-81155533D01*
X107752502Y-81155533D02*
X107800121Y-81298390D01*
X107800121Y-81298390D02*
X108371549Y-81869819D01*
X108371549Y-81869819D02*
X107752502Y-81869819D01*
X107419168Y-80869819D02*
X106800121Y-80869819D01*
X106800121Y-80869819D02*
X107133454Y-81250771D01*
X107133454Y-81250771D02*
X106990597Y-81250771D01*
X106990597Y-81250771D02*
X106895359Y-81298390D01*
X106895359Y-81298390D02*
X106847740Y-81346009D01*
X106847740Y-81346009D02*
X106800121Y-81441247D01*
X106800121Y-81441247D02*
X106800121Y-81679342D01*
X106800121Y-81679342D02*
X106847740Y-81774580D01*
X106847740Y-81774580D02*
X106895359Y-81822200D01*
X106895359Y-81822200D02*
X106990597Y-81869819D01*
X106990597Y-81869819D02*
X107276311Y-81869819D01*
X107276311Y-81869819D02*
X107371549Y-81822200D01*
X107371549Y-81822200D02*
X107419168Y-81774580D01*
X106371549Y-81488866D02*
X105609645Y-81488866D01*
X104942978Y-80869819D02*
X104847740Y-80869819D01*
X104847740Y-80869819D02*
X104752502Y-80917438D01*
X104752502Y-80917438D02*
X104704883Y-80965057D01*
X104704883Y-80965057D02*
X104657264Y-81060295D01*
X104657264Y-81060295D02*
X104609645Y-81250771D01*
X104609645Y-81250771D02*
X104609645Y-81488866D01*
X104609645Y-81488866D02*
X104657264Y-81679342D01*
X104657264Y-81679342D02*
X104704883Y-81774580D01*
X104704883Y-81774580D02*
X104752502Y-81822200D01*
X104752502Y-81822200D02*
X104847740Y-81869819D01*
X104847740Y-81869819D02*
X104942978Y-81869819D01*
X104942978Y-81869819D02*
X105038216Y-81822200D01*
X105038216Y-81822200D02*
X105085835Y-81774580D01*
X105085835Y-81774580D02*
X105133454Y-81679342D01*
X105133454Y-81679342D02*
X105181073Y-81488866D01*
X105181073Y-81488866D02*
X105181073Y-81250771D01*
X105181073Y-81250771D02*
X105133454Y-81060295D01*
X105133454Y-81060295D02*
X105085835Y-80965057D01*
X105085835Y-80965057D02*
X105038216Y-80917438D01*
X105038216Y-80917438D02*
X104942978Y-80869819D01*
X104133454Y-81869819D02*
X103942978Y-81869819D01*
X103942978Y-81869819D02*
X103847740Y-81822200D01*
X103847740Y-81822200D02*
X103800121Y-81774580D01*
X103800121Y-81774580D02*
X103704883Y-81631723D01*
X103704883Y-81631723D02*
X103657264Y-81441247D01*
X103657264Y-81441247D02*
X103657264Y-81060295D01*
X103657264Y-81060295D02*
X103704883Y-80965057D01*
X103704883Y-80965057D02*
X103752502Y-80917438D01*
X103752502Y-80917438D02*
X103847740Y-80869819D01*
X103847740Y-80869819D02*
X104038216Y-80869819D01*
X104038216Y-80869819D02*
X104133454Y-80917438D01*
X104133454Y-80917438D02*
X104181073Y-80965057D01*
X104181073Y-80965057D02*
X104228692Y-81060295D01*
X104228692Y-81060295D02*
X104228692Y-81298390D01*
X104228692Y-81298390D02*
X104181073Y-81393628D01*
X104181073Y-81393628D02*
X104133454Y-81441247D01*
X104133454Y-81441247D02*
X104038216Y-81488866D01*
X104038216Y-81488866D02*
X103847740Y-81488866D01*
X103847740Y-81488866D02*
X103752502Y-81441247D01*
X103752502Y-81441247D02*
X103704883Y-81393628D01*
X103704883Y-81393628D02*
X103657264Y-81298390D01*
X103228692Y-81488866D02*
X102466788Y-81488866D01*
X102038216Y-80965057D02*
X101990597Y-80917438D01*
X101990597Y-80917438D02*
X101895359Y-80869819D01*
X101895359Y-80869819D02*
X101657264Y-80869819D01*
X101657264Y-80869819D02*
X101562026Y-80917438D01*
X101562026Y-80917438D02*
X101514407Y-80965057D01*
X101514407Y-80965057D02*
X101466788Y-81060295D01*
X101466788Y-81060295D02*
X101466788Y-81155533D01*
X101466788Y-81155533D02*
X101514407Y-81298390D01*
X101514407Y-81298390D02*
X102085835Y-81869819D01*
X102085835Y-81869819D02*
X101466788Y-81869819D01*
X100562026Y-80869819D02*
X101038216Y-80869819D01*
X101038216Y-80869819D02*
X101085835Y-81346009D01*
X101085835Y-81346009D02*
X101038216Y-81298390D01*
X101038216Y-81298390D02*
X100942978Y-81250771D01*
X100942978Y-81250771D02*
X100704883Y-81250771D01*
X100704883Y-81250771D02*
X100609645Y-81298390D01*
X100609645Y-81298390D02*
X100562026Y-81346009D01*
X100562026Y-81346009D02*
X100514407Y-81441247D01*
X100514407Y-81441247D02*
X100514407Y-81679342D01*
X100514407Y-81679342D02*
X100562026Y-81774580D01*
X100562026Y-81774580D02*
X100609645Y-81822200D01*
X100609645Y-81822200D02*
X100704883Y-81869819D01*
X100704883Y-81869819D02*
X100942978Y-81869819D01*
X100942978Y-81869819D02*
X101038216Y-81822200D01*
X101038216Y-81822200D02*
X101085835Y-81774580D01*
X123562030Y-83369819D02*
X124038220Y-83369819D01*
X124038220Y-83369819D02*
X124038220Y-82369819D01*
X123228696Y-83369819D02*
X123228696Y-82703152D01*
X123228696Y-82369819D02*
X123276315Y-82417438D01*
X123276315Y-82417438D02*
X123228696Y-82465057D01*
X123228696Y-82465057D02*
X123181077Y-82417438D01*
X123181077Y-82417438D02*
X123228696Y-82369819D01*
X123228696Y-82369819D02*
X123228696Y-82465057D01*
X122323935Y-83322200D02*
X122419173Y-83369819D01*
X122419173Y-83369819D02*
X122609649Y-83369819D01*
X122609649Y-83369819D02*
X122704887Y-83322200D01*
X122704887Y-83322200D02*
X122752506Y-83274580D01*
X122752506Y-83274580D02*
X122800125Y-83179342D01*
X122800125Y-83179342D02*
X122800125Y-82893628D01*
X122800125Y-82893628D02*
X122752506Y-82798390D01*
X122752506Y-82798390D02*
X122704887Y-82750771D01*
X122704887Y-82750771D02*
X122609649Y-82703152D01*
X122609649Y-82703152D02*
X122419173Y-82703152D01*
X122419173Y-82703152D02*
X122323935Y-82750771D01*
X121514411Y-83322200D02*
X121609649Y-83369819D01*
X121609649Y-83369819D02*
X121800125Y-83369819D01*
X121800125Y-83369819D02*
X121895363Y-83322200D01*
X121895363Y-83322200D02*
X121942982Y-83226961D01*
X121942982Y-83226961D02*
X121942982Y-82846009D01*
X121942982Y-82846009D02*
X121895363Y-82750771D01*
X121895363Y-82750771D02*
X121800125Y-82703152D01*
X121800125Y-82703152D02*
X121609649Y-82703152D01*
X121609649Y-82703152D02*
X121514411Y-82750771D01*
X121514411Y-82750771D02*
X121466792Y-82846009D01*
X121466792Y-82846009D02*
X121466792Y-82941247D01*
X121466792Y-82941247D02*
X121942982Y-83036485D01*
X121038220Y-82703152D02*
X121038220Y-83369819D01*
X121038220Y-82798390D02*
X120990601Y-82750771D01*
X120990601Y-82750771D02*
X120895363Y-82703152D01*
X120895363Y-82703152D02*
X120752506Y-82703152D01*
X120752506Y-82703152D02*
X120657268Y-82750771D01*
X120657268Y-82750771D02*
X120609649Y-82846009D01*
X120609649Y-82846009D02*
X120609649Y-83369819D01*
X120181077Y-83322200D02*
X120085839Y-83369819D01*
X120085839Y-83369819D02*
X119895363Y-83369819D01*
X119895363Y-83369819D02*
X119800125Y-83322200D01*
X119800125Y-83322200D02*
X119752506Y-83226961D01*
X119752506Y-83226961D02*
X119752506Y-83179342D01*
X119752506Y-83179342D02*
X119800125Y-83084104D01*
X119800125Y-83084104D02*
X119895363Y-83036485D01*
X119895363Y-83036485D02*
X120038220Y-83036485D01*
X120038220Y-83036485D02*
X120133458Y-82988866D01*
X120133458Y-82988866D02*
X120181077Y-82893628D01*
X120181077Y-82893628D02*
X120181077Y-82846009D01*
X120181077Y-82846009D02*
X120133458Y-82750771D01*
X120133458Y-82750771D02*
X120038220Y-82703152D01*
X120038220Y-82703152D02*
X119895363Y-82703152D01*
X119895363Y-82703152D02*
X119800125Y-82750771D01*
X118942982Y-83322200D02*
X119038220Y-83369819D01*
X119038220Y-83369819D02*
X119228696Y-83369819D01*
X119228696Y-83369819D02*
X119323934Y-83322200D01*
X119323934Y-83322200D02*
X119371553Y-83226961D01*
X119371553Y-83226961D02*
X119371553Y-82846009D01*
X119371553Y-82846009D02*
X119323934Y-82750771D01*
X119323934Y-82750771D02*
X119228696Y-82703152D01*
X119228696Y-82703152D02*
X119038220Y-82703152D01*
X119038220Y-82703152D02*
X118942982Y-82750771D01*
X118942982Y-82750771D02*
X118895363Y-82846009D01*
X118895363Y-82846009D02*
X118895363Y-82941247D01*
X118895363Y-82941247D02*
X119371553Y-83036485D01*
X118038220Y-83369819D02*
X118038220Y-82369819D01*
X118038220Y-83322200D02*
X118133458Y-83369819D01*
X118133458Y-83369819D02*
X118323934Y-83369819D01*
X118323934Y-83369819D02*
X118419172Y-83322200D01*
X118419172Y-83322200D02*
X118466791Y-83274580D01*
X118466791Y-83274580D02*
X118514410Y-83179342D01*
X118514410Y-83179342D02*
X118514410Y-82893628D01*
X118514410Y-82893628D02*
X118466791Y-82798390D01*
X118466791Y-82798390D02*
X118419172Y-82750771D01*
X118419172Y-82750771D02*
X118323934Y-82703152D01*
X118323934Y-82703152D02*
X118133458Y-82703152D01*
X118133458Y-82703152D02*
X118038220Y-82750771D01*
X116371553Y-82703152D02*
X116371553Y-83369819D01*
X116800124Y-82703152D02*
X116800124Y-83226961D01*
X116800124Y-83226961D02*
X116752505Y-83322200D01*
X116752505Y-83322200D02*
X116657267Y-83369819D01*
X116657267Y-83369819D02*
X116514410Y-83369819D01*
X116514410Y-83369819D02*
X116419172Y-83322200D01*
X116419172Y-83322200D02*
X116371553Y-83274580D01*
X115895362Y-82703152D02*
X115895362Y-83369819D01*
X115895362Y-82798390D02*
X115847743Y-82750771D01*
X115847743Y-82750771D02*
X115752505Y-82703152D01*
X115752505Y-82703152D02*
X115609648Y-82703152D01*
X115609648Y-82703152D02*
X115514410Y-82750771D01*
X115514410Y-82750771D02*
X115466791Y-82846009D01*
X115466791Y-82846009D02*
X115466791Y-83369819D01*
X114562029Y-83369819D02*
X114562029Y-82369819D01*
X114562029Y-83322200D02*
X114657267Y-83369819D01*
X114657267Y-83369819D02*
X114847743Y-83369819D01*
X114847743Y-83369819D02*
X114942981Y-83322200D01*
X114942981Y-83322200D02*
X114990600Y-83274580D01*
X114990600Y-83274580D02*
X115038219Y-83179342D01*
X115038219Y-83179342D02*
X115038219Y-82893628D01*
X115038219Y-82893628D02*
X114990600Y-82798390D01*
X114990600Y-82798390D02*
X114942981Y-82750771D01*
X114942981Y-82750771D02*
X114847743Y-82703152D01*
X114847743Y-82703152D02*
X114657267Y-82703152D01*
X114657267Y-82703152D02*
X114562029Y-82750771D01*
X113704886Y-83322200D02*
X113800124Y-83369819D01*
X113800124Y-83369819D02*
X113990600Y-83369819D01*
X113990600Y-83369819D02*
X114085838Y-83322200D01*
X114085838Y-83322200D02*
X114133457Y-83226961D01*
X114133457Y-83226961D02*
X114133457Y-82846009D01*
X114133457Y-82846009D02*
X114085838Y-82750771D01*
X114085838Y-82750771D02*
X113990600Y-82703152D01*
X113990600Y-82703152D02*
X113800124Y-82703152D01*
X113800124Y-82703152D02*
X113704886Y-82750771D01*
X113704886Y-82750771D02*
X113657267Y-82846009D01*
X113657267Y-82846009D02*
X113657267Y-82941247D01*
X113657267Y-82941247D02*
X114133457Y-83036485D01*
X113228695Y-83369819D02*
X113228695Y-82703152D01*
X113228695Y-82893628D02*
X113181076Y-82798390D01*
X113181076Y-82798390D02*
X113133457Y-82750771D01*
X113133457Y-82750771D02*
X113038219Y-82703152D01*
X113038219Y-82703152D02*
X112942981Y-82703152D01*
X111276314Y-83274580D02*
X111323933Y-83322200D01*
X111323933Y-83322200D02*
X111466790Y-83369819D01*
X111466790Y-83369819D02*
X111562028Y-83369819D01*
X111562028Y-83369819D02*
X111704885Y-83322200D01*
X111704885Y-83322200D02*
X111800123Y-83226961D01*
X111800123Y-83226961D02*
X111847742Y-83131723D01*
X111847742Y-83131723D02*
X111895361Y-82941247D01*
X111895361Y-82941247D02*
X111895361Y-82798390D01*
X111895361Y-82798390D02*
X111847742Y-82607914D01*
X111847742Y-82607914D02*
X111800123Y-82512676D01*
X111800123Y-82512676D02*
X111704885Y-82417438D01*
X111704885Y-82417438D02*
X111562028Y-82369819D01*
X111562028Y-82369819D02*
X111466790Y-82369819D01*
X111466790Y-82369819D02*
X111323933Y-82417438D01*
X111323933Y-82417438D02*
X111276314Y-82465057D01*
X110847742Y-82846009D02*
X110514409Y-82846009D01*
X110371552Y-83369819D02*
X110847742Y-83369819D01*
X110847742Y-83369819D02*
X110847742Y-82369819D01*
X110847742Y-82369819D02*
X110371552Y-82369819D01*
X109371552Y-83369819D02*
X109704885Y-82893628D01*
X109942980Y-83369819D02*
X109942980Y-82369819D01*
X109942980Y-82369819D02*
X109562028Y-82369819D01*
X109562028Y-82369819D02*
X109466790Y-82417438D01*
X109466790Y-82417438D02*
X109419171Y-82465057D01*
X109419171Y-82465057D02*
X109371552Y-82560295D01*
X109371552Y-82560295D02*
X109371552Y-82703152D01*
X109371552Y-82703152D02*
X109419171Y-82798390D01*
X109419171Y-82798390D02*
X109466790Y-82846009D01*
X109466790Y-82846009D02*
X109562028Y-82893628D01*
X109562028Y-82893628D02*
X109942980Y-82893628D01*
X108942980Y-83369819D02*
X108942980Y-82369819D01*
X108942980Y-82369819D02*
X108371552Y-83369819D01*
X108371552Y-83369819D02*
X108371552Y-82369819D01*
X107895361Y-82988866D02*
X107133457Y-82988866D01*
X106466790Y-82369819D02*
X106276314Y-82369819D01*
X106276314Y-82369819D02*
X106181076Y-82417438D01*
X106181076Y-82417438D02*
X106085838Y-82512676D01*
X106085838Y-82512676D02*
X106038219Y-82703152D01*
X106038219Y-82703152D02*
X106038219Y-83036485D01*
X106038219Y-83036485D02*
X106085838Y-83226961D01*
X106085838Y-83226961D02*
X106181076Y-83322200D01*
X106181076Y-83322200D02*
X106276314Y-83369819D01*
X106276314Y-83369819D02*
X106466790Y-83369819D01*
X106466790Y-83369819D02*
X106562028Y-83322200D01*
X106562028Y-83322200D02*
X106657266Y-83226961D01*
X106657266Y-83226961D02*
X106704885Y-83036485D01*
X106704885Y-83036485D02*
X106704885Y-82703152D01*
X106704885Y-82703152D02*
X106657266Y-82512676D01*
X106657266Y-82512676D02*
X106562028Y-82417438D01*
X106562028Y-82417438D02*
X106466790Y-82369819D01*
X105609647Y-83369819D02*
X105609647Y-82369819D01*
X105609647Y-82846009D02*
X105038219Y-82846009D01*
X105038219Y-83369819D02*
X105038219Y-82369819D01*
X104085838Y-83369819D02*
X104562028Y-83369819D01*
X104562028Y-83369819D02*
X104562028Y-82369819D01*
X103752504Y-82988866D02*
X102990600Y-82988866D01*
X102514409Y-83369819D02*
X102514409Y-82369819D01*
X102514409Y-82369819D02*
X102133457Y-82369819D01*
X102133457Y-82369819D02*
X102038219Y-82417438D01*
X102038219Y-82417438D02*
X101990600Y-82465057D01*
X101990600Y-82465057D02*
X101942981Y-82560295D01*
X101942981Y-82560295D02*
X101942981Y-82703152D01*
X101942981Y-82703152D02*
X101990600Y-82798390D01*
X101990600Y-82798390D02*
X102038219Y-82846009D01*
X102038219Y-82846009D02*
X102133457Y-82893628D01*
X102133457Y-82893628D02*
X102514409Y-82893628D01*
X100847742Y-82703152D02*
X100609647Y-83369819D01*
X100609647Y-83369819D02*
X100371552Y-82703152D01*
X100038218Y-82465057D02*
X99990599Y-82417438D01*
X99990599Y-82417438D02*
X99895361Y-82369819D01*
X99895361Y-82369819D02*
X99657266Y-82369819D01*
X99657266Y-82369819D02*
X99562028Y-82417438D01*
X99562028Y-82417438D02*
X99514409Y-82465057D01*
X99514409Y-82465057D02*
X99466790Y-82560295D01*
X99466790Y-82560295D02*
X99466790Y-82655533D01*
X99466790Y-82655533D02*
X99514409Y-82798390D01*
X99514409Y-82798390D02*
X100085837Y-83369819D01*
X100085837Y-83369819D02*
X99466790Y-83369819D01*
X114533332Y-73279819D02*
X114533332Y-72279819D01*
X114533332Y-72279819D02*
X114295237Y-72279819D01*
X114295237Y-72279819D02*
X114152380Y-72327438D01*
X114152380Y-72327438D02*
X114057142Y-72422676D01*
X114057142Y-72422676D02*
X114009523Y-72517914D01*
X114009523Y-72517914D02*
X113961904Y-72708390D01*
X113961904Y-72708390D02*
X113961904Y-72851247D01*
X113961904Y-72851247D02*
X114009523Y-73041723D01*
X114009523Y-73041723D02*
X114057142Y-73136961D01*
X114057142Y-73136961D02*
X114152380Y-73232200D01*
X114152380Y-73232200D02*
X114295237Y-73279819D01*
X114295237Y-73279819D02*
X114533332Y-73279819D01*
X113533332Y-72756009D02*
X113199999Y-72756009D01*
X113057142Y-73279819D02*
X113533332Y-73279819D01*
X113533332Y-73279819D02*
X113533332Y-72279819D01*
X113533332Y-72279819D02*
X113057142Y-72279819D01*
X112676189Y-73232200D02*
X112533332Y-73279819D01*
X112533332Y-73279819D02*
X112295237Y-73279819D01*
X112295237Y-73279819D02*
X112199999Y-73232200D01*
X112199999Y-73232200D02*
X112152380Y-73184580D01*
X112152380Y-73184580D02*
X112104761Y-73089342D01*
X112104761Y-73089342D02*
X112104761Y-72994104D01*
X112104761Y-72994104D02*
X112152380Y-72898866D01*
X112152380Y-72898866D02*
X112199999Y-72851247D01*
X112199999Y-72851247D02*
X112295237Y-72803628D01*
X112295237Y-72803628D02*
X112485713Y-72756009D01*
X112485713Y-72756009D02*
X112580951Y-72708390D01*
X112580951Y-72708390D02*
X112628570Y-72660771D01*
X112628570Y-72660771D02*
X112676189Y-72565533D01*
X112676189Y-72565533D02*
X112676189Y-72470295D01*
X112676189Y-72470295D02*
X112628570Y-72375057D01*
X112628570Y-72375057D02*
X112580951Y-72327438D01*
X112580951Y-72327438D02*
X112485713Y-72279819D01*
X112485713Y-72279819D02*
X112247618Y-72279819D01*
X112247618Y-72279819D02*
X112104761Y-72327438D01*
X111676189Y-73279819D02*
X111676189Y-72279819D01*
X110676190Y-72327438D02*
X110771428Y-72279819D01*
X110771428Y-72279819D02*
X110914285Y-72279819D01*
X110914285Y-72279819D02*
X111057142Y-72327438D01*
X111057142Y-72327438D02*
X111152380Y-72422676D01*
X111152380Y-72422676D02*
X111199999Y-72517914D01*
X111199999Y-72517914D02*
X111247618Y-72708390D01*
X111247618Y-72708390D02*
X111247618Y-72851247D01*
X111247618Y-72851247D02*
X111199999Y-73041723D01*
X111199999Y-73041723D02*
X111152380Y-73136961D01*
X111152380Y-73136961D02*
X111057142Y-73232200D01*
X111057142Y-73232200D02*
X110914285Y-73279819D01*
X110914285Y-73279819D02*
X110819047Y-73279819D01*
X110819047Y-73279819D02*
X110676190Y-73232200D01*
X110676190Y-73232200D02*
X110628571Y-73184580D01*
X110628571Y-73184580D02*
X110628571Y-72851247D01*
X110628571Y-72851247D02*
X110819047Y-72851247D01*
X110199999Y-73279819D02*
X110199999Y-72279819D01*
X110199999Y-72279819D02*
X109628571Y-73279819D01*
X109628571Y-73279819D02*
X109628571Y-72279819D01*
X108057142Y-72756009D02*
X108390475Y-72756009D01*
X108390475Y-73279819D02*
X108390475Y-72279819D01*
X108390475Y-72279819D02*
X107914285Y-72279819D01*
X107533332Y-73279819D02*
X107533332Y-72279819D01*
X106580952Y-73279819D02*
X107057142Y-73279819D01*
X107057142Y-73279819D02*
X107057142Y-72279819D01*
X106247618Y-72756009D02*
X105914285Y-72756009D01*
X105771428Y-73279819D02*
X106247618Y-73279819D01*
X106247618Y-73279819D02*
X106247618Y-72279819D01*
X106247618Y-72279819D02*
X105771428Y-72279819D01*
X105390475Y-73232200D02*
X105247618Y-73279819D01*
X105247618Y-73279819D02*
X105009523Y-73279819D01*
X105009523Y-73279819D02*
X104914285Y-73232200D01*
X104914285Y-73232200D02*
X104866666Y-73184580D01*
X104866666Y-73184580D02*
X104819047Y-73089342D01*
X104819047Y-73089342D02*
X104819047Y-72994104D01*
X104819047Y-72994104D02*
X104866666Y-72898866D01*
X104866666Y-72898866D02*
X104914285Y-72851247D01*
X104914285Y-72851247D02*
X105009523Y-72803628D01*
X105009523Y-72803628D02*
X105199999Y-72756009D01*
X105199999Y-72756009D02*
X105295237Y-72708390D01*
X105295237Y-72708390D02*
X105342856Y-72660771D01*
X105342856Y-72660771D02*
X105390475Y-72565533D01*
X105390475Y-72565533D02*
X105390475Y-72470295D01*
X105390475Y-72470295D02*
X105342856Y-72375057D01*
X105342856Y-72375057D02*
X105295237Y-72327438D01*
X105295237Y-72327438D02*
X105199999Y-72279819D01*
X105199999Y-72279819D02*
X104961904Y-72279819D01*
X104961904Y-72279819D02*
X104819047Y-72327438D01*
X102342918Y-79734580D02*
X102390537Y-79782200D01*
X102390537Y-79782200D02*
X102533394Y-79829819D01*
X102533394Y-79829819D02*
X102628632Y-79829819D01*
X102628632Y-79829819D02*
X102771489Y-79782200D01*
X102771489Y-79782200D02*
X102866727Y-79686961D01*
X102866727Y-79686961D02*
X102914346Y-79591723D01*
X102914346Y-79591723D02*
X102961965Y-79401247D01*
X102961965Y-79401247D02*
X102961965Y-79258390D01*
X102961965Y-79258390D02*
X102914346Y-79067914D01*
X102914346Y-79067914D02*
X102866727Y-78972676D01*
X102866727Y-78972676D02*
X102771489Y-78877438D01*
X102771489Y-78877438D02*
X102628632Y-78829819D01*
X102628632Y-78829819D02*
X102533394Y-78829819D01*
X102533394Y-78829819D02*
X102390537Y-78877438D01*
X102390537Y-78877438D02*
X102342918Y-78925057D01*
X101866727Y-79829819D02*
X101676251Y-79829819D01*
X101676251Y-79829819D02*
X101581013Y-79782200D01*
X101581013Y-79782200D02*
X101533394Y-79734580D01*
X101533394Y-79734580D02*
X101438156Y-79591723D01*
X101438156Y-79591723D02*
X101390537Y-79401247D01*
X101390537Y-79401247D02*
X101390537Y-79020295D01*
X101390537Y-79020295D02*
X101438156Y-78925057D01*
X101438156Y-78925057D02*
X101485775Y-78877438D01*
X101485775Y-78877438D02*
X101581013Y-78829819D01*
X101581013Y-78829819D02*
X101771489Y-78829819D01*
X101771489Y-78829819D02*
X101866727Y-78877438D01*
X101866727Y-78877438D02*
X101914346Y-78925057D01*
X101914346Y-78925057D02*
X101961965Y-79020295D01*
X101961965Y-79020295D02*
X101961965Y-79258390D01*
X101961965Y-79258390D02*
X101914346Y-79353628D01*
X101914346Y-79353628D02*
X101866727Y-79401247D01*
X101866727Y-79401247D02*
X101771489Y-79448866D01*
X101771489Y-79448866D02*
X101581013Y-79448866D01*
X101581013Y-79448866D02*
X101485775Y-79401247D01*
X101485775Y-79401247D02*
X101438156Y-79353628D01*
X101438156Y-79353628D02*
X101390537Y-79258390D01*
X119971666Y-69709580D02*
X120019285Y-69757200D01*
X120019285Y-69757200D02*
X120162142Y-69804819D01*
X120162142Y-69804819D02*
X120257380Y-69804819D01*
X120257380Y-69804819D02*
X120400237Y-69757200D01*
X120400237Y-69757200D02*
X120495475Y-69661961D01*
X120495475Y-69661961D02*
X120543094Y-69566723D01*
X120543094Y-69566723D02*
X120590713Y-69376247D01*
X120590713Y-69376247D02*
X120590713Y-69233390D01*
X120590713Y-69233390D02*
X120543094Y-69042914D01*
X120543094Y-69042914D02*
X120495475Y-68947676D01*
X120495475Y-68947676D02*
X120400237Y-68852438D01*
X120400237Y-68852438D02*
X120257380Y-68804819D01*
X120257380Y-68804819D02*
X120162142Y-68804819D01*
X120162142Y-68804819D02*
X120019285Y-68852438D01*
X120019285Y-68852438D02*
X119971666Y-68900057D01*
X119638332Y-68804819D02*
X119019285Y-68804819D01*
X119019285Y-68804819D02*
X119352618Y-69185771D01*
X119352618Y-69185771D02*
X119209761Y-69185771D01*
X119209761Y-69185771D02*
X119114523Y-69233390D01*
X119114523Y-69233390D02*
X119066904Y-69281009D01*
X119066904Y-69281009D02*
X119019285Y-69376247D01*
X119019285Y-69376247D02*
X119019285Y-69614342D01*
X119019285Y-69614342D02*
X119066904Y-69709580D01*
X119066904Y-69709580D02*
X119114523Y-69757200D01*
X119114523Y-69757200D02*
X119209761Y-69804819D01*
X119209761Y-69804819D02*
X119495475Y-69804819D01*
X119495475Y-69804819D02*
X119590713Y-69757200D01*
X119590713Y-69757200D02*
X119638332Y-69709580D01*
X92041666Y-71079819D02*
X92374999Y-70603628D01*
X92613094Y-71079819D02*
X92613094Y-70079819D01*
X92613094Y-70079819D02*
X92232142Y-70079819D01*
X92232142Y-70079819D02*
X92136904Y-70127438D01*
X92136904Y-70127438D02*
X92089285Y-70175057D01*
X92089285Y-70175057D02*
X92041666Y-70270295D01*
X92041666Y-70270295D02*
X92041666Y-70413152D01*
X92041666Y-70413152D02*
X92089285Y-70508390D01*
X92089285Y-70508390D02*
X92136904Y-70556009D01*
X92136904Y-70556009D02*
X92232142Y-70603628D01*
X92232142Y-70603628D02*
X92613094Y-70603628D01*
X91136904Y-70079819D02*
X91613094Y-70079819D01*
X91613094Y-70079819D02*
X91660713Y-70556009D01*
X91660713Y-70556009D02*
X91613094Y-70508390D01*
X91613094Y-70508390D02*
X91517856Y-70460771D01*
X91517856Y-70460771D02*
X91279761Y-70460771D01*
X91279761Y-70460771D02*
X91184523Y-70508390D01*
X91184523Y-70508390D02*
X91136904Y-70556009D01*
X91136904Y-70556009D02*
X91089285Y-70651247D01*
X91089285Y-70651247D02*
X91089285Y-70889342D01*
X91089285Y-70889342D02*
X91136904Y-70984580D01*
X91136904Y-70984580D02*
X91184523Y-71032200D01*
X91184523Y-71032200D02*
X91279761Y-71079819D01*
X91279761Y-71079819D02*
X91517856Y-71079819D01*
X91517856Y-71079819D02*
X91613094Y-71032200D01*
X91613094Y-71032200D02*
X91660713Y-70984580D01*
X89933094Y-81984819D02*
X89933094Y-80984819D01*
X89933094Y-80984819D02*
X89694999Y-80984819D01*
X89694999Y-80984819D02*
X89552142Y-81032438D01*
X89552142Y-81032438D02*
X89456904Y-81127676D01*
X89456904Y-81127676D02*
X89409285Y-81222914D01*
X89409285Y-81222914D02*
X89361666Y-81413390D01*
X89361666Y-81413390D02*
X89361666Y-81556247D01*
X89361666Y-81556247D02*
X89409285Y-81746723D01*
X89409285Y-81746723D02*
X89456904Y-81841961D01*
X89456904Y-81841961D02*
X89552142Y-81937200D01*
X89552142Y-81937200D02*
X89694999Y-81984819D01*
X89694999Y-81984819D02*
X89933094Y-81984819D01*
X88409285Y-81984819D02*
X88980713Y-81984819D01*
X88694999Y-81984819D02*
X88694999Y-80984819D01*
X88694999Y-80984819D02*
X88790237Y-81127676D01*
X88790237Y-81127676D02*
X88885475Y-81222914D01*
X88885475Y-81222914D02*
X88980713Y-81270533D01*
X95154999Y-74284819D02*
X95154999Y-74522914D01*
X95393094Y-74427676D02*
X95154999Y-74522914D01*
X95154999Y-74522914D02*
X94916904Y-74427676D01*
X95297856Y-74713390D02*
X95154999Y-74522914D01*
X95154999Y-74522914D02*
X95012142Y-74713390D01*
X88791666Y-64984580D02*
X88839285Y-65032200D01*
X88839285Y-65032200D02*
X88982142Y-65079819D01*
X88982142Y-65079819D02*
X89077380Y-65079819D01*
X89077380Y-65079819D02*
X89220237Y-65032200D01*
X89220237Y-65032200D02*
X89315475Y-64936961D01*
X89315475Y-64936961D02*
X89363094Y-64841723D01*
X89363094Y-64841723D02*
X89410713Y-64651247D01*
X89410713Y-64651247D02*
X89410713Y-64508390D01*
X89410713Y-64508390D02*
X89363094Y-64317914D01*
X89363094Y-64317914D02*
X89315475Y-64222676D01*
X89315475Y-64222676D02*
X89220237Y-64127438D01*
X89220237Y-64127438D02*
X89077380Y-64079819D01*
X89077380Y-64079819D02*
X88982142Y-64079819D01*
X88982142Y-64079819D02*
X88839285Y-64127438D01*
X88839285Y-64127438D02*
X88791666Y-64175057D01*
X87839285Y-65079819D02*
X88410713Y-65079819D01*
X88124999Y-65079819D02*
X88124999Y-64079819D01*
X88124999Y-64079819D02*
X88220237Y-64222676D01*
X88220237Y-64222676D02*
X88315475Y-64317914D01*
X88315475Y-64317914D02*
X88410713Y-64365533D01*
X98367857Y-75784819D02*
X98701190Y-75308628D01*
X98939285Y-75784819D02*
X98939285Y-74784819D01*
X98939285Y-74784819D02*
X98558333Y-74784819D01*
X98558333Y-74784819D02*
X98463095Y-74832438D01*
X98463095Y-74832438D02*
X98415476Y-74880057D01*
X98415476Y-74880057D02*
X98367857Y-74975295D01*
X98367857Y-74975295D02*
X98367857Y-75118152D01*
X98367857Y-75118152D02*
X98415476Y-75213390D01*
X98415476Y-75213390D02*
X98463095Y-75261009D01*
X98463095Y-75261009D02*
X98558333Y-75308628D01*
X98558333Y-75308628D02*
X98939285Y-75308628D01*
X97415476Y-75784819D02*
X97986904Y-75784819D01*
X97701190Y-75784819D02*
X97701190Y-74784819D01*
X97701190Y-74784819D02*
X97796428Y-74927676D01*
X97796428Y-74927676D02*
X97891666Y-75022914D01*
X97891666Y-75022914D02*
X97986904Y-75070533D01*
X96558333Y-74784819D02*
X96748809Y-74784819D01*
X96748809Y-74784819D02*
X96844047Y-74832438D01*
X96844047Y-74832438D02*
X96891666Y-74880057D01*
X96891666Y-74880057D02*
X96986904Y-75022914D01*
X96986904Y-75022914D02*
X97034523Y-75213390D01*
X97034523Y-75213390D02*
X97034523Y-75594342D01*
X97034523Y-75594342D02*
X96986904Y-75689580D01*
X96986904Y-75689580D02*
X96939285Y-75737200D01*
X96939285Y-75737200D02*
X96844047Y-75784819D01*
X96844047Y-75784819D02*
X96653571Y-75784819D01*
X96653571Y-75784819D02*
X96558333Y-75737200D01*
X96558333Y-75737200D02*
X96510714Y-75689580D01*
X96510714Y-75689580D02*
X96463095Y-75594342D01*
X96463095Y-75594342D02*
X96463095Y-75356247D01*
X96463095Y-75356247D02*
X96510714Y-75261009D01*
X96510714Y-75261009D02*
X96558333Y-75213390D01*
X96558333Y-75213390D02*
X96653571Y-75165771D01*
X96653571Y-75165771D02*
X96844047Y-75165771D01*
X96844047Y-75165771D02*
X96939285Y-75213390D01*
X96939285Y-75213390D02*
X96986904Y-75261009D01*
X96986904Y-75261009D02*
X97034523Y-75356247D01*
X86791666Y-65079819D02*
X87124999Y-64603628D01*
X87363094Y-65079819D02*
X87363094Y-64079819D01*
X87363094Y-64079819D02*
X86982142Y-64079819D01*
X86982142Y-64079819D02*
X86886904Y-64127438D01*
X86886904Y-64127438D02*
X86839285Y-64175057D01*
X86839285Y-64175057D02*
X86791666Y-64270295D01*
X86791666Y-64270295D02*
X86791666Y-64413152D01*
X86791666Y-64413152D02*
X86839285Y-64508390D01*
X86839285Y-64508390D02*
X86886904Y-64556009D01*
X86886904Y-64556009D02*
X86982142Y-64603628D01*
X86982142Y-64603628D02*
X87363094Y-64603628D01*
X85934523Y-64079819D02*
X86124999Y-64079819D01*
X86124999Y-64079819D02*
X86220237Y-64127438D01*
X86220237Y-64127438D02*
X86267856Y-64175057D01*
X86267856Y-64175057D02*
X86363094Y-64317914D01*
X86363094Y-64317914D02*
X86410713Y-64508390D01*
X86410713Y-64508390D02*
X86410713Y-64889342D01*
X86410713Y-64889342D02*
X86363094Y-64984580D01*
X86363094Y-64984580D02*
X86315475Y-65032200D01*
X86315475Y-65032200D02*
X86220237Y-65079819D01*
X86220237Y-65079819D02*
X86029761Y-65079819D01*
X86029761Y-65079819D02*
X85934523Y-65032200D01*
X85934523Y-65032200D02*
X85886904Y-64984580D01*
X85886904Y-64984580D02*
X85839285Y-64889342D01*
X85839285Y-64889342D02*
X85839285Y-64651247D01*
X85839285Y-64651247D02*
X85886904Y-64556009D01*
X85886904Y-64556009D02*
X85934523Y-64508390D01*
X85934523Y-64508390D02*
X86029761Y-64460771D01*
X86029761Y-64460771D02*
X86220237Y-64460771D01*
X86220237Y-64460771D02*
X86315475Y-64508390D01*
X86315475Y-64508390D02*
X86363094Y-64556009D01*
X86363094Y-64556009D02*
X86410713Y-64651247D01*
X84258333Y-78364819D02*
X84258333Y-79079104D01*
X84258333Y-79079104D02*
X84305952Y-79221961D01*
X84305952Y-79221961D02*
X84401190Y-79317200D01*
X84401190Y-79317200D02*
X84544047Y-79364819D01*
X84544047Y-79364819D02*
X84639285Y-79364819D01*
X83829761Y-78460057D02*
X83782142Y-78412438D01*
X83782142Y-78412438D02*
X83686904Y-78364819D01*
X83686904Y-78364819D02*
X83448809Y-78364819D01*
X83448809Y-78364819D02*
X83353571Y-78412438D01*
X83353571Y-78412438D02*
X83305952Y-78460057D01*
X83305952Y-78460057D02*
X83258333Y-78555295D01*
X83258333Y-78555295D02*
X83258333Y-78650533D01*
X83258333Y-78650533D02*
X83305952Y-78793390D01*
X83305952Y-78793390D02*
X83877380Y-79364819D01*
X83877380Y-79364819D02*
X83258333Y-79364819D01*
X98142857Y-81204819D02*
X98476190Y-80728628D01*
X98714285Y-81204819D02*
X98714285Y-80204819D01*
X98714285Y-80204819D02*
X98333333Y-80204819D01*
X98333333Y-80204819D02*
X98238095Y-80252438D01*
X98238095Y-80252438D02*
X98190476Y-80300057D01*
X98190476Y-80300057D02*
X98142857Y-80395295D01*
X98142857Y-80395295D02*
X98142857Y-80538152D01*
X98142857Y-80538152D02*
X98190476Y-80633390D01*
X98190476Y-80633390D02*
X98238095Y-80681009D01*
X98238095Y-80681009D02*
X98333333Y-80728628D01*
X98333333Y-80728628D02*
X98714285Y-80728628D01*
X97190476Y-81204819D02*
X97761904Y-81204819D01*
X97476190Y-81204819D02*
X97476190Y-80204819D01*
X97476190Y-80204819D02*
X97571428Y-80347676D01*
X97571428Y-80347676D02*
X97666666Y-80442914D01*
X97666666Y-80442914D02*
X97761904Y-80490533D01*
X96857142Y-80204819D02*
X96190476Y-80204819D01*
X96190476Y-80204819D02*
X96619047Y-81204819D01*
D11*
%TO.C,REF\u002A\u002A*%
X116070633Y-77866424D02*
X116070633Y-77763712D01*
X116173056Y-77959668D02*
X116082678Y-78036845D01*
X116457079Y-77763712D02*
X116195146Y-77763712D01*
X116457079Y-77866424D02*
X116070633Y-77866424D01*
X116710642Y-77691413D02*
X116618539Y-77609356D01*
X116710642Y-77947046D02*
X116618539Y-78029672D01*
X116749933Y-78854093D02*
X116749933Y-78751380D01*
X116843301Y-75428552D02*
X116843301Y-74860469D01*
X116852356Y-78947336D02*
X116761978Y-79024514D01*
X116867619Y-74831012D02*
X117424987Y-74723481D01*
X116867619Y-75458009D02*
X117424987Y-75565540D01*
X117136379Y-78751380D02*
X116874446Y-78751380D01*
X117136379Y-78854093D02*
X116749933Y-78854093D01*
X117201111Y-77657270D02*
X117111027Y-77549679D01*
X117319450Y-73740199D02*
X117637531Y-74210353D01*
X117319450Y-76548822D02*
X117637531Y-76078668D01*
X117323082Y-73702175D02*
X117724778Y-73300480D01*
X117323082Y-76586846D02*
X117724778Y-76988542D01*
X117359238Y-78644939D02*
X117269155Y-78537347D01*
X117404527Y-77575216D02*
X117402230Y-77575216D01*
X117404527Y-77575216D02*
X117404527Y-77508939D01*
X117404527Y-78129517D02*
X117404527Y-77756541D01*
X117447019Y-74705506D02*
X117640399Y-74238644D01*
X117447019Y-75583515D02*
X117640399Y-76050377D01*
X117529332Y-77508939D02*
X117404527Y-77508939D01*
X117529332Y-78129517D02*
X117404527Y-78129517D01*
X117529332Y-78129517D02*
X117529332Y-77508939D01*
X117562652Y-78562885D02*
X117560358Y-78562885D01*
X117562652Y-78562885D02*
X117562652Y-78496608D01*
X117562652Y-79117186D02*
X117562652Y-78744208D01*
X117671029Y-78129517D02*
X117671029Y-77508939D01*
X117687460Y-78496608D02*
X117562652Y-78496608D01*
X117687460Y-79117186D02*
X117562652Y-79117186D01*
X117687460Y-79117186D02*
X117687460Y-78496608D01*
X117762802Y-73296847D02*
X118232956Y-73614929D01*
X117762802Y-76992176D02*
X118232956Y-76674095D01*
X117795836Y-77508939D02*
X117671029Y-77508939D01*
X117795836Y-77879048D02*
X117795836Y-77508939D01*
X117795836Y-78129517D02*
X117671029Y-78129517D01*
X117795836Y-78129517D02*
X117795836Y-78063815D01*
X117798407Y-78063815D02*
X117795836Y-78063815D01*
X117834254Y-79119480D02*
X117834254Y-78694573D01*
X117955039Y-78753103D02*
X117955039Y-78687400D01*
X117955039Y-78901431D02*
X117955039Y-78855815D01*
X117955039Y-79119480D02*
X117834254Y-79119480D01*
X117955039Y-79119480D02*
X117955039Y-79064682D01*
X117957627Y-79064682D02*
X117955039Y-79064682D01*
X118041703Y-77879048D02*
X118041703Y-77508939D01*
X118100502Y-78855815D02*
X117955039Y-78855815D01*
X118123161Y-78753103D02*
X117955039Y-78753103D01*
X118166509Y-77508939D02*
X118041703Y-77508939D01*
X118166509Y-77921509D02*
X118166509Y-77508939D01*
X118261246Y-73617797D02*
X118728108Y-73424416D01*
X118261246Y-76671225D02*
X118475025Y-76759774D01*
X118288713Y-78580385D02*
X118193176Y-78655554D01*
X118475045Y-78496608D02*
X118342785Y-78496608D01*
X118514281Y-76743399D02*
X118907859Y-75779466D01*
X118541314Y-79117186D02*
X118342785Y-78496608D01*
X118593811Y-78931268D02*
X118475045Y-78496608D01*
X118596399Y-78931268D02*
X118593811Y-78931268D01*
X118651192Y-79117186D02*
X118541314Y-79117186D01*
X118736703Y-78496608D02*
X118596399Y-78931268D01*
X118746084Y-73402384D02*
X118853615Y-72845017D01*
X118781158Y-78683098D02*
X118651192Y-79117186D01*
X118783472Y-78683098D02*
X118781158Y-78683098D01*
X118827651Y-78496608D02*
X118736703Y-78496608D01*
X118883071Y-72820699D02*
X119451155Y-72820699D01*
X118913144Y-79117186D02*
X118783472Y-78683098D01*
X118960835Y-77677065D02*
X118883660Y-77586117D01*
X118968229Y-78931268D02*
X118827651Y-78496608D01*
X118970526Y-78931268D02*
X118968229Y-78931268D01*
X119023317Y-79117186D02*
X118913144Y-79117186D01*
X119089585Y-78496608D02*
X118970526Y-78931268D01*
X119151341Y-77752810D02*
X119048623Y-77759980D01*
X119179453Y-77868718D02*
X119069573Y-77879048D01*
X119221572Y-78496608D02*
X119023317Y-79117186D01*
X119221572Y-78496608D02*
X119089585Y-78496608D01*
X119296725Y-79117186D02*
X119296725Y-78246139D01*
X119398932Y-78026231D02*
X119311714Y-77939871D01*
X119421533Y-78246139D02*
X119296725Y-78246139D01*
X119421533Y-78562885D02*
X119421533Y-78246139D01*
X119421533Y-79117186D02*
X119296725Y-79117186D01*
X119421533Y-79117186D02*
X119421533Y-79052632D01*
X119426367Y-75779466D02*
X119819945Y-76743399D01*
X119480611Y-72845017D02*
X119588142Y-73402384D01*
X119606118Y-73424416D02*
X120072980Y-73617797D01*
X119744494Y-78129517D02*
X119744494Y-77716945D01*
X119859201Y-76759774D02*
X120072980Y-76671225D01*
X119869302Y-78129517D02*
X119744494Y-78129517D01*
X119869302Y-78129517D02*
X119869302Y-77759980D01*
X119890290Y-78644939D02*
X119800204Y-78537347D01*
X120093703Y-78562885D02*
X120091407Y-78562885D01*
X120093703Y-78562885D02*
X120093703Y-78496608D01*
X120093703Y-79117186D02*
X120093703Y-78744208D01*
X120101270Y-73614929D02*
X120571424Y-73296847D01*
X120101270Y-76674095D02*
X120571424Y-76992176D01*
X120115169Y-77575216D02*
X120112873Y-77575216D01*
X120115169Y-77575216D02*
X120115169Y-77508939D01*
X120115169Y-78129517D02*
X120115169Y-77759980D01*
X120218509Y-78496608D02*
X120093703Y-78496608D01*
X120218509Y-79117186D02*
X120093703Y-79117186D01*
X120218509Y-79117186D02*
X120218509Y-78496608D01*
X120239974Y-77508939D02*
X120115169Y-77508939D01*
X120239974Y-78129517D02*
X120115169Y-78129517D01*
X120239974Y-78129517D02*
X120239974Y-77508939D01*
X120349105Y-77866424D02*
X120349105Y-77763712D01*
X120363370Y-79119480D02*
X120363370Y-78694573D01*
X120451533Y-77959668D02*
X120361158Y-78036845D01*
X120484157Y-78753103D02*
X120484157Y-78687400D01*
X120484157Y-78901431D02*
X120484157Y-78855815D01*
X120484157Y-79119480D02*
X120363370Y-79119480D01*
X120484157Y-79119480D02*
X120484157Y-79064682D01*
X120486746Y-79064682D02*
X120484157Y-79064682D01*
X120609448Y-73300480D02*
X121011144Y-73702175D01*
X120609448Y-76988542D02*
X121011144Y-76586846D01*
X120629621Y-78855815D02*
X120484157Y-78855815D01*
X120652277Y-78753103D02*
X120484157Y-78753103D01*
X120693827Y-74238644D02*
X120887207Y-74705506D01*
X120693827Y-76050377D02*
X120887207Y-75583515D01*
X120696697Y-74210353D02*
X121014779Y-73740199D01*
X120696697Y-76078668D02*
X121014779Y-76548822D01*
X120735569Y-77763712D02*
X120473624Y-77763712D01*
X120735569Y-77866424D02*
X120349105Y-77866424D01*
X120817829Y-78580385D02*
X120722292Y-78655554D01*
X120909242Y-74723481D02*
X121466607Y-74831012D01*
X120909242Y-75565540D02*
X121466607Y-75458009D01*
X120954037Y-79117186D02*
X120954037Y-78704614D01*
X121078842Y-79117186D02*
X120954037Y-79117186D01*
X121078842Y-79117186D02*
X121078842Y-78747649D01*
X121324709Y-78562885D02*
X121322416Y-78562885D01*
X121324709Y-79117186D02*
X121324709Y-78747649D01*
X121324714Y-77574065D02*
X121324714Y-77508939D01*
X121324714Y-78063815D02*
X121324709Y-78562885D01*
X121449517Y-77508939D02*
X121324714Y-77508939D01*
X121449517Y-79117186D02*
X121324709Y-79117186D01*
X121449517Y-79117186D02*
X121449517Y-77508939D01*
X121490925Y-75428552D02*
X121490925Y-74860469D01*
X116070633Y-77763713D02*
G75*
G02*
X116089784Y-77655837I288114J4490D01*
G01*
X116089786Y-77655836D02*
G75*
G02*
X116147240Y-77572634I211088J-84326D01*
G01*
X116131742Y-78083037D02*
G75*
G02*
X116082677Y-78036845I178938J239222D01*
G01*
X116147240Y-77572633D02*
G75*
G02*
X116230217Y-77519484I182871J-194153D01*
G01*
X116186533Y-78113739D02*
G75*
G02*
X116131743Y-78083041I90229J225285D01*
G01*
X116195147Y-77763711D02*
G75*
G02*
X116206440Y-77701918I202529J-5085D01*
G01*
X116206437Y-77701919D02*
G75*
G02*
X116234586Y-77656552I117867J-41717D01*
G01*
X116230216Y-77519484D02*
G75*
G02*
X116325974Y-77501768I93938J-240100D01*
G01*
X116234586Y-77656551D02*
G75*
G02*
X116275734Y-77628687I87572J-85006D01*
G01*
X116236682Y-78004641D02*
G75*
G02*
X116173057Y-77959668I84814J187483D01*
G01*
X116275735Y-77628689D02*
G75*
G02*
X116325973Y-77619400I48697J-122873D01*
G01*
X116307042Y-78136692D02*
G75*
G02*
X116186531Y-78113738I-867J323271D01*
G01*
X116309341Y-78019631D02*
G75*
G02*
X116236682Y-78004640I-1135J178076D01*
G01*
X116325974Y-77501764D02*
G75*
G02*
X116414443Y-77519087I-357J-236391D01*
G01*
X116325974Y-77619401D02*
G75*
G02*
X116376893Y-77628690I1705J-134856D01*
G01*
X116368154Y-78010058D02*
G75*
G02*
X116309340Y-78019634I-56592J162175D01*
G01*
X116376894Y-77628688D02*
G75*
G02*
X116418354Y-77656552I-45603J-112632D01*
G01*
X116401112Y-78121232D02*
G75*
G02*
X116307043Y-78136690I-94328J280073D01*
G01*
X116414442Y-77519090D02*
G75*
G02*
X116499128Y-77571056I-120098J-290704D01*
G01*
X116415489Y-77981328D02*
G75*
G02*
X116368154Y-78010055I-93913J101384D01*
G01*
X116418355Y-77656552D02*
G75*
G02*
X116446394Y-77701919I-88480J-86033D01*
G01*
X116446393Y-77701919D02*
G75*
G02*
X116457079Y-77763712I-187526J-64250D01*
G01*
X116446687Y-77933451D02*
G75*
G02*
X116415488Y-77981327I-112310J39085D01*
G01*
X116457080Y-77866425D02*
G75*
G02*
X116446689Y-77933453I-196221J-3900D01*
G01*
X116492242Y-78074862D02*
G75*
G02*
X116401112Y-78121232I-208633J297289D01*
G01*
X116499127Y-77571057D02*
G75*
G02*
X116535337Y-77612703I-116468J-137830D01*
G01*
X116531463Y-78035853D02*
G75*
G02*
X116492243Y-78074862I-130343J91828D01*
G01*
X116535339Y-77612701D02*
G75*
G02*
X116561191Y-77668350I-208822J-130839D01*
G01*
X116559485Y-77980648D02*
G75*
G02*
X116531464Y-78035853I-210598J72182D01*
G01*
X116561191Y-77668350D02*
G75*
G02*
X116576726Y-77738007I-368731J-118796D01*
G01*
X116576288Y-77909254D02*
G75*
G02*
X116559486Y-77980648I-365450J48331D01*
G01*
X116576724Y-77738007D02*
G75*
G02*
X116581885Y-77821667I-621863J-80352D01*
G01*
X116581886Y-77821666D02*
G75*
G02*
X116576285Y-77909253I-631466J-3592D01*
G01*
X116618539Y-77609356D02*
G75*
G02*
X116715232Y-77532178I261042J-227888D01*
G01*
X116710641Y-77691414D02*
G75*
G02*
X116768591Y-77642781I144230J-113018D01*
G01*
X116715231Y-77532176D02*
G75*
G02*
X116774835Y-77509367I115889J-213556D01*
G01*
X116715232Y-78106561D02*
G75*
G02*
X116618540Y-78029670I161026J301735D01*
G01*
X116749934Y-78751382D02*
G75*
G02*
X116769085Y-78643506I287440J4609D01*
G01*
X116768297Y-77996106D02*
G75*
G02*
X116710642Y-77947046I85796J159234D01*
G01*
X116768591Y-77642779D02*
G75*
G02*
X116836879Y-77626569I67205J-131170D01*
G01*
X116769086Y-78643505D02*
G75*
G02*
X116826540Y-78560303I210651J-84024D01*
G01*
X116774834Y-77509370D02*
G75*
G02*
X116841745Y-77501768I65537J-278569D01*
G01*
X116774835Y-78129161D02*
G75*
G02*
X116715231Y-78106565I56205J238168D01*
G01*
X116811042Y-79070705D02*
G75*
G02*
X116761977Y-79024513I179169J239467D01*
G01*
X116826540Y-78560301D02*
G75*
G02*
X116909517Y-78507152I182993J-194345D01*
G01*
X116836878Y-78012459D02*
G75*
G02*
X116768295Y-77996106I-1247J146763D01*
G01*
X116836879Y-77626569D02*
G75*
G02*
X116907555Y-77638657I3841J-190200D01*
G01*
X116841746Y-77501767D02*
G75*
G02*
X116944187Y-77520235I1274J-286283D01*
G01*
X116841747Y-78136689D02*
G75*
G02*
X116774836Y-78129158I-1354J288983D01*
G01*
X116843301Y-74860468D02*
G75*
G02*
X116867619Y-74831012I30000J-1D01*
G01*
X116865833Y-79101407D02*
G75*
G02*
X116811043Y-79070709I90020J224913D01*
G01*
X116867619Y-75458009D02*
G75*
G02*
X116843301Y-75428553I5682J29457D01*
G01*
X116874447Y-78751380D02*
G75*
G02*
X116885740Y-78689587I202864J-5146D01*
G01*
X116885737Y-78689587D02*
G75*
G02*
X116913886Y-78644220I118102J-41863D01*
G01*
X116907555Y-78000425D02*
G75*
G02*
X116836880Y-78012457I-66697J178187D01*
G01*
X116907556Y-77638656D02*
G75*
G02*
X116958034Y-77674912I-45125J-116093D01*
G01*
X116909516Y-78507153D02*
G75*
G02*
X117005274Y-78489437I93960J-240218D01*
G01*
X116913887Y-78644220D02*
G75*
G02*
X116955035Y-78616356I87691J-85182D01*
G01*
X116915983Y-78992310D02*
G75*
G02*
X116852358Y-78947337I84903J187609D01*
G01*
X116944186Y-77520236D02*
G75*
G02*
X117036271Y-77575646I-113707J-293191D01*
G01*
X116944188Y-78118399D02*
G75*
G02*
X116841747Y-78136690I-101062J269996D01*
G01*
X116955035Y-78616358D02*
G75*
G02*
X117005273Y-78607069I48659J-122668D01*
G01*
X116958033Y-77674915D02*
G75*
G02*
X116988312Y-77735346I-124713J-100289D01*
G01*
X116958035Y-77964331D02*
G75*
G02*
X116907557Y-78000427I-95564J80296D01*
G01*
X116986342Y-79124361D02*
G75*
G02*
X116865831Y-79101407I-877J323218D01*
G01*
X116988312Y-77735345D02*
G75*
G02*
X116998411Y-77819944I-306609J-79504D01*
G01*
X116988314Y-77904171D02*
G75*
G02*
X116958035Y-77964331I-153880J39749D01*
G01*
X116988641Y-79007300D02*
G75*
G02*
X116915982Y-78992309I-1124J178129D01*
G01*
X116998412Y-77819944D02*
G75*
G02*
X116988313Y-77904171I-314062J-5062D01*
G01*
X117005274Y-78607070D02*
G75*
G02*
X117056193Y-78616359I1705J-134856D01*
G01*
X117005275Y-78489433D02*
G75*
G02*
X117093744Y-78506756I-355J-236380D01*
G01*
X117036274Y-77575645D02*
G75*
G02*
X117074321Y-77618617I-132732J-155849D01*
G01*
X117036274Y-78063530D02*
G75*
G02*
X116944188Y-78118402I-204860J239091D01*
G01*
X117047454Y-78997727D02*
G75*
G02*
X116988640Y-79007303I-56581J162111D01*
G01*
X117056194Y-78616357D02*
G75*
G02*
X117097654Y-78644221I-45531J-112524D01*
G01*
X117074318Y-78020867D02*
G75*
G02*
X117036271Y-78063526I-168217J111735D01*
G01*
X117074319Y-77618617D02*
G75*
G02*
X117101477Y-77673659I-208749J-137219D01*
G01*
X117080412Y-79108901D02*
G75*
G02*
X116986343Y-79124359I-94304J279925D01*
G01*
X117093742Y-78506759D02*
G75*
G02*
X117178428Y-78558725I-119984J-290518D01*
G01*
X117094790Y-78968997D02*
G75*
G02*
X117047455Y-78997724I-94120J101725D01*
G01*
X117097655Y-78644221D02*
G75*
G02*
X117125694Y-78689588I-88270J-85904D01*
G01*
X117101477Y-77673659D02*
G75*
G02*
X117117781Y-77740768I-336427J-117269D01*
G01*
X117101478Y-77966054D02*
G75*
G02*
X117074320Y-78020870I-233370J81485D01*
G01*
X117111025Y-77549679D02*
G75*
G02*
X117174154Y-77513745I146828J-184529D01*
G01*
X117117781Y-77899075D02*
G75*
G02*
X117101477Y-77966052I-350916J49949D01*
G01*
X117117782Y-77740769D02*
G75*
G02*
X117123218Y-77819946I-535138J-76516D01*
G01*
X117123214Y-77819944D02*
G75*
G02*
X117117778Y-77899075I-538089J-2788D01*
G01*
X117125693Y-78689588D02*
G75*
G02*
X117136379Y-78751381I-187141J-64183D01*
G01*
X117125983Y-78921120D02*
G75*
G02*
X117094787Y-78968996I-112151J38976D01*
G01*
X117136378Y-78854093D02*
G75*
G02*
X117125984Y-78921121I-196863J-3792D01*
G01*
X117171542Y-79062531D02*
G75*
G02*
X117080412Y-79108901I-208490J297009D01*
G01*
X117174156Y-77513745D02*
G75*
G02*
X117240699Y-77501766I66502J-178603D01*
G01*
X117178427Y-78558725D02*
G75*
G02*
X117214637Y-78600371I-116239J-137631D01*
G01*
X117201111Y-77657270D02*
G75*
G02*
X117242150Y-77634245I99405J-129090D01*
G01*
X117210763Y-79023517D02*
G75*
G02*
X117171543Y-79062529I-129653J91124D01*
G01*
X117214639Y-78600370D02*
G75*
G02*
X117240491Y-78656019I-208457J-130669D01*
G01*
X117238784Y-78968317D02*
G75*
G02*
X117210763Y-79023519I-210148J71960D01*
G01*
X117240491Y-78656019D02*
G75*
G02*
X117256026Y-78725676I-368283J-118696D01*
G01*
X117240700Y-77501766D02*
G75*
G02*
X117332732Y-77520130I3944J-220029D01*
G01*
X117242150Y-77634247D02*
G75*
G02*
X117283740Y-77626571I41963J-110852D01*
G01*
X117255588Y-78896923D02*
G75*
G02*
X117238786Y-78968317I-364833J48186D01*
G01*
X117256025Y-78725676D02*
G75*
G02*
X117261186Y-78809336I-620973J-80297D01*
G01*
X117261186Y-78809335D02*
G75*
G02*
X117255585Y-78896922I-630232J-3671D01*
G01*
X117269153Y-78537348D02*
G75*
G02*
X117332282Y-78501414I146572J-184078D01*
G01*
X117283741Y-77626569D02*
G75*
G02*
X117367086Y-77657412I162J-127592D01*
G01*
X117319449Y-73740199D02*
G75*
G02*
X117323082Y-73702175I24847J16812D01*
G01*
X117323082Y-76586846D02*
G75*
G02*
X117319449Y-76548822I21214J21212D01*
G01*
X117332284Y-78501414D02*
G75*
G02*
X117398827Y-78489435I66581J-179043D01*
G01*
X117332730Y-77520130D02*
G75*
G02*
X117402230Y-77575215I-77688J-169404D01*
G01*
X117359239Y-78644938D02*
G75*
G02*
X117400278Y-78621913I99341J-128976D01*
G01*
X117367085Y-77657413D02*
G75*
G02*
X117395180Y-77697616I-60373J-72108D01*
G01*
X117395178Y-77697617D02*
G75*
G02*
X117404525Y-77756542I-157136J-55130D01*
G01*
X117398828Y-78489435D02*
G75*
G02*
X117490858Y-78507797I3895J-220286D01*
G01*
X117400278Y-78621916D02*
G75*
G02*
X117441868Y-78614240I42032J-111226D01*
G01*
X117424988Y-75565540D02*
G75*
G02*
X117447019Y-75583515I-5680J-29450D01*
G01*
X117441869Y-78614238D02*
G75*
G02*
X117525214Y-78645081I84J-127802D01*
G01*
X117447019Y-74705507D02*
G75*
G02*
X117424988Y-74723482I-27711J11475D01*
G01*
X117490857Y-78507797D02*
G75*
G02*
X117560359Y-78562885I-77706J-169426D01*
G01*
X117525213Y-78645082D02*
G75*
G02*
X117553308Y-78685285I-59942J-71808D01*
G01*
X117553308Y-78685284D02*
G75*
G02*
X117562653Y-78744207I-157861J-55239D01*
G01*
X117637531Y-74210354D02*
G75*
G02*
X117640398Y-74238645I-24852J-16809D01*
G01*
X117640398Y-76050377D02*
G75*
G02*
X117637530Y-76078668I-27715J-11481D01*
G01*
X117724777Y-73300480D02*
G75*
G02*
X117762801Y-73296847I21212J-21214D01*
G01*
X117762802Y-76992175D02*
G75*
G02*
X117724779Y-76988541I-16810J24849D01*
G01*
X117804575Y-77935353D02*
G75*
G02*
X117795835Y-77879048I158987J53510D01*
G01*
X117830833Y-77977458D02*
G75*
G02*
X117804577Y-77935352I79193J78621D01*
G01*
X117834253Y-78694572D02*
G75*
G02*
X117839099Y-78642156I308757J-2113D01*
G01*
X117839100Y-78642158D02*
G75*
G02*
X117852176Y-78597957I204787J-36548D01*
G01*
X117852177Y-78597958D02*
G75*
G02*
X117903111Y-78534194I135459J-55979D01*
G01*
X117867410Y-78118472D02*
G75*
G02*
X117798405Y-78063816I77711J169001D01*
G01*
X117870146Y-78003708D02*
G75*
G02*
X117830832Y-77977457I43658J107948D01*
G01*
X117903111Y-78534191D02*
G75*
G02*
X117983004Y-78500480I136664J-212359D01*
G01*
X117918055Y-78012461D02*
G75*
G02*
X117870148Y-78003711I-1551J127031D01*
G01*
X117955037Y-78687400D02*
G75*
G02*
X117962566Y-78651392I78450J2388D01*
G01*
X117958504Y-78136690D02*
G75*
G02*
X117867412Y-78118471I-3861J217529D01*
G01*
X117962220Y-78958811D02*
G75*
G02*
X117955040Y-78901430I184461J52221D01*
G01*
X117962567Y-78651392D02*
G75*
G02*
X117985740Y-78625999I57466J-29172D01*
G01*
X117967044Y-78003708D02*
G75*
G02*
X117918055Y-78012458I-47392J123824D01*
G01*
X117971180Y-78978034D02*
G75*
G02*
X117962219Y-78958811I63783J41433D01*
G01*
X117983003Y-78500481D02*
G75*
G02*
X118085005Y-78490009I93119J-405015D01*
G01*
X117983739Y-78990948D02*
G75*
G02*
X117971181Y-78978034I27200J39013D01*
G01*
X117985740Y-78626002D02*
G75*
G02*
X118024538Y-78611229I58473J-95233D01*
G01*
X118006705Y-77977458D02*
G75*
G02*
X117967043Y-78003709I-82727J81902D01*
G01*
X118009555Y-79111161D02*
G75*
G02*
X117957628Y-79064682I36882J93451D01*
G01*
X118024538Y-78611229D02*
G75*
G02*
X118078983Y-78607068I46320J-247800D01*
G01*
X118026265Y-79005505D02*
G75*
G02*
X117983738Y-78990946I16110J116447D01*
G01*
X118030593Y-78123026D02*
G75*
G02*
X117958502Y-78136691I-72173J183763D01*
G01*
X118032964Y-77935352D02*
G75*
G02*
X118006705Y-77977458I-105392J36486D01*
G01*
X118041705Y-77879049D02*
G75*
G02*
X118032965Y-77935354I-167325J-2858D01*
G01*
X118052304Y-79122780D02*
G75*
G02*
X118009556Y-79111162I27574J185911D01*
G01*
X118078984Y-78607068D02*
G75*
G02*
X118118425Y-78609506I1667J-293280D01*
G01*
X118085006Y-78490009D02*
G75*
G02*
X118148097Y-78494797I7353J-321173D01*
G01*
X118091322Y-79009596D02*
G75*
G02*
X118026265Y-79005507I-10281J356014D01*
G01*
X118099377Y-78082034D02*
G75*
G02*
X118030594Y-78123025I-163941J196889D01*
G01*
X118100503Y-78855815D02*
G75*
G02*
X118146978Y-78861715I-3438J-213078D01*
G01*
X118106526Y-79126653D02*
G75*
G02*
X118052305Y-79122780I-2582J345329D01*
G01*
X118118423Y-78609507D02*
G75*
G02*
X118150704Y-78616822I-21836J-171247D01*
G01*
X118123161Y-78753103D02*
G75*
G02*
X118208233Y-78767088I1677J-255540D01*
G01*
X118143323Y-79003499D02*
G75*
G02*
X118091322Y-79009598I-48480J188610D01*
G01*
X118146977Y-78861716D02*
G75*
G02*
X118179974Y-78876257I-22488J-95741D01*
G01*
X118148095Y-78494797D02*
G75*
G02*
X118203071Y-78511457I-42163J-238170D01*
G01*
X118149728Y-78014574D02*
G75*
G02*
X118099377Y-78082034I-157447J64995D01*
G01*
X118150706Y-78616822D02*
G75*
G02*
X118193178Y-78655555I-35000J-81031D01*
G01*
X118162321Y-77971241D02*
G75*
G02*
X118149725Y-78014573I-203593J35685D01*
G01*
X118166510Y-77921511D02*
G75*
G02*
X118162324Y-77971244I-279322J-1532D01*
G01*
X118178245Y-78985207D02*
G75*
G02*
X118143323Y-79003497I-55304J63111D01*
G01*
X118179975Y-78876257D02*
G75*
G02*
X118199495Y-78899442I-34001J-48436D01*
G01*
X118196683Y-79111808D02*
G75*
G02*
X118106525Y-79126654I-91717J275804D01*
G01*
X118198704Y-78960248D02*
G75*
G02*
X118178247Y-78985208I-70871J37222D01*
G01*
X118199492Y-78899442D02*
G75*
G02*
X118205515Y-78931268I-65281J-28837D01*
G01*
X118203073Y-78511456D02*
G75*
G02*
X118288715Y-78580384I-87093J-195880D01*
G01*
X118205517Y-78931269D02*
G75*
G02*
X118198705Y-78960248I-63070J-465D01*
G01*
X118208232Y-78767089D02*
G75*
G02*
X118269487Y-78806753I-52228J-147789D01*
G01*
X118232956Y-76674094D02*
G75*
G02*
X118261247Y-76671224I16812J-24846D01*
G01*
X118261246Y-73617796D02*
G75*
G02*
X118232955Y-73614928I-11481J27715D01*
G01*
X118261738Y-79071853D02*
G75*
G02*
X118196681Y-79111805I-119661J121909D01*
G01*
X118269487Y-78806754D02*
G75*
G02*
X118306705Y-78865786I-128950J-122548D01*
G01*
X118280155Y-77818511D02*
G75*
G02*
X118284029Y-77731397I853695J5681D01*
G01*
X118284026Y-77907128D02*
G75*
G02*
X118280149Y-77818512I876274J82728D01*
G01*
X118284028Y-77731399D02*
G75*
G02*
X118295651Y-77669751I316880J-27824D01*
G01*
X118295649Y-77969280D02*
G75*
G02*
X118284026Y-77907129I305231J89244D01*
G01*
X118295651Y-77669749D02*
G75*
G02*
X118347009Y-77581241I226257J-72134D01*
G01*
X118304778Y-79011820D02*
G75*
G02*
X118261738Y-79071855I-159468J68879D01*
G01*
X118306707Y-78865786D02*
G75*
G02*
X118319120Y-78937297I-187544J-69387D01*
G01*
X118319119Y-78937296D02*
G75*
G02*
X118304778Y-79011819I-188523J-2363D01*
G01*
X118347009Y-78057789D02*
G75*
G02*
X118295650Y-77969278I174773J160569D01*
G01*
X118347010Y-77581240D02*
G75*
G02*
X118377749Y-77553732I167419J-156155D01*
G01*
X118377747Y-78085586D02*
G75*
G02*
X118347008Y-78057791I129668J174297D01*
G01*
X118377748Y-77553732D02*
G75*
G02*
X118418309Y-77527446I219494J-294256D01*
G01*
X118404390Y-77819945D02*
G75*
G02*
X118406118Y-77762277I818110J4345D01*
G01*
X118406117Y-77762277D02*
G75*
G02*
X118411276Y-77724693I231347J-12610D01*
G01*
X118406119Y-77877400D02*
G75*
G02*
X118404393Y-77819945I810381J53100D01*
G01*
X118411276Y-77724691D02*
G75*
G02*
X118435091Y-77672187I158578J-40276D01*
G01*
X118411277Y-77914914D02*
G75*
G02*
X118406118Y-77877401I226229J50223D01*
G01*
X118418308Y-78111586D02*
G75*
G02*
X118377747Y-78085586I163058J299014D01*
G01*
X118418310Y-77527445D02*
G75*
G02*
X118470347Y-77508187I90095J-163513D01*
G01*
X118435090Y-77672188D02*
G75*
G02*
X118476554Y-77637974I83525J-58992D01*
G01*
X118435093Y-77966841D02*
G75*
G02*
X118411278Y-77914914I129136J90649D01*
G01*
X118470346Y-77508185D02*
G75*
G02*
X118535513Y-77501764I62377J-299166D01*
G01*
X118470347Y-78130413D02*
G75*
G02*
X118418311Y-78111584I37604J185242D01*
G01*
X118476554Y-77637975D02*
G75*
G02*
X118535512Y-77626570I55818J-130455D01*
G01*
X118476554Y-78001055D02*
G75*
G02*
X118435090Y-77966841I42049J93192D01*
G01*
X118514280Y-76743399D02*
G75*
G02*
X118475025Y-76759774I-27773J11340D01*
G01*
X118535511Y-77501768D02*
G75*
G02*
X118601449Y-77508189I3062J-310332D01*
G01*
X118535511Y-77626569D02*
G75*
G02*
X118594893Y-77637973I3446J-142363D01*
G01*
X118535512Y-78012457D02*
G75*
G02*
X118476554Y-78001052I-3310J140982D01*
G01*
X118535513Y-78136690D02*
G75*
G02*
X118470347Y-78130414I-2873J311624D01*
G01*
X118594894Y-77637974D02*
G75*
G02*
X118635915Y-77672188I-40826J-90647D01*
G01*
X118594894Y-78001055D02*
G75*
G02*
X118535511Y-78012460I-56019J131379D01*
G01*
X118601450Y-77508189D02*
G75*
G02*
X118653563Y-77527447I-36966J-180171D01*
G01*
X118601450Y-78130412D02*
G75*
G02*
X118535512Y-78136688I-63014J312521D01*
G01*
X118635915Y-77672187D02*
G75*
G02*
X118660025Y-77724691I-118613J-86255D01*
G01*
X118635915Y-77966840D02*
G75*
G02*
X118594894Y-78001054I-81749J56316D01*
G01*
X118653563Y-77527446D02*
G75*
G02*
X118693847Y-77553732I-176880J-315084D01*
G01*
X118653564Y-78111585D02*
G75*
G02*
X118601451Y-78130414I-88590J163660D01*
G01*
X118660024Y-77914623D02*
G75*
G02*
X118635914Y-77966840I-137364J31750D01*
G01*
X118660025Y-77724693D02*
G75*
G02*
X118664762Y-77761919I-244919J-50080D01*
G01*
X118664762Y-77876680D02*
G75*
G02*
X118660025Y-77914623I-254562J12514D01*
G01*
X118664763Y-77761917D02*
G75*
G02*
X118666343Y-77818511I-859966J-52328D01*
G01*
X118666344Y-77818511D02*
G75*
G02*
X118664764Y-77876680I-912102J-4331D01*
G01*
X118693849Y-77553732D02*
G75*
G02*
X118724293Y-77581240I-134178J-179099D01*
G01*
X118693849Y-78085585D02*
G75*
G02*
X118653564Y-78111585I-202427J269436D01*
G01*
X118724292Y-77581240D02*
G75*
G02*
X118775798Y-77669749I-176066J-161699D01*
G01*
X118724292Y-78057791D02*
G75*
G02*
X118693848Y-78085586I-158543J143083D01*
G01*
X118746084Y-73402385D02*
G75*
G02*
X118728109Y-73424416I-29450J5680D01*
G01*
X118775799Y-77969278D02*
G75*
G02*
X118724293Y-78057789I-227631J73220D01*
G01*
X118775800Y-77669749D02*
G75*
G02*
X118787515Y-77731397I-301356J-89204D01*
G01*
X118787513Y-77907127D02*
G75*
G02*
X118775799Y-77969278I-313581J26923D01*
G01*
X118787515Y-77731397D02*
G75*
G02*
X118791427Y-77818511I-841454J-81432D01*
G01*
X118791425Y-77818512D02*
G75*
G02*
X118787513Y-77907128I-872368J-5883D01*
G01*
X118853614Y-72845017D02*
G75*
G02*
X118883070Y-72820699I29457J-5682D01*
G01*
X118868730Y-77945896D02*
G75*
G02*
X118879180Y-77877577I216554J1835D01*
G01*
X118879180Y-77877578D02*
G75*
G02*
X118910485Y-77819516I179142J-59117D01*
G01*
X118883659Y-77586118D02*
G75*
G02*
X118987659Y-77524721I240456J-288526D01*
G01*
X118887422Y-78026947D02*
G75*
G02*
X118868730Y-77945896I151919J77716D01*
G01*
X118892628Y-75740873D02*
G75*
G02*
X118907859Y-75779466I-12543J-27252D01*
G01*
X118892628Y-75740875D02*
G75*
G02*
X119441600Y-75740875I274486J596363D01*
G01*
X118910486Y-77819514D02*
G75*
G02*
X118965886Y-77778163I108222J-87204D01*
G01*
X118943482Y-78087054D02*
G75*
G02*
X118887421Y-78026947I88654J138883D01*
G01*
X118960836Y-77677064D02*
G75*
G02*
X119037295Y-77635607I235604J-343286D01*
G01*
X118965886Y-77778165D02*
G75*
G02*
X119003839Y-77766179I81609J-192328D01*
G01*
X118987659Y-77524721D02*
G75*
G02*
X119051522Y-77507505I112587J-290586D01*
G01*
X118993537Y-77939870D02*
G75*
G02*
X118998292Y-77915734I58110J1088D01*
G01*
X118998291Y-77915736D02*
G75*
G02*
X119012541Y-77897551I44243J-19994D01*
G01*
X119002221Y-77974589D02*
G75*
G02*
X118993536Y-77939872I59056J33219D01*
G01*
X119003838Y-77766176D02*
G75*
G02*
X119048623Y-77759978I64241J-299284D01*
G01*
X119012544Y-77897554D02*
G75*
G02*
X119036303Y-77885327I45467J-59153D01*
G01*
X119026424Y-78124279D02*
G75*
G02*
X118943483Y-78087053I73057J273784D01*
G01*
X119028261Y-77999547D02*
G75*
G02*
X119002224Y-77974587I33306J60804D01*
G01*
X119036301Y-77885324D02*
G75*
G02*
X119069572Y-77879048I44376J-143921D01*
G01*
X119037294Y-77635605D02*
G75*
G02*
X119126954Y-77619397I85688J-217917D01*
G01*
X119051523Y-77507503D02*
G75*
G02*
X119126953Y-77501765I72833J-458788D01*
G01*
X119067554Y-78014612D02*
G75*
G02*
X119028260Y-77999550I30048J137177D01*
G01*
X119116047Y-78019633D02*
G75*
G02*
X119067553Y-78014611I-1966J217659D01*
G01*
X119125798Y-78136691D02*
G75*
G02*
X119026423Y-78124281I-3336J377374D01*
G01*
X119126953Y-77619399D02*
G75*
G02*
X119177560Y-77624708I3837J-207291D01*
G01*
X119126955Y-77501767D02*
G75*
G02*
X119217536Y-77513889I3245J-320233D01*
G01*
X119177562Y-77624707D02*
G75*
G02*
X119210007Y-77640629I-15932J-73483D01*
G01*
X119191186Y-77745889D02*
G75*
G02*
X119151341Y-77752811I-49326J165799D01*
G01*
X119210007Y-77640629D02*
G75*
G02*
X119233397Y-77694282I-45937J-51951D01*
G01*
X119216031Y-77732008D02*
G75*
G02*
X119191187Y-77745887I-41331J44808D01*
G01*
X119217535Y-77513887D02*
G75*
G02*
X119291920Y-77550254I-66185J-229633D01*
G01*
X119222053Y-77999693D02*
G75*
G02*
X119116048Y-78019632I-103446J258212D01*
G01*
X119229049Y-77713898D02*
G75*
G02*
X119216030Y-77732007I-56979J27228D01*
G01*
X119233401Y-77694281D02*
G75*
G02*
X119229048Y-77713898I-46431J11D01*
G01*
X119250034Y-77853191D02*
G75*
G02*
X119179453Y-77868718I-86044J222941D01*
G01*
X119271556Y-78109075D02*
G75*
G02*
X119125798Y-78136689I-143216J357455D01*
G01*
X119291920Y-77550253D02*
G75*
G02*
X119341623Y-77610216I-89500J-124767D01*
G01*
X119307416Y-77818080D02*
G75*
G02*
X119250034Y-77853189I-128016J144780D01*
G01*
X119311715Y-77939870D02*
G75*
G02*
X119222053Y-77999692I-195923J196548D01*
G01*
X119341624Y-77610216D02*
G75*
G02*
X119358191Y-77693132I-178524J-78784D01*
G01*
X119345499Y-77764391D02*
G75*
G02*
X119307417Y-77818079I-131919J53221D01*
G01*
X119358187Y-77693133D02*
G75*
G02*
X119345496Y-77764393I-187957J-3287D01*
G01*
X119398933Y-78026231D02*
G75*
G02*
X119271557Y-78109076I-285171J299113D01*
G01*
X119421534Y-78562885D02*
G75*
G02*
X119495132Y-78509814I229366J-240515D01*
G01*
X119421534Y-78806181D02*
G75*
G02*
X119439178Y-78677073I475186J821D01*
G01*
X119426368Y-75779467D02*
G75*
G02*
X119441602Y-75740879I27772J11337D01*
G01*
X119439178Y-78677072D02*
G75*
G02*
X119474138Y-78629946I74542J-18768D01*
G01*
X119439180Y-78937296D02*
G75*
G02*
X119421543Y-78806181I465020J129296D01*
G01*
X119451156Y-72820699D02*
G75*
G02*
X119480618Y-72845016I4J-30001D01*
G01*
X119474139Y-78629947D02*
G75*
G02*
X119504620Y-78618172I51761J-88653D01*
G01*
X119474139Y-78984421D02*
G75*
G02*
X119439154Y-78937302I39561J65921D01*
G01*
X119494337Y-79106427D02*
G75*
G02*
X119421543Y-79052623I91563J200027D01*
G01*
X119495126Y-78509806D02*
G75*
G02*
X119581905Y-78489451I84174J-163694D01*
G01*
X119504619Y-78618167D02*
G75*
G02*
X119543750Y-78614237I37281J-174433D01*
G01*
X119504619Y-78996202D02*
G75*
G02*
X119474138Y-78984423I21281J100402D01*
G01*
X119543749Y-78614238D02*
G75*
G02*
X119583521Y-78618009I1951J-191062D01*
G01*
X119543750Y-79000128D02*
G75*
G02*
X119504619Y-78996200I-1850J178428D01*
G01*
X119581906Y-78489436D02*
G75*
G02*
X119635267Y-78495171I1694J-235364D01*
G01*
X119581906Y-79124358D02*
G75*
G02*
X119494335Y-79106430I-2206J212058D01*
G01*
X119583521Y-78996354D02*
G75*
G02*
X119543749Y-79000123I-37821J187354D01*
G01*
X119583522Y-78618017D02*
G75*
G02*
X119614449Y-78629332I-21022J-105383D01*
G01*
X119606117Y-73424416D02*
G75*
G02*
X119588143Y-73402385I11483J27716D01*
G01*
X119614444Y-78629337D02*
G75*
G02*
X119649786Y-78674624I-36044J-64563D01*
G01*
X119614444Y-78985028D02*
G75*
G02*
X119583524Y-78996363I-52044J94128D01*
G01*
X119635266Y-78495173D02*
G75*
G02*
X119680602Y-78512385I-38466J-169627D01*
G01*
X119635267Y-79118765D02*
G75*
G02*
X119581907Y-79124361I-51667J235465D01*
G01*
X119649753Y-78674635D02*
G75*
G02*
X119667400Y-78806182I-449843J-127305D01*
G01*
X119649753Y-78939735D02*
G75*
G02*
X119614437Y-78985018I-71353J19235D01*
G01*
X119667400Y-78806181D02*
G75*
G02*
X119649752Y-78939735I-475140J-5159D01*
G01*
X119680599Y-78512390D02*
G75*
G02*
X119748033Y-78570052I-100599J-185910D01*
G01*
X119680601Y-79101979D02*
G75*
G02*
X119635270Y-79118776I-83501J155779D01*
G01*
X119744495Y-77716946D02*
G75*
G02*
X119748706Y-77667448I277205J1346D01*
G01*
X119748027Y-79044311D02*
G75*
G02*
X119680596Y-79101970I-161927J121111D01*
G01*
X119748028Y-78570056D02*
G75*
G02*
X119783317Y-78648093I-143508J-111894D01*
G01*
X119748701Y-77667445D02*
G75*
G02*
X119761324Y-77624244I203299J-35955D01*
G01*
X119761314Y-77624240D02*
G75*
G02*
X119811774Y-77556709I158626J-65910D01*
G01*
X119783316Y-78648094D02*
G75*
G02*
X119789975Y-78709851I-458816J-80706D01*
G01*
X119783317Y-78966271D02*
G75*
G02*
X119748027Y-79044310I-175007J32141D01*
G01*
X119789984Y-78709850D02*
G75*
G02*
X119792206Y-78806180I-1756048J-88697D01*
G01*
X119789984Y-78903728D02*
G75*
G02*
X119783321Y-78966273I-477384J19228D01*
G01*
X119792207Y-78806182D02*
G75*
G02*
X119789984Y-78903728I-1804275J-7680D01*
G01*
X119800202Y-78537348D02*
G75*
G02*
X119863338Y-78501432I146598J-184252D01*
G01*
X119811773Y-77556709D02*
G75*
G02*
X119880302Y-77515508I165927J-198391D01*
G01*
X119859201Y-76759774D02*
G75*
G02*
X119819943Y-76743400I-11501J27674D01*
G01*
X119863332Y-78501414D02*
G75*
G02*
X119929878Y-78489446I66468J-178586D01*
G01*
X119869301Y-77759982D02*
G75*
G02*
X119878042Y-77704039I165899J2732D01*
G01*
X119878044Y-77704037D02*
G75*
G02*
X119904297Y-77661858I106556J-37063D01*
G01*
X119880301Y-77515503D02*
G75*
G02*
X119951342Y-77501767I71399J-178697D01*
G01*
X119890291Y-78644938D02*
G75*
G02*
X119931331Y-78621916I99209J-128762D01*
G01*
X119904300Y-77661861D02*
G75*
G02*
X119943609Y-77635381I83500J-81539D01*
G01*
X119929879Y-78489435D02*
G75*
G02*
X120021906Y-78507804I3921J-220065D01*
G01*
X119931329Y-78621916D02*
G75*
G02*
X119972919Y-78614246I41971J-110984D01*
G01*
X119943612Y-77635394D02*
G75*
G02*
X119991519Y-77626561I46488J-117806D01*
G01*
X119951342Y-77501766D02*
G75*
G02*
X120043377Y-77520124I3958J-220034D01*
G01*
X119972920Y-78614238D02*
G75*
G02*
X120056273Y-78645072I80J-127862D01*
G01*
X119991519Y-77626569D02*
G75*
G02*
X120040514Y-77635377I1681J-131331D01*
G01*
X120021907Y-78507798D02*
G75*
G02*
X120091396Y-78562894I-77807J-169502D01*
G01*
X120040509Y-77635393D02*
G75*
G02*
X120080172Y-77661859I-43009J-107407D01*
G01*
X120043373Y-77520130D02*
G75*
G02*
X120112887Y-77575204I-77773J-169570D01*
G01*
X120056263Y-78645082D02*
G75*
G02*
X120084380Y-78685276I-60163J-72018D01*
G01*
X120072979Y-76671224D02*
G75*
G02*
X120101290Y-76674065I11521J-27676D01*
G01*
X120080172Y-77661859D02*
G75*
G02*
X120106410Y-77704043I-80372J-79241D01*
G01*
X120084357Y-78685283D02*
G75*
G02*
X120093687Y-78744206I-157357J-55117D01*
G01*
X120101270Y-73614929D02*
G75*
G02*
X120072992Y-73617764I-16770J24829D01*
G01*
X120106428Y-77704038D02*
G75*
G02*
X120115183Y-77759981I-157228J-53262D01*
G01*
X120349106Y-77763713D02*
G75*
G02*
X120368256Y-77655837I287774J4553D01*
G01*
X120363370Y-78694573D02*
G75*
G02*
X120368212Y-78642157I309130J-2127D01*
G01*
X120368219Y-78642156D02*
G75*
G02*
X120381294Y-78597956I204781J-36544D01*
G01*
X120368259Y-77655836D02*
G75*
G02*
X120425713Y-77572634I211141J-84364D01*
G01*
X120381293Y-78597956D02*
G75*
G02*
X120432241Y-78534207I135607J-56144D01*
G01*
X120410217Y-78083035D02*
G75*
G02*
X120361161Y-78036840I179383J239635D01*
G01*
X120425713Y-77572635D02*
G75*
G02*
X120508701Y-77519491I182787J-194065D01*
G01*
X120432230Y-78534191D02*
G75*
G02*
X120512122Y-78500476I136570J-212109D01*
G01*
X120465017Y-78113736D02*
G75*
G02*
X120410225Y-78083030I90283J225336D01*
G01*
X120473623Y-77763713D02*
G75*
G02*
X120484909Y-77701916I202677J-5087D01*
G01*
X120484156Y-78687400D02*
G75*
G02*
X120491689Y-78651394I78344J2400D01*
G01*
X120484923Y-77701919D02*
G75*
G02*
X120513066Y-77656544I118177J-41881D01*
G01*
X120491336Y-78958811D02*
G75*
G02*
X120484159Y-78901430I184464J52211D01*
G01*
X120491685Y-78651392D02*
G75*
G02*
X120514873Y-78626024I57315J-29108D01*
G01*
X120500296Y-78978034D02*
G75*
G02*
X120491324Y-78958814I63904J41534D01*
G01*
X120508698Y-77519482D02*
G75*
G02*
X120604454Y-77501753I93902J-239718D01*
G01*
X120512124Y-78500482D02*
G75*
G02*
X120614123Y-78490006I93076J-404418D01*
G01*
X120512856Y-78990949D02*
G75*
G02*
X120500302Y-78978031I26744J38549D01*
G01*
X120513073Y-77656551D02*
G75*
G02*
X120554207Y-77628682I87427J-84749D01*
G01*
X120514859Y-78626002D02*
G75*
G02*
X120553654Y-78611214I58541J-95298D01*
G01*
X120515155Y-78004638D02*
G75*
G02*
X120451538Y-77959663I84945J187638D01*
G01*
X120538673Y-79111161D02*
G75*
G02*
X120486763Y-79064673I36927J93461D01*
G01*
X120553657Y-78611228D02*
G75*
G02*
X120608099Y-78607073I46343J-248472D01*
G01*
X120554209Y-77628687D02*
G75*
G02*
X120604455Y-77619403I48691J-122913D01*
G01*
X120555382Y-79005508D02*
G75*
G02*
X120512849Y-78990964I16018J116308D01*
G01*
X120571425Y-73296847D02*
G75*
G02*
X120609417Y-73300512I16775J-24853D01*
G01*
X120581419Y-79122779D02*
G75*
G02*
X120538671Y-79111166I27381J185279D01*
G01*
X120585515Y-78136689D02*
G75*
G02*
X120465017Y-78113730I-915J322889D01*
G01*
X120587813Y-78019631D02*
G75*
G02*
X120515146Y-78004659I-1113J178431D01*
G01*
X120604453Y-77619399D02*
G75*
G02*
X120655380Y-77628682I1647J-135301D01*
G01*
X120604454Y-77501766D02*
G75*
G02*
X120692923Y-77519100I-354J-236234D01*
G01*
X120608100Y-78607068D02*
G75*
G02*
X120647540Y-78609511I1600J-293732D01*
G01*
X120609448Y-76988541D02*
G75*
G02*
X120571402Y-76992209I-21248J21241D01*
G01*
X120614120Y-78490008D02*
G75*
G02*
X120677214Y-78494799I7280J-321992D01*
G01*
X120620438Y-79009596D02*
G75*
G02*
X120555382Y-79005503I-10238J356296D01*
G01*
X120629621Y-78855815D02*
G75*
G02*
X120676094Y-78861724I-3521J-213385D01*
G01*
X120635642Y-79126653D02*
G75*
G02*
X120581419Y-79122774I-2542J345353D01*
G01*
X120646628Y-78010058D02*
G75*
G02*
X120587811Y-78019620I-56628J162658D01*
G01*
X120647539Y-78609507D02*
G75*
G02*
X120679823Y-78616813I-21839J-171493D01*
G01*
X120652277Y-78753103D02*
G75*
G02*
X120737353Y-78767076I1723J-255497D01*
G01*
X120655378Y-77628687D02*
G75*
G02*
X120696840Y-77656547I-45778J-112913D01*
G01*
X120672439Y-79003499D02*
G75*
G02*
X120620438Y-79009603I-48439J188099D01*
G01*
X120676094Y-78861717D02*
G75*
G02*
X120709088Y-78876259I-22294J-95283D01*
G01*
X120677214Y-78494797D02*
G75*
G02*
X120732191Y-78511455I-42014J-237703D01*
G01*
X120679588Y-78121232D02*
G75*
G02*
X120585517Y-78136695I-94288J279732D01*
G01*
X120679822Y-78616822D02*
G75*
G02*
X120722264Y-78655571I-35022J-80978D01*
G01*
X120692927Y-77519089D02*
G75*
G02*
X120777594Y-77571061I-120227J-290811D01*
G01*
X120693826Y-74238644D02*
G75*
G02*
X120696727Y-74210374I27674J11444D01*
G01*
X120693969Y-77981328D02*
G75*
G02*
X120646628Y-78010052I-94169J101828D01*
G01*
X120696696Y-76078668D02*
G75*
G02*
X120693860Y-76050391I24804J16768D01*
G01*
X120696835Y-77656551D02*
G75*
G02*
X120724885Y-77701917I-88135J-85849D01*
G01*
X120707365Y-78985207D02*
G75*
G02*
X120672436Y-79003483I-55265J63107D01*
G01*
X120709091Y-78876257D02*
G75*
G02*
X120728600Y-78899447I-33691J-48143D01*
G01*
X120724883Y-77701919D02*
G75*
G02*
X120735576Y-77763712I-187583J-64281D01*
G01*
X120725170Y-77933452D02*
G75*
G02*
X120693971Y-77981332I-112270J39052D01*
G01*
X120725801Y-79111808D02*
G75*
G02*
X120635643Y-79126664I-91701J275508D01*
G01*
X120727818Y-78960246D02*
G75*
G02*
X120707362Y-78985204I-71018J37346D01*
G01*
X120728608Y-78899442D02*
G75*
G02*
X120734638Y-78931268I-65308J-28858D01*
G01*
X120732190Y-78511457D02*
G75*
G02*
X120817848Y-78580370I-87090J-195943D01*
G01*
X120734634Y-78931269D02*
G75*
G02*
X120727834Y-78960254I-63334J-431D01*
G01*
X120735567Y-77866423D02*
G75*
G02*
X120725158Y-77933448I-196667J-3777D01*
G01*
X120737348Y-78767089D02*
G75*
G02*
X120798603Y-78806753I-52048J-147511D01*
G01*
X120770716Y-78074862D02*
G75*
G02*
X120679591Y-78121242I-208816J297562D01*
G01*
X120777602Y-77571055D02*
G75*
G02*
X120813805Y-77612707I-116302J-137645D01*
G01*
X120790856Y-79071853D02*
G75*
G02*
X120725795Y-79111793I-119656J121953D01*
G01*
X120798603Y-78806753D02*
G75*
G02*
X120835830Y-78865782I-128903J-122547D01*
G01*
X120809941Y-78035851D02*
G75*
G02*
X120770714Y-78074857I-130041J91551D01*
G01*
X120813814Y-77612701D02*
G75*
G02*
X120839696Y-77668345I-209314J-131199D01*
G01*
X120833896Y-79011820D02*
G75*
G02*
X120790851Y-79071850I-159496J68920D01*
G01*
X120835826Y-78865786D02*
G75*
G02*
X120848233Y-78937297I-187226J-69314D01*
G01*
X120837959Y-77980648D02*
G75*
G02*
X120809931Y-78035846I-210059J71948D01*
G01*
X120839681Y-77668348D02*
G75*
G02*
X120855198Y-77738005I-368981J-118752D01*
G01*
X120848237Y-78937296D02*
G75*
G02*
X120833894Y-79011818I-188077J-2444D01*
G01*
X120854768Y-77909254D02*
G75*
G02*
X120837963Y-77980650I-365068J48254D01*
G01*
X120855200Y-77738006D02*
G75*
G02*
X120860375Y-77821666I-622500J-80494D01*
G01*
X120860374Y-77821666D02*
G75*
G02*
X120854766Y-77909253I-630074J-3634D01*
G01*
X120887208Y-75583515D02*
G75*
G02*
X120909246Y-75565559I27692J-11485D01*
G01*
X120909242Y-74723482D02*
G75*
G02*
X120887178Y-74705519I5658J29482D01*
G01*
X120954032Y-77819946D02*
G75*
G02*
X120956324Y-77722542I1737168J7846D01*
G01*
X120954037Y-78704614D02*
G75*
G02*
X120958235Y-78655113I277263J1414D01*
G01*
X120956325Y-77916775D02*
G75*
G02*
X120954033Y-77819945I1716975J89075D01*
G01*
X120956328Y-77722541D02*
G75*
G02*
X120963215Y-77660425I453672J-18859D01*
G01*
X120958239Y-78655115D02*
G75*
G02*
X120970851Y-78611907I203261J-35885D01*
G01*
X120963210Y-77978891D02*
G75*
G02*
X120956318Y-77916775I450190J81391D01*
G01*
X120963213Y-77660425D02*
G75*
G02*
X120998223Y-77582396I185087J-36175D01*
G01*
X120970857Y-78611908D02*
G75*
G02*
X121021308Y-78544369I158643J-65892D01*
G01*
X120998211Y-78056641D02*
G75*
G02*
X120963205Y-77978890I145889J112441D01*
G01*
X120998212Y-77582387D02*
G75*
G02*
X121066349Y-77524706I174388J-136913D01*
G01*
X121011143Y-73702176D02*
G75*
G02*
X121014786Y-73740205I-21243J-21224D01*
G01*
X121014777Y-76548822D02*
G75*
G02*
X121011117Y-76586819I-24877J-16778D01*
G01*
X121021315Y-78544377D02*
G75*
G02*
X121089842Y-78503166I165985J-198423D01*
G01*
X121066355Y-78114311D02*
G75*
G02*
X120998218Y-78056638I99645J186811D01*
G01*
X121066358Y-77524722D02*
G75*
G02*
X121111434Y-77507500I83742J-151578D01*
G01*
X121078835Y-77819946D02*
G75*
G02*
X121096475Y-77687395I474165J4346D01*
G01*
X121078842Y-78747651D02*
G75*
G02*
X121087579Y-78691707I165858J2751D01*
G01*
X121087582Y-78691704D02*
G75*
G02*
X121113836Y-78649522I106618J-37096D01*
G01*
X121089844Y-78503172D02*
G75*
G02*
X121160885Y-78489454I71356J-178728D01*
G01*
X121096479Y-77952064D02*
G75*
G02*
X121078846Y-77819943I452021J127564D01*
G01*
X121096482Y-77687394D02*
G75*
G02*
X121131722Y-77641755I71918J-19106D01*
G01*
X121111433Y-77507505D02*
G75*
G02*
X121164334Y-77501766I51267J-225895D01*
G01*
X121111434Y-78131092D02*
G75*
G02*
X121066357Y-78114308I38266J171692D01*
G01*
X121113843Y-78649530D02*
G75*
G02*
X121153160Y-78623070I83457J-81570D01*
G01*
X121131732Y-77997360D02*
G75*
G02*
X121096453Y-77952072I36168J64560D01*
G01*
X121131733Y-77641777D02*
G75*
G02*
X121162564Y-77630363I51967J-93023D01*
G01*
X121153156Y-78623062D02*
G75*
G02*
X121201061Y-78614241I46444J-117738D01*
G01*
X121160885Y-78489435D02*
G75*
G02*
X121252911Y-78507806I3915J-220065D01*
G01*
X121162565Y-77630372D02*
G75*
G02*
X121202204Y-77626569I37735J-184828D01*
G01*
X121162566Y-78008684D02*
G75*
G02*
X121131730Y-77997367I21034J104984D01*
G01*
X121164333Y-77501769D02*
G75*
G02*
X121252053Y-77519840I2267J-210931D01*
G01*
X121164334Y-78136690D02*
G75*
G02*
X121111434Y-78131092I-1634J237290D01*
G01*
X121201061Y-78614238D02*
G75*
G02*
X121250054Y-78623059I1639J-131362D01*
G01*
X121202204Y-77626569D02*
G75*
G02*
X121241698Y-77630499I1896J-181331D01*
G01*
X121202206Y-78012459D02*
G75*
G02*
X121162568Y-78008682I-1906J189859D01*
G01*
X121241699Y-78008550D02*
G75*
G02*
X121202205Y-78012462I-37599J178250D01*
G01*
X121241700Y-77630497D02*
G75*
G02*
X121272387Y-77642283I-21300J-101303D01*
G01*
X121250052Y-78623062D02*
G75*
G02*
X121289709Y-78649534I-43052J-107438D01*
G01*
X121251409Y-78117036D02*
G75*
G02*
X121164333Y-78136694I-84009J169436D01*
G01*
X121252052Y-77519840D02*
G75*
G02*
X121324729Y-77574051I-91552J-198560D01*
G01*
X121252915Y-78507797D02*
G75*
G02*
X121322426Y-78562878I-77815J-169603D01*
G01*
X121272391Y-77642279D02*
G75*
G02*
X121307330Y-77689411I-38991J-65421D01*
G01*
X121272392Y-77996823D02*
G75*
G02*
X121241704Y-78008563I-51992J89923D01*
G01*
X121289711Y-78649529D02*
G75*
G02*
X121315972Y-78691703I-80311J-79271D01*
G01*
X121307356Y-77689403D02*
G75*
G02*
X121324715Y-77819944I-470556J-128997D01*
G01*
X121307358Y-77949915D02*
G75*
G02*
X121272369Y-77996786I-73558J18415D01*
G01*
X121315969Y-78691707D02*
G75*
G02*
X121324698Y-78747650I-157269J-53193D01*
G01*
X121324714Y-78063815D02*
G75*
G02*
X121251410Y-78117038I-213614J217115D01*
G01*
X121324715Y-77819946D02*
G75*
G02*
X121307360Y-77949917I-483715J-1554D01*
G01*
X121466607Y-74831012D02*
G75*
G02*
X121490935Y-74860468I-5707J-29488D01*
G01*
X121490925Y-75428553D02*
G75*
G02*
X121466620Y-75458075I-30025J-47D01*
G01*
X121564136Y-77818511D02*
G75*
G02*
X121568007Y-77731397I853664J5711D01*
G01*
X121568007Y-77907128D02*
G75*
G02*
X121564130Y-77818512I876293J82728D01*
G01*
X121568010Y-77731396D02*
G75*
G02*
X121579623Y-77669746I315990J-27604D01*
G01*
X121579626Y-77969279D02*
G75*
G02*
X121568001Y-77907129I305374J89279D01*
G01*
X121579627Y-77669749D02*
G75*
G02*
X121630971Y-77581228I226373J-72151D01*
G01*
X121630985Y-78057789D02*
G75*
G02*
X121579633Y-77969276I175015J160689D01*
G01*
X121630987Y-77581241D02*
G75*
G02*
X121661721Y-77553732I166913J-155559D01*
G01*
X121661718Y-78085585D02*
G75*
G02*
X121630982Y-78057792I129482J174085D01*
G01*
X121661719Y-77553732D02*
G75*
G02*
X121702281Y-77527449I219281J-293968D01*
G01*
X121688365Y-77819943D02*
G75*
G02*
X121690088Y-77762275I817335J4443D01*
G01*
X121690088Y-77762276D02*
G75*
G02*
X121695250Y-77724691I230612J-12524D01*
G01*
X121690090Y-77877400D02*
G75*
G02*
X121688365Y-77819945I811110J53100D01*
G01*
X121695253Y-77724693D02*
G75*
G02*
X121719070Y-77672192I158847J-40407D01*
G01*
X121695253Y-77914911D02*
G75*
G02*
X121690081Y-77877398I224847J50111D01*
G01*
X121702279Y-78111586D02*
G75*
G02*
X121661717Y-78085588I163021J298986D01*
G01*
X121702282Y-77527445D02*
G75*
G02*
X121754322Y-77508199I89918J-163155D01*
G01*
X121719064Y-77966841D02*
G75*
G02*
X121695254Y-77914912I128936J90541D01*
G01*
X121719065Y-77672188D02*
G75*
G02*
X121760522Y-77637972I83635J-59112D01*
G01*
X121754316Y-77508188D02*
G75*
G02*
X121819480Y-77501775I62284J-298612D01*
G01*
X121754318Y-78130413D02*
G75*
G02*
X121702280Y-78111587I37582J185213D01*
G01*
X121760522Y-77637975D02*
G75*
G02*
X121819479Y-77626594I55678J-130025D01*
G01*
X121760523Y-78001055D02*
G75*
G02*
X121719086Y-77966826I42177J93255D01*
G01*
X121819480Y-78012457D02*
G75*
G02*
X121760528Y-78001037I-3180J141457D01*
G01*
X121819480Y-78136691D02*
G75*
G02*
X121754315Y-78130420I-2880J311791D01*
G01*
X121819482Y-77501766D02*
G75*
G02*
X121885434Y-77508182I3018J-311134D01*
G01*
X121819482Y-77626570D02*
G75*
G02*
X121878872Y-77637975I3418J-142530D01*
G01*
X121878871Y-78001054D02*
G75*
G02*
X121819481Y-78012457I-55971J131154D01*
G01*
X121878872Y-77637974D02*
G75*
G02*
X121919879Y-77672202I-40772J-90526D01*
G01*
X121885432Y-78130412D02*
G75*
G02*
X121819481Y-78136687I-62932J311712D01*
G01*
X121885433Y-77508186D02*
G75*
G02*
X121937537Y-77527456I-37033J-180214D01*
G01*
X121919900Y-77672189D02*
G75*
G02*
X121943993Y-77724695I-118400J-86111D01*
G01*
X121919900Y-77966841D02*
G75*
G02*
X121878878Y-78001069I-81800J56341D01*
G01*
X121937542Y-77527445D02*
G75*
G02*
X121977814Y-77553735I-177342J-315655D01*
G01*
X121937542Y-78111585D02*
G75*
G02*
X121885432Y-78130421I-88842J164285D01*
G01*
X121943999Y-77914623D02*
G75*
G02*
X121919908Y-77966847I-137199J31623D01*
G01*
X121944000Y-77724691D02*
G75*
G02*
X121948729Y-77761917I-244000J-49909D01*
G01*
X121948730Y-77876682D02*
G75*
G02*
X121943994Y-77914623I-255130J12582D01*
G01*
X121948731Y-77761918D02*
G75*
G02*
X121950306Y-77818512I-860931J-52282D01*
G01*
X121950308Y-77818512D02*
G75*
G02*
X121948730Y-77876681I-907208J-4488D01*
G01*
X121977816Y-78085584D02*
G75*
G02*
X121937540Y-78111580I-202016J268784D01*
G01*
X121977817Y-77553733D02*
G75*
G02*
X122008268Y-77581239I-134917J-179967D01*
G01*
X122008266Y-78057790D02*
G75*
G02*
X121977814Y-78085582I-158866J143490D01*
G01*
X122008268Y-77581239D02*
G75*
G02*
X122059774Y-77669746I-176168J-161761D01*
G01*
X122059764Y-77669749D02*
G75*
G02*
X122071493Y-77731397I-301764J-89351D01*
G01*
X122059767Y-77969279D02*
G75*
G02*
X122008254Y-78057777I-227667J73279D01*
G01*
X122071491Y-77731397D02*
G75*
G02*
X122075398Y-77818511I-841791J-81403D01*
G01*
X122071494Y-77907126D02*
G75*
G02*
X122059766Y-77969277I-314294J27126D01*
G01*
X122075402Y-77818513D02*
G75*
G02*
X122071489Y-77907128I-872002J-5887D01*
G01*
D12*
G36*
X116710347Y-77947310D02*
G01*
X116710329Y-77947285D01*
X116710642Y-77947046D01*
X116710347Y-77947310D01*
G37*
G36*
X118193623Y-78655310D02*
G01*
X118193176Y-78655554D01*
X118193590Y-78655229D01*
X118193623Y-78655310D01*
G37*
G36*
X118404390Y-77819945D02*
G01*
X118397936Y-77819980D01*
X118397946Y-77819912D01*
X118404390Y-77819945D01*
G37*
G36*
X118535746Y-77616315D02*
G01*
X118535266Y-77616298D01*
X118535484Y-77616206D01*
X118535746Y-77616315D01*
G37*
G36*
X118535484Y-78022822D02*
G01*
X118535266Y-78022731D01*
X118535746Y-78022713D01*
X118535484Y-78022822D01*
G37*
G36*
X119543783Y-78611112D02*
G01*
X119543750Y-78614238D01*
X119543717Y-78611099D01*
X119543783Y-78611112D01*
G37*
G36*
X120722739Y-78655310D02*
G01*
X120722292Y-78655554D01*
X120722706Y-78655229D01*
X120722739Y-78655310D01*
G37*
G36*
X121202238Y-78015667D02*
G01*
X121202172Y-78015654D01*
X121202205Y-78012459D01*
X121202238Y-78015667D01*
G37*
G36*
X121688366Y-77819945D02*
G01*
X121681922Y-77819978D01*
X121681932Y-77819909D01*
X121688366Y-77819945D01*
G37*
G36*
X121819715Y-77616315D02*
G01*
X121819235Y-77616298D01*
X121819453Y-77616206D01*
X121819715Y-77616315D01*
G37*
G36*
X121819453Y-78022822D02*
G01*
X121819235Y-78022731D01*
X121819715Y-78022713D01*
X121819453Y-78022822D01*
G37*
G36*
X118593811Y-78931268D02*
G01*
X118596399Y-78931268D01*
X118736703Y-78496608D01*
X118827651Y-78496608D01*
X118968229Y-78931268D01*
X118970526Y-78931268D01*
X119089585Y-78496608D01*
X119221572Y-78496608D01*
X119023317Y-79117186D01*
X118913144Y-79117186D01*
X118783472Y-78683098D01*
X118781158Y-78683098D01*
X118651192Y-79117186D01*
X118541314Y-79117186D01*
X118342785Y-78496608D01*
X118475045Y-78496608D01*
X118593811Y-78931268D01*
G37*
G36*
X117330506Y-77514500D02*
G01*
X117334133Y-77516923D01*
X117333722Y-77517969D01*
X117389419Y-77555183D01*
X117402606Y-77574921D01*
X117404527Y-77575216D01*
X117404527Y-77508939D01*
X117529332Y-77508939D01*
X117529332Y-78129517D01*
X117404527Y-78129517D01*
X117404527Y-77756541D01*
X117407077Y-77756600D01*
X117407834Y-77752787D01*
X117396749Y-77697065D01*
X117395276Y-77697580D01*
X117378708Y-77657575D01*
X117369972Y-77653958D01*
X117371441Y-77652338D01*
X117283793Y-77616033D01*
X117283737Y-77616056D01*
X117283709Y-77616971D01*
X117242129Y-77634194D01*
X117241301Y-77632030D01*
X117236915Y-77632904D01*
X117200885Y-77656976D01*
X117111027Y-77549679D01*
X117110514Y-77549036D01*
X117165800Y-77512097D01*
X117172988Y-77510667D01*
X117173295Y-77511431D01*
X117240653Y-77498033D01*
X117240699Y-77498043D01*
X117240636Y-77498216D01*
X117244644Y-77497421D01*
X117330506Y-77514500D01*
G37*
G36*
X117488636Y-78502168D02*
G01*
X117492261Y-78504586D01*
X117491849Y-78505635D01*
X117547546Y-78542852D01*
X117560737Y-78562592D01*
X117562652Y-78562885D01*
X117562652Y-78496608D01*
X117687460Y-78496608D01*
X117687460Y-79117186D01*
X117562652Y-79117186D01*
X117562652Y-78744208D01*
X117565202Y-78744263D01*
X117565960Y-78740446D01*
X117554879Y-78684733D01*
X117553404Y-78685249D01*
X117536835Y-78645244D01*
X117528100Y-78641627D01*
X117529568Y-78640007D01*
X117441921Y-78603702D01*
X117441865Y-78603725D01*
X117441837Y-78604640D01*
X117400257Y-78621863D01*
X117399429Y-78619699D01*
X117395042Y-78620573D01*
X117359012Y-78644645D01*
X117269155Y-78537347D01*
X117268642Y-78536705D01*
X117323927Y-78499766D01*
X117331116Y-78498336D01*
X117331423Y-78499100D01*
X117398781Y-78485702D01*
X117398827Y-78485712D01*
X117398763Y-78485887D01*
X117402777Y-78485089D01*
X117488636Y-78502168D01*
G37*
G36*
X120019688Y-78502168D02*
G01*
X120023312Y-78504586D01*
X120022898Y-78505638D01*
X120078593Y-78542849D01*
X120091783Y-78562592D01*
X120093703Y-78562885D01*
X120093703Y-78496608D01*
X120218509Y-78496608D01*
X120218509Y-79117186D01*
X120093703Y-79117186D01*
X120093703Y-78744208D01*
X120096256Y-78744263D01*
X120097013Y-78740453D01*
X120085928Y-78684733D01*
X120084453Y-78685249D01*
X120067882Y-78645241D01*
X120059152Y-78641627D01*
X120060620Y-78640007D01*
X119972972Y-78603702D01*
X119972916Y-78603725D01*
X119972888Y-78604640D01*
X119931308Y-78621863D01*
X119930480Y-78619699D01*
X119926094Y-78620573D01*
X119890064Y-78644645D01*
X119800204Y-78537347D01*
X119799691Y-78536705D01*
X119854976Y-78499766D01*
X119862165Y-78498336D01*
X119862469Y-78499100D01*
X119929830Y-78485702D01*
X119929878Y-78485712D01*
X119929815Y-78485887D01*
X119933828Y-78485089D01*
X120019688Y-78502168D01*
G37*
G36*
X119421533Y-78556938D02*
G01*
X119494327Y-78508300D01*
X119494576Y-78508737D01*
X119507504Y-78500098D01*
X119579336Y-78485811D01*
X119581949Y-78486329D01*
X119581876Y-78485161D01*
X119583593Y-78484820D01*
X119635282Y-78495102D01*
X119635279Y-78495115D01*
X119664652Y-78500954D01*
X119680913Y-78511820D01*
X119681035Y-78511584D01*
X119732376Y-78545889D01*
X119748357Y-78569806D01*
X119748413Y-78569755D01*
X119775937Y-78610949D01*
X119783326Y-78648091D01*
X119783430Y-78648074D01*
X119795670Y-78709620D01*
X119791979Y-78709750D01*
X119800725Y-78798520D01*
X119799965Y-78806214D01*
X119800171Y-78806148D01*
X119800940Y-78813936D01*
X119792083Y-78903831D01*
X119795855Y-78903966D01*
X119783458Y-78966297D01*
X119783338Y-78966275D01*
X119775919Y-79003554D01*
X119748461Y-79044651D01*
X119748256Y-79044481D01*
X119731873Y-79069002D01*
X119681101Y-79102924D01*
X119680997Y-79102718D01*
X119666105Y-79112670D01*
X119635274Y-79118802D01*
X119635277Y-79118809D01*
X119583598Y-79129091D01*
X119581876Y-79128748D01*
X119581944Y-79128078D01*
X119579704Y-79128522D01*
X119496974Y-79112066D01*
X119493019Y-79109424D01*
X119493156Y-79109012D01*
X119427266Y-79064989D01*
X119419953Y-79054039D01*
X119421533Y-79117186D01*
X119296725Y-79117186D01*
X119296725Y-78246139D01*
X119421533Y-78246139D01*
X119421533Y-78556938D01*
G37*
G36*
X117795836Y-77879048D02*
G01*
X117793101Y-77879002D01*
X117792529Y-77881878D01*
X117803253Y-77935799D01*
X117804389Y-77935416D01*
X117824437Y-77983813D01*
X117824246Y-77983950D01*
X117824622Y-77984854D01*
X117870144Y-78003711D01*
X117870139Y-78003734D01*
X117916588Y-78022975D01*
X117918168Y-78022319D01*
X117917929Y-78022637D01*
X117919700Y-78023371D01*
X117967060Y-78003754D01*
X117967048Y-78003721D01*
X118012958Y-77984704D01*
X118013271Y-77983945D01*
X118013103Y-77983813D01*
X118033151Y-77935416D01*
X118034287Y-77935799D01*
X118045010Y-77881878D01*
X118044439Y-77879002D01*
X118041703Y-77508939D01*
X118166509Y-77508939D01*
X118166509Y-77921509D01*
X118171706Y-77921484D01*
X118172003Y-77922970D01*
X118162399Y-77971258D01*
X118162374Y-77971250D01*
X118153448Y-78016114D01*
X118152783Y-78015837D01*
X118152750Y-78016007D01*
X118115069Y-78072400D01*
X118099824Y-78082588D01*
X118100291Y-78083132D01*
X118035425Y-78126474D01*
X118032227Y-78127109D01*
X118031747Y-78125966D01*
X117958506Y-78140536D01*
X117958567Y-78140206D01*
X117954650Y-78140985D01*
X117869750Y-78124097D01*
X117866034Y-78121615D01*
X117866428Y-78120610D01*
X117811026Y-78083589D01*
X117798016Y-78064117D01*
X117795836Y-78063815D01*
X117795836Y-78129517D01*
X117671029Y-78129517D01*
X117671029Y-77508939D01*
X117795836Y-77508939D01*
X117795836Y-77879048D01*
G37*
G36*
X120041148Y-77514500D02*
G01*
X120044775Y-77516923D01*
X120044364Y-77517969D01*
X120100061Y-77555183D01*
X120113249Y-77574921D01*
X120115169Y-77575216D01*
X120115169Y-77508939D01*
X120239974Y-77508939D01*
X120239974Y-78129517D01*
X120115169Y-78129517D01*
X120115169Y-77759980D01*
X120117892Y-77760026D01*
X120118443Y-77757250D01*
X120107770Y-77703585D01*
X120106607Y-77703973D01*
X120086556Y-77655558D01*
X120086602Y-77655561D01*
X120086061Y-77654253D01*
X120040511Y-77635386D01*
X120040521Y-77635358D01*
X119993150Y-77615736D01*
X119991395Y-77616463D01*
X119991631Y-77616783D01*
X119990066Y-77616133D01*
X119943605Y-77635378D01*
X119943612Y-77635396D01*
X119898454Y-77654100D01*
X119897849Y-77655558D01*
X119897918Y-77655564D01*
X119877867Y-77703976D01*
X119876701Y-77703585D01*
X119866028Y-77757250D01*
X119866579Y-77760026D01*
X119869302Y-78129517D01*
X119744494Y-78129517D01*
X119744494Y-77716945D01*
X119739335Y-77716971D01*
X119739061Y-77715576D01*
X119748637Y-77667435D01*
X119748655Y-77667435D01*
X119757532Y-77622798D01*
X119757600Y-77622698D01*
X119758243Y-77622963D01*
X119796097Y-77566308D01*
X119811314Y-77556140D01*
X119810808Y-77555556D01*
X119876805Y-77511459D01*
X119878517Y-77511119D01*
X119879076Y-77512442D01*
X119951334Y-77498068D01*
X119951278Y-77498216D01*
X119955286Y-77497421D01*
X120041148Y-77514500D01*
G37*
G36*
X116326007Y-77497101D02*
G01*
X116325979Y-77497200D01*
X116416053Y-77515117D01*
X116416777Y-77513440D01*
X116417041Y-77513491D01*
X116500609Y-77569331D01*
X116499865Y-77570184D01*
X116512768Y-77578805D01*
X116535395Y-77612668D01*
X116535433Y-77612643D01*
X116558661Y-77647410D01*
X116562730Y-77667857D01*
X116563655Y-77667557D01*
X116577645Y-77737890D01*
X116578163Y-77737821D01*
X116594188Y-77818390D01*
X116593525Y-77821728D01*
X116593492Y-77821598D01*
X116594239Y-77825355D01*
X116577518Y-77909419D01*
X116577061Y-77909355D01*
X116562661Y-77981740D01*
X116561369Y-77981293D01*
X116558569Y-77995367D01*
X116531501Y-78035878D01*
X116516070Y-78058976D01*
X116492260Y-78074884D01*
X116492296Y-78074940D01*
X116425301Y-78119703D01*
X116402164Y-78124305D01*
X116401897Y-78123564D01*
X116307046Y-78142431D01*
X116307061Y-78142829D01*
X116306111Y-78143020D01*
X116184504Y-78118829D01*
X116184974Y-78117633D01*
X116182073Y-78117056D01*
X116131550Y-78083297D01*
X116131486Y-78083378D01*
X116095284Y-78059190D01*
X116081194Y-78038100D01*
X116173056Y-77959668D01*
X116170719Y-77961913D01*
X116173104Y-77965484D01*
X116235525Y-78007193D01*
X116235555Y-78007209D01*
X116238662Y-78009284D01*
X116308273Y-78023129D01*
X116309360Y-78022914D01*
X116309304Y-78022588D01*
X116311483Y-78023023D01*
X116368704Y-78011638D01*
X116368209Y-78010206D01*
X116421704Y-77988050D01*
X116420962Y-77987199D01*
X116425402Y-77985362D01*
X116446876Y-77933518D01*
X116448293Y-77933996D01*
X116460970Y-77870260D01*
X116460195Y-77866363D01*
X116070633Y-77866424D01*
X116070633Y-77763712D01*
X116065878Y-77763788D01*
X116064960Y-77759165D01*
X116085817Y-77654311D01*
X116086170Y-77654390D01*
X116086749Y-77651479D01*
X116136998Y-77576275D01*
X116145421Y-77570649D01*
X116144676Y-77569912D01*
X116226028Y-77515554D01*
X116228436Y-77515074D01*
X116228728Y-77515686D01*
X116324082Y-77496717D01*
X116326007Y-77497101D01*
G37*
G36*
X118601451Y-77508183D02*
G01*
X118601451Y-77508185D01*
X118636254Y-77515107D01*
X118653876Y-77526882D01*
X118654095Y-77526498D01*
X118694184Y-77553283D01*
X118694049Y-77553466D01*
X118721062Y-77571517D01*
X118726315Y-77579376D01*
X118726393Y-77579310D01*
X118773416Y-77649688D01*
X118777310Y-77669262D01*
X118777061Y-77669376D01*
X118789365Y-77731235D01*
X118788016Y-77731349D01*
X118798743Y-77812835D01*
X118798001Y-77818469D01*
X118798192Y-77818466D01*
X118798971Y-77824402D01*
X118788075Y-77907181D01*
X118789439Y-77907293D01*
X118777038Y-77969645D01*
X118777313Y-77969764D01*
X118773416Y-77989342D01*
X118726393Y-78059718D01*
X118725984Y-78059319D01*
X118719739Y-78068669D01*
X118694039Y-78085840D01*
X118694161Y-78086000D01*
X118654181Y-78112710D01*
X118653953Y-78112304D01*
X118637615Y-78123221D01*
X118601451Y-78130414D01*
X118538515Y-78142934D01*
X118535459Y-78142324D01*
X118535563Y-78142235D01*
X118532663Y-78142812D01*
X118470346Y-78130417D01*
X118434199Y-78123226D01*
X118417903Y-78112339D01*
X118417646Y-78112797D01*
X118377474Y-78085954D01*
X118377580Y-78085809D01*
X118350804Y-78067917D01*
X118345165Y-78059474D01*
X118344918Y-78059708D01*
X118298205Y-77989794D01*
X118294215Y-77969736D01*
X118294461Y-77969627D01*
X118282064Y-77907295D01*
X118283433Y-77907184D01*
X118272536Y-77824425D01*
X118273321Y-77818466D01*
X118273529Y-77818555D01*
X118272772Y-77812812D01*
X118283496Y-77731347D01*
X118282140Y-77731233D01*
X118294441Y-77669396D01*
X118294215Y-77669292D01*
X118298205Y-77649234D01*
X118344921Y-77579320D01*
X118344817Y-77579196D01*
X118349414Y-77572315D01*
X118377575Y-77553499D01*
X118377453Y-77553336D01*
X118417738Y-77526420D01*
X118417984Y-77526852D01*
X118435579Y-77515096D01*
X118470346Y-77508180D01*
X118470344Y-77508172D01*
X118532678Y-77495772D01*
X118535563Y-77496346D01*
X118535459Y-77496265D01*
X118538499Y-77495658D01*
X118601451Y-77508183D01*
G37*
G36*
X121885435Y-77508180D02*
G01*
X121885435Y-77508183D01*
X121920233Y-77515104D01*
X121937858Y-77526879D01*
X121938074Y-77526498D01*
X121978155Y-77553280D01*
X121978018Y-77553466D01*
X122005048Y-77571530D01*
X122010291Y-77579374D01*
X122010367Y-77579313D01*
X122057382Y-77649673D01*
X122061276Y-77669262D01*
X122061032Y-77669373D01*
X122073339Y-77731235D01*
X122071993Y-77731349D01*
X122082716Y-77812810D01*
X122081972Y-77818469D01*
X122082163Y-77818466D01*
X122082948Y-77824428D01*
X122072053Y-77907181D01*
X122073415Y-77907293D01*
X122061012Y-77969645D01*
X122061279Y-77969764D01*
X122057380Y-77989358D01*
X122010367Y-78059718D01*
X122009960Y-78059322D01*
X122003725Y-78068656D01*
X121978007Y-78085840D01*
X121978129Y-78086000D01*
X121938157Y-78112705D01*
X121937931Y-78112304D01*
X121921589Y-78123221D01*
X121885432Y-78130414D01*
X121822491Y-78142934D01*
X121819428Y-78142324D01*
X121819532Y-78142235D01*
X121816631Y-78142812D01*
X121754317Y-78130417D01*
X121718171Y-78123226D01*
X121701874Y-78112339D01*
X121701617Y-78112797D01*
X121661445Y-78085954D01*
X121661554Y-78085806D01*
X121634792Y-78067927D01*
X121629141Y-78059472D01*
X121628895Y-78059708D01*
X121582181Y-77989794D01*
X121578191Y-77969736D01*
X121578440Y-77969627D01*
X121566042Y-77907295D01*
X121567414Y-77907184D01*
X121556517Y-77824425D01*
X121557302Y-77818466D01*
X121557510Y-77818555D01*
X121556754Y-77812812D01*
X121567477Y-77731347D01*
X121566119Y-77731230D01*
X121578420Y-77669394D01*
X121578191Y-77669292D01*
X121582181Y-77649234D01*
X121628897Y-77579320D01*
X121628796Y-77579198D01*
X121633406Y-77572305D01*
X121661546Y-77553499D01*
X121661424Y-77553336D01*
X121701709Y-77526420D01*
X121701955Y-77526852D01*
X121719550Y-77515096D01*
X121754317Y-77508180D01*
X121754315Y-77508175D01*
X121816646Y-77495777D01*
X121819529Y-77496349D01*
X121819428Y-77496262D01*
X121822476Y-77495655D01*
X121885435Y-77508180D01*
G37*
G36*
X117005307Y-78484769D02*
G01*
X117005279Y-78484868D01*
X117095353Y-78502786D01*
X117096077Y-78501109D01*
X117096341Y-78501160D01*
X117179909Y-78556999D01*
X117179165Y-78557853D01*
X117192068Y-78566474D01*
X117214695Y-78600337D01*
X117214733Y-78600311D01*
X117237960Y-78635079D01*
X117242030Y-78655526D01*
X117242955Y-78655226D01*
X117256945Y-78725559D01*
X117257463Y-78725490D01*
X117273488Y-78806059D01*
X117272825Y-78809397D01*
X117272792Y-78809267D01*
X117273539Y-78813024D01*
X117256818Y-78897088D01*
X117256361Y-78897024D01*
X117241962Y-78969409D01*
X117240671Y-78968964D01*
X117237870Y-78983034D01*
X117210801Y-79023547D01*
X117210801Y-79023544D01*
X117195365Y-79046645D01*
X117171560Y-79062551D01*
X117171596Y-79062609D01*
X117104601Y-79107372D01*
X117081464Y-79111974D01*
X117081197Y-79111232D01*
X116986346Y-79130100D01*
X116986361Y-79130498D01*
X116985411Y-79130689D01*
X116863804Y-79106498D01*
X116864274Y-79105302D01*
X116861373Y-79104725D01*
X116810850Y-79070966D01*
X116810786Y-79071047D01*
X116774584Y-79046859D01*
X116760494Y-79025769D01*
X116852356Y-78947336D01*
X116850019Y-78949582D01*
X116852404Y-78953153D01*
X116914825Y-78994862D01*
X116914855Y-78994878D01*
X116917962Y-78996953D01*
X116987573Y-79010798D01*
X116988660Y-79010582D01*
X116988604Y-79010257D01*
X116990783Y-79010692D01*
X117048005Y-78999307D01*
X117047509Y-78997875D01*
X117101004Y-78975718D01*
X117100265Y-78974870D01*
X117104697Y-78973034D01*
X117126173Y-78921187D01*
X117127588Y-78921665D01*
X117140268Y-78857921D01*
X117139493Y-78854032D01*
X116749933Y-78854093D01*
X116749933Y-78751380D01*
X116745178Y-78751457D01*
X116744259Y-78746834D01*
X116765117Y-78641980D01*
X116765470Y-78642059D01*
X116766049Y-78639148D01*
X116816298Y-78563944D01*
X116824721Y-78558318D01*
X116823977Y-78557581D01*
X116905328Y-78503222D01*
X116907736Y-78502742D01*
X116908028Y-78503355D01*
X117003382Y-78484386D01*
X117005307Y-78484769D01*
G37*
G36*
X120604490Y-77497098D02*
G01*
X120604459Y-77497202D01*
X120694538Y-77515122D01*
X120695264Y-77513435D01*
X120695503Y-77513484D01*
X120779082Y-77569328D01*
X120778340Y-77570181D01*
X120791248Y-77578807D01*
X120813872Y-77612665D01*
X120813905Y-77612645D01*
X120837169Y-77647461D01*
X120841223Y-77667855D01*
X120842137Y-77667557D01*
X120856125Y-77737887D01*
X120856630Y-77737821D01*
X120872676Y-77818484D01*
X120872030Y-77821725D01*
X120871987Y-77821598D01*
X120872726Y-77825319D01*
X120855998Y-77909419D01*
X120855538Y-77909355D01*
X120841139Y-77981740D01*
X120839841Y-77981293D01*
X120837039Y-77995375D01*
X120809978Y-78035878D01*
X120809981Y-78035878D01*
X120794553Y-78058969D01*
X120770733Y-78074884D01*
X120770771Y-78074938D01*
X120703773Y-78119703D01*
X120680639Y-78124305D01*
X120680375Y-78123564D01*
X120585521Y-78142431D01*
X120585534Y-78142827D01*
X120584589Y-78143017D01*
X120462984Y-78118829D01*
X120463459Y-78117630D01*
X120460545Y-78117048D01*
X120410027Y-78083294D01*
X120409960Y-78083378D01*
X120373774Y-78059200D01*
X120359674Y-78038100D01*
X120451533Y-77959668D01*
X120449199Y-77961908D01*
X120451589Y-77965487D01*
X120514000Y-78007188D01*
X120514028Y-78007209D01*
X120517134Y-78009284D01*
X120586745Y-78023129D01*
X120587832Y-78022914D01*
X120587774Y-78022588D01*
X120589956Y-78023023D01*
X120647180Y-78011638D01*
X120646684Y-78010206D01*
X120700182Y-77988047D01*
X120699443Y-77987199D01*
X120703885Y-77985360D01*
X120725361Y-77933518D01*
X120726776Y-77933996D01*
X120739458Y-77870237D01*
X120738686Y-77866363D01*
X120349105Y-77866424D01*
X120349105Y-77763712D01*
X120344351Y-77763788D01*
X120343431Y-77759165D01*
X120364290Y-77654311D01*
X120364643Y-77654390D01*
X120365222Y-77651479D01*
X120415471Y-77576275D01*
X120423893Y-77570649D01*
X120423152Y-77569915D01*
X120504495Y-77515559D01*
X120506921Y-77515079D01*
X120507210Y-77515681D01*
X120602564Y-77496714D01*
X120604490Y-77497098D01*
G37*
G36*
X118085142Y-78483591D02*
G01*
X118084894Y-78485089D01*
X118092300Y-78483616D01*
X118148112Y-78494719D01*
X118148104Y-78494741D01*
X118200265Y-78505120D01*
X118204586Y-78508005D01*
X118204357Y-78508569D01*
X118270535Y-78552788D01*
X118288889Y-78580258D01*
X118193590Y-78655229D01*
X118183260Y-78630296D01*
X118150710Y-78616814D01*
X118151111Y-78615584D01*
X118118475Y-78609092D01*
X118118510Y-78608843D01*
X118080611Y-78601305D01*
X118078953Y-78601635D01*
X118079092Y-78603616D01*
X118070906Y-78601988D01*
X118024536Y-78611211D01*
X118024071Y-78608622D01*
X117985003Y-78624802D01*
X117985252Y-78625224D01*
X117970708Y-78631249D01*
X117962400Y-78651307D01*
X117962478Y-78651350D01*
X117948546Y-78684980D01*
X117949618Y-78687568D01*
X117955039Y-78753103D01*
X118123161Y-78753103D01*
X118123131Y-78748429D01*
X118124835Y-78748091D01*
X118209011Y-78764835D01*
X118208769Y-78765569D01*
X118217210Y-78767248D01*
X118268965Y-78801830D01*
X118271180Y-78805142D01*
X118271396Y-78804941D01*
X118308106Y-78859887D01*
X118309099Y-78864870D01*
X118309077Y-78864908D01*
X118323044Y-78935119D01*
X118322602Y-78937334D01*
X118322325Y-78937255D01*
X118322820Y-78939744D01*
X118308223Y-79013138D01*
X118308165Y-79013224D01*
X118307433Y-79012967D01*
X118270542Y-79068182D01*
X118262981Y-79073234D01*
X118263862Y-79074016D01*
X118208729Y-79110857D01*
X118197139Y-79113163D01*
X118197403Y-79113971D01*
X118106552Y-79132040D01*
X118106570Y-79132911D01*
X118103960Y-79133432D01*
X118052247Y-79123148D01*
X118052270Y-79123005D01*
X118008302Y-79114260D01*
X118009550Y-79111174D01*
X117969539Y-79094601D01*
X117957233Y-79064890D01*
X117955039Y-79064682D01*
X117955039Y-79119480D01*
X117834254Y-79119480D01*
X117834254Y-78694573D01*
X117828625Y-78694533D01*
X117839044Y-78642148D01*
X117839060Y-78642150D01*
X117847932Y-78597548D01*
X117848651Y-78596471D01*
X117852176Y-78597957D01*
X117875465Y-78541736D01*
X117900975Y-78531170D01*
X117903093Y-78534162D01*
X117941241Y-78508671D01*
X117982979Y-78500370D01*
X117982960Y-78500301D01*
X118076062Y-78481782D01*
X118085142Y-78483591D01*
G37*
G36*
X120614261Y-78483591D02*
G01*
X120614010Y-78485089D01*
X120621416Y-78483616D01*
X120677228Y-78494719D01*
X120677223Y-78494741D01*
X120729384Y-78505120D01*
X120733705Y-78508005D01*
X120733473Y-78508572D01*
X120799648Y-78552785D01*
X120818002Y-78580258D01*
X120722706Y-78655229D01*
X120712376Y-78630296D01*
X120679826Y-78616814D01*
X120680227Y-78615584D01*
X120647591Y-78609092D01*
X120647627Y-78608843D01*
X120609727Y-78601305D01*
X120608069Y-78601635D01*
X120608211Y-78603616D01*
X120600024Y-78601988D01*
X120553654Y-78611211D01*
X120553189Y-78608622D01*
X120514122Y-78624802D01*
X120514371Y-78625224D01*
X120499827Y-78631249D01*
X120491518Y-78651307D01*
X120491597Y-78651350D01*
X120477665Y-78684980D01*
X120478737Y-78687568D01*
X120484157Y-78753103D01*
X120652277Y-78753103D01*
X120652247Y-78748429D01*
X120653951Y-78748091D01*
X120738127Y-78764835D01*
X120737885Y-78765569D01*
X120746326Y-78767248D01*
X120798081Y-78801830D01*
X120800296Y-78805142D01*
X120800512Y-78804941D01*
X120837227Y-78859889D01*
X120838218Y-78864870D01*
X120838195Y-78864908D01*
X120852163Y-78935119D01*
X120851721Y-78937334D01*
X120851444Y-78937255D01*
X120851939Y-78939744D01*
X120837342Y-79013138D01*
X120837283Y-79013224D01*
X120836552Y-79012967D01*
X120799661Y-79068182D01*
X120792099Y-79073234D01*
X120792981Y-79074016D01*
X120737847Y-79110857D01*
X120726257Y-79113163D01*
X120726522Y-79113971D01*
X120635671Y-79132040D01*
X120635689Y-79132911D01*
X120633075Y-79133432D01*
X120581363Y-79123148D01*
X120581386Y-79123005D01*
X120537421Y-79114260D01*
X120538668Y-79111174D01*
X120498658Y-79094601D01*
X120486352Y-79064890D01*
X120484157Y-79064682D01*
X120484157Y-79119480D01*
X120363370Y-79119480D01*
X120363370Y-78694573D01*
X120357744Y-78694533D01*
X120368163Y-78642148D01*
X120368178Y-78642150D01*
X120377053Y-78597535D01*
X120377764Y-78596471D01*
X120381295Y-78597957D01*
X120404582Y-78541736D01*
X120430093Y-78531168D01*
X120432212Y-78534162D01*
X120470360Y-78508671D01*
X120512097Y-78500370D01*
X120512082Y-78500301D01*
X120605181Y-78481782D01*
X120614261Y-78483591D01*
G37*
G36*
X116945579Y-77516552D02*
G01*
X116945922Y-77515759D01*
X116953171Y-77517200D01*
X117037873Y-77573796D01*
X117037184Y-77574576D01*
X117051114Y-77583885D01*
X117074322Y-77618614D01*
X117074327Y-77618614D01*
X117100913Y-77658403D01*
X117103786Y-77672853D01*
X117104756Y-77672515D01*
X117118317Y-77740692D01*
X117118568Y-77740656D01*
X117133801Y-77817235D01*
X117133252Y-77819995D01*
X117133227Y-77819894D01*
X117133780Y-77822675D01*
X117118561Y-77899188D01*
X117118312Y-77899150D01*
X117104776Y-77967206D01*
X117103791Y-77966863D01*
X117100986Y-77980965D01*
X117074322Y-78020871D01*
X117074319Y-78020866D01*
X117051672Y-78054763D01*
X117037095Y-78064501D01*
X117037740Y-78065240D01*
X116954225Y-78121044D01*
X116945843Y-78122713D01*
X116945523Y-78121968D01*
X116843077Y-78142347D01*
X116841724Y-78142078D01*
X116841772Y-78142045D01*
X116840294Y-78142337D01*
X116774800Y-78129309D01*
X116735559Y-78121504D01*
X116714696Y-78107562D01*
X116714444Y-78108042D01*
X116629672Y-78051397D01*
X116616400Y-78031539D01*
X116710347Y-77947310D01*
X116723685Y-77967272D01*
X116767911Y-77996823D01*
X116768059Y-77996566D01*
X116835650Y-78024562D01*
X116836976Y-78024016D01*
X116836819Y-78015443D01*
X116840786Y-78016233D01*
X116908434Y-78002776D01*
X116907568Y-78000457D01*
X116958017Y-77979561D01*
X116962701Y-77968253D01*
X116958548Y-77964748D01*
X116984136Y-77926452D01*
X116988556Y-77904235D01*
X116988830Y-77904306D01*
X117004609Y-77824987D01*
X117003590Y-77819861D01*
X117003638Y-77820029D01*
X117004662Y-77814877D01*
X116988818Y-77735215D01*
X116988546Y-77735286D01*
X116984060Y-77712736D01*
X116958523Y-77674520D01*
X116962635Y-77671065D01*
X116957819Y-77659447D01*
X116907565Y-77638629D01*
X116908452Y-77636270D01*
X116840774Y-77622808D01*
X116836819Y-77623595D01*
X116836966Y-77614924D01*
X116835772Y-77614428D01*
X116768371Y-77642350D01*
X116768170Y-77641992D01*
X116722750Y-77672343D01*
X116710223Y-77691088D01*
X116618539Y-77609356D01*
X116616365Y-77607458D01*
X116629761Y-77587410D01*
X116714490Y-77530799D01*
X116714739Y-77531269D01*
X116736309Y-77516854D01*
X116774795Y-77509199D01*
X116840296Y-77496171D01*
X116841772Y-77496463D01*
X116841721Y-77496425D01*
X116843057Y-77496158D01*
X116945579Y-77516552D01*
G37*
G36*
X121164364Y-77497555D02*
G01*
X121164293Y-77498081D01*
X121166589Y-77497624D01*
X121248900Y-77513997D01*
X121253330Y-77516956D01*
X121253191Y-77517375D01*
X121318093Y-77560743D01*
X121326152Y-77572803D01*
X121324714Y-77508939D01*
X121449517Y-77508939D01*
X121449517Y-79117186D01*
X121324709Y-79117186D01*
X121324709Y-78747649D01*
X121327432Y-78747695D01*
X121327983Y-78744919D01*
X121317310Y-78691254D01*
X121316144Y-78691645D01*
X121296094Y-78643232D01*
X121296144Y-78643230D01*
X121295603Y-78641922D01*
X121250054Y-78623055D01*
X121250066Y-78623027D01*
X121202693Y-78603405D01*
X121200935Y-78604132D01*
X121201174Y-78604452D01*
X121199609Y-78603801D01*
X121153150Y-78623047D01*
X121153155Y-78623065D01*
X121107996Y-78641769D01*
X121107392Y-78643227D01*
X121107455Y-78643227D01*
X121087405Y-78691642D01*
X121086241Y-78691254D01*
X121075568Y-78744919D01*
X121076119Y-78747695D01*
X121078842Y-79117186D01*
X120954037Y-79117186D01*
X120954037Y-78704614D01*
X120948883Y-78704639D01*
X120948604Y-78703230D01*
X120958177Y-78655102D01*
X120958190Y-78655107D01*
X120967067Y-78610479D01*
X120967143Y-78610370D01*
X120967783Y-78610631D01*
X121005640Y-78553974D01*
X121020852Y-78543809D01*
X121020351Y-78543225D01*
X121086343Y-78499131D01*
X121088063Y-78498788D01*
X121088619Y-78500111D01*
X121160877Y-78485737D01*
X121160821Y-78485887D01*
X121164834Y-78485089D01*
X121250694Y-78502168D01*
X121254318Y-78504586D01*
X121253907Y-78505635D01*
X121309604Y-78542852D01*
X121322794Y-78562592D01*
X121324709Y-78562885D01*
X121324714Y-78070282D01*
X121252268Y-78118689D01*
X121252111Y-78118451D01*
X121241199Y-78125743D01*
X121167407Y-78140422D01*
X121164283Y-78139799D01*
X121164364Y-78141013D01*
X121162690Y-78141344D01*
X121111423Y-78131145D01*
X121111425Y-78131138D01*
X121081065Y-78125100D01*
X121065977Y-78115016D01*
X121065863Y-78115232D01*
X121013338Y-78080137D01*
X120997834Y-78056932D01*
X120997877Y-78056899D01*
X120970605Y-78016078D01*
X120963206Y-77978890D01*
X120963140Y-77978903D01*
X120950826Y-77917006D01*
X120954481Y-77916871D01*
X120945690Y-77827646D01*
X120946455Y-77819912D01*
X120946381Y-77819980D01*
X120945607Y-77812127D01*
X120954441Y-77722444D01*
X120950837Y-77722312D01*
X120963148Y-77660415D01*
X120963211Y-77660425D01*
X120970659Y-77622993D01*
X120997931Y-77582175D01*
X120997700Y-77581985D01*
X121012734Y-77559483D01*
X121065929Y-77523938D01*
X121066059Y-77524179D01*
X121082513Y-77513189D01*
X121111418Y-77507437D01*
X121111415Y-77507423D01*
X121162695Y-77497222D01*
X121164364Y-77497555D01*
G37*
G36*
X119127002Y-77493179D02*
G01*
X119126898Y-77496133D01*
X119130198Y-77495475D01*
X119217815Y-77512904D01*
X119217769Y-77513070D01*
X119244592Y-77518404D01*
X119292031Y-77550100D01*
X119294330Y-77546892D01*
X119319946Y-77557502D01*
X119341754Y-77610156D01*
X119344345Y-77609015D01*
X119346908Y-77612848D01*
X119362054Y-77688995D01*
X119361236Y-77693105D01*
X119361231Y-77693079D01*
X119361218Y-77693196D01*
X119361236Y-77693105D01*
X119361899Y-77696424D01*
X119348173Y-77765431D01*
X119345503Y-77764392D01*
X119322453Y-77820041D01*
X119312689Y-77824087D01*
X119308589Y-77819406D01*
X119254797Y-77855352D01*
X119251168Y-77856074D01*
X119251323Y-77856528D01*
X119179588Y-77870798D01*
X119069573Y-77879048D01*
X119068984Y-77871072D01*
X119036106Y-77884692D01*
X119036197Y-77884984D01*
X119010927Y-77895451D01*
X119011387Y-77896081D01*
X119005374Y-77898570D01*
X118998267Y-77915726D01*
X118998288Y-77915733D01*
X118988722Y-77938824D01*
X118989187Y-77939950D01*
X118988598Y-77939762D01*
X118987935Y-77941362D01*
X119001795Y-77974826D01*
X119001544Y-77974999D01*
X119008504Y-77991806D01*
X119028064Y-77999909D01*
X119027726Y-78000488D01*
X119067076Y-78016787D01*
X119067543Y-78014651D01*
X119114079Y-78023907D01*
X119116083Y-78023508D01*
X119116001Y-78024575D01*
X119118610Y-78025093D01*
X119223842Y-78004161D01*
X119224129Y-78004704D01*
X119315491Y-77943658D01*
X119398932Y-78026231D01*
X119403230Y-78030737D01*
X119275003Y-78116413D01*
X119274619Y-78116490D01*
X119274035Y-78115260D01*
X119128343Y-78144242D01*
X119125753Y-78143726D01*
X119125857Y-78143426D01*
X119122471Y-78144099D01*
X119026243Y-78124958D01*
X119026271Y-78124846D01*
X118988915Y-78117417D01*
X118943480Y-78087056D01*
X118943464Y-78087084D01*
X118913348Y-78066960D01*
X118886825Y-78027270D01*
X118886391Y-78027475D01*
X118878595Y-78015807D01*
X118865354Y-77949238D01*
X118866030Y-77945842D01*
X118864849Y-77945929D01*
X118864478Y-77944064D01*
X118877793Y-77877130D01*
X118877828Y-77877133D01*
X118880620Y-77863094D01*
X118909997Y-77819129D01*
X118905918Y-77815835D01*
X118912337Y-77800344D01*
X118965885Y-77778162D01*
X118964422Y-77774712D01*
X118965948Y-77773694D01*
X119003835Y-77766158D01*
X119003830Y-77766142D01*
X119048450Y-77757268D01*
X119151341Y-77752810D01*
X119151437Y-77754557D01*
X119191399Y-77746605D01*
X119191302Y-77746305D01*
X119218737Y-77734941D01*
X119219357Y-77735439D01*
X119220401Y-77735005D01*
X119229128Y-77713935D01*
X119229087Y-77713917D01*
X119237220Y-77694281D01*
X119238381Y-77694403D01*
X119239136Y-77692584D01*
X119217149Y-77639506D01*
X119212648Y-77637641D01*
X119212367Y-77637819D01*
X119177820Y-77623511D01*
X119177584Y-77624609D01*
X119130794Y-77615302D01*
X119126893Y-77616079D01*
X119127020Y-77615579D01*
X119122981Y-77614776D01*
X119035915Y-77632094D01*
X119034191Y-77628106D01*
X119033990Y-77628144D01*
X118960818Y-77677037D01*
X118883660Y-77586117D01*
X118882309Y-77584499D01*
X118977571Y-77520847D01*
X118985529Y-77519262D01*
X118985946Y-77520301D01*
X119051485Y-77507263D01*
X119051468Y-77507156D01*
X119124366Y-77492656D01*
X119127002Y-77493179D01*
G37*
G36*
X119474116Y-72827737D02*
G01*
X119481223Y-72844900D01*
X119480611Y-72845017D01*
X119587530Y-73402504D01*
X119594637Y-73419661D01*
X119606118Y-73424416D01*
X120072980Y-73617797D01*
X120084461Y-73622552D01*
X120101618Y-73615445D01*
X120101270Y-73614929D01*
X120571074Y-73296329D01*
X120588237Y-73289222D01*
X120611196Y-73298732D01*
X120609448Y-73300480D01*
X121012892Y-73700428D01*
X121022401Y-73723390D01*
X121015292Y-73740550D01*
X121014779Y-73740199D01*
X120696179Y-74210003D01*
X120689072Y-74227165D01*
X120693827Y-74238644D01*
X120887207Y-74705506D01*
X120891962Y-74716987D01*
X120909125Y-74724096D01*
X120909242Y-74723481D01*
X121466723Y-74830400D01*
X121483886Y-74837507D01*
X121493396Y-74860469D01*
X121490925Y-74860469D01*
X121493396Y-75428552D01*
X121483886Y-75451514D01*
X121466723Y-75458621D01*
X121466607Y-75458009D01*
X120909125Y-75564925D01*
X120891962Y-75572035D01*
X120887207Y-75583515D01*
X120693827Y-76050377D01*
X120689072Y-76061856D01*
X120696179Y-76079019D01*
X120696697Y-76078668D01*
X121015292Y-76548471D01*
X121022401Y-76565632D01*
X121012892Y-76588593D01*
X121011144Y-76586846D01*
X120611196Y-76990289D01*
X120588234Y-76999799D01*
X120571074Y-76992690D01*
X120571424Y-76992176D01*
X120101621Y-76673577D01*
X120084458Y-76666470D01*
X120072980Y-76671225D01*
X119859201Y-76759774D01*
X119847720Y-76764529D01*
X119824758Y-76755019D01*
X119819945Y-76743399D01*
X119426367Y-75779466D01*
X119421670Y-75768128D01*
X119431180Y-75745166D01*
X119441589Y-75740856D01*
X119441805Y-75741320D01*
X119498196Y-75717963D01*
X119635333Y-75612730D01*
X119740565Y-75475593D01*
X119806714Y-75315893D01*
X119829277Y-75144512D01*
X119806714Y-74973130D01*
X119740565Y-74813431D01*
X119635333Y-74676293D01*
X119498196Y-74571061D01*
X119338496Y-74504912D01*
X119167114Y-74482349D01*
X118995733Y-74504912D01*
X118836033Y-74571061D01*
X118698896Y-74676293D01*
X118593663Y-74813431D01*
X118527514Y-74973130D01*
X118504951Y-75144512D01*
X118527514Y-75315893D01*
X118593663Y-75475593D01*
X118698896Y-75612730D01*
X118836033Y-75717963D01*
X118892423Y-75741320D01*
X118892637Y-75740853D01*
X118903046Y-75745163D01*
X118912555Y-75768125D01*
X118907859Y-75779466D01*
X118514281Y-76743399D01*
X118509468Y-76755019D01*
X118486506Y-76764529D01*
X118475025Y-76759774D01*
X118261246Y-76671225D01*
X118249768Y-76666470D01*
X118232605Y-76673577D01*
X118232956Y-76674095D01*
X117763152Y-76992690D01*
X117745992Y-76999799D01*
X117723030Y-76990289D01*
X117724778Y-76988542D01*
X117321334Y-76588593D01*
X117311825Y-76565634D01*
X117318931Y-76548471D01*
X117319450Y-76548822D01*
X117638047Y-76079016D01*
X117645154Y-76061858D01*
X117640399Y-76050377D01*
X117447019Y-75583515D01*
X117442264Y-75572035D01*
X117425106Y-75564928D01*
X117424987Y-75565540D01*
X116867502Y-75458621D01*
X116850340Y-75451514D01*
X116840830Y-75428552D01*
X116843301Y-75428552D01*
X116840830Y-74860469D01*
X116850340Y-74837507D01*
X116867502Y-74830400D01*
X116867619Y-74831012D01*
X117425106Y-74724094D01*
X117442264Y-74716987D01*
X117447019Y-74705506D01*
X117640399Y-74238644D01*
X117645154Y-74227163D01*
X117638047Y-74210005D01*
X117637531Y-74210353D01*
X117318931Y-73740550D01*
X117311825Y-73723387D01*
X117321334Y-73700428D01*
X117323082Y-73702175D01*
X117723030Y-73298732D01*
X117745989Y-73289222D01*
X117763152Y-73296329D01*
X117762802Y-73296847D01*
X118232608Y-73615445D01*
X118249765Y-73622552D01*
X118261246Y-73617797D01*
X118728108Y-73424416D01*
X118739589Y-73419661D01*
X118746696Y-73402504D01*
X118746084Y-73402384D01*
X118853003Y-72844900D01*
X118860109Y-72827737D01*
X118883071Y-72818227D01*
X118883071Y-72820699D01*
X119451155Y-72818227D01*
X119474116Y-72827737D01*
G37*
%TO.C,DESIGN*%
G36*
X105575000Y-63325000D02*
G01*
X105825000Y-63325000D01*
X105825000Y-63575000D01*
X105575000Y-63575000D01*
X105575000Y-63325000D01*
G37*
G36*
X105575000Y-63575000D02*
G01*
X105825000Y-63575000D01*
X105825000Y-63825000D01*
X105575000Y-63825000D01*
X105575000Y-63575000D01*
G37*
G36*
X105575000Y-63825000D02*
G01*
X105825000Y-63825000D01*
X105825000Y-64075000D01*
X105575000Y-64075000D01*
X105575000Y-63825000D01*
G37*
G36*
X105575000Y-64075000D02*
G01*
X105825000Y-64075000D01*
X105825000Y-64325000D01*
X105575000Y-64325000D01*
X105575000Y-64075000D01*
G37*
G36*
X105575000Y-64325000D02*
G01*
X105825000Y-64325000D01*
X105825000Y-64575000D01*
X105575000Y-64575000D01*
X105575000Y-64325000D01*
G37*
G36*
X105575000Y-64575000D02*
G01*
X105825000Y-64575000D01*
X105825000Y-64825000D01*
X105575000Y-64825000D01*
X105575000Y-64575000D01*
G37*
G36*
X105575000Y-64825000D02*
G01*
X105825000Y-64825000D01*
X105825000Y-65075000D01*
X105575000Y-65075000D01*
X105575000Y-64825000D01*
G37*
G36*
X105575000Y-65325000D02*
G01*
X105825000Y-65325000D01*
X105825000Y-65575000D01*
X105575000Y-65575000D01*
X105575000Y-65325000D01*
G37*
G36*
X105575000Y-65825000D02*
G01*
X105825000Y-65825000D01*
X105825000Y-66075000D01*
X105575000Y-66075000D01*
X105575000Y-65825000D01*
G37*
G36*
X105575000Y-66325000D02*
G01*
X105825000Y-66325000D01*
X105825000Y-66575000D01*
X105575000Y-66575000D01*
X105575000Y-66325000D01*
G37*
G36*
X105575000Y-67825000D02*
G01*
X105825000Y-67825000D01*
X105825000Y-68075000D01*
X105575000Y-68075000D01*
X105575000Y-67825000D01*
G37*
G36*
X105575000Y-68325000D02*
G01*
X105825000Y-68325000D01*
X105825000Y-68575000D01*
X105575000Y-68575000D01*
X105575000Y-68325000D01*
G37*
G36*
X105575000Y-68575000D02*
G01*
X105825000Y-68575000D01*
X105825000Y-68825000D01*
X105575000Y-68825000D01*
X105575000Y-68575000D01*
G37*
G36*
X105575000Y-69075000D02*
G01*
X105825000Y-69075000D01*
X105825000Y-69325000D01*
X105575000Y-69325000D01*
X105575000Y-69075000D01*
G37*
G36*
X105575000Y-69325000D02*
G01*
X105825000Y-69325000D01*
X105825000Y-69575000D01*
X105575000Y-69575000D01*
X105575000Y-69325000D01*
G37*
G36*
X105575000Y-69825000D02*
G01*
X105825000Y-69825000D01*
X105825000Y-70075000D01*
X105575000Y-70075000D01*
X105575000Y-69825000D01*
G37*
G36*
X105575000Y-70075000D02*
G01*
X105825000Y-70075000D01*
X105825000Y-70325000D01*
X105575000Y-70325000D01*
X105575000Y-70075000D01*
G37*
G36*
X105575000Y-70325000D02*
G01*
X105825000Y-70325000D01*
X105825000Y-70575000D01*
X105575000Y-70575000D01*
X105575000Y-70325000D01*
G37*
G36*
X105575000Y-70575000D02*
G01*
X105825000Y-70575000D01*
X105825000Y-70825000D01*
X105575000Y-70825000D01*
X105575000Y-70575000D01*
G37*
G36*
X105575000Y-70825000D02*
G01*
X105825000Y-70825000D01*
X105825000Y-71075000D01*
X105575000Y-71075000D01*
X105575000Y-70825000D01*
G37*
G36*
X105575000Y-71075000D02*
G01*
X105825000Y-71075000D01*
X105825000Y-71325000D01*
X105575000Y-71325000D01*
X105575000Y-71075000D01*
G37*
G36*
X105575000Y-71325000D02*
G01*
X105825000Y-71325000D01*
X105825000Y-71575000D01*
X105575000Y-71575000D01*
X105575000Y-71325000D01*
G37*
G36*
X105825000Y-63325000D02*
G01*
X106075000Y-63325000D01*
X106075000Y-63575000D01*
X105825000Y-63575000D01*
X105825000Y-63325000D01*
G37*
G36*
X105825000Y-64825000D02*
G01*
X106075000Y-64825000D01*
X106075000Y-65075000D01*
X105825000Y-65075000D01*
X105825000Y-64825000D01*
G37*
G36*
X105825000Y-65575000D02*
G01*
X106075000Y-65575000D01*
X106075000Y-65825000D01*
X105825000Y-65825000D01*
X105825000Y-65575000D01*
G37*
G36*
X105825000Y-65825000D02*
G01*
X106075000Y-65825000D01*
X106075000Y-66075000D01*
X105825000Y-66075000D01*
X105825000Y-65825000D01*
G37*
G36*
X105825000Y-66075000D02*
G01*
X106075000Y-66075000D01*
X106075000Y-66325000D01*
X105825000Y-66325000D01*
X105825000Y-66075000D01*
G37*
G36*
X105825000Y-66325000D02*
G01*
X106075000Y-66325000D01*
X106075000Y-66575000D01*
X105825000Y-66575000D01*
X105825000Y-66325000D01*
G37*
G36*
X105825000Y-66575000D02*
G01*
X106075000Y-66575000D01*
X106075000Y-66825000D01*
X105825000Y-66825000D01*
X105825000Y-66575000D01*
G37*
G36*
X105825000Y-67325000D02*
G01*
X106075000Y-67325000D01*
X106075000Y-67575000D01*
X105825000Y-67575000D01*
X105825000Y-67325000D01*
G37*
G36*
X105825000Y-67575000D02*
G01*
X106075000Y-67575000D01*
X106075000Y-67825000D01*
X105825000Y-67825000D01*
X105825000Y-67575000D01*
G37*
G36*
X105825000Y-67825000D02*
G01*
X106075000Y-67825000D01*
X106075000Y-68075000D01*
X105825000Y-68075000D01*
X105825000Y-67825000D01*
G37*
G36*
X105825000Y-69075000D02*
G01*
X106075000Y-69075000D01*
X106075000Y-69325000D01*
X105825000Y-69325000D01*
X105825000Y-69075000D01*
G37*
G36*
X105825000Y-69825000D02*
G01*
X106075000Y-69825000D01*
X106075000Y-70075000D01*
X105825000Y-70075000D01*
X105825000Y-69825000D01*
G37*
G36*
X105825000Y-71325000D02*
G01*
X106075000Y-71325000D01*
X106075000Y-71575000D01*
X105825000Y-71575000D01*
X105825000Y-71325000D01*
G37*
G36*
X106075000Y-63325000D02*
G01*
X106325000Y-63325000D01*
X106325000Y-63575000D01*
X106075000Y-63575000D01*
X106075000Y-63325000D01*
G37*
G36*
X106075000Y-63825000D02*
G01*
X106325000Y-63825000D01*
X106325000Y-64075000D01*
X106075000Y-64075000D01*
X106075000Y-63825000D01*
G37*
G36*
X106075000Y-64075000D02*
G01*
X106325000Y-64075000D01*
X106325000Y-64325000D01*
X106075000Y-64325000D01*
X106075000Y-64075000D01*
G37*
G36*
X106075000Y-64325000D02*
G01*
X106325000Y-64325000D01*
X106325000Y-64575000D01*
X106075000Y-64575000D01*
X106075000Y-64325000D01*
G37*
G36*
X106075000Y-64825000D02*
G01*
X106325000Y-64825000D01*
X106325000Y-65075000D01*
X106075000Y-65075000D01*
X106075000Y-64825000D01*
G37*
G36*
X106075000Y-65325000D02*
G01*
X106325000Y-65325000D01*
X106325000Y-65575000D01*
X106075000Y-65575000D01*
X106075000Y-65325000D01*
G37*
G36*
X106075000Y-65825000D02*
G01*
X106325000Y-65825000D01*
X106325000Y-66075000D01*
X106075000Y-66075000D01*
X106075000Y-65825000D01*
G37*
G36*
X106075000Y-66075000D02*
G01*
X106325000Y-66075000D01*
X106325000Y-66325000D01*
X106075000Y-66325000D01*
X106075000Y-66075000D01*
G37*
G36*
X106075000Y-66325000D02*
G01*
X106325000Y-66325000D01*
X106325000Y-66575000D01*
X106075000Y-66575000D01*
X106075000Y-66325000D01*
G37*
G36*
X106075000Y-67075000D02*
G01*
X106325000Y-67075000D01*
X106325000Y-67325000D01*
X106075000Y-67325000D01*
X106075000Y-67075000D01*
G37*
G36*
X106075000Y-67825000D02*
G01*
X106325000Y-67825000D01*
X106325000Y-68075000D01*
X106075000Y-68075000D01*
X106075000Y-67825000D01*
G37*
G36*
X106075000Y-68325000D02*
G01*
X106325000Y-68325000D01*
X106325000Y-68575000D01*
X106075000Y-68575000D01*
X106075000Y-68325000D01*
G37*
G36*
X106075000Y-69825000D02*
G01*
X106325000Y-69825000D01*
X106325000Y-70075000D01*
X106075000Y-70075000D01*
X106075000Y-69825000D01*
G37*
G36*
X106075000Y-70325000D02*
G01*
X106325000Y-70325000D01*
X106325000Y-70575000D01*
X106075000Y-70575000D01*
X106075000Y-70325000D01*
G37*
G36*
X106075000Y-70575000D02*
G01*
X106325000Y-70575000D01*
X106325000Y-70825000D01*
X106075000Y-70825000D01*
X106075000Y-70575000D01*
G37*
G36*
X106075000Y-70825000D02*
G01*
X106325000Y-70825000D01*
X106325000Y-71075000D01*
X106075000Y-71075000D01*
X106075000Y-70825000D01*
G37*
G36*
X106075000Y-71325000D02*
G01*
X106325000Y-71325000D01*
X106325000Y-71575000D01*
X106075000Y-71575000D01*
X106075000Y-71325000D01*
G37*
G36*
X106325000Y-63325000D02*
G01*
X106575000Y-63325000D01*
X106575000Y-63575000D01*
X106325000Y-63575000D01*
X106325000Y-63325000D01*
G37*
G36*
X106325000Y-63825000D02*
G01*
X106575000Y-63825000D01*
X106575000Y-64075000D01*
X106325000Y-64075000D01*
X106325000Y-63825000D01*
G37*
G36*
X106325000Y-64075000D02*
G01*
X106575000Y-64075000D01*
X106575000Y-64325000D01*
X106325000Y-64325000D01*
X106325000Y-64075000D01*
G37*
G36*
X106325000Y-64325000D02*
G01*
X106575000Y-64325000D01*
X106575000Y-64575000D01*
X106325000Y-64575000D01*
X106325000Y-64325000D01*
G37*
G36*
X106325000Y-64825000D02*
G01*
X106575000Y-64825000D01*
X106575000Y-65075000D01*
X106325000Y-65075000D01*
X106325000Y-64825000D01*
G37*
G36*
X106325000Y-65325000D02*
G01*
X106575000Y-65325000D01*
X106575000Y-65575000D01*
X106325000Y-65575000D01*
X106325000Y-65325000D01*
G37*
G36*
X106325000Y-65575000D02*
G01*
X106575000Y-65575000D01*
X106575000Y-65825000D01*
X106325000Y-65825000D01*
X106325000Y-65575000D01*
G37*
G36*
X106325000Y-66325000D02*
G01*
X106575000Y-66325000D01*
X106575000Y-66575000D01*
X106325000Y-66575000D01*
X106325000Y-66325000D01*
G37*
G36*
X106325000Y-67075000D02*
G01*
X106575000Y-67075000D01*
X106575000Y-67325000D01*
X106325000Y-67325000D01*
X106325000Y-67075000D01*
G37*
G36*
X106325000Y-67325000D02*
G01*
X106575000Y-67325000D01*
X106575000Y-67575000D01*
X106325000Y-67575000D01*
X106325000Y-67325000D01*
G37*
G36*
X106325000Y-67575000D02*
G01*
X106575000Y-67575000D01*
X106575000Y-67825000D01*
X106325000Y-67825000D01*
X106325000Y-67575000D01*
G37*
G36*
X106325000Y-68575000D02*
G01*
X106575000Y-68575000D01*
X106575000Y-68825000D01*
X106325000Y-68825000D01*
X106325000Y-68575000D01*
G37*
G36*
X106325000Y-69075000D02*
G01*
X106575000Y-69075000D01*
X106575000Y-69325000D01*
X106325000Y-69325000D01*
X106325000Y-69075000D01*
G37*
G36*
X106325000Y-69325000D02*
G01*
X106575000Y-69325000D01*
X106575000Y-69575000D01*
X106325000Y-69575000D01*
X106325000Y-69325000D01*
G37*
G36*
X106325000Y-69825000D02*
G01*
X106575000Y-69825000D01*
X106575000Y-70075000D01*
X106325000Y-70075000D01*
X106325000Y-69825000D01*
G37*
G36*
X106325000Y-70325000D02*
G01*
X106575000Y-70325000D01*
X106575000Y-70575000D01*
X106325000Y-70575000D01*
X106325000Y-70325000D01*
G37*
G36*
X106325000Y-70575000D02*
G01*
X106575000Y-70575000D01*
X106575000Y-70825000D01*
X106325000Y-70825000D01*
X106325000Y-70575000D01*
G37*
G36*
X106325000Y-70825000D02*
G01*
X106575000Y-70825000D01*
X106575000Y-71075000D01*
X106325000Y-71075000D01*
X106325000Y-70825000D01*
G37*
G36*
X106325000Y-71325000D02*
G01*
X106575000Y-71325000D01*
X106575000Y-71575000D01*
X106325000Y-71575000D01*
X106325000Y-71325000D01*
G37*
G36*
X106575000Y-63325000D02*
G01*
X106825000Y-63325000D01*
X106825000Y-63575000D01*
X106575000Y-63575000D01*
X106575000Y-63325000D01*
G37*
G36*
X106575000Y-63825000D02*
G01*
X106825000Y-63825000D01*
X106825000Y-64075000D01*
X106575000Y-64075000D01*
X106575000Y-63825000D01*
G37*
G36*
X106575000Y-64075000D02*
G01*
X106825000Y-64075000D01*
X106825000Y-64325000D01*
X106575000Y-64325000D01*
X106575000Y-64075000D01*
G37*
G36*
X106575000Y-64325000D02*
G01*
X106825000Y-64325000D01*
X106825000Y-64575000D01*
X106575000Y-64575000D01*
X106575000Y-64325000D01*
G37*
G36*
X106575000Y-64825000D02*
G01*
X106825000Y-64825000D01*
X106825000Y-65075000D01*
X106575000Y-65075000D01*
X106575000Y-64825000D01*
G37*
G36*
X106575000Y-65325000D02*
G01*
X106825000Y-65325000D01*
X106825000Y-65575000D01*
X106575000Y-65575000D01*
X106575000Y-65325000D01*
G37*
G36*
X106575000Y-65575000D02*
G01*
X106825000Y-65575000D01*
X106825000Y-65825000D01*
X106575000Y-65825000D01*
X106575000Y-65575000D01*
G37*
G36*
X106575000Y-65825000D02*
G01*
X106825000Y-65825000D01*
X106825000Y-66075000D01*
X106575000Y-66075000D01*
X106575000Y-65825000D01*
G37*
G36*
X106575000Y-67075000D02*
G01*
X106825000Y-67075000D01*
X106825000Y-67325000D01*
X106575000Y-67325000D01*
X106575000Y-67075000D01*
G37*
G36*
X106575000Y-67325000D02*
G01*
X106825000Y-67325000D01*
X106825000Y-67575000D01*
X106575000Y-67575000D01*
X106575000Y-67325000D01*
G37*
G36*
X106575000Y-67575000D02*
G01*
X106825000Y-67575000D01*
X106825000Y-67825000D01*
X106575000Y-67825000D01*
X106575000Y-67575000D01*
G37*
G36*
X106575000Y-67825000D02*
G01*
X106825000Y-67825000D01*
X106825000Y-68075000D01*
X106575000Y-68075000D01*
X106575000Y-67825000D01*
G37*
G36*
X106575000Y-69075000D02*
G01*
X106825000Y-69075000D01*
X106825000Y-69325000D01*
X106575000Y-69325000D01*
X106575000Y-69075000D01*
G37*
G36*
X106575000Y-69825000D02*
G01*
X106825000Y-69825000D01*
X106825000Y-70075000D01*
X106575000Y-70075000D01*
X106575000Y-69825000D01*
G37*
G36*
X106575000Y-70325000D02*
G01*
X106825000Y-70325000D01*
X106825000Y-70575000D01*
X106575000Y-70575000D01*
X106575000Y-70325000D01*
G37*
G36*
X106575000Y-70575000D02*
G01*
X106825000Y-70575000D01*
X106825000Y-70825000D01*
X106575000Y-70825000D01*
X106575000Y-70575000D01*
G37*
G36*
X106575000Y-70825000D02*
G01*
X106825000Y-70825000D01*
X106825000Y-71075000D01*
X106575000Y-71075000D01*
X106575000Y-70825000D01*
G37*
G36*
X106575000Y-71325000D02*
G01*
X106825000Y-71325000D01*
X106825000Y-71575000D01*
X106575000Y-71575000D01*
X106575000Y-71325000D01*
G37*
G36*
X106825000Y-63325000D02*
G01*
X107075000Y-63325000D01*
X107075000Y-63575000D01*
X106825000Y-63575000D01*
X106825000Y-63325000D01*
G37*
G36*
X106825000Y-64825000D02*
G01*
X107075000Y-64825000D01*
X107075000Y-65075000D01*
X106825000Y-65075000D01*
X106825000Y-64825000D01*
G37*
G36*
X106825000Y-65325000D02*
G01*
X107075000Y-65325000D01*
X107075000Y-65575000D01*
X106825000Y-65575000D01*
X106825000Y-65325000D01*
G37*
G36*
X106825000Y-65575000D02*
G01*
X107075000Y-65575000D01*
X107075000Y-65825000D01*
X106825000Y-65825000D01*
X106825000Y-65575000D01*
G37*
G36*
X106825000Y-66075000D02*
G01*
X107075000Y-66075000D01*
X107075000Y-66325000D01*
X106825000Y-66325000D01*
X106825000Y-66075000D01*
G37*
G36*
X106825000Y-66325000D02*
G01*
X107075000Y-66325000D01*
X107075000Y-66575000D01*
X106825000Y-66575000D01*
X106825000Y-66325000D01*
G37*
G36*
X106825000Y-67075000D02*
G01*
X107075000Y-67075000D01*
X107075000Y-67325000D01*
X106825000Y-67325000D01*
X106825000Y-67075000D01*
G37*
G36*
X106825000Y-67575000D02*
G01*
X107075000Y-67575000D01*
X107075000Y-67825000D01*
X106825000Y-67825000D01*
X106825000Y-67575000D01*
G37*
G36*
X106825000Y-67825000D02*
G01*
X107075000Y-67825000D01*
X107075000Y-68075000D01*
X106825000Y-68075000D01*
X106825000Y-67825000D01*
G37*
G36*
X106825000Y-68075000D02*
G01*
X107075000Y-68075000D01*
X107075000Y-68325000D01*
X106825000Y-68325000D01*
X106825000Y-68075000D01*
G37*
G36*
X106825000Y-68325000D02*
G01*
X107075000Y-68325000D01*
X107075000Y-68575000D01*
X106825000Y-68575000D01*
X106825000Y-68325000D01*
G37*
G36*
X106825000Y-68575000D02*
G01*
X107075000Y-68575000D01*
X107075000Y-68825000D01*
X106825000Y-68825000D01*
X106825000Y-68575000D01*
G37*
G36*
X106825000Y-68825000D02*
G01*
X107075000Y-68825000D01*
X107075000Y-69075000D01*
X106825000Y-69075000D01*
X106825000Y-68825000D01*
G37*
G36*
X106825000Y-69075000D02*
G01*
X107075000Y-69075000D01*
X107075000Y-69325000D01*
X106825000Y-69325000D01*
X106825000Y-69075000D01*
G37*
G36*
X106825000Y-69325000D02*
G01*
X107075000Y-69325000D01*
X107075000Y-69575000D01*
X106825000Y-69575000D01*
X106825000Y-69325000D01*
G37*
G36*
X106825000Y-69825000D02*
G01*
X107075000Y-69825000D01*
X107075000Y-70075000D01*
X106825000Y-70075000D01*
X106825000Y-69825000D01*
G37*
G36*
X106825000Y-71325000D02*
G01*
X107075000Y-71325000D01*
X107075000Y-71575000D01*
X106825000Y-71575000D01*
X106825000Y-71325000D01*
G37*
G36*
X107075000Y-63325000D02*
G01*
X107325000Y-63325000D01*
X107325000Y-63575000D01*
X107075000Y-63575000D01*
X107075000Y-63325000D01*
G37*
G36*
X107075000Y-63575000D02*
G01*
X107325000Y-63575000D01*
X107325000Y-63825000D01*
X107075000Y-63825000D01*
X107075000Y-63575000D01*
G37*
G36*
X107075000Y-63825000D02*
G01*
X107325000Y-63825000D01*
X107325000Y-64075000D01*
X107075000Y-64075000D01*
X107075000Y-63825000D01*
G37*
G36*
X107075000Y-64075000D02*
G01*
X107325000Y-64075000D01*
X107325000Y-64325000D01*
X107075000Y-64325000D01*
X107075000Y-64075000D01*
G37*
G36*
X107075000Y-64325000D02*
G01*
X107325000Y-64325000D01*
X107325000Y-64575000D01*
X107075000Y-64575000D01*
X107075000Y-64325000D01*
G37*
G36*
X107075000Y-64575000D02*
G01*
X107325000Y-64575000D01*
X107325000Y-64825000D01*
X107075000Y-64825000D01*
X107075000Y-64575000D01*
G37*
G36*
X107075000Y-64825000D02*
G01*
X107325000Y-64825000D01*
X107325000Y-65075000D01*
X107075000Y-65075000D01*
X107075000Y-64825000D01*
G37*
G36*
X107075000Y-65325000D02*
G01*
X107325000Y-65325000D01*
X107325000Y-65575000D01*
X107075000Y-65575000D01*
X107075000Y-65325000D01*
G37*
G36*
X107075000Y-65825000D02*
G01*
X107325000Y-65825000D01*
X107325000Y-66075000D01*
X107075000Y-66075000D01*
X107075000Y-65825000D01*
G37*
G36*
X107075000Y-66325000D02*
G01*
X107325000Y-66325000D01*
X107325000Y-66575000D01*
X107075000Y-66575000D01*
X107075000Y-66325000D01*
G37*
G36*
X107075000Y-66825000D02*
G01*
X107325000Y-66825000D01*
X107325000Y-67075000D01*
X107075000Y-67075000D01*
X107075000Y-66825000D01*
G37*
G36*
X107075000Y-67325000D02*
G01*
X107325000Y-67325000D01*
X107325000Y-67575000D01*
X107075000Y-67575000D01*
X107075000Y-67325000D01*
G37*
G36*
X107075000Y-67825000D02*
G01*
X107325000Y-67825000D01*
X107325000Y-68075000D01*
X107075000Y-68075000D01*
X107075000Y-67825000D01*
G37*
G36*
X107075000Y-68325000D02*
G01*
X107325000Y-68325000D01*
X107325000Y-68575000D01*
X107075000Y-68575000D01*
X107075000Y-68325000D01*
G37*
G36*
X107075000Y-68825000D02*
G01*
X107325000Y-68825000D01*
X107325000Y-69075000D01*
X107075000Y-69075000D01*
X107075000Y-68825000D01*
G37*
G36*
X107075000Y-69325000D02*
G01*
X107325000Y-69325000D01*
X107325000Y-69575000D01*
X107075000Y-69575000D01*
X107075000Y-69325000D01*
G37*
G36*
X107075000Y-69825000D02*
G01*
X107325000Y-69825000D01*
X107325000Y-70075000D01*
X107075000Y-70075000D01*
X107075000Y-69825000D01*
G37*
G36*
X107075000Y-70075000D02*
G01*
X107325000Y-70075000D01*
X107325000Y-70325000D01*
X107075000Y-70325000D01*
X107075000Y-70075000D01*
G37*
G36*
X107075000Y-70325000D02*
G01*
X107325000Y-70325000D01*
X107325000Y-70575000D01*
X107075000Y-70575000D01*
X107075000Y-70325000D01*
G37*
G36*
X107075000Y-70575000D02*
G01*
X107325000Y-70575000D01*
X107325000Y-70825000D01*
X107075000Y-70825000D01*
X107075000Y-70575000D01*
G37*
G36*
X107075000Y-70825000D02*
G01*
X107325000Y-70825000D01*
X107325000Y-71075000D01*
X107075000Y-71075000D01*
X107075000Y-70825000D01*
G37*
G36*
X107075000Y-71075000D02*
G01*
X107325000Y-71075000D01*
X107325000Y-71325000D01*
X107075000Y-71325000D01*
X107075000Y-71075000D01*
G37*
G36*
X107075000Y-71325000D02*
G01*
X107325000Y-71325000D01*
X107325000Y-71575000D01*
X107075000Y-71575000D01*
X107075000Y-71325000D01*
G37*
G36*
X107325000Y-65325000D02*
G01*
X107575000Y-65325000D01*
X107575000Y-65575000D01*
X107325000Y-65575000D01*
X107325000Y-65325000D01*
G37*
G36*
X107325000Y-66075000D02*
G01*
X107575000Y-66075000D01*
X107575000Y-66325000D01*
X107325000Y-66325000D01*
X107325000Y-66075000D01*
G37*
G36*
X107325000Y-66325000D02*
G01*
X107575000Y-66325000D01*
X107575000Y-66575000D01*
X107325000Y-66575000D01*
X107325000Y-66325000D01*
G37*
G36*
X107325000Y-67075000D02*
G01*
X107575000Y-67075000D01*
X107575000Y-67325000D01*
X107325000Y-67325000D01*
X107325000Y-67075000D01*
G37*
G36*
X107325000Y-68575000D02*
G01*
X107575000Y-68575000D01*
X107575000Y-68825000D01*
X107325000Y-68825000D01*
X107325000Y-68575000D01*
G37*
G36*
X107325000Y-69075000D02*
G01*
X107575000Y-69075000D01*
X107575000Y-69325000D01*
X107325000Y-69325000D01*
X107325000Y-69075000D01*
G37*
G36*
X107575000Y-63325000D02*
G01*
X107825000Y-63325000D01*
X107825000Y-63575000D01*
X107575000Y-63575000D01*
X107575000Y-63325000D01*
G37*
G36*
X107575000Y-64075000D02*
G01*
X107825000Y-64075000D01*
X107825000Y-64325000D01*
X107575000Y-64325000D01*
X107575000Y-64075000D01*
G37*
G36*
X107575000Y-64575000D02*
G01*
X107825000Y-64575000D01*
X107825000Y-64825000D01*
X107575000Y-64825000D01*
X107575000Y-64575000D01*
G37*
G36*
X107575000Y-65075000D02*
G01*
X107825000Y-65075000D01*
X107825000Y-65325000D01*
X107575000Y-65325000D01*
X107575000Y-65075000D01*
G37*
G36*
X107575000Y-65825000D02*
G01*
X107825000Y-65825000D01*
X107825000Y-66075000D01*
X107575000Y-66075000D01*
X107575000Y-65825000D01*
G37*
G36*
X107575000Y-66325000D02*
G01*
X107825000Y-66325000D01*
X107825000Y-66575000D01*
X107575000Y-66575000D01*
X107575000Y-66325000D01*
G37*
G36*
X107575000Y-66575000D02*
G01*
X107825000Y-66575000D01*
X107825000Y-66825000D01*
X107575000Y-66825000D01*
X107575000Y-66575000D01*
G37*
G36*
X107575000Y-66825000D02*
G01*
X107825000Y-66825000D01*
X107825000Y-67075000D01*
X107575000Y-67075000D01*
X107575000Y-66825000D01*
G37*
G36*
X107575000Y-67325000D02*
G01*
X107825000Y-67325000D01*
X107825000Y-67575000D01*
X107575000Y-67575000D01*
X107575000Y-67325000D01*
G37*
G36*
X107575000Y-67575000D02*
G01*
X107825000Y-67575000D01*
X107825000Y-67825000D01*
X107575000Y-67825000D01*
X107575000Y-67575000D01*
G37*
G36*
X107575000Y-67825000D02*
G01*
X107825000Y-67825000D01*
X107825000Y-68075000D01*
X107575000Y-68075000D01*
X107575000Y-67825000D01*
G37*
G36*
X107575000Y-68325000D02*
G01*
X107825000Y-68325000D01*
X107825000Y-68575000D01*
X107575000Y-68575000D01*
X107575000Y-68325000D01*
G37*
G36*
X107575000Y-68575000D02*
G01*
X107825000Y-68575000D01*
X107825000Y-68825000D01*
X107575000Y-68825000D01*
X107575000Y-68575000D01*
G37*
G36*
X107575000Y-69075000D02*
G01*
X107825000Y-69075000D01*
X107825000Y-69325000D01*
X107575000Y-69325000D01*
X107575000Y-69075000D01*
G37*
G36*
X107575000Y-69325000D02*
G01*
X107825000Y-69325000D01*
X107825000Y-69575000D01*
X107575000Y-69575000D01*
X107575000Y-69325000D01*
G37*
G36*
X107575000Y-69825000D02*
G01*
X107825000Y-69825000D01*
X107825000Y-70075000D01*
X107575000Y-70075000D01*
X107575000Y-69825000D01*
G37*
G36*
X107575000Y-70075000D02*
G01*
X107825000Y-70075000D01*
X107825000Y-70325000D01*
X107575000Y-70325000D01*
X107575000Y-70075000D01*
G37*
G36*
X107825000Y-63325000D02*
G01*
X108075000Y-63325000D01*
X108075000Y-63575000D01*
X107825000Y-63575000D01*
X107825000Y-63325000D01*
G37*
G36*
X107825000Y-63575000D02*
G01*
X108075000Y-63575000D01*
X108075000Y-63825000D01*
X107825000Y-63825000D01*
X107825000Y-63575000D01*
G37*
G36*
X107825000Y-63825000D02*
G01*
X108075000Y-63825000D01*
X108075000Y-64075000D01*
X107825000Y-64075000D01*
X107825000Y-63825000D01*
G37*
G36*
X107825000Y-64075000D02*
G01*
X108075000Y-64075000D01*
X108075000Y-64325000D01*
X107825000Y-64325000D01*
X107825000Y-64075000D01*
G37*
G36*
X107825000Y-65575000D02*
G01*
X108075000Y-65575000D01*
X108075000Y-65825000D01*
X107825000Y-65825000D01*
X107825000Y-65575000D01*
G37*
G36*
X107825000Y-65825000D02*
G01*
X108075000Y-65825000D01*
X108075000Y-66075000D01*
X107825000Y-66075000D01*
X107825000Y-65825000D01*
G37*
G36*
X107825000Y-66325000D02*
G01*
X108075000Y-66325000D01*
X108075000Y-66575000D01*
X107825000Y-66575000D01*
X107825000Y-66325000D01*
G37*
G36*
X107825000Y-66575000D02*
G01*
X108075000Y-66575000D01*
X108075000Y-66825000D01*
X107825000Y-66825000D01*
X107825000Y-66575000D01*
G37*
G36*
X107825000Y-66825000D02*
G01*
X108075000Y-66825000D01*
X108075000Y-67075000D01*
X107825000Y-67075000D01*
X107825000Y-66825000D01*
G37*
G36*
X107825000Y-67075000D02*
G01*
X108075000Y-67075000D01*
X108075000Y-67325000D01*
X107825000Y-67325000D01*
X107825000Y-67075000D01*
G37*
G36*
X107825000Y-67325000D02*
G01*
X108075000Y-67325000D01*
X108075000Y-67575000D01*
X107825000Y-67575000D01*
X107825000Y-67325000D01*
G37*
G36*
X107825000Y-67575000D02*
G01*
X108075000Y-67575000D01*
X108075000Y-67825000D01*
X107825000Y-67825000D01*
X107825000Y-67575000D01*
G37*
G36*
X107825000Y-68325000D02*
G01*
X108075000Y-68325000D01*
X108075000Y-68575000D01*
X107825000Y-68575000D01*
X107825000Y-68325000D01*
G37*
G36*
X107825000Y-68575000D02*
G01*
X108075000Y-68575000D01*
X108075000Y-68825000D01*
X107825000Y-68825000D01*
X107825000Y-68575000D01*
G37*
G36*
X107825000Y-70075000D02*
G01*
X108075000Y-70075000D01*
X108075000Y-70325000D01*
X107825000Y-70325000D01*
X107825000Y-70075000D01*
G37*
G36*
X107825000Y-70325000D02*
G01*
X108075000Y-70325000D01*
X108075000Y-70575000D01*
X107825000Y-70575000D01*
X107825000Y-70325000D01*
G37*
G36*
X107825000Y-71075000D02*
G01*
X108075000Y-71075000D01*
X108075000Y-71325000D01*
X107825000Y-71325000D01*
X107825000Y-71075000D01*
G37*
G36*
X107825000Y-71325000D02*
G01*
X108075000Y-71325000D01*
X108075000Y-71575000D01*
X107825000Y-71575000D01*
X107825000Y-71325000D01*
G37*
G36*
X108075000Y-64075000D02*
G01*
X108325000Y-64075000D01*
X108325000Y-64325000D01*
X108075000Y-64325000D01*
X108075000Y-64075000D01*
G37*
G36*
X108075000Y-64325000D02*
G01*
X108325000Y-64325000D01*
X108325000Y-64575000D01*
X108075000Y-64575000D01*
X108075000Y-64325000D01*
G37*
G36*
X108075000Y-64575000D02*
G01*
X108325000Y-64575000D01*
X108325000Y-64825000D01*
X108075000Y-64825000D01*
X108075000Y-64575000D01*
G37*
G36*
X108075000Y-64825000D02*
G01*
X108325000Y-64825000D01*
X108325000Y-65075000D01*
X108075000Y-65075000D01*
X108075000Y-64825000D01*
G37*
G36*
X108075000Y-66325000D02*
G01*
X108325000Y-66325000D01*
X108325000Y-66575000D01*
X108075000Y-66575000D01*
X108075000Y-66325000D01*
G37*
G36*
X108075000Y-67075000D02*
G01*
X108325000Y-67075000D01*
X108325000Y-67325000D01*
X108075000Y-67325000D01*
X108075000Y-67075000D01*
G37*
G36*
X108075000Y-67575000D02*
G01*
X108325000Y-67575000D01*
X108325000Y-67825000D01*
X108075000Y-67825000D01*
X108075000Y-67575000D01*
G37*
G36*
X108075000Y-69575000D02*
G01*
X108325000Y-69575000D01*
X108325000Y-69825000D01*
X108075000Y-69825000D01*
X108075000Y-69575000D01*
G37*
G36*
X108075000Y-69825000D02*
G01*
X108325000Y-69825000D01*
X108325000Y-70075000D01*
X108075000Y-70075000D01*
X108075000Y-69825000D01*
G37*
G36*
X108075000Y-70075000D02*
G01*
X108325000Y-70075000D01*
X108325000Y-70325000D01*
X108075000Y-70325000D01*
X108075000Y-70075000D01*
G37*
G36*
X108075000Y-70575000D02*
G01*
X108325000Y-70575000D01*
X108325000Y-70825000D01*
X108075000Y-70825000D01*
X108075000Y-70575000D01*
G37*
G36*
X108075000Y-70825000D02*
G01*
X108325000Y-70825000D01*
X108325000Y-71075000D01*
X108075000Y-71075000D01*
X108075000Y-70825000D01*
G37*
G36*
X108325000Y-63575000D02*
G01*
X108575000Y-63575000D01*
X108575000Y-63825000D01*
X108325000Y-63825000D01*
X108325000Y-63575000D01*
G37*
G36*
X108325000Y-64075000D02*
G01*
X108575000Y-64075000D01*
X108575000Y-64325000D01*
X108325000Y-64325000D01*
X108325000Y-64075000D01*
G37*
G36*
X108325000Y-64825000D02*
G01*
X108575000Y-64825000D01*
X108575000Y-65075000D01*
X108325000Y-65075000D01*
X108325000Y-64825000D01*
G37*
G36*
X108325000Y-65575000D02*
G01*
X108575000Y-65575000D01*
X108575000Y-65825000D01*
X108325000Y-65825000D01*
X108325000Y-65575000D01*
G37*
G36*
X108325000Y-66075000D02*
G01*
X108575000Y-66075000D01*
X108575000Y-66325000D01*
X108325000Y-66325000D01*
X108325000Y-66075000D01*
G37*
G36*
X108325000Y-66825000D02*
G01*
X108575000Y-66825000D01*
X108575000Y-67075000D01*
X108325000Y-67075000D01*
X108325000Y-66825000D01*
G37*
G36*
X108325000Y-67325000D02*
G01*
X108575000Y-67325000D01*
X108575000Y-67575000D01*
X108325000Y-67575000D01*
X108325000Y-67325000D01*
G37*
G36*
X108325000Y-67575000D02*
G01*
X108575000Y-67575000D01*
X108575000Y-67825000D01*
X108325000Y-67825000D01*
X108325000Y-67575000D01*
G37*
G36*
X108325000Y-67825000D02*
G01*
X108575000Y-67825000D01*
X108575000Y-68075000D01*
X108325000Y-68075000D01*
X108325000Y-67825000D01*
G37*
G36*
X108325000Y-68075000D02*
G01*
X108575000Y-68075000D01*
X108575000Y-68325000D01*
X108325000Y-68325000D01*
X108325000Y-68075000D01*
G37*
G36*
X108325000Y-68325000D02*
G01*
X108575000Y-68325000D01*
X108575000Y-68575000D01*
X108325000Y-68575000D01*
X108325000Y-68325000D01*
G37*
G36*
X108325000Y-70825000D02*
G01*
X108575000Y-70825000D01*
X108575000Y-71075000D01*
X108325000Y-71075000D01*
X108325000Y-70825000D01*
G37*
G36*
X108325000Y-71075000D02*
G01*
X108575000Y-71075000D01*
X108575000Y-71325000D01*
X108325000Y-71325000D01*
X108325000Y-71075000D01*
G37*
G36*
X108575000Y-63825000D02*
G01*
X108825000Y-63825000D01*
X108825000Y-64075000D01*
X108575000Y-64075000D01*
X108575000Y-63825000D01*
G37*
G36*
X108575000Y-64325000D02*
G01*
X108825000Y-64325000D01*
X108825000Y-64575000D01*
X108575000Y-64575000D01*
X108575000Y-64325000D01*
G37*
G36*
X108575000Y-64825000D02*
G01*
X108825000Y-64825000D01*
X108825000Y-65075000D01*
X108575000Y-65075000D01*
X108575000Y-64825000D01*
G37*
G36*
X108575000Y-65075000D02*
G01*
X108825000Y-65075000D01*
X108825000Y-65325000D01*
X108575000Y-65325000D01*
X108575000Y-65075000D01*
G37*
G36*
X108575000Y-65325000D02*
G01*
X108825000Y-65325000D01*
X108825000Y-65575000D01*
X108575000Y-65575000D01*
X108575000Y-65325000D01*
G37*
G36*
X108575000Y-65575000D02*
G01*
X108825000Y-65575000D01*
X108825000Y-65825000D01*
X108575000Y-65825000D01*
X108575000Y-65575000D01*
G37*
G36*
X108575000Y-65825000D02*
G01*
X108825000Y-65825000D01*
X108825000Y-66075000D01*
X108575000Y-66075000D01*
X108575000Y-65825000D01*
G37*
G36*
X108575000Y-66325000D02*
G01*
X108825000Y-66325000D01*
X108825000Y-66575000D01*
X108575000Y-66575000D01*
X108575000Y-66325000D01*
G37*
G36*
X108575000Y-66575000D02*
G01*
X108825000Y-66575000D01*
X108825000Y-66825000D01*
X108575000Y-66825000D01*
X108575000Y-66575000D01*
G37*
G36*
X108575000Y-66825000D02*
G01*
X108825000Y-66825000D01*
X108825000Y-67075000D01*
X108575000Y-67075000D01*
X108575000Y-66825000D01*
G37*
G36*
X108575000Y-67325000D02*
G01*
X108825000Y-67325000D01*
X108825000Y-67575000D01*
X108575000Y-67575000D01*
X108575000Y-67325000D01*
G37*
G36*
X108575000Y-67575000D02*
G01*
X108825000Y-67575000D01*
X108825000Y-67825000D01*
X108575000Y-67825000D01*
X108575000Y-67575000D01*
G37*
G36*
X108575000Y-69575000D02*
G01*
X108825000Y-69575000D01*
X108825000Y-69825000D01*
X108575000Y-69825000D01*
X108575000Y-69575000D01*
G37*
G36*
X108575000Y-69825000D02*
G01*
X108825000Y-69825000D01*
X108825000Y-70075000D01*
X108575000Y-70075000D01*
X108575000Y-69825000D01*
G37*
G36*
X108575000Y-70075000D02*
G01*
X108825000Y-70075000D01*
X108825000Y-70325000D01*
X108575000Y-70325000D01*
X108575000Y-70075000D01*
G37*
G36*
X108575000Y-70575000D02*
G01*
X108825000Y-70575000D01*
X108825000Y-70825000D01*
X108575000Y-70825000D01*
X108575000Y-70575000D01*
G37*
G36*
X108575000Y-70825000D02*
G01*
X108825000Y-70825000D01*
X108825000Y-71075000D01*
X108575000Y-71075000D01*
X108575000Y-70825000D01*
G37*
G36*
X108575000Y-71075000D02*
G01*
X108825000Y-71075000D01*
X108825000Y-71325000D01*
X108575000Y-71325000D01*
X108575000Y-71075000D01*
G37*
G36*
X108825000Y-63325000D02*
G01*
X109075000Y-63325000D01*
X109075000Y-63575000D01*
X108825000Y-63575000D01*
X108825000Y-63325000D01*
G37*
G36*
X108825000Y-63575000D02*
G01*
X109075000Y-63575000D01*
X109075000Y-63825000D01*
X108825000Y-63825000D01*
X108825000Y-63575000D01*
G37*
G36*
X108825000Y-64075000D02*
G01*
X109075000Y-64075000D01*
X109075000Y-64325000D01*
X108825000Y-64325000D01*
X108825000Y-64075000D01*
G37*
G36*
X108825000Y-64325000D02*
G01*
X109075000Y-64325000D01*
X109075000Y-64575000D01*
X108825000Y-64575000D01*
X108825000Y-64325000D01*
G37*
G36*
X108825000Y-64575000D02*
G01*
X109075000Y-64575000D01*
X109075000Y-64825000D01*
X108825000Y-64825000D01*
X108825000Y-64575000D01*
G37*
G36*
X108825000Y-64825000D02*
G01*
X109075000Y-64825000D01*
X109075000Y-65075000D01*
X108825000Y-65075000D01*
X108825000Y-64825000D01*
G37*
G36*
X108825000Y-66325000D02*
G01*
X109075000Y-66325000D01*
X109075000Y-66575000D01*
X108825000Y-66575000D01*
X108825000Y-66325000D01*
G37*
G36*
X108825000Y-66575000D02*
G01*
X109075000Y-66575000D01*
X109075000Y-66825000D01*
X108825000Y-66825000D01*
X108825000Y-66575000D01*
G37*
G36*
X108825000Y-66825000D02*
G01*
X109075000Y-66825000D01*
X109075000Y-67075000D01*
X108825000Y-67075000D01*
X108825000Y-66825000D01*
G37*
G36*
X108825000Y-67075000D02*
G01*
X109075000Y-67075000D01*
X109075000Y-67325000D01*
X108825000Y-67325000D01*
X108825000Y-67075000D01*
G37*
G36*
X108825000Y-68075000D02*
G01*
X109075000Y-68075000D01*
X109075000Y-68325000D01*
X108825000Y-68325000D01*
X108825000Y-68075000D01*
G37*
G36*
X108825000Y-69325000D02*
G01*
X109075000Y-69325000D01*
X109075000Y-69575000D01*
X108825000Y-69575000D01*
X108825000Y-69325000D01*
G37*
G36*
X108825000Y-70575000D02*
G01*
X109075000Y-70575000D01*
X109075000Y-70825000D01*
X108825000Y-70825000D01*
X108825000Y-70575000D01*
G37*
G36*
X109075000Y-63575000D02*
G01*
X109325000Y-63575000D01*
X109325000Y-63825000D01*
X109075000Y-63825000D01*
X109075000Y-63575000D01*
G37*
G36*
X109075000Y-64075000D02*
G01*
X109325000Y-64075000D01*
X109325000Y-64325000D01*
X109075000Y-64325000D01*
X109075000Y-64075000D01*
G37*
G36*
X109075000Y-64575000D02*
G01*
X109325000Y-64575000D01*
X109325000Y-64825000D01*
X109075000Y-64825000D01*
X109075000Y-64575000D01*
G37*
G36*
X109075000Y-64825000D02*
G01*
X109325000Y-64825000D01*
X109325000Y-65075000D01*
X109075000Y-65075000D01*
X109075000Y-64825000D01*
G37*
G36*
X109075000Y-65075000D02*
G01*
X109325000Y-65075000D01*
X109325000Y-65325000D01*
X109075000Y-65325000D01*
X109075000Y-65075000D01*
G37*
G36*
X109075000Y-65825000D02*
G01*
X109325000Y-65825000D01*
X109325000Y-66075000D01*
X109075000Y-66075000D01*
X109075000Y-65825000D01*
G37*
G36*
X109075000Y-66575000D02*
G01*
X109325000Y-66575000D01*
X109325000Y-66825000D01*
X109075000Y-66825000D01*
X109075000Y-66575000D01*
G37*
G36*
X109075000Y-67075000D02*
G01*
X109325000Y-67075000D01*
X109325000Y-67325000D01*
X109075000Y-67325000D01*
X109075000Y-67075000D01*
G37*
G36*
X109075000Y-67325000D02*
G01*
X109325000Y-67325000D01*
X109325000Y-67575000D01*
X109075000Y-67575000D01*
X109075000Y-67325000D01*
G37*
G36*
X109075000Y-67825000D02*
G01*
X109325000Y-67825000D01*
X109325000Y-68075000D01*
X109075000Y-68075000D01*
X109075000Y-67825000D01*
G37*
G36*
X109075000Y-68575000D02*
G01*
X109325000Y-68575000D01*
X109325000Y-68825000D01*
X109075000Y-68825000D01*
X109075000Y-68575000D01*
G37*
G36*
X109075000Y-69325000D02*
G01*
X109325000Y-69325000D01*
X109325000Y-69575000D01*
X109075000Y-69575000D01*
X109075000Y-69325000D01*
G37*
G36*
X109075000Y-69575000D02*
G01*
X109325000Y-69575000D01*
X109325000Y-69825000D01*
X109075000Y-69825000D01*
X109075000Y-69575000D01*
G37*
G36*
X109075000Y-69825000D02*
G01*
X109325000Y-69825000D01*
X109325000Y-70075000D01*
X109075000Y-70075000D01*
X109075000Y-69825000D01*
G37*
G36*
X109075000Y-70825000D02*
G01*
X109325000Y-70825000D01*
X109325000Y-71075000D01*
X109075000Y-71075000D01*
X109075000Y-70825000D01*
G37*
G36*
X109075000Y-71325000D02*
G01*
X109325000Y-71325000D01*
X109325000Y-71575000D01*
X109075000Y-71575000D01*
X109075000Y-71325000D01*
G37*
G36*
X109325000Y-63575000D02*
G01*
X109575000Y-63575000D01*
X109575000Y-63825000D01*
X109325000Y-63825000D01*
X109325000Y-63575000D01*
G37*
G36*
X109325000Y-64075000D02*
G01*
X109575000Y-64075000D01*
X109575000Y-64325000D01*
X109325000Y-64325000D01*
X109325000Y-64075000D01*
G37*
G36*
X109325000Y-64325000D02*
G01*
X109575000Y-64325000D01*
X109575000Y-64575000D01*
X109325000Y-64575000D01*
X109325000Y-64325000D01*
G37*
G36*
X109325000Y-64575000D02*
G01*
X109575000Y-64575000D01*
X109575000Y-64825000D01*
X109325000Y-64825000D01*
X109325000Y-64575000D01*
G37*
G36*
X109325000Y-65325000D02*
G01*
X109575000Y-65325000D01*
X109575000Y-65575000D01*
X109325000Y-65575000D01*
X109325000Y-65325000D01*
G37*
G36*
X109325000Y-65825000D02*
G01*
X109575000Y-65825000D01*
X109575000Y-66075000D01*
X109325000Y-66075000D01*
X109325000Y-65825000D01*
G37*
G36*
X109325000Y-66075000D02*
G01*
X109575000Y-66075000D01*
X109575000Y-66325000D01*
X109325000Y-66325000D01*
X109325000Y-66075000D01*
G37*
G36*
X109325000Y-66575000D02*
G01*
X109575000Y-66575000D01*
X109575000Y-66825000D01*
X109325000Y-66825000D01*
X109325000Y-66575000D01*
G37*
G36*
X109325000Y-67575000D02*
G01*
X109575000Y-67575000D01*
X109575000Y-67825000D01*
X109325000Y-67825000D01*
X109325000Y-67575000D01*
G37*
G36*
X109325000Y-68075000D02*
G01*
X109575000Y-68075000D01*
X109575000Y-68325000D01*
X109325000Y-68325000D01*
X109325000Y-68075000D01*
G37*
G36*
X109325000Y-68325000D02*
G01*
X109575000Y-68325000D01*
X109575000Y-68575000D01*
X109325000Y-68575000D01*
X109325000Y-68325000D01*
G37*
G36*
X109325000Y-69325000D02*
G01*
X109575000Y-69325000D01*
X109575000Y-69575000D01*
X109325000Y-69575000D01*
X109325000Y-69325000D01*
G37*
G36*
X109325000Y-71075000D02*
G01*
X109575000Y-71075000D01*
X109575000Y-71325000D01*
X109325000Y-71325000D01*
X109325000Y-71075000D01*
G37*
G36*
X109325000Y-71325000D02*
G01*
X109575000Y-71325000D01*
X109575000Y-71575000D01*
X109325000Y-71575000D01*
X109325000Y-71325000D01*
G37*
G36*
X109575000Y-63325000D02*
G01*
X109825000Y-63325000D01*
X109825000Y-63575000D01*
X109575000Y-63575000D01*
X109575000Y-63325000D01*
G37*
G36*
X109575000Y-63575000D02*
G01*
X109825000Y-63575000D01*
X109825000Y-63825000D01*
X109575000Y-63825000D01*
X109575000Y-63575000D01*
G37*
G36*
X109575000Y-64325000D02*
G01*
X109825000Y-64325000D01*
X109825000Y-64575000D01*
X109575000Y-64575000D01*
X109575000Y-64325000D01*
G37*
G36*
X109575000Y-64575000D02*
G01*
X109825000Y-64575000D01*
X109825000Y-64825000D01*
X109575000Y-64825000D01*
X109575000Y-64575000D01*
G37*
G36*
X109575000Y-64825000D02*
G01*
X109825000Y-64825000D01*
X109825000Y-65075000D01*
X109575000Y-65075000D01*
X109575000Y-64825000D01*
G37*
G36*
X109575000Y-65325000D02*
G01*
X109825000Y-65325000D01*
X109825000Y-65575000D01*
X109575000Y-65575000D01*
X109575000Y-65325000D01*
G37*
G36*
X109575000Y-65575000D02*
G01*
X109825000Y-65575000D01*
X109825000Y-65825000D01*
X109575000Y-65825000D01*
X109575000Y-65575000D01*
G37*
G36*
X109575000Y-66075000D02*
G01*
X109825000Y-66075000D01*
X109825000Y-66325000D01*
X109575000Y-66325000D01*
X109575000Y-66075000D01*
G37*
G36*
X109575000Y-66325000D02*
G01*
X109825000Y-66325000D01*
X109825000Y-66575000D01*
X109575000Y-66575000D01*
X109575000Y-66325000D01*
G37*
G36*
X109575000Y-66825000D02*
G01*
X109825000Y-66825000D01*
X109825000Y-67075000D01*
X109575000Y-67075000D01*
X109575000Y-66825000D01*
G37*
G36*
X109575000Y-68075000D02*
G01*
X109825000Y-68075000D01*
X109825000Y-68325000D01*
X109575000Y-68325000D01*
X109575000Y-68075000D01*
G37*
G36*
X109575000Y-68575000D02*
G01*
X109825000Y-68575000D01*
X109825000Y-68825000D01*
X109575000Y-68825000D01*
X109575000Y-68575000D01*
G37*
G36*
X109575000Y-68825000D02*
G01*
X109825000Y-68825000D01*
X109825000Y-69075000D01*
X109575000Y-69075000D01*
X109575000Y-68825000D01*
G37*
G36*
X109575000Y-69075000D02*
G01*
X109825000Y-69075000D01*
X109825000Y-69325000D01*
X109575000Y-69325000D01*
X109575000Y-69075000D01*
G37*
G36*
X109575000Y-69325000D02*
G01*
X109825000Y-69325000D01*
X109825000Y-69575000D01*
X109575000Y-69575000D01*
X109575000Y-69325000D01*
G37*
G36*
X109575000Y-69825000D02*
G01*
X109825000Y-69825000D01*
X109825000Y-70075000D01*
X109575000Y-70075000D01*
X109575000Y-69825000D01*
G37*
G36*
X109575000Y-70325000D02*
G01*
X109825000Y-70325000D01*
X109825000Y-70575000D01*
X109575000Y-70575000D01*
X109575000Y-70325000D01*
G37*
G36*
X109575000Y-71075000D02*
G01*
X109825000Y-71075000D01*
X109825000Y-71325000D01*
X109575000Y-71325000D01*
X109575000Y-71075000D01*
G37*
G36*
X109825000Y-63575000D02*
G01*
X110075000Y-63575000D01*
X110075000Y-63825000D01*
X109825000Y-63825000D01*
X109825000Y-63575000D01*
G37*
G36*
X109825000Y-64075000D02*
G01*
X110075000Y-64075000D01*
X110075000Y-64325000D01*
X109825000Y-64325000D01*
X109825000Y-64075000D01*
G37*
G36*
X109825000Y-65325000D02*
G01*
X110075000Y-65325000D01*
X110075000Y-65575000D01*
X109825000Y-65575000D01*
X109825000Y-65325000D01*
G37*
G36*
X109825000Y-66075000D02*
G01*
X110075000Y-66075000D01*
X110075000Y-66325000D01*
X109825000Y-66325000D01*
X109825000Y-66075000D01*
G37*
G36*
X109825000Y-66325000D02*
G01*
X110075000Y-66325000D01*
X110075000Y-66575000D01*
X109825000Y-66575000D01*
X109825000Y-66325000D01*
G37*
G36*
X109825000Y-66575000D02*
G01*
X110075000Y-66575000D01*
X110075000Y-66825000D01*
X109825000Y-66825000D01*
X109825000Y-66575000D01*
G37*
G36*
X109825000Y-67325000D02*
G01*
X110075000Y-67325000D01*
X110075000Y-67575000D01*
X109825000Y-67575000D01*
X109825000Y-67325000D01*
G37*
G36*
X109825000Y-67575000D02*
G01*
X110075000Y-67575000D01*
X110075000Y-67825000D01*
X109825000Y-67825000D01*
X109825000Y-67575000D01*
G37*
G36*
X109825000Y-68075000D02*
G01*
X110075000Y-68075000D01*
X110075000Y-68325000D01*
X109825000Y-68325000D01*
X109825000Y-68075000D01*
G37*
G36*
X109825000Y-68575000D02*
G01*
X110075000Y-68575000D01*
X110075000Y-68825000D01*
X109825000Y-68825000D01*
X109825000Y-68575000D01*
G37*
G36*
X109825000Y-68825000D02*
G01*
X110075000Y-68825000D01*
X110075000Y-69075000D01*
X109825000Y-69075000D01*
X109825000Y-68825000D01*
G37*
G36*
X109825000Y-69575000D02*
G01*
X110075000Y-69575000D01*
X110075000Y-69825000D01*
X109825000Y-69825000D01*
X109825000Y-69575000D01*
G37*
G36*
X109825000Y-70325000D02*
G01*
X110075000Y-70325000D01*
X110075000Y-70575000D01*
X109825000Y-70575000D01*
X109825000Y-70325000D01*
G37*
G36*
X109825000Y-70575000D02*
G01*
X110075000Y-70575000D01*
X110075000Y-70825000D01*
X109825000Y-70825000D01*
X109825000Y-70575000D01*
G37*
G36*
X109825000Y-70825000D02*
G01*
X110075000Y-70825000D01*
X110075000Y-71075000D01*
X109825000Y-71075000D01*
X109825000Y-70825000D01*
G37*
G36*
X109825000Y-71075000D02*
G01*
X110075000Y-71075000D01*
X110075000Y-71325000D01*
X109825000Y-71325000D01*
X109825000Y-71075000D01*
G37*
G36*
X110075000Y-65575000D02*
G01*
X110325000Y-65575000D01*
X110325000Y-65825000D01*
X110075000Y-65825000D01*
X110075000Y-65575000D01*
G37*
G36*
X110075000Y-65825000D02*
G01*
X110325000Y-65825000D01*
X110325000Y-66075000D01*
X110075000Y-66075000D01*
X110075000Y-65825000D01*
G37*
G36*
X110075000Y-66075000D02*
G01*
X110325000Y-66075000D01*
X110325000Y-66325000D01*
X110075000Y-66325000D01*
X110075000Y-66075000D01*
G37*
G36*
X110075000Y-66325000D02*
G01*
X110325000Y-66325000D01*
X110325000Y-66575000D01*
X110075000Y-66575000D01*
X110075000Y-66325000D01*
G37*
G36*
X110075000Y-66575000D02*
G01*
X110325000Y-66575000D01*
X110325000Y-66825000D01*
X110075000Y-66825000D01*
X110075000Y-66575000D01*
G37*
G36*
X110075000Y-66825000D02*
G01*
X110325000Y-66825000D01*
X110325000Y-67075000D01*
X110075000Y-67075000D01*
X110075000Y-66825000D01*
G37*
G36*
X110075000Y-67825000D02*
G01*
X110325000Y-67825000D01*
X110325000Y-68075000D01*
X110075000Y-68075000D01*
X110075000Y-67825000D01*
G37*
G36*
X110075000Y-69575000D02*
G01*
X110325000Y-69575000D01*
X110325000Y-69825000D01*
X110075000Y-69825000D01*
X110075000Y-69575000D01*
G37*
G36*
X110075000Y-69825000D02*
G01*
X110325000Y-69825000D01*
X110325000Y-70075000D01*
X110075000Y-70075000D01*
X110075000Y-69825000D01*
G37*
G36*
X110075000Y-70075000D02*
G01*
X110325000Y-70075000D01*
X110325000Y-70325000D01*
X110075000Y-70325000D01*
X110075000Y-70075000D01*
G37*
G36*
X110075000Y-71325000D02*
G01*
X110325000Y-71325000D01*
X110325000Y-71575000D01*
X110075000Y-71575000D01*
X110075000Y-71325000D01*
G37*
G36*
X110325000Y-64075000D02*
G01*
X110575000Y-64075000D01*
X110575000Y-64325000D01*
X110325000Y-64325000D01*
X110325000Y-64075000D01*
G37*
G36*
X110325000Y-64575000D02*
G01*
X110575000Y-64575000D01*
X110575000Y-64825000D01*
X110325000Y-64825000D01*
X110325000Y-64575000D01*
G37*
G36*
X110325000Y-65075000D02*
G01*
X110575000Y-65075000D01*
X110575000Y-65325000D01*
X110325000Y-65325000D01*
X110325000Y-65075000D01*
G37*
G36*
X110325000Y-65325000D02*
G01*
X110575000Y-65325000D01*
X110575000Y-65575000D01*
X110325000Y-65575000D01*
X110325000Y-65325000D01*
G37*
G36*
X110325000Y-66075000D02*
G01*
X110575000Y-66075000D01*
X110575000Y-66325000D01*
X110325000Y-66325000D01*
X110325000Y-66075000D01*
G37*
G36*
X110325000Y-66325000D02*
G01*
X110575000Y-66325000D01*
X110575000Y-66575000D01*
X110325000Y-66575000D01*
X110325000Y-66325000D01*
G37*
G36*
X110325000Y-66575000D02*
G01*
X110575000Y-66575000D01*
X110575000Y-66825000D01*
X110325000Y-66825000D01*
X110325000Y-66575000D01*
G37*
G36*
X110325000Y-67325000D02*
G01*
X110575000Y-67325000D01*
X110575000Y-67575000D01*
X110325000Y-67575000D01*
X110325000Y-67325000D01*
G37*
G36*
X110325000Y-67575000D02*
G01*
X110575000Y-67575000D01*
X110575000Y-67825000D01*
X110325000Y-67825000D01*
X110325000Y-67575000D01*
G37*
G36*
X110325000Y-68825000D02*
G01*
X110575000Y-68825000D01*
X110575000Y-69075000D01*
X110325000Y-69075000D01*
X110325000Y-68825000D01*
G37*
G36*
X110325000Y-69325000D02*
G01*
X110575000Y-69325000D01*
X110575000Y-69575000D01*
X110325000Y-69575000D01*
X110325000Y-69325000D01*
G37*
G36*
X110325000Y-69575000D02*
G01*
X110575000Y-69575000D01*
X110575000Y-69825000D01*
X110325000Y-69825000D01*
X110325000Y-69575000D01*
G37*
G36*
X110325000Y-70325000D02*
G01*
X110575000Y-70325000D01*
X110575000Y-70575000D01*
X110325000Y-70575000D01*
X110325000Y-70325000D01*
G37*
G36*
X110325000Y-70575000D02*
G01*
X110575000Y-70575000D01*
X110575000Y-70825000D01*
X110325000Y-70825000D01*
X110325000Y-70575000D01*
G37*
G36*
X110325000Y-71325000D02*
G01*
X110575000Y-71325000D01*
X110575000Y-71575000D01*
X110325000Y-71575000D01*
X110325000Y-71325000D01*
G37*
G36*
X110575000Y-64075000D02*
G01*
X110825000Y-64075000D01*
X110825000Y-64325000D01*
X110575000Y-64325000D01*
X110575000Y-64075000D01*
G37*
G36*
X110575000Y-64575000D02*
G01*
X110825000Y-64575000D01*
X110825000Y-64825000D01*
X110575000Y-64825000D01*
X110575000Y-64575000D01*
G37*
G36*
X110575000Y-64825000D02*
G01*
X110825000Y-64825000D01*
X110825000Y-65075000D01*
X110575000Y-65075000D01*
X110575000Y-64825000D01*
G37*
G36*
X110575000Y-65325000D02*
G01*
X110825000Y-65325000D01*
X110825000Y-65575000D01*
X110575000Y-65575000D01*
X110575000Y-65325000D01*
G37*
G36*
X110575000Y-65825000D02*
G01*
X110825000Y-65825000D01*
X110825000Y-66075000D01*
X110575000Y-66075000D01*
X110575000Y-65825000D01*
G37*
G36*
X110575000Y-66075000D02*
G01*
X110825000Y-66075000D01*
X110825000Y-66325000D01*
X110575000Y-66325000D01*
X110575000Y-66075000D01*
G37*
G36*
X110575000Y-66575000D02*
G01*
X110825000Y-66575000D01*
X110825000Y-66825000D01*
X110575000Y-66825000D01*
X110575000Y-66575000D01*
G37*
G36*
X110575000Y-67825000D02*
G01*
X110825000Y-67825000D01*
X110825000Y-68075000D01*
X110575000Y-68075000D01*
X110575000Y-67825000D01*
G37*
G36*
X110575000Y-68575000D02*
G01*
X110825000Y-68575000D01*
X110825000Y-68825000D01*
X110575000Y-68825000D01*
X110575000Y-68575000D01*
G37*
G36*
X110575000Y-68825000D02*
G01*
X110825000Y-68825000D01*
X110825000Y-69075000D01*
X110575000Y-69075000D01*
X110575000Y-68825000D01*
G37*
G36*
X110575000Y-69075000D02*
G01*
X110825000Y-69075000D01*
X110825000Y-69325000D01*
X110575000Y-69325000D01*
X110575000Y-69075000D01*
G37*
G36*
X110575000Y-69325000D02*
G01*
X110825000Y-69325000D01*
X110825000Y-69575000D01*
X110575000Y-69575000D01*
X110575000Y-69325000D01*
G37*
G36*
X110575000Y-69575000D02*
G01*
X110825000Y-69575000D01*
X110825000Y-69825000D01*
X110575000Y-69825000D01*
X110575000Y-69575000D01*
G37*
G36*
X110575000Y-69825000D02*
G01*
X110825000Y-69825000D01*
X110825000Y-70075000D01*
X110575000Y-70075000D01*
X110575000Y-69825000D01*
G37*
G36*
X110575000Y-70075000D02*
G01*
X110825000Y-70075000D01*
X110825000Y-70325000D01*
X110575000Y-70325000D01*
X110575000Y-70075000D01*
G37*
G36*
X110575000Y-70825000D02*
G01*
X110825000Y-70825000D01*
X110825000Y-71075000D01*
X110575000Y-71075000D01*
X110575000Y-70825000D01*
G37*
G36*
X110575000Y-71075000D02*
G01*
X110825000Y-71075000D01*
X110825000Y-71325000D01*
X110575000Y-71325000D01*
X110575000Y-71075000D01*
G37*
G36*
X110825000Y-63325000D02*
G01*
X111075000Y-63325000D01*
X111075000Y-63575000D01*
X110825000Y-63575000D01*
X110825000Y-63325000D01*
G37*
G36*
X110825000Y-63575000D02*
G01*
X111075000Y-63575000D01*
X111075000Y-63825000D01*
X110825000Y-63825000D01*
X110825000Y-63575000D01*
G37*
G36*
X110825000Y-63825000D02*
G01*
X111075000Y-63825000D01*
X111075000Y-64075000D01*
X110825000Y-64075000D01*
X110825000Y-63825000D01*
G37*
G36*
X110825000Y-64825000D02*
G01*
X111075000Y-64825000D01*
X111075000Y-65075000D01*
X110825000Y-65075000D01*
X110825000Y-64825000D01*
G37*
G36*
X110825000Y-65325000D02*
G01*
X111075000Y-65325000D01*
X111075000Y-65575000D01*
X110825000Y-65575000D01*
X110825000Y-65325000D01*
G37*
G36*
X110825000Y-65575000D02*
G01*
X111075000Y-65575000D01*
X111075000Y-65825000D01*
X110825000Y-65825000D01*
X110825000Y-65575000D01*
G37*
G36*
X110825000Y-65825000D02*
G01*
X111075000Y-65825000D01*
X111075000Y-66075000D01*
X110825000Y-66075000D01*
X110825000Y-65825000D01*
G37*
G36*
X110825000Y-66075000D02*
G01*
X111075000Y-66075000D01*
X111075000Y-66325000D01*
X110825000Y-66325000D01*
X110825000Y-66075000D01*
G37*
G36*
X110825000Y-66575000D02*
G01*
X111075000Y-66575000D01*
X111075000Y-66825000D01*
X110825000Y-66825000D01*
X110825000Y-66575000D01*
G37*
G36*
X110825000Y-67075000D02*
G01*
X111075000Y-67075000D01*
X111075000Y-67325000D01*
X110825000Y-67325000D01*
X110825000Y-67075000D01*
G37*
G36*
X110825000Y-67325000D02*
G01*
X111075000Y-67325000D01*
X111075000Y-67575000D01*
X110825000Y-67575000D01*
X110825000Y-67325000D01*
G37*
G36*
X110825000Y-67575000D02*
G01*
X111075000Y-67575000D01*
X111075000Y-67825000D01*
X110825000Y-67825000D01*
X110825000Y-67575000D01*
G37*
G36*
X110825000Y-67825000D02*
G01*
X111075000Y-67825000D01*
X111075000Y-68075000D01*
X110825000Y-68075000D01*
X110825000Y-67825000D01*
G37*
G36*
X110825000Y-68325000D02*
G01*
X111075000Y-68325000D01*
X111075000Y-68575000D01*
X110825000Y-68575000D01*
X110825000Y-68325000D01*
G37*
G36*
X110825000Y-68575000D02*
G01*
X111075000Y-68575000D01*
X111075000Y-68825000D01*
X110825000Y-68825000D01*
X110825000Y-68575000D01*
G37*
G36*
X110825000Y-69075000D02*
G01*
X111075000Y-69075000D01*
X111075000Y-69325000D01*
X110825000Y-69325000D01*
X110825000Y-69075000D01*
G37*
G36*
X110825000Y-69325000D02*
G01*
X111075000Y-69325000D01*
X111075000Y-69575000D01*
X110825000Y-69575000D01*
X110825000Y-69325000D01*
G37*
G36*
X110825000Y-69575000D02*
G01*
X111075000Y-69575000D01*
X111075000Y-69825000D01*
X110825000Y-69825000D01*
X110825000Y-69575000D01*
G37*
G36*
X111075000Y-64325000D02*
G01*
X111325000Y-64325000D01*
X111325000Y-64575000D01*
X111075000Y-64575000D01*
X111075000Y-64325000D01*
G37*
G36*
X111075000Y-65075000D02*
G01*
X111325000Y-65075000D01*
X111325000Y-65325000D01*
X111075000Y-65325000D01*
X111075000Y-65075000D01*
G37*
G36*
X111075000Y-65575000D02*
G01*
X111325000Y-65575000D01*
X111325000Y-65825000D01*
X111075000Y-65825000D01*
X111075000Y-65575000D01*
G37*
G36*
X111075000Y-66325000D02*
G01*
X111325000Y-66325000D01*
X111325000Y-66575000D01*
X111075000Y-66575000D01*
X111075000Y-66325000D01*
G37*
G36*
X111075000Y-66825000D02*
G01*
X111325000Y-66825000D01*
X111325000Y-67075000D01*
X111075000Y-67075000D01*
X111075000Y-66825000D01*
G37*
G36*
X111075000Y-67325000D02*
G01*
X111325000Y-67325000D01*
X111325000Y-67575000D01*
X111075000Y-67575000D01*
X111075000Y-67325000D01*
G37*
G36*
X111075000Y-68075000D02*
G01*
X111325000Y-68075000D01*
X111325000Y-68325000D01*
X111075000Y-68325000D01*
X111075000Y-68075000D01*
G37*
G36*
X111075000Y-68575000D02*
G01*
X111325000Y-68575000D01*
X111325000Y-68825000D01*
X111075000Y-68825000D01*
X111075000Y-68575000D01*
G37*
G36*
X111075000Y-69325000D02*
G01*
X111325000Y-69325000D01*
X111325000Y-69575000D01*
X111075000Y-69575000D01*
X111075000Y-69325000D01*
G37*
G36*
X111075000Y-69575000D02*
G01*
X111325000Y-69575000D01*
X111325000Y-69825000D01*
X111075000Y-69825000D01*
X111075000Y-69575000D01*
G37*
G36*
X111075000Y-69825000D02*
G01*
X111325000Y-69825000D01*
X111325000Y-70075000D01*
X111075000Y-70075000D01*
X111075000Y-69825000D01*
G37*
G36*
X111075000Y-70325000D02*
G01*
X111325000Y-70325000D01*
X111325000Y-70575000D01*
X111075000Y-70575000D01*
X111075000Y-70325000D01*
G37*
G36*
X111075000Y-70825000D02*
G01*
X111325000Y-70825000D01*
X111325000Y-71075000D01*
X111075000Y-71075000D01*
X111075000Y-70825000D01*
G37*
G36*
X111075000Y-71325000D02*
G01*
X111325000Y-71325000D01*
X111325000Y-71575000D01*
X111075000Y-71575000D01*
X111075000Y-71325000D01*
G37*
G36*
X111325000Y-63575000D02*
G01*
X111575000Y-63575000D01*
X111575000Y-63825000D01*
X111325000Y-63825000D01*
X111325000Y-63575000D01*
G37*
G36*
X111325000Y-64075000D02*
G01*
X111575000Y-64075000D01*
X111575000Y-64325000D01*
X111325000Y-64325000D01*
X111325000Y-64075000D01*
G37*
G36*
X111325000Y-66325000D02*
G01*
X111575000Y-66325000D01*
X111575000Y-66575000D01*
X111325000Y-66575000D01*
X111325000Y-66325000D01*
G37*
G36*
X111325000Y-66575000D02*
G01*
X111575000Y-66575000D01*
X111575000Y-66825000D01*
X111325000Y-66825000D01*
X111325000Y-66575000D01*
G37*
G36*
X111325000Y-67075000D02*
G01*
X111575000Y-67075000D01*
X111575000Y-67325000D01*
X111325000Y-67325000D01*
X111325000Y-67075000D01*
G37*
G36*
X111325000Y-67825000D02*
G01*
X111575000Y-67825000D01*
X111575000Y-68075000D01*
X111325000Y-68075000D01*
X111325000Y-67825000D01*
G37*
G36*
X111325000Y-68325000D02*
G01*
X111575000Y-68325000D01*
X111575000Y-68575000D01*
X111325000Y-68575000D01*
X111325000Y-68325000D01*
G37*
G36*
X111325000Y-69575000D02*
G01*
X111575000Y-69575000D01*
X111575000Y-69825000D01*
X111325000Y-69825000D01*
X111325000Y-69575000D01*
G37*
G36*
X111325000Y-70325000D02*
G01*
X111575000Y-70325000D01*
X111575000Y-70575000D01*
X111325000Y-70575000D01*
X111325000Y-70325000D01*
G37*
G36*
X111325000Y-70575000D02*
G01*
X111575000Y-70575000D01*
X111575000Y-70825000D01*
X111325000Y-70825000D01*
X111325000Y-70575000D01*
G37*
G36*
X111325000Y-70825000D02*
G01*
X111575000Y-70825000D01*
X111575000Y-71075000D01*
X111325000Y-71075000D01*
X111325000Y-70825000D01*
G37*
G36*
X111325000Y-71075000D02*
G01*
X111575000Y-71075000D01*
X111575000Y-71325000D01*
X111325000Y-71325000D01*
X111325000Y-71075000D01*
G37*
G36*
X111325000Y-71325000D02*
G01*
X111575000Y-71325000D01*
X111575000Y-71575000D01*
X111325000Y-71575000D01*
X111325000Y-71325000D01*
G37*
G36*
X111575000Y-63325000D02*
G01*
X111825000Y-63325000D01*
X111825000Y-63575000D01*
X111575000Y-63575000D01*
X111575000Y-63325000D01*
G37*
G36*
X111575000Y-63575000D02*
G01*
X111825000Y-63575000D01*
X111825000Y-63825000D01*
X111575000Y-63825000D01*
X111575000Y-63575000D01*
G37*
G36*
X111575000Y-64325000D02*
G01*
X111825000Y-64325000D01*
X111825000Y-64575000D01*
X111575000Y-64575000D01*
X111575000Y-64325000D01*
G37*
G36*
X111575000Y-64575000D02*
G01*
X111825000Y-64575000D01*
X111825000Y-64825000D01*
X111575000Y-64825000D01*
X111575000Y-64575000D01*
G37*
G36*
X111575000Y-64825000D02*
G01*
X111825000Y-64825000D01*
X111825000Y-65075000D01*
X111575000Y-65075000D01*
X111575000Y-64825000D01*
G37*
G36*
X111575000Y-65075000D02*
G01*
X111825000Y-65075000D01*
X111825000Y-65325000D01*
X111575000Y-65325000D01*
X111575000Y-65075000D01*
G37*
G36*
X111575000Y-65325000D02*
G01*
X111825000Y-65325000D01*
X111825000Y-65575000D01*
X111575000Y-65575000D01*
X111575000Y-65325000D01*
G37*
G36*
X111575000Y-65575000D02*
G01*
X111825000Y-65575000D01*
X111825000Y-65825000D01*
X111575000Y-65825000D01*
X111575000Y-65575000D01*
G37*
G36*
X111575000Y-66075000D02*
G01*
X111825000Y-66075000D01*
X111825000Y-66325000D01*
X111575000Y-66325000D01*
X111575000Y-66075000D01*
G37*
G36*
X111575000Y-66575000D02*
G01*
X111825000Y-66575000D01*
X111825000Y-66825000D01*
X111575000Y-66825000D01*
X111575000Y-66575000D01*
G37*
G36*
X111575000Y-66825000D02*
G01*
X111825000Y-66825000D01*
X111825000Y-67075000D01*
X111575000Y-67075000D01*
X111575000Y-66825000D01*
G37*
G36*
X111575000Y-67075000D02*
G01*
X111825000Y-67075000D01*
X111825000Y-67325000D01*
X111575000Y-67325000D01*
X111575000Y-67075000D01*
G37*
G36*
X111575000Y-67325000D02*
G01*
X111825000Y-67325000D01*
X111825000Y-67575000D01*
X111575000Y-67575000D01*
X111575000Y-67325000D01*
G37*
G36*
X111575000Y-67825000D02*
G01*
X111825000Y-67825000D01*
X111825000Y-68075000D01*
X111575000Y-68075000D01*
X111575000Y-67825000D01*
G37*
G36*
X111575000Y-68325000D02*
G01*
X111825000Y-68325000D01*
X111825000Y-68575000D01*
X111575000Y-68575000D01*
X111575000Y-68325000D01*
G37*
G36*
X111575000Y-68825000D02*
G01*
X111825000Y-68825000D01*
X111825000Y-69075000D01*
X111575000Y-69075000D01*
X111575000Y-68825000D01*
G37*
G36*
X111575000Y-69075000D02*
G01*
X111825000Y-69075000D01*
X111825000Y-69325000D01*
X111575000Y-69325000D01*
X111575000Y-69075000D01*
G37*
G36*
X111575000Y-69575000D02*
G01*
X111825000Y-69575000D01*
X111825000Y-69825000D01*
X111575000Y-69825000D01*
X111575000Y-69575000D01*
G37*
G36*
X111575000Y-69825000D02*
G01*
X111825000Y-69825000D01*
X111825000Y-70075000D01*
X111575000Y-70075000D01*
X111575000Y-69825000D01*
G37*
G36*
X111575000Y-70075000D02*
G01*
X111825000Y-70075000D01*
X111825000Y-70325000D01*
X111575000Y-70325000D01*
X111575000Y-70075000D01*
G37*
G36*
X111575000Y-70575000D02*
G01*
X111825000Y-70575000D01*
X111825000Y-70825000D01*
X111575000Y-70825000D01*
X111575000Y-70575000D01*
G37*
G36*
X111575000Y-71075000D02*
G01*
X111825000Y-71075000D01*
X111825000Y-71325000D01*
X111575000Y-71325000D01*
X111575000Y-71075000D01*
G37*
G36*
X111825000Y-63575000D02*
G01*
X112075000Y-63575000D01*
X112075000Y-63825000D01*
X111825000Y-63825000D01*
X111825000Y-63575000D01*
G37*
G36*
X111825000Y-64325000D02*
G01*
X112075000Y-64325000D01*
X112075000Y-64575000D01*
X111825000Y-64575000D01*
X111825000Y-64325000D01*
G37*
G36*
X111825000Y-65325000D02*
G01*
X112075000Y-65325000D01*
X112075000Y-65575000D01*
X111825000Y-65575000D01*
X111825000Y-65325000D01*
G37*
G36*
X111825000Y-66075000D02*
G01*
X112075000Y-66075000D01*
X112075000Y-66325000D01*
X111825000Y-66325000D01*
X111825000Y-66075000D01*
G37*
G36*
X111825000Y-66325000D02*
G01*
X112075000Y-66325000D01*
X112075000Y-66575000D01*
X111825000Y-66575000D01*
X111825000Y-66325000D01*
G37*
G36*
X111825000Y-66825000D02*
G01*
X112075000Y-66825000D01*
X112075000Y-67075000D01*
X111825000Y-67075000D01*
X111825000Y-66825000D01*
G37*
G36*
X111825000Y-67075000D02*
G01*
X112075000Y-67075000D01*
X112075000Y-67325000D01*
X111825000Y-67325000D01*
X111825000Y-67075000D01*
G37*
G36*
X111825000Y-67825000D02*
G01*
X112075000Y-67825000D01*
X112075000Y-68075000D01*
X111825000Y-68075000D01*
X111825000Y-67825000D01*
G37*
G36*
X111825000Y-68325000D02*
G01*
X112075000Y-68325000D01*
X112075000Y-68575000D01*
X111825000Y-68575000D01*
X111825000Y-68325000D01*
G37*
G36*
X111825000Y-69075000D02*
G01*
X112075000Y-69075000D01*
X112075000Y-69325000D01*
X111825000Y-69325000D01*
X111825000Y-69075000D01*
G37*
G36*
X111825000Y-69325000D02*
G01*
X112075000Y-69325000D01*
X112075000Y-69575000D01*
X111825000Y-69575000D01*
X111825000Y-69325000D01*
G37*
G36*
X112075000Y-63575000D02*
G01*
X112325000Y-63575000D01*
X112325000Y-63825000D01*
X112075000Y-63825000D01*
X112075000Y-63575000D01*
G37*
G36*
X112075000Y-64075000D02*
G01*
X112325000Y-64075000D01*
X112325000Y-64325000D01*
X112075000Y-64325000D01*
X112075000Y-64075000D01*
G37*
G36*
X112075000Y-64325000D02*
G01*
X112325000Y-64325000D01*
X112325000Y-64575000D01*
X112075000Y-64575000D01*
X112075000Y-64325000D01*
G37*
G36*
X112075000Y-64825000D02*
G01*
X112325000Y-64825000D01*
X112325000Y-65075000D01*
X112075000Y-65075000D01*
X112075000Y-64825000D01*
G37*
G36*
X112075000Y-65325000D02*
G01*
X112325000Y-65325000D01*
X112325000Y-65575000D01*
X112075000Y-65575000D01*
X112075000Y-65325000D01*
G37*
G36*
X112075000Y-65825000D02*
G01*
X112325000Y-65825000D01*
X112325000Y-66075000D01*
X112075000Y-66075000D01*
X112075000Y-65825000D01*
G37*
G36*
X112075000Y-66075000D02*
G01*
X112325000Y-66075000D01*
X112325000Y-66325000D01*
X112075000Y-66325000D01*
X112075000Y-66075000D01*
G37*
G36*
X112075000Y-67325000D02*
G01*
X112325000Y-67325000D01*
X112325000Y-67575000D01*
X112075000Y-67575000D01*
X112075000Y-67325000D01*
G37*
G36*
X112075000Y-67575000D02*
G01*
X112325000Y-67575000D01*
X112325000Y-67825000D01*
X112075000Y-67825000D01*
X112075000Y-67575000D01*
G37*
G36*
X112075000Y-67825000D02*
G01*
X112325000Y-67825000D01*
X112325000Y-68075000D01*
X112075000Y-68075000D01*
X112075000Y-67825000D01*
G37*
G36*
X112075000Y-68075000D02*
G01*
X112325000Y-68075000D01*
X112325000Y-68325000D01*
X112075000Y-68325000D01*
X112075000Y-68075000D01*
G37*
G36*
X112075000Y-68325000D02*
G01*
X112325000Y-68325000D01*
X112325000Y-68575000D01*
X112075000Y-68575000D01*
X112075000Y-68325000D01*
G37*
G36*
X112075000Y-69075000D02*
G01*
X112325000Y-69075000D01*
X112325000Y-69325000D01*
X112075000Y-69325000D01*
X112075000Y-69075000D01*
G37*
G36*
X112075000Y-69825000D02*
G01*
X112325000Y-69825000D01*
X112325000Y-70075000D01*
X112075000Y-70075000D01*
X112075000Y-69825000D01*
G37*
G36*
X112075000Y-70075000D02*
G01*
X112325000Y-70075000D01*
X112325000Y-70325000D01*
X112075000Y-70325000D01*
X112075000Y-70075000D01*
G37*
G36*
X112075000Y-70325000D02*
G01*
X112325000Y-70325000D01*
X112325000Y-70575000D01*
X112075000Y-70575000D01*
X112075000Y-70325000D01*
G37*
G36*
X112075000Y-70575000D02*
G01*
X112325000Y-70575000D01*
X112325000Y-70825000D01*
X112075000Y-70825000D01*
X112075000Y-70575000D01*
G37*
G36*
X112075000Y-70825000D02*
G01*
X112325000Y-70825000D01*
X112325000Y-71075000D01*
X112075000Y-71075000D01*
X112075000Y-70825000D01*
G37*
G36*
X112075000Y-71075000D02*
G01*
X112325000Y-71075000D01*
X112325000Y-71325000D01*
X112075000Y-71325000D01*
X112075000Y-71075000D01*
G37*
G36*
X112075000Y-71325000D02*
G01*
X112325000Y-71325000D01*
X112325000Y-71575000D01*
X112075000Y-71575000D01*
X112075000Y-71325000D01*
G37*
G36*
X112325000Y-64325000D02*
G01*
X112575000Y-64325000D01*
X112575000Y-64575000D01*
X112325000Y-64575000D01*
X112325000Y-64325000D01*
G37*
G36*
X112325000Y-65325000D02*
G01*
X112575000Y-65325000D01*
X112575000Y-65575000D01*
X112325000Y-65575000D01*
X112325000Y-65325000D01*
G37*
G36*
X112325000Y-66325000D02*
G01*
X112575000Y-66325000D01*
X112575000Y-66575000D01*
X112325000Y-66575000D01*
X112325000Y-66325000D01*
G37*
G36*
X112325000Y-66575000D02*
G01*
X112575000Y-66575000D01*
X112575000Y-66825000D01*
X112325000Y-66825000D01*
X112325000Y-66575000D01*
G37*
G36*
X112325000Y-67075000D02*
G01*
X112575000Y-67075000D01*
X112575000Y-67325000D01*
X112325000Y-67325000D01*
X112325000Y-67075000D01*
G37*
G36*
X112325000Y-67575000D02*
G01*
X112575000Y-67575000D01*
X112575000Y-67825000D01*
X112325000Y-67825000D01*
X112325000Y-67575000D01*
G37*
G36*
X112325000Y-68825000D02*
G01*
X112575000Y-68825000D01*
X112575000Y-69075000D01*
X112325000Y-69075000D01*
X112325000Y-68825000D01*
G37*
G36*
X112325000Y-69075000D02*
G01*
X112575000Y-69075000D01*
X112575000Y-69325000D01*
X112325000Y-69325000D01*
X112325000Y-69075000D01*
G37*
G36*
X112325000Y-69325000D02*
G01*
X112575000Y-69325000D01*
X112575000Y-69575000D01*
X112325000Y-69575000D01*
X112325000Y-69325000D01*
G37*
G36*
X112325000Y-69825000D02*
G01*
X112575000Y-69825000D01*
X112575000Y-70075000D01*
X112325000Y-70075000D01*
X112325000Y-69825000D01*
G37*
G36*
X112325000Y-71325000D02*
G01*
X112575000Y-71325000D01*
X112575000Y-71575000D01*
X112325000Y-71575000D01*
X112325000Y-71325000D01*
G37*
G36*
X112575000Y-63325000D02*
G01*
X112825000Y-63325000D01*
X112825000Y-63575000D01*
X112575000Y-63575000D01*
X112575000Y-63325000D01*
G37*
G36*
X112575000Y-63825000D02*
G01*
X112825000Y-63825000D01*
X112825000Y-64075000D01*
X112575000Y-64075000D01*
X112575000Y-63825000D01*
G37*
G36*
X112575000Y-64075000D02*
G01*
X112825000Y-64075000D01*
X112825000Y-64325000D01*
X112575000Y-64325000D01*
X112575000Y-64075000D01*
G37*
G36*
X112575000Y-64325000D02*
G01*
X112825000Y-64325000D01*
X112825000Y-64575000D01*
X112575000Y-64575000D01*
X112575000Y-64325000D01*
G37*
G36*
X112575000Y-64575000D02*
G01*
X112825000Y-64575000D01*
X112825000Y-64825000D01*
X112575000Y-64825000D01*
X112575000Y-64575000D01*
G37*
G36*
X112575000Y-64825000D02*
G01*
X112825000Y-64825000D01*
X112825000Y-65075000D01*
X112575000Y-65075000D01*
X112575000Y-64825000D01*
G37*
G36*
X112575000Y-65075000D02*
G01*
X112825000Y-65075000D01*
X112825000Y-65325000D01*
X112575000Y-65325000D01*
X112575000Y-65075000D01*
G37*
G36*
X112575000Y-65325000D02*
G01*
X112825000Y-65325000D01*
X112825000Y-65575000D01*
X112575000Y-65575000D01*
X112575000Y-65325000D01*
G37*
G36*
X112575000Y-67325000D02*
G01*
X112825000Y-67325000D01*
X112825000Y-67575000D01*
X112575000Y-67575000D01*
X112575000Y-67325000D01*
G37*
G36*
X112575000Y-68075000D02*
G01*
X112825000Y-68075000D01*
X112825000Y-68325000D01*
X112575000Y-68325000D01*
X112575000Y-68075000D01*
G37*
G36*
X112575000Y-68575000D02*
G01*
X112825000Y-68575000D01*
X112825000Y-68825000D01*
X112575000Y-68825000D01*
X112575000Y-68575000D01*
G37*
G36*
X112575000Y-68825000D02*
G01*
X112825000Y-68825000D01*
X112825000Y-69075000D01*
X112575000Y-69075000D01*
X112575000Y-68825000D01*
G37*
G36*
X112575000Y-69825000D02*
G01*
X112825000Y-69825000D01*
X112825000Y-70075000D01*
X112575000Y-70075000D01*
X112575000Y-69825000D01*
G37*
G36*
X112575000Y-70325000D02*
G01*
X112825000Y-70325000D01*
X112825000Y-70575000D01*
X112575000Y-70575000D01*
X112575000Y-70325000D01*
G37*
G36*
X112575000Y-70575000D02*
G01*
X112825000Y-70575000D01*
X112825000Y-70825000D01*
X112575000Y-70825000D01*
X112575000Y-70575000D01*
G37*
G36*
X112575000Y-70825000D02*
G01*
X112825000Y-70825000D01*
X112825000Y-71075000D01*
X112575000Y-71075000D01*
X112575000Y-70825000D01*
G37*
G36*
X112575000Y-71325000D02*
G01*
X112825000Y-71325000D01*
X112825000Y-71575000D01*
X112575000Y-71575000D01*
X112575000Y-71325000D01*
G37*
G36*
X112825000Y-64075000D02*
G01*
X113075000Y-64075000D01*
X113075000Y-64325000D01*
X112825000Y-64325000D01*
X112825000Y-64075000D01*
G37*
G36*
X112825000Y-64325000D02*
G01*
X113075000Y-64325000D01*
X113075000Y-64575000D01*
X112825000Y-64575000D01*
X112825000Y-64325000D01*
G37*
G36*
X112825000Y-64825000D02*
G01*
X113075000Y-64825000D01*
X113075000Y-65075000D01*
X112825000Y-65075000D01*
X112825000Y-64825000D01*
G37*
G36*
X112825000Y-65075000D02*
G01*
X113075000Y-65075000D01*
X113075000Y-65325000D01*
X112825000Y-65325000D01*
X112825000Y-65075000D01*
G37*
G36*
X112825000Y-65575000D02*
G01*
X113075000Y-65575000D01*
X113075000Y-65825000D01*
X112825000Y-65825000D01*
X112825000Y-65575000D01*
G37*
G36*
X112825000Y-65825000D02*
G01*
X113075000Y-65825000D01*
X113075000Y-66075000D01*
X112825000Y-66075000D01*
X112825000Y-65825000D01*
G37*
G36*
X112825000Y-67075000D02*
G01*
X113075000Y-67075000D01*
X113075000Y-67325000D01*
X112825000Y-67325000D01*
X112825000Y-67075000D01*
G37*
G36*
X112825000Y-68075000D02*
G01*
X113075000Y-68075000D01*
X113075000Y-68325000D01*
X112825000Y-68325000D01*
X112825000Y-68075000D01*
G37*
G36*
X112825000Y-68325000D02*
G01*
X113075000Y-68325000D01*
X113075000Y-68575000D01*
X112825000Y-68575000D01*
X112825000Y-68325000D01*
G37*
G36*
X112825000Y-68575000D02*
G01*
X113075000Y-68575000D01*
X113075000Y-68825000D01*
X112825000Y-68825000D01*
X112825000Y-68575000D01*
G37*
G36*
X112825000Y-69825000D02*
G01*
X113075000Y-69825000D01*
X113075000Y-70075000D01*
X112825000Y-70075000D01*
X112825000Y-69825000D01*
G37*
G36*
X112825000Y-70325000D02*
G01*
X113075000Y-70325000D01*
X113075000Y-70575000D01*
X112825000Y-70575000D01*
X112825000Y-70325000D01*
G37*
G36*
X112825000Y-70575000D02*
G01*
X113075000Y-70575000D01*
X113075000Y-70825000D01*
X112825000Y-70825000D01*
X112825000Y-70575000D01*
G37*
G36*
X112825000Y-70825000D02*
G01*
X113075000Y-70825000D01*
X113075000Y-71075000D01*
X112825000Y-71075000D01*
X112825000Y-70825000D01*
G37*
G36*
X112825000Y-71325000D02*
G01*
X113075000Y-71325000D01*
X113075000Y-71575000D01*
X112825000Y-71575000D01*
X112825000Y-71325000D01*
G37*
G36*
X113075000Y-64075000D02*
G01*
X113325000Y-64075000D01*
X113325000Y-64325000D01*
X113075000Y-64325000D01*
X113075000Y-64075000D01*
G37*
G36*
X113075000Y-64825000D02*
G01*
X113325000Y-64825000D01*
X113325000Y-65075000D01*
X113075000Y-65075000D01*
X113075000Y-64825000D01*
G37*
G36*
X113075000Y-66075000D02*
G01*
X113325000Y-66075000D01*
X113325000Y-66325000D01*
X113075000Y-66325000D01*
X113075000Y-66075000D01*
G37*
G36*
X113075000Y-66825000D02*
G01*
X113325000Y-66825000D01*
X113325000Y-67075000D01*
X113075000Y-67075000D01*
X113075000Y-66825000D01*
G37*
G36*
X113075000Y-68825000D02*
G01*
X113325000Y-68825000D01*
X113325000Y-69075000D01*
X113075000Y-69075000D01*
X113075000Y-68825000D01*
G37*
G36*
X113075000Y-69825000D02*
G01*
X113325000Y-69825000D01*
X113325000Y-70075000D01*
X113075000Y-70075000D01*
X113075000Y-69825000D01*
G37*
G36*
X113075000Y-70325000D02*
G01*
X113325000Y-70325000D01*
X113325000Y-70575000D01*
X113075000Y-70575000D01*
X113075000Y-70325000D01*
G37*
G36*
X113075000Y-70575000D02*
G01*
X113325000Y-70575000D01*
X113325000Y-70825000D01*
X113075000Y-70825000D01*
X113075000Y-70575000D01*
G37*
G36*
X113075000Y-70825000D02*
G01*
X113325000Y-70825000D01*
X113325000Y-71075000D01*
X113075000Y-71075000D01*
X113075000Y-70825000D01*
G37*
G36*
X113075000Y-71325000D02*
G01*
X113325000Y-71325000D01*
X113325000Y-71575000D01*
X113075000Y-71575000D01*
X113075000Y-71325000D01*
G37*
G36*
X113325000Y-63325000D02*
G01*
X113575000Y-63325000D01*
X113575000Y-63575000D01*
X113325000Y-63575000D01*
X113325000Y-63325000D01*
G37*
G36*
X113325000Y-64075000D02*
G01*
X113575000Y-64075000D01*
X113575000Y-64325000D01*
X113325000Y-64325000D01*
X113325000Y-64075000D01*
G37*
G36*
X113325000Y-64325000D02*
G01*
X113575000Y-64325000D01*
X113575000Y-64575000D01*
X113325000Y-64575000D01*
X113325000Y-64325000D01*
G37*
G36*
X113325000Y-64825000D02*
G01*
X113575000Y-64825000D01*
X113575000Y-65075000D01*
X113325000Y-65075000D01*
X113325000Y-64825000D01*
G37*
G36*
X113325000Y-65325000D02*
G01*
X113575000Y-65325000D01*
X113575000Y-65575000D01*
X113325000Y-65575000D01*
X113325000Y-65325000D01*
G37*
G36*
X113325000Y-66075000D02*
G01*
X113575000Y-66075000D01*
X113575000Y-66325000D01*
X113325000Y-66325000D01*
X113325000Y-66075000D01*
G37*
G36*
X113325000Y-66325000D02*
G01*
X113575000Y-66325000D01*
X113575000Y-66575000D01*
X113325000Y-66575000D01*
X113325000Y-66325000D01*
G37*
G36*
X113325000Y-66575000D02*
G01*
X113575000Y-66575000D01*
X113575000Y-66825000D01*
X113325000Y-66825000D01*
X113325000Y-66575000D01*
G37*
G36*
X113325000Y-67075000D02*
G01*
X113575000Y-67075000D01*
X113575000Y-67325000D01*
X113325000Y-67325000D01*
X113325000Y-67075000D01*
G37*
G36*
X113325000Y-67325000D02*
G01*
X113575000Y-67325000D01*
X113575000Y-67575000D01*
X113325000Y-67575000D01*
X113325000Y-67325000D01*
G37*
G36*
X113325000Y-67575000D02*
G01*
X113575000Y-67575000D01*
X113575000Y-67825000D01*
X113325000Y-67825000D01*
X113325000Y-67575000D01*
G37*
G36*
X113325000Y-67825000D02*
G01*
X113575000Y-67825000D01*
X113575000Y-68075000D01*
X113325000Y-68075000D01*
X113325000Y-67825000D01*
G37*
G36*
X113325000Y-68075000D02*
G01*
X113575000Y-68075000D01*
X113575000Y-68325000D01*
X113325000Y-68325000D01*
X113325000Y-68075000D01*
G37*
G36*
X113325000Y-68325000D02*
G01*
X113575000Y-68325000D01*
X113575000Y-68575000D01*
X113325000Y-68575000D01*
X113325000Y-68325000D01*
G37*
G36*
X113325000Y-69075000D02*
G01*
X113575000Y-69075000D01*
X113575000Y-69325000D01*
X113325000Y-69325000D01*
X113325000Y-69075000D01*
G37*
G36*
X113325000Y-69825000D02*
G01*
X113575000Y-69825000D01*
X113575000Y-70075000D01*
X113325000Y-70075000D01*
X113325000Y-69825000D01*
G37*
G36*
X113325000Y-71325000D02*
G01*
X113575000Y-71325000D01*
X113575000Y-71575000D01*
X113325000Y-71575000D01*
X113325000Y-71325000D01*
G37*
G36*
X113575000Y-63825000D02*
G01*
X113825000Y-63825000D01*
X113825000Y-64075000D01*
X113575000Y-64075000D01*
X113575000Y-63825000D01*
G37*
G36*
X113575000Y-64325000D02*
G01*
X113825000Y-64325000D01*
X113825000Y-64575000D01*
X113575000Y-64575000D01*
X113575000Y-64325000D01*
G37*
G36*
X113575000Y-64575000D02*
G01*
X113825000Y-64575000D01*
X113825000Y-64825000D01*
X113575000Y-64825000D01*
X113575000Y-64575000D01*
G37*
G36*
X113575000Y-65075000D02*
G01*
X113825000Y-65075000D01*
X113825000Y-65325000D01*
X113575000Y-65325000D01*
X113575000Y-65075000D01*
G37*
G36*
X113575000Y-65825000D02*
G01*
X113825000Y-65825000D01*
X113825000Y-66075000D01*
X113575000Y-66075000D01*
X113575000Y-65825000D01*
G37*
G36*
X113575000Y-66075000D02*
G01*
X113825000Y-66075000D01*
X113825000Y-66325000D01*
X113575000Y-66325000D01*
X113575000Y-66075000D01*
G37*
G36*
X113575000Y-66325000D02*
G01*
X113825000Y-66325000D01*
X113825000Y-66575000D01*
X113575000Y-66575000D01*
X113575000Y-66325000D01*
G37*
G36*
X113575000Y-66575000D02*
G01*
X113825000Y-66575000D01*
X113825000Y-66825000D01*
X113575000Y-66825000D01*
X113575000Y-66575000D01*
G37*
G36*
X113575000Y-66825000D02*
G01*
X113825000Y-66825000D01*
X113825000Y-67075000D01*
X113575000Y-67075000D01*
X113575000Y-66825000D01*
G37*
G36*
X113575000Y-68075000D02*
G01*
X113825000Y-68075000D01*
X113825000Y-68325000D01*
X113575000Y-68325000D01*
X113575000Y-68075000D01*
G37*
G36*
X113575000Y-68575000D02*
G01*
X113825000Y-68575000D01*
X113825000Y-68825000D01*
X113575000Y-68825000D01*
X113575000Y-68575000D01*
G37*
G36*
X113575000Y-68825000D02*
G01*
X113825000Y-68825000D01*
X113825000Y-69075000D01*
X113575000Y-69075000D01*
X113575000Y-68825000D01*
G37*
G36*
X113575000Y-69075000D02*
G01*
X113825000Y-69075000D01*
X113825000Y-69325000D01*
X113575000Y-69325000D01*
X113575000Y-69075000D01*
G37*
G36*
X113575000Y-69825000D02*
G01*
X113825000Y-69825000D01*
X113825000Y-70075000D01*
X113575000Y-70075000D01*
X113575000Y-69825000D01*
G37*
G36*
X113575000Y-70075000D02*
G01*
X113825000Y-70075000D01*
X113825000Y-70325000D01*
X113575000Y-70325000D01*
X113575000Y-70075000D01*
G37*
G36*
X113575000Y-70325000D02*
G01*
X113825000Y-70325000D01*
X113825000Y-70575000D01*
X113575000Y-70575000D01*
X113575000Y-70325000D01*
G37*
G36*
X113575000Y-70575000D02*
G01*
X113825000Y-70575000D01*
X113825000Y-70825000D01*
X113575000Y-70825000D01*
X113575000Y-70575000D01*
G37*
G36*
X113575000Y-70825000D02*
G01*
X113825000Y-70825000D01*
X113825000Y-71075000D01*
X113575000Y-71075000D01*
X113575000Y-70825000D01*
G37*
G36*
X113575000Y-71075000D02*
G01*
X113825000Y-71075000D01*
X113825000Y-71325000D01*
X113575000Y-71325000D01*
X113575000Y-71075000D01*
G37*
G36*
X113575000Y-71325000D02*
G01*
X113825000Y-71325000D01*
X113825000Y-71575000D01*
X113575000Y-71575000D01*
X113575000Y-71325000D01*
G37*
D13*
%TO.C,C9*%
X101653748Y-76815000D02*
X102176252Y-76815000D01*
X101653748Y-78285000D02*
X102176252Y-78285000D01*
%TO.C,C3*%
X119463748Y-66715000D02*
X119986252Y-66715000D01*
X119463748Y-68185000D02*
X119986252Y-68185000D01*
%TO.C,R5*%
X89140000Y-70397936D02*
X89140000Y-70852064D01*
X90610000Y-70397936D02*
X90610000Y-70852064D01*
D14*
%TO.C,D1*%
X89208600Y-76386340D02*
X89208600Y-79073660D01*
X94481153Y-74897900D02*
X89828847Y-74897900D01*
X94481153Y-80562100D02*
X89828847Y-80562100D01*
X95101400Y-76386340D02*
X95101400Y-79073660D01*
D13*
%TO.C,C1*%
X87890000Y-66988748D02*
X87890000Y-67511252D01*
X89360000Y-66988748D02*
X89360000Y-67511252D01*
%TO.C,R16*%
X97912064Y-76255000D02*
X97457936Y-76255000D01*
X97912064Y-77725000D02*
X97457936Y-77725000D01*
%TO.C,R6*%
X85820000Y-67477064D02*
X85820000Y-67022936D01*
X87290000Y-67477064D02*
X87290000Y-67022936D01*
D15*
%TO.C,J2*%
X75887500Y-61090000D02*
X75887500Y-81410000D01*
X75887500Y-81410000D02*
X78387500Y-81410000D01*
X78387500Y-61090000D02*
X75887500Y-61090000D01*
X78387500Y-81410000D02*
X78387500Y-61090000D01*
D16*
X82987500Y-80140000D02*
G75*
G02*
X82787500Y-80140000I-100000J0D01*
G01*
X82787500Y-80140000D02*
G75*
G02*
X82987500Y-80140000I100000J0D01*
G01*
D13*
%TO.C,R17*%
X97457936Y-78225000D02*
X97912064Y-78225000D01*
X97457936Y-79695000D02*
X97912064Y-79695000D01*
%TD*%
M02*
