%TF.GenerationSoftware,KiCad,Pcbnew,9.0.5*%
%TF.CreationDate,2025-10-19T11:10:53+01:00*%
%TF.ProjectId,loco-decoder-v1a,6c6f636f-2d64-4656-936f-6465722d7631,rev?*%
%TF.SameCoordinates,Original*%
%TF.FileFunction,Copper,L3,Inr*%
%TF.FilePolarity,Positive*%
%FSLAX46Y46*%
G04 Gerber Fmt 4.6, Leading zero omitted, Abs format (unit mm)*
G04 Created by KiCad (PCBNEW 9.0.5) date 2025-10-19 11:10:53*
%MOMM*%
%LPD*%
G01*
G04 APERTURE LIST*
%TA.AperFunction,ComponentPad*%
%ADD10C,1.500000*%
%TD*%
%TA.AperFunction,HeatsinkPad*%
%ADD11C,2.400000*%
%TD*%
%TA.AperFunction,ComponentPad*%
%ADD12R,1.700000X1.700000*%
%TD*%
%TA.AperFunction,ComponentPad*%
%ADD13C,1.700000*%
%TD*%
%TA.AperFunction,ViaPad*%
%ADD14C,0.800000*%
%TD*%
%TA.AperFunction,ViaPad*%
%ADD15C,2.400000*%
%TD*%
%TA.AperFunction,Conductor*%
%ADD16C,0.200000*%
%TD*%
G04 APERTURE END LIST*
D10*
%TO.N,unconnected-(U1-GPIO23{slash}SCL-Pad6)*%
%TO.C,FD2*%
X86983300Y-78820000D03*
%TD*%
D11*
%TO.N,GND*%
%TO.C,U2*%
X120630000Y-64580000D03*
%TD*%
D10*
%TO.N,/v boost/+VM*%
%TO.C,TP2*%
X108775000Y-60890000D03*
%TD*%
D12*
%TO.N,GND*%
%TO.C,J4*%
X94865000Y-68815000D03*
D13*
%TO.N,3V3*%
X94865000Y-66275000D03*
%TO.N,/GPIO*%
X97405000Y-68815000D03*
%TO.N,/LED_Y*%
X97405000Y-66275000D03*
%TO.N,VBAT*%
X99945000Y-68815000D03*
%TO.N,/LED_R*%
X99945000Y-66275000D03*
%TO.N,/MOTOR_M*%
X102485000Y-68815000D03*
%TO.N,/MOTOR_P*%
X102485000Y-66275000D03*
%TD*%
D10*
%TO.N,VBUS*%
%TO.C,FD1*%
X74283300Y-63570000D03*
%TD*%
%TO.N,/motor driver/+12V0*%
%TO.C,TP1*%
X116525000Y-64360000D03*
%TD*%
D14*
%TO.N,/motor driver/+12V0*%
X116825000Y-67450000D03*
%TO.N,/PWR_IN-*%
X91500000Y-79875000D03*
%TO.N,/BAT+*%
X109375000Y-74000000D03*
X81500000Y-71125000D03*
X111250000Y-74000000D03*
X80000000Y-71125000D03*
%TO.N,/PWR_IN+*%
X91500000Y-77000000D03*
%TO.N,VBAT*%
X104284890Y-64937039D03*
D15*
X87435000Y-73250000D03*
D14*
%TO.N,GND*%
X73250000Y-72000000D03*
X109500000Y-78375000D03*
X116705000Y-76560000D03*
X107287500Y-66631450D03*
X114580000Y-66615000D03*
X76823300Y-65010000D03*
X103995000Y-81060000D03*
X111125000Y-69050000D03*
X111000000Y-78375000D03*
X102272500Y-79900000D03*
X96125000Y-80000000D03*
X98785000Y-63630000D03*
X102385000Y-62680000D03*
X84050000Y-75075000D03*
D15*
X87435000Y-70250000D03*
D14*
X76823300Y-61140000D03*
X113825000Y-61350000D03*
X99772500Y-78140000D03*
X113830000Y-62695000D03*
%TO.N,3V3*%
X102955000Y-60670000D03*
X122950000Y-70325000D03*
X80515000Y-60110000D03*
%TO.N,Net-(U1-GPIO0{slash}A0)*%
X85125000Y-66375000D03*
%TO.N,Net-(D1-+)*%
X105025000Y-76930000D03*
%TO.N,Net-(U1-GPIO1{slash}A1)*%
X98481250Y-81325000D03*
%TO.N,Net-(U4-BOOT)*%
X101325000Y-76350000D03*
%TO.N,Net-(U4-SW)*%
X102375000Y-76370000D03*
%TO.N,VBUS*%
X95000000Y-71750000D03*
X94125000Y-71750000D03*
%TO.N,/MOTOR_M*%
X119995000Y-71320000D03*
%TO.N,/MOTOR_P*%
X123520000Y-67455000D03*
%TO.N,/RAIL_M*%
X122225000Y-79150000D03*
%TO.N,/RAIL_P*%
X123325000Y-77750000D03*
%TD*%
D16*
%TO.N,3V3*%
X102955000Y-60670000D02*
X104300000Y-59325000D01*
X123450000Y-59325000D02*
X124325000Y-60200000D01*
X124325000Y-68950000D02*
X122950000Y-70325000D01*
X104300000Y-59325000D02*
X123450000Y-59325000D01*
X124325000Y-60200000D02*
X124325000Y-68950000D01*
%TD*%
%TA.AperFunction,Conductor*%
%TO.N,GND*%
G36*
X107753723Y-59945185D02*
G01*
X107799478Y-59997989D01*
X107809422Y-60067147D01*
X107787003Y-60122383D01*
X107741069Y-60185604D01*
X107705476Y-60234594D01*
X107616117Y-60409970D01*
X107555290Y-60597173D01*
X107524500Y-60791577D01*
X107524500Y-60988422D01*
X107555290Y-61182826D01*
X107616117Y-61370029D01*
X107705476Y-61545405D01*
X107821172Y-61704646D01*
X107960354Y-61843828D01*
X108119595Y-61959524D01*
X108202455Y-62001743D01*
X108294970Y-62048882D01*
X108294972Y-62048882D01*
X108294975Y-62048884D01*
X108395317Y-62081487D01*
X108482173Y-62109709D01*
X108676578Y-62140500D01*
X108676583Y-62140500D01*
X108873422Y-62140500D01*
X109067826Y-62109709D01*
X109255025Y-62048884D01*
X109430405Y-61959524D01*
X109589646Y-61843828D01*
X109728828Y-61704646D01*
X109844524Y-61545405D01*
X109933884Y-61370025D01*
X109994709Y-61182826D01*
X110025500Y-60988422D01*
X110025500Y-60791577D01*
X109994709Y-60597173D01*
X109933882Y-60409970D01*
X109844523Y-60234594D01*
X109762997Y-60122383D01*
X109739518Y-60056580D01*
X109755343Y-59988526D01*
X109805448Y-59939831D01*
X109863316Y-59925500D01*
X123149903Y-59925500D01*
X123216942Y-59945185D01*
X123237584Y-59961819D01*
X123688181Y-60412416D01*
X123721666Y-60473739D01*
X123724500Y-60500097D01*
X123724500Y-66430500D01*
X123704815Y-66497539D01*
X123652011Y-66543294D01*
X123600500Y-66554500D01*
X123431306Y-66554500D01*
X123257341Y-66589103D01*
X123257332Y-66589106D01*
X123093459Y-66656983D01*
X123093446Y-66656990D01*
X122945965Y-66755535D01*
X122945961Y-66755538D01*
X122820538Y-66880961D01*
X122820535Y-66880965D01*
X122721990Y-67028446D01*
X122721983Y-67028459D01*
X122654106Y-67192332D01*
X122654103Y-67192341D01*
X122619500Y-67366304D01*
X122619500Y-67543695D01*
X122654103Y-67717658D01*
X122654106Y-67717667D01*
X122721983Y-67881540D01*
X122721990Y-67881553D01*
X122820535Y-68029034D01*
X122820538Y-68029038D01*
X122945961Y-68154461D01*
X122945965Y-68154464D01*
X123093446Y-68253009D01*
X123093459Y-68253016D01*
X123216363Y-68303923D01*
X123257334Y-68320894D01*
X123257336Y-68320894D01*
X123257341Y-68320896D01*
X123431304Y-68355499D01*
X123431307Y-68355500D01*
X123600500Y-68355500D01*
X123609185Y-68358050D01*
X123618147Y-68356762D01*
X123642187Y-68367740D01*
X123667539Y-68375185D01*
X123673466Y-68382025D01*
X123681703Y-68385787D01*
X123695992Y-68408021D01*
X123713294Y-68427989D01*
X123715581Y-68438503D01*
X123719477Y-68444565D01*
X123724500Y-68479500D01*
X123724500Y-68649902D01*
X123704815Y-68716941D01*
X123688181Y-68737583D01*
X123037584Y-69388181D01*
X122976261Y-69421666D01*
X122949903Y-69424500D01*
X122861306Y-69424500D01*
X122687341Y-69459103D01*
X122687332Y-69459106D01*
X122523459Y-69526983D01*
X122523446Y-69526990D01*
X122375965Y-69625535D01*
X122375961Y-69625538D01*
X122250538Y-69750961D01*
X122250535Y-69750965D01*
X122151990Y-69898446D01*
X122151983Y-69898459D01*
X122084106Y-70062332D01*
X122084103Y-70062341D01*
X122049500Y-70236304D01*
X122049500Y-70413695D01*
X122084103Y-70587658D01*
X122084106Y-70587667D01*
X122151983Y-70751540D01*
X122151990Y-70751553D01*
X122250535Y-70899034D01*
X122250538Y-70899038D01*
X122375961Y-71024461D01*
X122375965Y-71024464D01*
X122523446Y-71123009D01*
X122523459Y-71123016D01*
X122646363Y-71173923D01*
X122687334Y-71190894D01*
X122687336Y-71190894D01*
X122687341Y-71190896D01*
X122861304Y-71225499D01*
X122861307Y-71225500D01*
X122861309Y-71225500D01*
X123038693Y-71225500D01*
X123038694Y-71225499D01*
X123096682Y-71213964D01*
X123212658Y-71190896D01*
X123212661Y-71190894D01*
X123212666Y-71190894D01*
X123376547Y-71123013D01*
X123524035Y-71024464D01*
X123649464Y-70899035D01*
X123748013Y-70751547D01*
X123815894Y-70587666D01*
X123828959Y-70521987D01*
X123842461Y-70454106D01*
X123850500Y-70413691D01*
X123850500Y-70325097D01*
X123870185Y-70258058D01*
X123886819Y-70237416D01*
X124279202Y-69845033D01*
X124538320Y-69585915D01*
X124599642Y-69552431D01*
X124669334Y-69557415D01*
X124725267Y-69599287D01*
X124749684Y-69664751D01*
X124750000Y-69673597D01*
X124750000Y-74727072D01*
X124730315Y-74794111D01*
X124691298Y-74827918D01*
X124693258Y-74830851D01*
X124683101Y-74837637D01*
X124612636Y-74908102D01*
X124574500Y-75000170D01*
X124574500Y-83575500D01*
X124554815Y-83642539D01*
X124502011Y-83688294D01*
X124450500Y-83699500D01*
X115004500Y-83699500D01*
X114937461Y-83679815D01*
X114891706Y-83627011D01*
X114880500Y-83575500D01*
X114880500Y-79061304D01*
X121324500Y-79061304D01*
X121324500Y-79238695D01*
X121359103Y-79412658D01*
X121359106Y-79412667D01*
X121426983Y-79576540D01*
X121426990Y-79576553D01*
X121525535Y-79724034D01*
X121525538Y-79724038D01*
X121650961Y-79849461D01*
X121650965Y-79849464D01*
X121798446Y-79948009D01*
X121798459Y-79948016D01*
X121921363Y-79998923D01*
X121962334Y-80015894D01*
X121962336Y-80015894D01*
X121962341Y-80015896D01*
X122136304Y-80050499D01*
X122136307Y-80050500D01*
X122136309Y-80050500D01*
X122313693Y-80050500D01*
X122313694Y-80050499D01*
X122371998Y-80038902D01*
X122487658Y-80015896D01*
X122487661Y-80015894D01*
X122487666Y-80015894D01*
X122651547Y-79948013D01*
X122799035Y-79849464D01*
X122924464Y-79724035D01*
X123023013Y-79576547D01*
X123090894Y-79412666D01*
X123095751Y-79388251D01*
X123125499Y-79238695D01*
X123125500Y-79238693D01*
X123125500Y-79061306D01*
X123125499Y-79061304D01*
X123090896Y-78887341D01*
X123090894Y-78887338D01*
X123090894Y-78887334D01*
X123059705Y-78812038D01*
X123052238Y-78742570D01*
X123083514Y-78680091D01*
X123143603Y-78644439D01*
X123198458Y-78642971D01*
X123236309Y-78650500D01*
X123413693Y-78650500D01*
X123413694Y-78650499D01*
X123471682Y-78638964D01*
X123587658Y-78615896D01*
X123587661Y-78615894D01*
X123587666Y-78615894D01*
X123751547Y-78548013D01*
X123899035Y-78449464D01*
X124024464Y-78324035D01*
X124123013Y-78176547D01*
X124190894Y-78012666D01*
X124194373Y-77995179D01*
X124225499Y-77838695D01*
X124225500Y-77838693D01*
X124225500Y-77661306D01*
X124225499Y-77661304D01*
X124190896Y-77487341D01*
X124190893Y-77487332D01*
X124123016Y-77323459D01*
X124123009Y-77323446D01*
X124024464Y-77175965D01*
X124024461Y-77175961D01*
X123899038Y-77050538D01*
X123899034Y-77050535D01*
X123751553Y-76951990D01*
X123751540Y-76951983D01*
X123587667Y-76884106D01*
X123587658Y-76884103D01*
X123413694Y-76849500D01*
X123413691Y-76849500D01*
X123236309Y-76849500D01*
X123236306Y-76849500D01*
X123062341Y-76884103D01*
X123062332Y-76884106D01*
X122898459Y-76951983D01*
X122898446Y-76951990D01*
X122750965Y-77050535D01*
X122750961Y-77050538D01*
X122625538Y-77175961D01*
X122625535Y-77175965D01*
X122526990Y-77323446D01*
X122526983Y-77323459D01*
X122459106Y-77487332D01*
X122459103Y-77487341D01*
X122424500Y-77661304D01*
X122424500Y-77838695D01*
X122459103Y-78012658D01*
X122459105Y-78012662D01*
X122459106Y-78012666D01*
X122464196Y-78024954D01*
X122490293Y-78087960D01*
X122497760Y-78157430D01*
X122466485Y-78219908D01*
X122406395Y-78255560D01*
X122351540Y-78257028D01*
X122313694Y-78249500D01*
X122313691Y-78249500D01*
X122136309Y-78249500D01*
X122136306Y-78249500D01*
X121962341Y-78284103D01*
X121962332Y-78284106D01*
X121798459Y-78351983D01*
X121798446Y-78351990D01*
X121650965Y-78450535D01*
X121650961Y-78450538D01*
X121525538Y-78575961D01*
X121525535Y-78575965D01*
X121426990Y-78723446D01*
X121426983Y-78723459D01*
X121359106Y-78887332D01*
X121359103Y-78887341D01*
X121324500Y-79061304D01*
X114880500Y-79061304D01*
X114880500Y-72426359D01*
X114877602Y-72372311D01*
X114877602Y-72372310D01*
X114876407Y-72361201D01*
X114874769Y-72345964D01*
X114866114Y-72292552D01*
X114815832Y-72157743D01*
X114782347Y-72096420D01*
X114696123Y-71981239D01*
X114696118Y-71981234D01*
X114696113Y-71981228D01*
X114643776Y-71928892D01*
X114643761Y-71928877D01*
X114643737Y-71928855D01*
X114603519Y-71892728D01*
X114603489Y-71892703D01*
X114582865Y-71876083D01*
X114539039Y-71844475D01*
X114536841Y-71843470D01*
X114528781Y-71839787D01*
X114500336Y-71821507D01*
X114437321Y-71798002D01*
X114433283Y-71796157D01*
X114433282Y-71796156D01*
X114408176Y-71784686D01*
X114408174Y-71784685D01*
X114408171Y-71784684D01*
X114405574Y-71783921D01*
X114405573Y-71783921D01*
X114381545Y-71776862D01*
X114381545Y-71776861D01*
X114377314Y-71775619D01*
X114365528Y-71771223D01*
X114353174Y-71768534D01*
X114348934Y-71767290D01*
X114348828Y-71767259D01*
X114341048Y-71764975D01*
X114341045Y-71764974D01*
X114198638Y-71744500D01*
X106374000Y-71744500D01*
X106306961Y-71724815D01*
X106261206Y-71672011D01*
X106250000Y-71620500D01*
X106250000Y-71231304D01*
X119094500Y-71231304D01*
X119094500Y-71408695D01*
X119129103Y-71582658D01*
X119129106Y-71582667D01*
X119196983Y-71746540D01*
X119196990Y-71746553D01*
X119295535Y-71894034D01*
X119295538Y-71894038D01*
X119420961Y-72019461D01*
X119420965Y-72019464D01*
X119568446Y-72118009D01*
X119568459Y-72118016D01*
X119664380Y-72157747D01*
X119732334Y-72185894D01*
X119732336Y-72185894D01*
X119732341Y-72185896D01*
X119906304Y-72220499D01*
X119906307Y-72220500D01*
X119906309Y-72220500D01*
X120083693Y-72220500D01*
X120083694Y-72220499D01*
X120141682Y-72208964D01*
X120257658Y-72185896D01*
X120257661Y-72185894D01*
X120257666Y-72185894D01*
X120421547Y-72118013D01*
X120569035Y-72019464D01*
X120694464Y-71894035D01*
X120793013Y-71746547D01*
X120860894Y-71582666D01*
X120895500Y-71408691D01*
X120895500Y-71231309D01*
X120895500Y-71231306D01*
X120895499Y-71231304D01*
X120860896Y-71057341D01*
X120860893Y-71057332D01*
X120793016Y-70893459D01*
X120793009Y-70893446D01*
X120694464Y-70745965D01*
X120694461Y-70745961D01*
X120569038Y-70620538D01*
X120569034Y-70620535D01*
X120421553Y-70521990D01*
X120421540Y-70521983D01*
X120257667Y-70454106D01*
X120257658Y-70454103D01*
X120083694Y-70419500D01*
X120083691Y-70419500D01*
X119906309Y-70419500D01*
X119906306Y-70419500D01*
X119732341Y-70454103D01*
X119732332Y-70454106D01*
X119568459Y-70521983D01*
X119568446Y-70521990D01*
X119420965Y-70620535D01*
X119420961Y-70620538D01*
X119295538Y-70745961D01*
X119295535Y-70745965D01*
X119196990Y-70893446D01*
X119196983Y-70893459D01*
X119129106Y-71057332D01*
X119129103Y-71057341D01*
X119094500Y-71231304D01*
X106250000Y-71231304D01*
X106250000Y-67361304D01*
X115924500Y-67361304D01*
X115924500Y-67538695D01*
X115959103Y-67712658D01*
X115959106Y-67712667D01*
X116026983Y-67876540D01*
X116026990Y-67876553D01*
X116125535Y-68024034D01*
X116125538Y-68024038D01*
X116250961Y-68149461D01*
X116250965Y-68149464D01*
X116398446Y-68248009D01*
X116398459Y-68248016D01*
X116521363Y-68298923D01*
X116562334Y-68315894D01*
X116562336Y-68315894D01*
X116562341Y-68315896D01*
X116736304Y-68350499D01*
X116736307Y-68350500D01*
X116736309Y-68350500D01*
X116913693Y-68350500D01*
X116913694Y-68350499D01*
X117004364Y-68332464D01*
X117087658Y-68315896D01*
X117087661Y-68315894D01*
X117087666Y-68315894D01*
X117239476Y-68253013D01*
X117251540Y-68248016D01*
X117251540Y-68248015D01*
X117251547Y-68248013D01*
X117399035Y-68149464D01*
X117524464Y-68024035D01*
X117623013Y-67876547D01*
X117690894Y-67712666D01*
X117725500Y-67538691D01*
X117725500Y-67361309D01*
X117725500Y-67361306D01*
X117725499Y-67361304D01*
X117690896Y-67187341D01*
X117690893Y-67187332D01*
X117623016Y-67023459D01*
X117623009Y-67023446D01*
X117524464Y-66875965D01*
X117524461Y-66875961D01*
X117399038Y-66750538D01*
X117399034Y-66750535D01*
X117251553Y-66651990D01*
X117251540Y-66651983D01*
X117087667Y-66584106D01*
X117087658Y-66584103D01*
X116913694Y-66549500D01*
X116913691Y-66549500D01*
X116736309Y-66549500D01*
X116736306Y-66549500D01*
X116562341Y-66584103D01*
X116562332Y-66584106D01*
X116398459Y-66651983D01*
X116398446Y-66651990D01*
X116250965Y-66750535D01*
X116250961Y-66750538D01*
X116125538Y-66875961D01*
X116125535Y-66875965D01*
X116026990Y-67023446D01*
X116026983Y-67023459D01*
X115959106Y-67187332D01*
X115959103Y-67187341D01*
X115924500Y-67361304D01*
X106250000Y-67361304D01*
X106250000Y-64261577D01*
X115274500Y-64261577D01*
X115274500Y-64458422D01*
X115305290Y-64652826D01*
X115366117Y-64840029D01*
X115455476Y-65015405D01*
X115571172Y-65174646D01*
X115710354Y-65313828D01*
X115869595Y-65429524D01*
X115952455Y-65471743D01*
X116044970Y-65518882D01*
X116044972Y-65518882D01*
X116044975Y-65518884D01*
X116145317Y-65551487D01*
X116232173Y-65579709D01*
X116426578Y-65610500D01*
X116426583Y-65610500D01*
X116623422Y-65610500D01*
X116817826Y-65579709D01*
X117005025Y-65518884D01*
X117180405Y-65429524D01*
X117339646Y-65313828D01*
X117478828Y-65174646D01*
X117594524Y-65015405D01*
X117683884Y-64840025D01*
X117744709Y-64652826D01*
X117775500Y-64458422D01*
X117775500Y-64261577D01*
X117744709Y-64067173D01*
X117683882Y-63879970D01*
X117594523Y-63704594D01*
X117478828Y-63545354D01*
X117339646Y-63406172D01*
X117180405Y-63290476D01*
X117005029Y-63201117D01*
X116817826Y-63140290D01*
X116623422Y-63109500D01*
X116623417Y-63109500D01*
X116426583Y-63109500D01*
X116426578Y-63109500D01*
X116232173Y-63140290D01*
X116044970Y-63201117D01*
X115869594Y-63290476D01*
X115778741Y-63356485D01*
X115710354Y-63406172D01*
X115710352Y-63406174D01*
X115710351Y-63406174D01*
X115571174Y-63545351D01*
X115571174Y-63545352D01*
X115571172Y-63545354D01*
X115521485Y-63613741D01*
X115455476Y-63704594D01*
X115366117Y-63879970D01*
X115305290Y-64067173D01*
X115274500Y-64261577D01*
X106250000Y-64261577D01*
X106250000Y-60049500D01*
X106269685Y-59982461D01*
X106322489Y-59936706D01*
X106374000Y-59925500D01*
X107686684Y-59925500D01*
X107753723Y-59945185D01*
G37*
%TD.AperFunction*%
%TD*%
%TA.AperFunction,Conductor*%
%TO.N,/BAT+*%
G36*
X84818039Y-69899685D02*
G01*
X84863794Y-69952489D01*
X84875000Y-70004000D01*
X84875000Y-70319643D01*
X84874999Y-70320216D01*
X84856578Y-74309290D01*
X84836584Y-74376237D01*
X84783569Y-74421748D01*
X84714365Y-74431372D01*
X84650944Y-74402054D01*
X84644898Y-74396398D01*
X84624038Y-74375538D01*
X84624034Y-74375535D01*
X84476553Y-74276990D01*
X84476540Y-74276983D01*
X84312667Y-74209106D01*
X84312658Y-74209103D01*
X84138694Y-74174500D01*
X84138691Y-74174500D01*
X83961309Y-74174500D01*
X83961306Y-74174500D01*
X83787341Y-74209103D01*
X83787332Y-74209106D01*
X83623459Y-74276983D01*
X83623446Y-74276990D01*
X83475965Y-74375535D01*
X83475961Y-74375538D01*
X83350538Y-74500961D01*
X83350535Y-74500965D01*
X83251990Y-74648446D01*
X83251983Y-74648459D01*
X83184106Y-74812332D01*
X83184103Y-74812341D01*
X83149500Y-74986304D01*
X83149500Y-75163695D01*
X83184103Y-75337658D01*
X83184106Y-75337667D01*
X83251983Y-75501540D01*
X83251990Y-75501553D01*
X83350535Y-75649034D01*
X83350538Y-75649038D01*
X83475961Y-75774461D01*
X83475965Y-75774464D01*
X83623446Y-75873009D01*
X83623459Y-75873016D01*
X83745227Y-75923453D01*
X83787334Y-75940894D01*
X83787336Y-75940894D01*
X83787341Y-75940896D01*
X83961304Y-75975499D01*
X83961307Y-75975500D01*
X83961309Y-75975500D01*
X84138693Y-75975500D01*
X84138694Y-75975499D01*
X84196682Y-75963964D01*
X84312658Y-75940896D01*
X84312661Y-75940894D01*
X84312666Y-75940894D01*
X84476547Y-75873013D01*
X84624035Y-75774464D01*
X84637787Y-75760711D01*
X84699108Y-75727227D01*
X84768799Y-75732209D01*
X84824734Y-75774079D01*
X84849153Y-75839543D01*
X84849468Y-75848965D01*
X84842698Y-77314999D01*
X84842699Y-77315000D01*
X90572929Y-77315000D01*
X90639968Y-77334685D01*
X90685723Y-77387489D01*
X90687491Y-77391549D01*
X90701986Y-77426546D01*
X90701990Y-77426553D01*
X90800535Y-77574034D01*
X90800538Y-77574038D01*
X90925961Y-77699461D01*
X90925965Y-77699464D01*
X91073446Y-77798009D01*
X91073459Y-77798016D01*
X91151882Y-77830499D01*
X91237334Y-77865894D01*
X91237336Y-77865894D01*
X91237341Y-77865896D01*
X91411304Y-77900499D01*
X91411307Y-77900500D01*
X91411309Y-77900500D01*
X91588693Y-77900500D01*
X91588694Y-77900499D01*
X91646682Y-77888964D01*
X91762658Y-77865896D01*
X91762661Y-77865894D01*
X91762666Y-77865894D01*
X91926547Y-77798013D01*
X92074035Y-77699464D01*
X92199464Y-77574035D01*
X92298013Y-77426547D01*
X92312510Y-77391547D01*
X92356350Y-77337145D01*
X92422643Y-77315079D01*
X92427071Y-77315000D01*
X99024638Y-77315000D01*
X99091677Y-77334685D01*
X99137432Y-77387489D01*
X99147376Y-77456647D01*
X99118351Y-77520203D01*
X99112319Y-77526681D01*
X99073038Y-77565961D01*
X99073035Y-77565965D01*
X98974490Y-77713446D01*
X98974483Y-77713459D01*
X98906606Y-77877332D01*
X98906603Y-77877341D01*
X98872000Y-78051304D01*
X98872000Y-78228695D01*
X98906603Y-78402658D01*
X98906606Y-78402667D01*
X98974483Y-78566540D01*
X98974490Y-78566553D01*
X99073035Y-78714034D01*
X99073038Y-78714038D01*
X99198461Y-78839461D01*
X99198465Y-78839464D01*
X99345946Y-78938009D01*
X99345959Y-78938016D01*
X99434041Y-78974500D01*
X99509834Y-79005894D01*
X99509836Y-79005894D01*
X99509841Y-79005896D01*
X99683804Y-79040499D01*
X99683807Y-79040500D01*
X99683809Y-79040500D01*
X99861193Y-79040500D01*
X99861194Y-79040499D01*
X99919182Y-79028964D01*
X100035158Y-79005896D01*
X100035161Y-79005894D01*
X100035166Y-79005894D01*
X100199047Y-78938013D01*
X100346535Y-78839464D01*
X100471964Y-78714035D01*
X100570513Y-78566547D01*
X100638394Y-78402666D01*
X100661540Y-78286304D01*
X108599500Y-78286304D01*
X108599500Y-78463695D01*
X108634103Y-78637658D01*
X108634106Y-78637667D01*
X108701983Y-78801540D01*
X108701990Y-78801553D01*
X108800535Y-78949034D01*
X108800538Y-78949038D01*
X108925961Y-79074461D01*
X108925965Y-79074464D01*
X109073446Y-79173009D01*
X109073459Y-79173016D01*
X109143403Y-79201987D01*
X109237334Y-79240894D01*
X109237336Y-79240894D01*
X109237341Y-79240896D01*
X109411304Y-79275499D01*
X109411307Y-79275500D01*
X109411309Y-79275500D01*
X109588693Y-79275500D01*
X109588694Y-79275499D01*
X109646682Y-79263964D01*
X109762658Y-79240896D01*
X109762661Y-79240894D01*
X109762666Y-79240894D01*
X109926547Y-79173013D01*
X110074035Y-79074464D01*
X110114396Y-79034103D01*
X110162319Y-78986181D01*
X110223642Y-78952696D01*
X110293334Y-78957680D01*
X110337681Y-78986181D01*
X110425961Y-79074461D01*
X110425965Y-79074464D01*
X110573446Y-79173009D01*
X110573459Y-79173016D01*
X110643403Y-79201987D01*
X110737334Y-79240894D01*
X110737336Y-79240894D01*
X110737341Y-79240896D01*
X110911304Y-79275499D01*
X110911307Y-79275500D01*
X110911309Y-79275500D01*
X111088693Y-79275500D01*
X111088694Y-79275499D01*
X111146682Y-79263964D01*
X111262658Y-79240896D01*
X111262661Y-79240894D01*
X111262666Y-79240894D01*
X111426547Y-79173013D01*
X111574035Y-79074464D01*
X111699464Y-78949035D01*
X111798013Y-78801547D01*
X111865894Y-78637666D01*
X111880040Y-78566553D01*
X111900499Y-78463695D01*
X111900500Y-78463693D01*
X111900500Y-78286306D01*
X111900499Y-78286304D01*
X111865896Y-78112341D01*
X111865893Y-78112332D01*
X111798016Y-77948459D01*
X111798009Y-77948446D01*
X111699464Y-77800965D01*
X111699461Y-77800961D01*
X111574038Y-77675538D01*
X111574034Y-77675535D01*
X111426553Y-77576990D01*
X111426540Y-77576983D01*
X111262667Y-77509106D01*
X111262658Y-77509103D01*
X111088694Y-77474500D01*
X111088691Y-77474500D01*
X110911309Y-77474500D01*
X110911306Y-77474500D01*
X110737341Y-77509103D01*
X110737332Y-77509106D01*
X110573459Y-77576983D01*
X110573446Y-77576990D01*
X110425965Y-77675535D01*
X110425961Y-77675538D01*
X110337681Y-77763819D01*
X110276358Y-77797304D01*
X110206666Y-77792320D01*
X110162319Y-77763819D01*
X110074038Y-77675538D01*
X110074034Y-77675535D01*
X109926553Y-77576990D01*
X109926540Y-77576983D01*
X109762667Y-77509106D01*
X109762658Y-77509103D01*
X109588694Y-77474500D01*
X109588691Y-77474500D01*
X109411309Y-77474500D01*
X109411306Y-77474500D01*
X109237341Y-77509103D01*
X109237332Y-77509106D01*
X109073459Y-77576983D01*
X109073446Y-77576990D01*
X108925965Y-77675535D01*
X108925961Y-77675538D01*
X108800538Y-77800961D01*
X108800535Y-77800965D01*
X108701990Y-77948446D01*
X108701983Y-77948459D01*
X108634106Y-78112332D01*
X108634103Y-78112341D01*
X108599500Y-78286304D01*
X100661540Y-78286304D01*
X100673000Y-78228691D01*
X100673000Y-78051309D01*
X100673000Y-78051306D01*
X100672999Y-78051304D01*
X100638396Y-77877341D01*
X100638393Y-77877332D01*
X100633770Y-77866172D01*
X100604661Y-77795894D01*
X100570516Y-77713459D01*
X100570509Y-77713446D01*
X100471964Y-77565965D01*
X100471961Y-77565961D01*
X100432681Y-77526681D01*
X100399196Y-77465358D01*
X100404180Y-77395666D01*
X100446052Y-77339733D01*
X100511516Y-77315316D01*
X100520362Y-77315000D01*
X103535181Y-77315000D01*
X103675726Y-77311634D01*
X104120592Y-77300983D01*
X104188079Y-77319056D01*
X104226658Y-77356055D01*
X104325535Y-77504034D01*
X104325538Y-77504038D01*
X104450961Y-77629461D01*
X104450965Y-77629464D01*
X104598446Y-77728009D01*
X104598459Y-77728016D01*
X104684897Y-77763819D01*
X104762334Y-77795894D01*
X104762336Y-77795894D01*
X104762341Y-77795896D01*
X104936304Y-77830499D01*
X104936307Y-77830500D01*
X104936309Y-77830500D01*
X105113693Y-77830500D01*
X105113694Y-77830499D01*
X105171682Y-77818964D01*
X105287658Y-77795896D01*
X105287661Y-77795894D01*
X105287666Y-77795894D01*
X105451547Y-77728013D01*
X105599035Y-77629464D01*
X105724464Y-77504035D01*
X105823013Y-77356547D01*
X105832418Y-77333838D01*
X105876257Y-77279435D01*
X105942550Y-77257368D01*
X105943812Y-77257330D01*
X106250000Y-77250000D01*
X106250000Y-72374000D01*
X106269685Y-72306961D01*
X106322489Y-72261206D01*
X106374000Y-72250000D01*
X114198638Y-72250000D01*
X114228078Y-72258644D01*
X114258065Y-72265168D01*
X114263080Y-72268922D01*
X114265677Y-72269685D01*
X114286319Y-72286319D01*
X114338681Y-72338681D01*
X114372166Y-72400004D01*
X114375000Y-72426362D01*
X114375000Y-83575500D01*
X114355315Y-83642539D01*
X114302511Y-83688294D01*
X114251000Y-83699500D01*
X73799500Y-83699500D01*
X73732461Y-83679815D01*
X73686706Y-83627011D01*
X73675500Y-83575500D01*
X73675500Y-81400173D01*
X73675499Y-81400170D01*
X73637364Y-81308103D01*
X73566897Y-81237636D01*
X73563681Y-81236304D01*
X97580750Y-81236304D01*
X97580750Y-81413695D01*
X97615353Y-81587658D01*
X97615356Y-81587667D01*
X97683233Y-81751540D01*
X97683240Y-81751553D01*
X97781785Y-81899034D01*
X97781788Y-81899038D01*
X97907211Y-82024461D01*
X97907215Y-82024464D01*
X98054696Y-82123009D01*
X98054709Y-82123016D01*
X98177613Y-82173923D01*
X98218584Y-82190894D01*
X98218586Y-82190894D01*
X98218591Y-82190896D01*
X98392554Y-82225499D01*
X98392557Y-82225500D01*
X98392559Y-82225500D01*
X98569943Y-82225500D01*
X98569944Y-82225499D01*
X98627932Y-82213964D01*
X98743908Y-82190896D01*
X98743911Y-82190894D01*
X98743916Y-82190894D01*
X98907797Y-82123013D01*
X99055285Y-82024464D01*
X99180714Y-81899035D01*
X99279263Y-81751547D01*
X99347144Y-81587666D01*
X99381750Y-81413691D01*
X99381750Y-81236309D01*
X99381750Y-81236306D01*
X99381749Y-81236304D01*
X99347146Y-81062341D01*
X99347144Y-81062336D01*
X99347144Y-81062334D01*
X99309439Y-80971304D01*
X103094500Y-80971304D01*
X103094500Y-81148695D01*
X103129103Y-81322658D01*
X103129106Y-81322667D01*
X103196983Y-81486540D01*
X103196990Y-81486553D01*
X103295535Y-81634034D01*
X103295538Y-81634038D01*
X103420961Y-81759461D01*
X103420965Y-81759464D01*
X103568446Y-81858009D01*
X103568459Y-81858016D01*
X103667490Y-81899035D01*
X103732334Y-81925894D01*
X103732336Y-81925894D01*
X103732341Y-81925896D01*
X103906304Y-81960499D01*
X103906307Y-81960500D01*
X103906309Y-81960500D01*
X104083693Y-81960500D01*
X104083694Y-81960499D01*
X104141682Y-81948964D01*
X104257658Y-81925896D01*
X104257661Y-81925894D01*
X104257666Y-81925894D01*
X104421547Y-81858013D01*
X104569035Y-81759464D01*
X104694464Y-81634035D01*
X104793013Y-81486547D01*
X104860894Y-81322666D01*
X104895500Y-81148691D01*
X104895500Y-80971309D01*
X104895500Y-80971306D01*
X104895499Y-80971304D01*
X104860896Y-80797341D01*
X104860893Y-80797332D01*
X104793016Y-80633459D01*
X104793009Y-80633446D01*
X104694464Y-80485965D01*
X104694461Y-80485961D01*
X104569038Y-80360538D01*
X104569034Y-80360535D01*
X104421553Y-80261990D01*
X104421540Y-80261983D01*
X104257667Y-80194106D01*
X104257658Y-80194103D01*
X104083694Y-80159500D01*
X104083691Y-80159500D01*
X103906309Y-80159500D01*
X103906306Y-80159500D01*
X103732341Y-80194103D01*
X103732332Y-80194106D01*
X103568459Y-80261983D01*
X103568446Y-80261990D01*
X103420965Y-80360535D01*
X103420961Y-80360538D01*
X103295538Y-80485961D01*
X103295535Y-80485965D01*
X103196990Y-80633446D01*
X103196983Y-80633459D01*
X103129106Y-80797332D01*
X103129103Y-80797341D01*
X103094500Y-80971304D01*
X99309439Y-80971304D01*
X99279263Y-80898453D01*
X99279261Y-80898450D01*
X99279259Y-80898446D01*
X99180714Y-80750965D01*
X99180711Y-80750961D01*
X99055288Y-80625538D01*
X99055284Y-80625535D01*
X98907803Y-80526990D01*
X98907790Y-80526983D01*
X98743917Y-80459106D01*
X98743908Y-80459103D01*
X98569944Y-80424500D01*
X98569941Y-80424500D01*
X98392559Y-80424500D01*
X98392556Y-80424500D01*
X98218591Y-80459103D01*
X98218582Y-80459106D01*
X98054709Y-80526983D01*
X98054696Y-80526990D01*
X97907215Y-80625535D01*
X97907211Y-80625538D01*
X97781788Y-80750961D01*
X97781785Y-80750965D01*
X97683240Y-80898446D01*
X97683233Y-80898459D01*
X97615356Y-81062332D01*
X97615353Y-81062341D01*
X97580750Y-81236304D01*
X73563681Y-81236304D01*
X73474829Y-81199500D01*
X73474828Y-81199500D01*
X70199500Y-81199500D01*
X70132461Y-81179815D01*
X70086706Y-81127011D01*
X70075500Y-81075500D01*
X70075500Y-78721577D01*
X85732800Y-78721577D01*
X85732800Y-78918422D01*
X85763590Y-79112826D01*
X85824417Y-79300029D01*
X85888583Y-79425961D01*
X85913776Y-79475405D01*
X86029472Y-79634646D01*
X86168654Y-79773828D01*
X86327895Y-79889524D01*
X86370641Y-79911304D01*
X86503270Y-79978882D01*
X86503272Y-79978882D01*
X86503275Y-79978884D01*
X86603617Y-80011487D01*
X86690473Y-80039709D01*
X86884878Y-80070500D01*
X86884883Y-80070500D01*
X87081722Y-80070500D01*
X87276126Y-80039709D01*
X87463325Y-79978884D01*
X87638705Y-79889524D01*
X87780774Y-79786304D01*
X90599500Y-79786304D01*
X90599500Y-79963695D01*
X90634103Y-80137658D01*
X90634106Y-80137667D01*
X90701983Y-80301540D01*
X90701990Y-80301553D01*
X90800535Y-80449034D01*
X90800538Y-80449038D01*
X90925961Y-80574461D01*
X90925965Y-80574464D01*
X91073446Y-80673009D01*
X91073459Y-80673016D01*
X91196363Y-80723923D01*
X91237334Y-80740894D01*
X91237336Y-80740894D01*
X91237341Y-80740896D01*
X91411304Y-80775499D01*
X91411307Y-80775500D01*
X91411309Y-80775500D01*
X91588693Y-80775500D01*
X91588694Y-80775499D01*
X91646682Y-80763964D01*
X91762658Y-80740896D01*
X91762661Y-80740894D01*
X91762666Y-80740894D01*
X91926547Y-80673013D01*
X92074035Y-80574464D01*
X92199464Y-80449035D01*
X92298013Y-80301547D01*
X92365894Y-80137666D01*
X92375636Y-80088693D01*
X92400499Y-79963695D01*
X92400500Y-79963693D01*
X92400500Y-79911304D01*
X95224500Y-79911304D01*
X95224500Y-80088695D01*
X95259103Y-80262658D01*
X95259106Y-80262667D01*
X95326983Y-80426540D01*
X95326990Y-80426553D01*
X95425535Y-80574034D01*
X95425538Y-80574038D01*
X95550961Y-80699461D01*
X95550965Y-80699464D01*
X95698446Y-80798009D01*
X95698459Y-80798016D01*
X95821363Y-80848923D01*
X95862334Y-80865894D01*
X95862336Y-80865894D01*
X95862341Y-80865896D01*
X96036304Y-80900499D01*
X96036307Y-80900500D01*
X96036309Y-80900500D01*
X96213693Y-80900500D01*
X96213694Y-80900499D01*
X96271682Y-80888964D01*
X96387658Y-80865896D01*
X96387661Y-80865894D01*
X96387666Y-80865894D01*
X96551547Y-80798013D01*
X96699035Y-80699464D01*
X96824464Y-80574035D01*
X96923013Y-80426547D01*
X96990894Y-80262666D01*
X96991029Y-80261990D01*
X97025499Y-80088695D01*
X97025500Y-80088693D01*
X97025500Y-79911306D01*
X97009209Y-79829409D01*
X97009209Y-79829408D01*
X97005608Y-79811304D01*
X101372000Y-79811304D01*
X101372000Y-79988695D01*
X101406603Y-80162658D01*
X101406606Y-80162667D01*
X101474483Y-80326540D01*
X101474490Y-80326553D01*
X101573035Y-80474034D01*
X101573038Y-80474038D01*
X101698461Y-80599461D01*
X101698465Y-80599464D01*
X101845946Y-80698009D01*
X101845959Y-80698016D01*
X101949478Y-80740894D01*
X102009834Y-80765894D01*
X102009836Y-80765894D01*
X102009841Y-80765896D01*
X102183804Y-80800499D01*
X102183807Y-80800500D01*
X102183809Y-80800500D01*
X102361193Y-80800500D01*
X102361194Y-80800499D01*
X102419182Y-80788964D01*
X102535158Y-80765896D01*
X102535161Y-80765894D01*
X102535166Y-80765894D01*
X102699047Y-80698013D01*
X102846535Y-80599464D01*
X102971964Y-80474035D01*
X103070513Y-80326547D01*
X103138394Y-80162666D01*
X103143369Y-80137658D01*
X103172999Y-79988695D01*
X103173000Y-79988693D01*
X103173000Y-79811306D01*
X103172999Y-79811304D01*
X103138396Y-79637341D01*
X103138393Y-79637332D01*
X103137280Y-79634646D01*
X103071322Y-79475405D01*
X103070516Y-79473459D01*
X103070509Y-79473446D01*
X102971964Y-79325965D01*
X102971961Y-79325961D01*
X102846538Y-79200538D01*
X102846534Y-79200535D01*
X102699053Y-79101990D01*
X102699040Y-79101983D01*
X102535167Y-79034106D01*
X102535158Y-79034103D01*
X102361194Y-78999500D01*
X102361191Y-78999500D01*
X102183809Y-78999500D01*
X102183806Y-78999500D01*
X102009841Y-79034103D01*
X102009832Y-79034106D01*
X101845959Y-79101983D01*
X101845946Y-79101990D01*
X101698465Y-79200535D01*
X101698461Y-79200538D01*
X101573038Y-79325961D01*
X101573035Y-79325965D01*
X101474490Y-79473446D01*
X101474483Y-79473459D01*
X101406606Y-79637332D01*
X101406603Y-79637341D01*
X101372000Y-79811304D01*
X97005608Y-79811304D01*
X96990896Y-79737341D01*
X96990893Y-79737332D01*
X96923016Y-79573459D01*
X96923009Y-79573446D01*
X96824464Y-79425965D01*
X96824461Y-79425961D01*
X96699038Y-79300538D01*
X96699034Y-79300535D01*
X96551553Y-79201990D01*
X96551540Y-79201983D01*
X96387667Y-79134106D01*
X96387658Y-79134103D01*
X96213694Y-79099500D01*
X96213691Y-79099500D01*
X96036309Y-79099500D01*
X96036306Y-79099500D01*
X95862341Y-79134103D01*
X95862332Y-79134106D01*
X95698459Y-79201983D01*
X95698446Y-79201990D01*
X95550965Y-79300535D01*
X95550961Y-79300538D01*
X95425538Y-79425961D01*
X95425535Y-79425965D01*
X95326990Y-79573446D01*
X95326983Y-79573459D01*
X95259106Y-79737332D01*
X95259103Y-79737341D01*
X95224500Y-79911304D01*
X92400500Y-79911304D01*
X92400500Y-79786306D01*
X92400499Y-79786304D01*
X92365896Y-79612341D01*
X92365893Y-79612332D01*
X92298016Y-79448459D01*
X92298009Y-79448446D01*
X92199464Y-79300965D01*
X92199461Y-79300961D01*
X92074038Y-79175538D01*
X92074034Y-79175535D01*
X91926553Y-79076990D01*
X91926540Y-79076983D01*
X91762667Y-79009106D01*
X91762658Y-79009103D01*
X91588694Y-78974500D01*
X91588691Y-78974500D01*
X91411309Y-78974500D01*
X91411306Y-78974500D01*
X91237341Y-79009103D01*
X91237332Y-79009106D01*
X91073459Y-79076983D01*
X91073446Y-79076990D01*
X90925965Y-79175535D01*
X90925961Y-79175538D01*
X90800538Y-79300961D01*
X90800535Y-79300965D01*
X90701990Y-79448446D01*
X90701983Y-79448459D01*
X90634106Y-79612332D01*
X90634103Y-79612341D01*
X90599500Y-79786304D01*
X87780774Y-79786304D01*
X87797946Y-79773828D01*
X87937128Y-79634646D01*
X88052824Y-79475405D01*
X88142184Y-79300025D01*
X88203009Y-79112826D01*
X88209085Y-79074464D01*
X88233800Y-78918422D01*
X88233800Y-78721577D01*
X88203009Y-78527173D01*
X88142182Y-78339970D01*
X88052823Y-78164594D01*
X87937128Y-78005354D01*
X87797946Y-77866172D01*
X87638705Y-77750476D01*
X87463329Y-77661117D01*
X87276126Y-77600290D01*
X87081722Y-77569500D01*
X87081717Y-77569500D01*
X86884883Y-77569500D01*
X86884878Y-77569500D01*
X86690473Y-77600290D01*
X86503270Y-77661117D01*
X86327894Y-77750476D01*
X86270302Y-77792320D01*
X86168654Y-77866172D01*
X86168652Y-77866174D01*
X86168651Y-77866174D01*
X86029474Y-78005351D01*
X86029474Y-78005352D01*
X86029472Y-78005354D01*
X85996087Y-78051304D01*
X85913776Y-78164594D01*
X85824417Y-78339970D01*
X85763590Y-78527173D01*
X85732800Y-78721577D01*
X70075500Y-78721577D01*
X70075500Y-71911304D01*
X72349500Y-71911304D01*
X72349500Y-72088695D01*
X72384103Y-72262658D01*
X72384106Y-72262667D01*
X72451983Y-72426540D01*
X72451990Y-72426553D01*
X72550535Y-72574034D01*
X72550538Y-72574038D01*
X72675961Y-72699461D01*
X72675965Y-72699464D01*
X72823446Y-72798009D01*
X72823459Y-72798016D01*
X72946363Y-72848923D01*
X72987334Y-72865894D01*
X72987336Y-72865894D01*
X72987341Y-72865896D01*
X73161304Y-72900499D01*
X73161307Y-72900500D01*
X73161309Y-72900500D01*
X73338693Y-72900500D01*
X73338694Y-72900499D01*
X73396682Y-72888964D01*
X73512658Y-72865896D01*
X73512661Y-72865894D01*
X73512666Y-72865894D01*
X73676547Y-72798013D01*
X73824035Y-72699464D01*
X73949464Y-72574035D01*
X74048013Y-72426547D01*
X74115894Y-72262666D01*
X74116185Y-72261206D01*
X74150499Y-72088695D01*
X74150500Y-72088693D01*
X74150500Y-71911306D01*
X74150499Y-71911304D01*
X74115896Y-71737341D01*
X74115893Y-71737332D01*
X74048016Y-71573459D01*
X74048009Y-71573446D01*
X73949464Y-71425965D01*
X73949461Y-71425961D01*
X73824038Y-71300538D01*
X73824034Y-71300535D01*
X73676553Y-71201990D01*
X73676540Y-71201983D01*
X73512667Y-71134106D01*
X73512658Y-71134103D01*
X73338694Y-71099500D01*
X73338691Y-71099500D01*
X73161309Y-71099500D01*
X73161306Y-71099500D01*
X72987341Y-71134103D01*
X72987332Y-71134106D01*
X72823459Y-71201983D01*
X72823446Y-71201990D01*
X72675965Y-71300535D01*
X72675961Y-71300538D01*
X72550538Y-71425961D01*
X72550535Y-71425965D01*
X72451990Y-71573446D01*
X72451983Y-71573459D01*
X72384106Y-71737332D01*
X72384103Y-71737341D01*
X72349500Y-71911304D01*
X70075500Y-71911304D01*
X70075500Y-70004000D01*
X70095185Y-69936961D01*
X70147989Y-69891206D01*
X70199500Y-69880000D01*
X84751000Y-69880000D01*
X84818039Y-69899685D01*
G37*
%TD.AperFunction*%
%TD*%
%TA.AperFunction,Conductor*%
%TO.N,VBAT*%
G36*
X105687539Y-64079685D02*
G01*
X105733294Y-64132489D01*
X105744500Y-64184000D01*
X105744500Y-64301361D01*
X105744500Y-67411089D01*
X105744500Y-71281089D01*
X105744500Y-71620500D01*
X105744501Y-71620509D01*
X105756052Y-71727950D01*
X105756054Y-71727962D01*
X105767260Y-71779472D01*
X105801383Y-71881997D01*
X105801386Y-71882003D01*
X105830433Y-71927200D01*
X105850118Y-71994240D01*
X105838912Y-72045752D01*
X105784664Y-72164534D01*
X105764976Y-72231582D01*
X105754160Y-72306815D01*
X105747945Y-72350043D01*
X105744500Y-72374001D01*
X105744500Y-76095744D01*
X105724815Y-76162783D01*
X105672011Y-76208538D01*
X105602853Y-76218482D01*
X105551609Y-76198846D01*
X105451553Y-76131990D01*
X105451540Y-76131983D01*
X105287667Y-76064106D01*
X105287658Y-76064103D01*
X105113694Y-76029500D01*
X105113691Y-76029500D01*
X104936309Y-76029500D01*
X104936306Y-76029500D01*
X104762341Y-76064103D01*
X104762332Y-76064106D01*
X104598459Y-76131983D01*
X104598446Y-76131990D01*
X104450965Y-76230535D01*
X104450961Y-76230538D01*
X104325538Y-76355961D01*
X104325535Y-76355965D01*
X104226990Y-76503446D01*
X104226983Y-76503459D01*
X104159106Y-76667332D01*
X104159104Y-76667339D01*
X104153079Y-76697630D01*
X104120693Y-76759541D01*
X104059977Y-76794114D01*
X104034430Y-76797401D01*
X103665131Y-76806242D01*
X103663627Y-76806279D01*
X103663623Y-76806279D01*
X103534205Y-76809378D01*
X103530635Y-76809464D01*
X103527666Y-76809500D01*
X103353226Y-76809500D01*
X103286187Y-76789815D01*
X103240432Y-76737011D01*
X103230488Y-76667853D01*
X103238663Y-76638052D01*
X103240894Y-76632666D01*
X103244873Y-76612666D01*
X103275499Y-76458695D01*
X103275500Y-76458693D01*
X103275500Y-76281306D01*
X103275499Y-76281304D01*
X103240896Y-76107341D01*
X103240893Y-76107332D01*
X103173016Y-75943459D01*
X103173009Y-75943446D01*
X103074464Y-75795965D01*
X103074461Y-75795961D01*
X102949038Y-75670538D01*
X102949034Y-75670535D01*
X102801553Y-75571990D01*
X102801540Y-75571983D01*
X102637667Y-75504106D01*
X102637658Y-75504103D01*
X102463694Y-75469500D01*
X102463691Y-75469500D01*
X102286309Y-75469500D01*
X102286306Y-75469500D01*
X102112341Y-75504103D01*
X102112332Y-75504106D01*
X101948460Y-75571983D01*
X101948449Y-75571989D01*
X101933851Y-75581743D01*
X101867172Y-75602617D01*
X101799793Y-75584129D01*
X101796091Y-75581750D01*
X101751547Y-75551987D01*
X101751540Y-75551983D01*
X101587667Y-75484106D01*
X101587658Y-75484103D01*
X101413694Y-75449500D01*
X101413691Y-75449500D01*
X101236309Y-75449500D01*
X101236306Y-75449500D01*
X101062341Y-75484103D01*
X101062332Y-75484106D01*
X100898459Y-75551983D01*
X100898446Y-75551990D01*
X100750965Y-75650535D01*
X100750961Y-75650538D01*
X100625538Y-75775961D01*
X100625535Y-75775965D01*
X100526990Y-75923446D01*
X100526983Y-75923459D01*
X100459106Y-76087332D01*
X100459103Y-76087341D01*
X100424500Y-76261304D01*
X100424500Y-76438695D01*
X100459103Y-76612658D01*
X100459105Y-76612662D01*
X100459106Y-76612666D01*
X100479079Y-76660885D01*
X100486547Y-76730354D01*
X100455271Y-76792833D01*
X100395182Y-76828485D01*
X100390876Y-76829502D01*
X100334866Y-76841686D01*
X100269395Y-76866105D01*
X100269391Y-76866107D01*
X100143123Y-76935055D01*
X100041385Y-77036789D01*
X100041379Y-77036796D01*
X100004025Y-77086694D01*
X100004022Y-77086697D01*
X99999510Y-77092726D01*
X99999504Y-77092734D01*
X99980965Y-77126685D01*
X99980241Y-77127942D01*
X99955971Y-77151107D01*
X99932248Y-77174832D01*
X99930704Y-77175225D01*
X99929700Y-77176185D01*
X99918355Y-77178377D01*
X99872820Y-77190000D01*
X99672996Y-77190000D01*
X99605957Y-77170315D01*
X99568681Y-77133040D01*
X99519467Y-77056462D01*
X99519458Y-77056451D01*
X99473714Y-77003659D01*
X99473710Y-77003656D01*
X99473708Y-77003653D01*
X99364974Y-76909433D01*
X99364971Y-76909431D01*
X99364969Y-76909430D01*
X99234103Y-76849664D01*
X99234098Y-76849662D01*
X99234097Y-76849662D01*
X99167058Y-76829977D01*
X99167060Y-76829977D01*
X99167055Y-76829976D01*
X99119582Y-76823150D01*
X99024638Y-76809500D01*
X92478640Y-76809500D01*
X92411601Y-76789815D01*
X92365846Y-76737011D01*
X92364079Y-76732952D01*
X92298016Y-76573459D01*
X92298009Y-76573446D01*
X92199464Y-76425965D01*
X92199461Y-76425961D01*
X92074038Y-76300538D01*
X92074034Y-76300535D01*
X91926553Y-76201990D01*
X91926540Y-76201983D01*
X91762667Y-76134106D01*
X91762658Y-76134103D01*
X91588694Y-76099500D01*
X91588691Y-76099500D01*
X91411309Y-76099500D01*
X91411306Y-76099500D01*
X91237341Y-76134103D01*
X91237332Y-76134106D01*
X91073459Y-76201983D01*
X91073446Y-76201990D01*
X90925965Y-76300535D01*
X90925961Y-76300538D01*
X90800538Y-76425961D01*
X90800535Y-76425965D01*
X90701990Y-76573446D01*
X90701983Y-76573459D01*
X90635921Y-76732952D01*
X90592081Y-76787356D01*
X90525787Y-76809421D01*
X90521360Y-76809500D01*
X85475112Y-76809500D01*
X85408073Y-76789815D01*
X85362318Y-76737011D01*
X85351113Y-76684927D01*
X85351192Y-76667853D01*
X85354963Y-75851299D01*
X85354686Y-75832074D01*
X85354371Y-75822652D01*
X85353364Y-75803466D01*
X85322776Y-75662875D01*
X85298357Y-75597411D01*
X85284473Y-75571987D01*
X85229402Y-75471138D01*
X85229398Y-75471132D01*
X85207765Y-75449500D01*
X85127658Y-75369397D01*
X85071723Y-75327527D01*
X85071720Y-75327525D01*
X85071713Y-75327521D01*
X85012947Y-75295434D01*
X84963541Y-75246030D01*
X84948377Y-75185539D01*
X84948477Y-75173860D01*
X84950500Y-75163691D01*
X84950500Y-74986309D01*
X84950101Y-74984303D01*
X84950174Y-74975802D01*
X84958455Y-74948466D01*
X84963772Y-74920397D01*
X84968548Y-74915150D01*
X84970432Y-74908933D01*
X84987238Y-74894620D01*
X85007611Y-74872241D01*
X85112834Y-74805303D01*
X85165849Y-74759792D01*
X85260570Y-74651494D01*
X85320944Y-74520893D01*
X85340712Y-74454702D01*
X85340932Y-74453984D01*
X85340938Y-74453946D01*
X85340939Y-74453944D01*
X85362073Y-74311624D01*
X85379935Y-70443424D01*
X85382443Y-70435028D01*
X85381196Y-70426353D01*
X85392287Y-70402065D01*
X85399929Y-70376480D01*
X85406579Y-70370770D01*
X85410221Y-70362797D01*
X85432685Y-70348360D01*
X85452944Y-70330969D01*
X85463169Y-70328769D01*
X85468999Y-70325023D01*
X85503934Y-70320000D01*
X85620297Y-70320000D01*
X85687336Y-70339685D01*
X85733091Y-70392489D01*
X85743236Y-70427815D01*
X85763594Y-70582452D01*
X85763595Y-70582457D01*
X85763596Y-70582463D01*
X85800449Y-70720000D01*
X85821290Y-70797780D01*
X85821293Y-70797790D01*
X85892606Y-70969954D01*
X85906595Y-71003726D01*
X86018052Y-71196774D01*
X86018057Y-71196780D01*
X86018058Y-71196782D01*
X86153751Y-71373622D01*
X86153757Y-71373629D01*
X86311370Y-71531242D01*
X86311376Y-71531247D01*
X86488226Y-71666948D01*
X86681274Y-71778405D01*
X86887219Y-71863710D01*
X87102537Y-71921404D01*
X87323543Y-71950500D01*
X87323550Y-71950500D01*
X87546450Y-71950500D01*
X87546457Y-71950500D01*
X87767463Y-71921404D01*
X87982781Y-71863710D01*
X88188726Y-71778405D01*
X88381774Y-71666948D01*
X88558624Y-71531247D01*
X88716247Y-71373624D01*
X88851948Y-71196774D01*
X88963405Y-71003726D01*
X89048710Y-70797781D01*
X89106404Y-70582463D01*
X89124560Y-70444553D01*
X89126764Y-70427815D01*
X89155031Y-70363918D01*
X89213355Y-70325447D01*
X89249703Y-70320000D01*
X90581051Y-70320000D01*
X90648090Y-70339685D01*
X90693845Y-70392489D01*
X90705050Y-70444553D01*
X90691979Y-73374998D01*
X97143159Y-73356669D01*
X97210253Y-73376163D01*
X97256158Y-73428836D01*
X97267510Y-73480668D01*
X97267510Y-73993008D01*
X97267510Y-73993083D01*
X97285016Y-70288911D01*
X97305018Y-70221968D01*
X97358037Y-70176463D01*
X97409015Y-70165500D01*
X97511286Y-70165500D01*
X97511287Y-70165500D01*
X97721243Y-70132246D01*
X97923412Y-70066557D01*
X98112816Y-69970051D01*
X98175830Y-69924269D01*
X98284786Y-69845109D01*
X98284788Y-69845106D01*
X98284792Y-69845104D01*
X98435104Y-69694792D01*
X98435106Y-69694788D01*
X98435109Y-69694786D01*
X98560048Y-69522820D01*
X98560047Y-69522820D01*
X98560051Y-69522816D01*
X98656557Y-69333412D01*
X98722246Y-69131243D01*
X98755500Y-68921287D01*
X98755500Y-68708713D01*
X98722246Y-68498757D01*
X98656557Y-68296588D01*
X98560051Y-68107184D01*
X98560049Y-68107181D01*
X98560048Y-68107179D01*
X98435109Y-67935213D01*
X98284786Y-67784890D01*
X98112815Y-67659948D01*
X98112812Y-67659946D01*
X98104050Y-67655481D01*
X98053256Y-67607505D01*
X98036463Y-67539683D01*
X98059003Y-67473549D01*
X98104060Y-67434512D01*
X98112816Y-67430051D01*
X98132033Y-67416089D01*
X98284786Y-67305109D01*
X98284788Y-67305106D01*
X98284792Y-67305104D01*
X98435104Y-67154792D01*
X98435106Y-67154788D01*
X98435109Y-67154786D01*
X98493465Y-67074464D01*
X98560051Y-66982816D01*
X98564514Y-66974056D01*
X98612483Y-66923261D01*
X98680303Y-66906463D01*
X98746440Y-66928997D01*
X98785481Y-66974050D01*
X98789946Y-66982812D01*
X98789948Y-66982815D01*
X98914890Y-67154786D01*
X99065213Y-67305109D01*
X99237179Y-67430048D01*
X99237181Y-67430049D01*
X99237184Y-67430051D01*
X99426588Y-67526557D01*
X99628757Y-67592246D01*
X99838713Y-67625500D01*
X99838714Y-67625500D01*
X100051286Y-67625500D01*
X100051287Y-67625500D01*
X100261243Y-67592246D01*
X100463412Y-67526557D01*
X100652816Y-67430051D01*
X100678915Y-67411089D01*
X100824786Y-67305109D01*
X100824788Y-67305106D01*
X100824792Y-67305104D01*
X100975104Y-67154792D01*
X100975106Y-67154788D01*
X100975109Y-67154786D01*
X101100048Y-66982820D01*
X101100049Y-66982819D01*
X101100051Y-66982816D01*
X101104514Y-66974054D01*
X101152488Y-66923259D01*
X101220308Y-66906463D01*
X101286444Y-66928999D01*
X101325486Y-66974056D01*
X101329951Y-66982820D01*
X101454890Y-67154786D01*
X101605213Y-67305109D01*
X101777182Y-67430050D01*
X101785946Y-67434516D01*
X101836742Y-67482491D01*
X101853536Y-67550312D01*
X101830998Y-67616447D01*
X101785946Y-67655484D01*
X101777182Y-67659949D01*
X101605213Y-67784890D01*
X101454890Y-67935213D01*
X101329951Y-68107179D01*
X101233444Y-68296585D01*
X101167753Y-68498760D01*
X101134500Y-68708713D01*
X101134500Y-68921286D01*
X101162017Y-69095025D01*
X101167754Y-69131243D01*
X101174740Y-69152745D01*
X101233444Y-69333414D01*
X101329951Y-69522820D01*
X101454890Y-69694786D01*
X101605213Y-69845109D01*
X101777179Y-69970048D01*
X101777181Y-69970049D01*
X101777184Y-69970051D01*
X101966588Y-70066557D01*
X102168757Y-70132246D01*
X102378713Y-70165500D01*
X102378714Y-70165500D01*
X102591286Y-70165500D01*
X102591287Y-70165500D01*
X102801243Y-70132246D01*
X103003412Y-70066557D01*
X103192816Y-69970051D01*
X103255830Y-69924269D01*
X103364786Y-69845109D01*
X103364788Y-69845106D01*
X103364792Y-69845104D01*
X103515104Y-69694792D01*
X103515106Y-69694788D01*
X103515109Y-69694786D01*
X103640048Y-69522820D01*
X103640047Y-69522820D01*
X103640051Y-69522816D01*
X103736557Y-69333412D01*
X103802246Y-69131243D01*
X103835500Y-68921287D01*
X103835500Y-68708713D01*
X103802246Y-68498757D01*
X103736557Y-68296588D01*
X103640051Y-68107184D01*
X103640049Y-68107181D01*
X103640048Y-68107179D01*
X103515109Y-67935213D01*
X103364786Y-67784890D01*
X103192820Y-67659951D01*
X103192115Y-67659591D01*
X103184054Y-67655485D01*
X103133259Y-67607512D01*
X103116463Y-67539692D01*
X103138999Y-67473556D01*
X103184054Y-67434515D01*
X103192816Y-67430051D01*
X103218915Y-67411089D01*
X103364786Y-67305109D01*
X103364788Y-67305106D01*
X103364792Y-67305104D01*
X103515104Y-67154792D01*
X103515106Y-67154788D01*
X103515109Y-67154786D01*
X103640048Y-66982820D01*
X103640049Y-66982819D01*
X103640051Y-66982816D01*
X103736557Y-66793412D01*
X103802246Y-66591243D01*
X103835500Y-66381287D01*
X103835500Y-66168713D01*
X103802246Y-65958757D01*
X103736557Y-65756588D01*
X103640051Y-65567184D01*
X103640049Y-65567181D01*
X103640048Y-65567179D01*
X103515109Y-65395213D01*
X103364786Y-65244890D01*
X103192820Y-65119951D01*
X103003414Y-65023444D01*
X103003413Y-65023443D01*
X103003412Y-65023443D01*
X102801243Y-64957754D01*
X102801241Y-64957753D01*
X102801240Y-64957753D01*
X102639957Y-64932208D01*
X102591287Y-64924500D01*
X102378713Y-64924500D01*
X102330042Y-64932208D01*
X102168760Y-64957753D01*
X101966585Y-65023444D01*
X101777179Y-65119951D01*
X101605213Y-65244890D01*
X101454890Y-65395213D01*
X101329949Y-65567182D01*
X101325484Y-65575946D01*
X101277509Y-65626742D01*
X101209688Y-65643536D01*
X101143553Y-65620998D01*
X101104516Y-65575946D01*
X101100050Y-65567182D01*
X100975109Y-65395213D01*
X100824790Y-65244894D01*
X100824785Y-65244890D01*
X100655264Y-65121726D01*
X100612598Y-65066396D01*
X100606619Y-64996783D01*
X100639225Y-64934988D01*
X100642983Y-64931282D01*
X101529155Y-64093874D01*
X101591400Y-64062137D01*
X101614321Y-64060000D01*
X105620500Y-64060000D01*
X105687539Y-64079685D01*
G37*
%TD.AperFunction*%
%TD*%
%TA.AperFunction,Conductor*%
%TO.N,VBUS*%
G36*
X77988039Y-58820185D02*
G01*
X78033794Y-58872989D01*
X78045000Y-58924500D01*
X78045000Y-66280000D01*
X84100500Y-66280000D01*
X84167539Y-66299685D01*
X84213294Y-66352489D01*
X84224500Y-66404000D01*
X84224500Y-66463695D01*
X84259103Y-66637658D01*
X84259106Y-66637667D01*
X84326983Y-66801540D01*
X84326990Y-66801553D01*
X84425535Y-66949034D01*
X84425538Y-66949038D01*
X84550961Y-67074461D01*
X84550965Y-67074464D01*
X84698446Y-67173009D01*
X84698459Y-67173016D01*
X84821363Y-67223923D01*
X84862334Y-67240894D01*
X84862336Y-67240894D01*
X84862341Y-67240896D01*
X85036304Y-67275499D01*
X85036307Y-67275500D01*
X85036309Y-67275500D01*
X85213693Y-67275500D01*
X85213694Y-67275499D01*
X85271682Y-67263964D01*
X85387658Y-67240896D01*
X85387661Y-67240894D01*
X85387666Y-67240894D01*
X85551547Y-67173013D01*
X85699035Y-67074464D01*
X85824464Y-66949035D01*
X85923013Y-66801547D01*
X85990894Y-66637666D01*
X85993024Y-66626962D01*
X86025499Y-66463695D01*
X86025500Y-66463693D01*
X86025500Y-66404000D01*
X86045185Y-66336961D01*
X86097989Y-66291206D01*
X86149500Y-66280000D01*
X93392552Y-66280000D01*
X93459591Y-66299685D01*
X93505346Y-66352489D01*
X93515025Y-66384602D01*
X93527551Y-66463691D01*
X93547754Y-66591243D01*
X93579148Y-66687864D01*
X93613444Y-66793414D01*
X93709951Y-66982820D01*
X93834890Y-67154786D01*
X93948430Y-67268326D01*
X93981915Y-67329649D01*
X93976931Y-67399341D01*
X93935059Y-67455274D01*
X93904083Y-67472189D01*
X93772669Y-67521203D01*
X93772664Y-67521206D01*
X93657455Y-67607452D01*
X93657452Y-67607455D01*
X93571206Y-67722664D01*
X93571202Y-67722671D01*
X93520908Y-67857517D01*
X93514501Y-67917116D01*
X93514500Y-67917135D01*
X93514500Y-69712870D01*
X93514501Y-69712876D01*
X93520908Y-69772483D01*
X93571202Y-69907328D01*
X93571206Y-69907335D01*
X93657452Y-70022544D01*
X93657455Y-70022547D01*
X93772664Y-70108793D01*
X93772671Y-70108797D01*
X93907517Y-70159091D01*
X93907516Y-70159091D01*
X93914444Y-70159835D01*
X93967127Y-70165500D01*
X95762872Y-70165499D01*
X95822483Y-70159091D01*
X95957331Y-70108796D01*
X96072546Y-70022546D01*
X96158796Y-69907331D01*
X96207810Y-69775916D01*
X96249681Y-69719984D01*
X96315145Y-69695566D01*
X96383418Y-69710417D01*
X96411673Y-69731569D01*
X96525213Y-69845109D01*
X96696161Y-69969308D01*
X96697184Y-69970051D01*
X96740048Y-69991891D01*
X96790842Y-70039862D01*
X96807638Y-70107682D01*
X96802563Y-70137870D01*
X96800674Y-70144190D01*
X96800669Y-70144216D01*
X96779522Y-70286521D01*
X96767977Y-72729170D01*
X96747975Y-72796116D01*
X96694956Y-72841621D01*
X96644330Y-72852583D01*
X91324653Y-72867698D01*
X91257558Y-72848204D01*
X91211653Y-72795531D01*
X91200302Y-72743146D01*
X91203791Y-71961089D01*
X91210545Y-70446808D01*
X91199235Y-70338197D01*
X91188030Y-70286133D01*
X91153664Y-70182496D01*
X91142740Y-70165498D01*
X91075880Y-70061462D01*
X91075871Y-70061451D01*
X91030127Y-70008659D01*
X91030123Y-70008656D01*
X91030121Y-70008653D01*
X90921387Y-69914433D01*
X90921384Y-69914431D01*
X90921382Y-69914430D01*
X90790516Y-69854664D01*
X90790511Y-69854662D01*
X90790510Y-69854662D01*
X90723471Y-69834977D01*
X90723473Y-69834977D01*
X90723468Y-69834976D01*
X90675995Y-69828150D01*
X90581051Y-69814500D01*
X89249703Y-69814500D01*
X89249684Y-69814500D01*
X89184550Y-69819354D01*
X89116233Y-69804705D01*
X89066681Y-69755447D01*
X89055561Y-69727789D01*
X89048710Y-69702219D01*
X88963405Y-69496274D01*
X88851948Y-69303226D01*
X88811490Y-69250500D01*
X88716248Y-69126377D01*
X88716242Y-69126370D01*
X88558629Y-68968757D01*
X88558622Y-68968751D01*
X88381782Y-68833058D01*
X88381780Y-68833057D01*
X88381774Y-68833052D01*
X88188726Y-68721595D01*
X88188722Y-68721593D01*
X87982790Y-68636293D01*
X87982783Y-68636291D01*
X87982781Y-68636290D01*
X87767463Y-68578596D01*
X87767457Y-68578595D01*
X87767452Y-68578594D01*
X87546466Y-68549501D01*
X87546463Y-68549500D01*
X87546457Y-68549500D01*
X87323543Y-68549500D01*
X87323537Y-68549500D01*
X87323533Y-68549501D01*
X87102547Y-68578594D01*
X87102540Y-68578595D01*
X87102537Y-68578596D01*
X86958718Y-68617132D01*
X86887219Y-68636290D01*
X86887209Y-68636293D01*
X86681277Y-68721593D01*
X86681273Y-68721595D01*
X86488226Y-68833052D01*
X86488217Y-68833058D01*
X86311377Y-68968751D01*
X86311370Y-68968757D01*
X86153757Y-69126370D01*
X86153751Y-69126377D01*
X86018058Y-69303217D01*
X86018052Y-69303226D01*
X85906595Y-69496273D01*
X85906593Y-69496277D01*
X85821290Y-69702218D01*
X85813348Y-69731856D01*
X85776982Y-69791516D01*
X85714135Y-69822044D01*
X85675928Y-69822498D01*
X85620298Y-69814500D01*
X85620297Y-69814500D01*
X85503934Y-69814500D01*
X85503927Y-69814500D01*
X85447136Y-69818561D01*
X85378863Y-69803708D01*
X85329459Y-69754302D01*
X85326437Y-69748397D01*
X85323614Y-69742499D01*
X85323613Y-69742498D01*
X85323613Y-69742496D01*
X85245825Y-69621457D01*
X85245820Y-69621451D01*
X85200076Y-69568659D01*
X85200072Y-69568656D01*
X85200070Y-69568653D01*
X85091336Y-69474433D01*
X85091333Y-69474431D01*
X85091331Y-69474430D01*
X84960465Y-69414664D01*
X84960460Y-69414662D01*
X84960459Y-69414662D01*
X84893420Y-69394977D01*
X84893422Y-69394977D01*
X84893417Y-69394976D01*
X84831354Y-69386053D01*
X84751000Y-69374500D01*
X70199500Y-69374500D01*
X70132461Y-69354815D01*
X70086706Y-69302011D01*
X70075500Y-69250500D01*
X70075500Y-64921304D01*
X75922800Y-64921304D01*
X75922800Y-65098695D01*
X75957403Y-65272658D01*
X75957406Y-65272667D01*
X76025283Y-65436540D01*
X76025290Y-65436553D01*
X76123835Y-65584034D01*
X76123838Y-65584038D01*
X76249261Y-65709461D01*
X76249265Y-65709464D01*
X76396746Y-65808009D01*
X76396759Y-65808016D01*
X76519663Y-65858923D01*
X76560634Y-65875894D01*
X76560636Y-65875894D01*
X76560641Y-65875896D01*
X76734604Y-65910499D01*
X76734607Y-65910500D01*
X76734609Y-65910500D01*
X76911993Y-65910500D01*
X76911994Y-65910499D01*
X76969982Y-65898964D01*
X77085958Y-65875896D01*
X77085961Y-65875894D01*
X77085966Y-65875894D01*
X77249847Y-65808013D01*
X77397335Y-65709464D01*
X77522764Y-65584035D01*
X77621313Y-65436547D01*
X77689194Y-65272666D01*
X77723800Y-65098691D01*
X77723800Y-64921309D01*
X77723800Y-64921306D01*
X77723799Y-64921304D01*
X77689196Y-64747341D01*
X77689193Y-64747332D01*
X77621316Y-64583459D01*
X77621309Y-64583446D01*
X77522764Y-64435965D01*
X77522761Y-64435961D01*
X77397338Y-64310538D01*
X77397334Y-64310535D01*
X77249853Y-64211990D01*
X77249840Y-64211983D01*
X77085967Y-64144106D01*
X77085958Y-64144103D01*
X76911994Y-64109500D01*
X76911991Y-64109500D01*
X76734609Y-64109500D01*
X76734606Y-64109500D01*
X76560641Y-64144103D01*
X76560632Y-64144106D01*
X76396759Y-64211983D01*
X76396746Y-64211990D01*
X76249265Y-64310535D01*
X76249261Y-64310538D01*
X76123838Y-64435961D01*
X76123835Y-64435965D01*
X76025290Y-64583446D01*
X76025283Y-64583459D01*
X75957406Y-64747332D01*
X75957403Y-64747341D01*
X75922800Y-64921304D01*
X70075500Y-64921304D01*
X70075500Y-61424500D01*
X70095185Y-61357461D01*
X70147989Y-61311706D01*
X70199500Y-61300500D01*
X73474826Y-61300500D01*
X73474828Y-61300500D01*
X73566897Y-61262364D01*
X73637364Y-61191897D01*
X73675500Y-61099828D01*
X73675500Y-61051304D01*
X75922800Y-61051304D01*
X75922800Y-61228695D01*
X75957403Y-61402658D01*
X75957406Y-61402667D01*
X76025283Y-61566540D01*
X76025290Y-61566553D01*
X76123835Y-61714034D01*
X76123838Y-61714038D01*
X76249261Y-61839461D01*
X76249265Y-61839464D01*
X76396746Y-61938009D01*
X76396759Y-61938016D01*
X76519663Y-61988923D01*
X76560634Y-62005894D01*
X76560636Y-62005894D01*
X76560641Y-62005896D01*
X76734604Y-62040499D01*
X76734607Y-62040500D01*
X76734609Y-62040500D01*
X76911993Y-62040500D01*
X76911994Y-62040499D01*
X76969982Y-62028964D01*
X77085958Y-62005896D01*
X77085961Y-62005894D01*
X77085966Y-62005894D01*
X77249847Y-61938013D01*
X77397335Y-61839464D01*
X77522764Y-61714035D01*
X77621313Y-61566547D01*
X77689194Y-61402666D01*
X77723800Y-61228691D01*
X77723800Y-61051309D01*
X77723800Y-61051306D01*
X77723799Y-61051304D01*
X77689196Y-60877341D01*
X77689193Y-60877332D01*
X77621316Y-60713459D01*
X77621309Y-60713446D01*
X77522764Y-60565965D01*
X77522761Y-60565961D01*
X77397338Y-60440538D01*
X77397334Y-60440535D01*
X77249853Y-60341990D01*
X77249840Y-60341983D01*
X77085967Y-60274106D01*
X77085958Y-60274103D01*
X76911994Y-60239500D01*
X76911991Y-60239500D01*
X76734609Y-60239500D01*
X76734606Y-60239500D01*
X76560641Y-60274103D01*
X76560632Y-60274106D01*
X76396759Y-60341983D01*
X76396746Y-60341990D01*
X76249265Y-60440535D01*
X76249261Y-60440538D01*
X76123838Y-60565961D01*
X76123835Y-60565965D01*
X76025290Y-60713446D01*
X76025283Y-60713459D01*
X75957406Y-60877332D01*
X75957403Y-60877341D01*
X75922800Y-61051304D01*
X73675500Y-61051304D01*
X73675500Y-58924500D01*
X73695185Y-58857461D01*
X73747989Y-58811706D01*
X73799500Y-58800500D01*
X77921000Y-58800500D01*
X77988039Y-58820185D01*
G37*
%TD.AperFunction*%
%TD*%
%TA.AperFunction,Conductor*%
%TO.N,3V3*%
G36*
X105692598Y-58820185D02*
G01*
X105738353Y-58872989D01*
X105749559Y-58924658D01*
X105748165Y-60015296D01*
X105746903Y-60032781D01*
X105744500Y-60049492D01*
X105744500Y-62883437D01*
X105743800Y-63430659D01*
X105724030Y-63497673D01*
X105671167Y-63543360D01*
X105619800Y-63554500D01*
X103083362Y-63554500D01*
X103016323Y-63534815D01*
X102970568Y-63482011D01*
X102960624Y-63412853D01*
X102989649Y-63349297D01*
X102995681Y-63342819D01*
X103084461Y-63254038D01*
X103084464Y-63254035D01*
X103183013Y-63106547D01*
X103250894Y-62942666D01*
X103253307Y-62930538D01*
X103285499Y-62768695D01*
X103285500Y-62768693D01*
X103285500Y-62591306D01*
X103285499Y-62591304D01*
X103250896Y-62417341D01*
X103250893Y-62417332D01*
X103183016Y-62253459D01*
X103183009Y-62253446D01*
X103084464Y-62105965D01*
X103084461Y-62105961D01*
X102959038Y-61980538D01*
X102959034Y-61980535D01*
X102811553Y-61881990D01*
X102811540Y-61881983D01*
X102647667Y-61814106D01*
X102647658Y-61814103D01*
X102473694Y-61779500D01*
X102473691Y-61779500D01*
X102296309Y-61779500D01*
X102296306Y-61779500D01*
X102122341Y-61814103D01*
X102122332Y-61814106D01*
X101958459Y-61881983D01*
X101958446Y-61881990D01*
X101810965Y-61980535D01*
X101810961Y-61980538D01*
X101685538Y-62105961D01*
X101685535Y-62105965D01*
X101586990Y-62253446D01*
X101586983Y-62253459D01*
X101519106Y-62417332D01*
X101519103Y-62417341D01*
X101484500Y-62591304D01*
X101484500Y-62768695D01*
X101519103Y-62942658D01*
X101519106Y-62942667D01*
X101586983Y-63106540D01*
X101586990Y-63106553D01*
X101685535Y-63254034D01*
X101685538Y-63254038D01*
X101774319Y-63342819D01*
X101807804Y-63404142D01*
X101802820Y-63473834D01*
X101760948Y-63529767D01*
X101695484Y-63554184D01*
X101686638Y-63554500D01*
X101614321Y-63554500D01*
X101614301Y-63554500D01*
X101614297Y-63554501D01*
X101567409Y-63556682D01*
X101567405Y-63556682D01*
X101544458Y-63558821D01*
X101497962Y-63565347D01*
X101361785Y-63611795D01*
X101299536Y-63643534D01*
X101299528Y-63643538D01*
X101181964Y-63726465D01*
X101181955Y-63726472D01*
X100295798Y-64563866D01*
X100288035Y-64571360D01*
X100284276Y-64575068D01*
X100276714Y-64582685D01*
X100192142Y-64699090D01*
X100176374Y-64728974D01*
X100176370Y-64728983D01*
X100159539Y-64760882D01*
X100159538Y-64760882D01*
X100129671Y-64844587D01*
X100128720Y-64846944D01*
X100108553Y-64872423D01*
X100089466Y-64898696D01*
X100087001Y-64899655D01*
X100085359Y-64901731D01*
X100054621Y-64912261D01*
X100024357Y-64924045D01*
X100019639Y-64924247D01*
X100019261Y-64924377D01*
X100018868Y-64924280D01*
X100013746Y-64924500D01*
X99838713Y-64924500D01*
X99790042Y-64932208D01*
X99628760Y-64957753D01*
X99426585Y-65023444D01*
X99237179Y-65119951D01*
X99065213Y-65244890D01*
X98914890Y-65395213D01*
X98789949Y-65567182D01*
X98785484Y-65575946D01*
X98737509Y-65626742D01*
X98669688Y-65643536D01*
X98603553Y-65620998D01*
X98564516Y-65575946D01*
X98560050Y-65567182D01*
X98435109Y-65395213D01*
X98284786Y-65244890D01*
X98112820Y-65119951D01*
X97923414Y-65023444D01*
X97923413Y-65023443D01*
X97923412Y-65023443D01*
X97721243Y-64957754D01*
X97721241Y-64957753D01*
X97721240Y-64957753D01*
X97559957Y-64932208D01*
X97511287Y-64924500D01*
X97298713Y-64924500D01*
X97250042Y-64932208D01*
X97088760Y-64957753D01*
X96886585Y-65023444D01*
X96697179Y-65119951D01*
X96525213Y-65244890D01*
X96374890Y-65395213D01*
X96249951Y-65567179D01*
X96153444Y-65756585D01*
X96087753Y-65958760D01*
X96057070Y-66152483D01*
X96027141Y-66215618D01*
X95967829Y-66252549D01*
X95934686Y-66257085D01*
X94094728Y-66258413D01*
X94027675Y-66238777D01*
X93981882Y-66186006D01*
X93978613Y-66178162D01*
X93975050Y-66168713D01*
X93965165Y-66142496D01*
X93965163Y-66142494D01*
X93965163Y-66142492D01*
X93887381Y-66021462D01*
X93887372Y-66021451D01*
X93841628Y-65968659D01*
X93841624Y-65968656D01*
X93841622Y-65968653D01*
X93732888Y-65874433D01*
X93732885Y-65874431D01*
X93732883Y-65874430D01*
X93602017Y-65814664D01*
X93602012Y-65814662D01*
X93602011Y-65814662D01*
X93534972Y-65794977D01*
X93534974Y-65794977D01*
X93534969Y-65794976D01*
X93468997Y-65785491D01*
X93392552Y-65774500D01*
X86149500Y-65774500D01*
X86149491Y-65774500D01*
X86149490Y-65774501D01*
X86042049Y-65786052D01*
X86042037Y-65786054D01*
X85990529Y-65797259D01*
X85935829Y-65815465D01*
X85866004Y-65817958D01*
X85808991Y-65785491D01*
X85699038Y-65675538D01*
X85699034Y-65675535D01*
X85551553Y-65576990D01*
X85551540Y-65576983D01*
X85387667Y-65509106D01*
X85387658Y-65509103D01*
X85213694Y-65474500D01*
X85213691Y-65474500D01*
X85036309Y-65474500D01*
X85036306Y-65474500D01*
X84862341Y-65509103D01*
X84862332Y-65509106D01*
X84698459Y-65576983D01*
X84698446Y-65576990D01*
X84550965Y-65675534D01*
X84440511Y-65785989D01*
X84379188Y-65819473D01*
X84314517Y-65814853D01*
X84314207Y-65815910D01*
X84309962Y-65814663D01*
X84309959Y-65814662D01*
X84242920Y-65794977D01*
X84242922Y-65794977D01*
X84242917Y-65794976D01*
X84176945Y-65785491D01*
X84100500Y-65774500D01*
X84100498Y-65774500D01*
X78674500Y-65774500D01*
X78607461Y-65754815D01*
X78561706Y-65702011D01*
X78550500Y-65650500D01*
X78550500Y-63541304D01*
X97884500Y-63541304D01*
X97884500Y-63718695D01*
X97919103Y-63892658D01*
X97919106Y-63892667D01*
X97986983Y-64056540D01*
X97986990Y-64056553D01*
X98085535Y-64204034D01*
X98085538Y-64204038D01*
X98210961Y-64329461D01*
X98210965Y-64329464D01*
X98358446Y-64428009D01*
X98358459Y-64428016D01*
X98481363Y-64478923D01*
X98522334Y-64495894D01*
X98522336Y-64495894D01*
X98522341Y-64495896D01*
X98696304Y-64530499D01*
X98696307Y-64530500D01*
X98696309Y-64530500D01*
X98873693Y-64530500D01*
X98873694Y-64530499D01*
X98931682Y-64518964D01*
X99047658Y-64495896D01*
X99047661Y-64495894D01*
X99047666Y-64495894D01*
X99211547Y-64428013D01*
X99359035Y-64329464D01*
X99484464Y-64204035D01*
X99583013Y-64056547D01*
X99650894Y-63892666D01*
X99654475Y-63874666D01*
X99683953Y-63726466D01*
X99685500Y-63718691D01*
X99685500Y-63541309D01*
X99685500Y-63541306D01*
X99685499Y-63541304D01*
X99650896Y-63367341D01*
X99650893Y-63367332D01*
X99583016Y-63203459D01*
X99583009Y-63203446D01*
X99484464Y-63055965D01*
X99484461Y-63055961D01*
X99359038Y-62930538D01*
X99359034Y-62930535D01*
X99211553Y-62831990D01*
X99211540Y-62831983D01*
X99047667Y-62764106D01*
X99047658Y-62764103D01*
X98873694Y-62729500D01*
X98873691Y-62729500D01*
X98696309Y-62729500D01*
X98696306Y-62729500D01*
X98522341Y-62764103D01*
X98522332Y-62764106D01*
X98358459Y-62831983D01*
X98358446Y-62831990D01*
X98210965Y-62930535D01*
X98210961Y-62930538D01*
X98085538Y-63055961D01*
X98085535Y-63055965D01*
X97986990Y-63203446D01*
X97986983Y-63203459D01*
X97919106Y-63367332D01*
X97919103Y-63367341D01*
X97884500Y-63541304D01*
X78550500Y-63541304D01*
X78550500Y-58924500D01*
X78570185Y-58857461D01*
X78622989Y-58811706D01*
X78674500Y-58800500D01*
X105625559Y-58800500D01*
X105692598Y-58820185D01*
G37*
%TD.AperFunction*%
%TD*%
M02*
