%TF.GenerationSoftware,KiCad,Pcbnew,9.0.5*%
%TF.CreationDate,2025-10-19T11:10:53+01:00*%
%TF.ProjectId,loco-decoder-v1a,6c6f636f-2d64-4656-936f-6465722d7631,rev?*%
%TF.SameCoordinates,Original*%
%TF.FileFunction,Soldermask,Top*%
%TF.FilePolarity,Negative*%
%FSLAX46Y46*%
G04 Gerber Fmt 4.6, Leading zero omitted, Abs format (unit mm)*
G04 Created by KiCad (PCBNEW 9.0.5) date 2025-10-19 11:10:53*
%MOMM*%
%LPD*%
G01*
G04 APERTURE LIST*
G04 Aperture macros list*
%AMRoundRect*
0 Rectangle with rounded corners*
0 $1 Rounding radius*
0 $2 $3 $4 $5 $6 $7 $8 $9 X,Y pos of 4 corners*
0 Add a 4 corners polygon primitive as box body*
4,1,4,$2,$3,$4,$5,$6,$7,$8,$9,$2,$3,0*
0 Add four circle primitives for the rounded corners*
1,1,$1+$1,$2,$3*
1,1,$1+$1,$4,$5*
1,1,$1+$1,$6,$7*
1,1,$1+$1,$8,$9*
0 Add four rect primitives between the rounded corners*
20,1,$1+$1,$2,$3,$4,$5,0*
20,1,$1+$1,$4,$5,$6,$7,0*
20,1,$1+$1,$6,$7,$8,$9,0*
20,1,$1+$1,$8,$9,$2,$3,0*%
G04 Aperture macros list end*
%ADD10C,1.500000*%
%ADD11RoundRect,0.250000X0.262500X0.450000X-0.262500X0.450000X-0.262500X-0.450000X0.262500X-0.450000X0*%
%ADD12RoundRect,0.250000X-0.262500X-0.450000X0.262500X-0.450000X0.262500X0.450000X-0.262500X0.450000X0*%
%ADD13RoundRect,0.150000X-0.512500X-0.150000X0.512500X-0.150000X0.512500X0.150000X-0.512500X0.150000X0*%
%ADD14R,3.302000X1.500000*%
%ADD15RoundRect,0.525400X0.525400X-0.900400X0.525400X0.900400X-0.525400X0.900400X-0.525400X-0.900400X0*%
%ADD16RoundRect,0.300400X-1.000400X-0.300400X1.000400X-0.300400X1.000400X0.300400X-1.000400X0.300400X0*%
%ADD17RoundRect,0.156250X-4.843750X0.343750X-4.843750X-0.343750X4.843750X-0.343750X4.843750X0.343750X0*%
%ADD18RoundRect,0.093750X-4.906250X0.206250X-4.906250X-0.206250X4.906250X-0.206250X4.906250X0.206250X0*%
%ADD19R,3.100000X2.400000*%
%ADD20RoundRect,0.070000X-0.250000X1.100000X-0.250000X-1.100000X0.250000X-1.100000X0.250000X1.100000X0*%
%ADD21C,2.540000*%
%ADD22RoundRect,0.250000X-1.100000X0.325000X-1.100000X-0.325000X1.100000X-0.325000X1.100000X0.325000X0*%
%ADD23RoundRect,0.250000X-0.650000X1.000000X-0.650000X-1.000000X0.650000X-1.000000X0.650000X1.000000X0*%
%ADD24RoundRect,0.250000X-0.650000X0.325000X-0.650000X-0.325000X0.650000X-0.325000X0.650000X0.325000X0*%
%ADD25R,1.500000X3.302000*%
%ADD26RoundRect,0.250000X0.250000X0.475000X-0.250000X0.475000X-0.250000X-0.475000X0.250000X-0.475000X0*%
%ADD27RoundRect,0.150000X0.150000X-0.512500X0.150000X0.512500X-0.150000X0.512500X-0.150000X-0.512500X0*%
%ADD28R,1.700000X1.700000*%
%ADD29C,1.700000*%
%ADD30RoundRect,0.102000X0.490000X1.850000X-0.490000X1.850000X-0.490000X-1.850000X0.490000X-1.850000X0*%
%ADD31RoundRect,0.250000X-0.325000X-0.650000X0.325000X-0.650000X0.325000X0.650000X-0.325000X0.650000X0*%
%ADD32R,1.701800X0.812800*%
%ADD33R,3.098800X2.209800*%
%ADD34R,1.215800X0.711200*%
%ADD35R,1.749200X0.838200*%
%ADD36RoundRect,0.102000X-1.750000X0.500000X-1.750000X-0.500000X1.750000X-0.500000X1.750000X0.500000X0*%
%ADD37RoundRect,0.102000X-1.700000X0.750000X-1.700000X-0.750000X1.700000X-0.750000X1.700000X0.750000X0*%
%ADD38RoundRect,0.250000X0.475000X-0.250000X0.475000X0.250000X-0.475000X0.250000X-0.475000X-0.250000X0*%
G04 APERTURE END LIST*
D10*
%TO.C,FD2*%
X86983300Y-78820000D03*
%TD*%
D11*
%TO.C,R14*%
X101100000Y-81190000D03*
X102925000Y-81190000D03*
%TD*%
%TO.C,R4*%
X95212500Y-61730000D03*
X97037500Y-61730000D03*
%TD*%
D12*
%TO.C,R7*%
X117037500Y-61350000D03*
X115212500Y-61350000D03*
%TD*%
D13*
%TO.C,U4*%
X101117500Y-77200000D03*
X101117500Y-78150000D03*
X101117500Y-79100000D03*
X103392500Y-79100000D03*
X103392500Y-78150000D03*
X103392500Y-77200000D03*
%TD*%
D14*
%TO.C,L1*%
X107287500Y-64631450D03*
X107287500Y-68631450D03*
%TD*%
D12*
%TO.C,R11*%
X112037500Y-70150000D03*
X110212500Y-70150000D03*
%TD*%
D15*
%TO.C,U1*%
X74283300Y-79279000D03*
X76823300Y-79279000D03*
X79363300Y-79279000D03*
X81903300Y-79279000D03*
X84443300Y-79279000D03*
X86983300Y-79279000D03*
X89523300Y-79279000D03*
X89523300Y-63114000D03*
X86983300Y-63114000D03*
X84443300Y-63114000D03*
X81903300Y-63114000D03*
X79363300Y-63114000D03*
X76823300Y-63114000D03*
X74283300Y-63114000D03*
D16*
X87435000Y-73005400D03*
X87435000Y-70465400D03*
%TD*%
D17*
%TO.C,J1*%
X128950000Y-68710000D03*
D18*
X128950000Y-69980000D03*
X128950000Y-71250000D03*
X128950000Y-72520000D03*
D17*
X128950000Y-73790000D03*
%TD*%
D19*
%TO.C,U2*%
X120630000Y-64580000D03*
D20*
X122535000Y-61705000D03*
X121265000Y-61705000D03*
X119995000Y-61705000D03*
X118725000Y-61705000D03*
X118725000Y-67455000D03*
X119995000Y-67455000D03*
X121265000Y-67455000D03*
X122535000Y-67455000D03*
D21*
X120630000Y-64580000D03*
%TD*%
D11*
%TO.C,R2*%
X104852500Y-60700000D03*
X106677500Y-60700000D03*
%TD*%
D22*
%TO.C,C6*%
X105915000Y-77965000D03*
X105915000Y-80915000D03*
%TD*%
D23*
%TO.C,D3*%
X94250000Y-76375000D03*
X94250000Y-80375000D03*
%TD*%
D10*
%TO.C,TP2*%
X108775000Y-60890000D03*
%TD*%
D11*
%TO.C,R10*%
X106412500Y-70650000D03*
X108237500Y-70650000D03*
%TD*%
D24*
%TO.C,C5*%
X114580000Y-65090000D03*
X114580000Y-68040000D03*
%TD*%
D12*
%TO.C,R9*%
X115437500Y-70150000D03*
X113612500Y-70150000D03*
%TD*%
D25*
%TO.C,REF\u002A\u002A*%
X99325000Y-73450000D03*
X103325000Y-73450000D03*
%TD*%
D11*
%TO.C,R12*%
X104812500Y-62650000D03*
X106637500Y-62650000D03*
%TD*%
D26*
%TO.C,C4*%
X110490000Y-62695000D03*
X112390000Y-62695000D03*
%TD*%
D11*
%TO.C,R13*%
X97570000Y-79870000D03*
X99395000Y-79870000D03*
%TD*%
D27*
%TO.C,U3*%
X110500000Y-67635000D03*
X111450000Y-67635000D03*
X112400000Y-67635000D03*
X112400000Y-65360000D03*
X111450000Y-65360000D03*
X110500000Y-65360000D03*
%TD*%
D11*
%TO.C,R3*%
X98902500Y-61730000D03*
X100727500Y-61730000D03*
%TD*%
D28*
%TO.C,J4*%
X94865000Y-68815000D03*
D29*
X94865000Y-66275000D03*
X97405000Y-68815000D03*
X97405000Y-66275000D03*
X99945000Y-68815000D03*
X99945000Y-66275000D03*
X102485000Y-68815000D03*
X102485000Y-66275000D03*
%TD*%
D10*
%TO.C,FD1*%
X74283300Y-63570000D03*
%TD*%
D30*
%TO.C,L2*%
X102500000Y-73560000D03*
X100130000Y-73560000D03*
%TD*%
D31*
%TO.C,C2*%
X118520000Y-70200000D03*
X121470000Y-70200000D03*
%TD*%
D32*
%TO.C,J5*%
X115040500Y-77815000D03*
X115040500Y-76565000D03*
D33*
X117940499Y-74015000D03*
X117940499Y-80365000D03*
%TD*%
D10*
%TO.C,TP1*%
X116525000Y-64360000D03*
%TD*%
D34*
%TO.C,D2*%
X96692100Y-72750000D03*
D35*
X94574600Y-72750000D03*
%TD*%
D36*
%TO.C,J3*%
X110250000Y-77150000D03*
X110250000Y-75150000D03*
D37*
X116000000Y-79500000D03*
X116000000Y-72800000D03*
%TD*%
D38*
%TO.C,C7*%
X97962500Y-76230000D03*
X97962500Y-78130000D03*
%TD*%
M02*
