M48
; DRILL file {KiCad 9.0.5} date 2025-10-19T11:10:50+0100
; FORMAT={-:-/ absolute / metric / decimal}
; #@! TF.CreationDate,2025-10-19T11:10:50+01:00
; #@! TF.GenerationSoftware,Kicad,Pcbnew,9.0.5
; #@! TF.FileFunction,Plated,1,4,PTH
FMAT,2
METRIC
; #@! TA.AperFunction,Plated,PTH,ViaDrill
T1C0.300
; #@! TA.AperFunction,Plated,PTH,ComponentDrill
T2C1.000
; #@! TA.AperFunction,Plated,PTH,ViaDrill
T3C1.800
; #@! TA.AperFunction,Plated,PTH,ComponentDrill
T4C1.800
%
G90
G05
T1
X73.25Y-72.0
X76.823Y-61.14
X76.823Y-65.01
X80.0Y-71.125
X80.515Y-60.11
X81.5Y-71.125
X84.05Y-75.075
X85.125Y-66.375
X91.5Y-77.0
X91.5Y-79.875
X94.125Y-71.75
X95.0Y-71.75
X96.125Y-80.0
X98.481Y-81.325
X98.785Y-63.63
X99.772Y-78.14
X101.325Y-76.35
X102.272Y-79.9
X102.375Y-76.37
X102.385Y-62.68
X102.955Y-60.67
X103.995Y-81.06
X104.285Y-64.937
X105.025Y-76.93
X107.287Y-66.631
X109.375Y-74.0
X109.5Y-78.375
X111.0Y-78.375
X111.125Y-69.05
X111.25Y-74.0
X113.825Y-61.35
X113.83Y-62.695
X114.58Y-66.615
X116.705Y-76.56
X116.825Y-67.45
X119.995Y-71.32
X122.225Y-79.15
X122.95Y-70.325
X123.325Y-77.75
X123.52Y-67.455
T2
X74.283Y-63.57
X86.983Y-78.82
X94.865Y-66.275
X94.865Y-68.815
X97.405Y-66.275
X97.405Y-68.815
X99.945Y-66.275
X99.945Y-68.815
X102.485Y-66.275
X102.485Y-68.815
X108.775Y-60.89
X116.525Y-64.36
T3
X87.435Y-70.25
X87.435Y-73.25
T4
X120.63Y-64.58
M30
