%TF.GenerationSoftware,KiCad,Pcbnew,9.0.5*%
%TF.CreationDate,2025-10-19T11:10:53+01:00*%
%TF.ProjectId,loco-decoder-v1a,6c6f636f-2d64-4656-936f-6465722d7631,rev?*%
%TF.SameCoordinates,Original*%
%TF.FileFunction,Copper,L1,Top*%
%TF.FilePolarity,Positive*%
%FSLAX46Y46*%
G04 Gerber Fmt 4.6, Leading zero omitted, Abs format (unit mm)*
G04 Created by KiCad (PCBNEW 9.0.5) date 2025-10-19 11:10:53*
%MOMM*%
%LPD*%
G01*
G04 APERTURE LIST*
G04 Aperture macros list*
%AMRoundRect*
0 Rectangle with rounded corners*
0 $1 Rounding radius*
0 $2 $3 $4 $5 $6 $7 $8 $9 X,Y pos of 4 corners*
0 Add a 4 corners polygon primitive as box body*
4,1,4,$2,$3,$4,$5,$6,$7,$8,$9,$2,$3,0*
0 Add four circle primitives for the rounded corners*
1,1,$1+$1,$2,$3*
1,1,$1+$1,$4,$5*
1,1,$1+$1,$6,$7*
1,1,$1+$1,$8,$9*
0 Add four rect primitives between the rounded corners*
20,1,$1+$1,$2,$3,$4,$5,0*
20,1,$1+$1,$4,$5,$6,$7,0*
20,1,$1+$1,$6,$7,$8,$9,0*
20,1,$1+$1,$8,$9,$2,$3,0*%
G04 Aperture macros list end*
%TA.AperFunction,Conductor*%
%ADD10C,0.200000*%
%TD*%
%TA.AperFunction,TestPad*%
%ADD11C,1.500000*%
%TD*%
%TA.AperFunction,SMDPad,CuDef*%
%ADD12RoundRect,0.250000X0.262500X0.450000X-0.262500X0.450000X-0.262500X-0.450000X0.262500X-0.450000X0*%
%TD*%
%TA.AperFunction,SMDPad,CuDef*%
%ADD13RoundRect,0.250000X-0.262500X-0.450000X0.262500X-0.450000X0.262500X0.450000X-0.262500X0.450000X0*%
%TD*%
%TA.AperFunction,SMDPad,CuDef*%
%ADD14RoundRect,0.150000X-0.512500X-0.150000X0.512500X-0.150000X0.512500X0.150000X-0.512500X0.150000X0*%
%TD*%
%TA.AperFunction,SMDPad,CuDef*%
%ADD15R,3.302000X1.500000*%
%TD*%
%TA.AperFunction,SMDPad,CuDef*%
%ADD16RoundRect,0.500000X0.500000X-0.875000X0.500000X0.875000X-0.500000X0.875000X-0.500000X-0.875000X0*%
%TD*%
%TA.AperFunction,SMDPad,CuDef*%
%ADD17RoundRect,0.275000X-0.975000X-0.275000X0.975000X-0.275000X0.975000X0.275000X-0.975000X0.275000X0*%
%TD*%
%TA.AperFunction,ConnectorPad*%
%ADD18RoundRect,0.156250X-4.843750X0.343750X-4.843750X-0.343750X4.843750X-0.343750X4.843750X0.343750X0*%
%TD*%
%TA.AperFunction,ConnectorPad*%
%ADD19RoundRect,0.093750X-4.906250X0.206250X-4.906250X-0.206250X4.906250X-0.206250X4.906250X0.206250X0*%
%TD*%
%TA.AperFunction,SMDPad,CuDef*%
%ADD20R,0.500000X2.200000*%
%TD*%
%TA.AperFunction,HeatsinkPad*%
%ADD21C,2.400000*%
%TD*%
%TA.AperFunction,SMDPad,CuDef*%
%ADD22R,4.900000X2.950000*%
%TD*%
%TA.AperFunction,SMDPad,CuDef*%
%ADD23RoundRect,0.250000X-1.100000X0.325000X-1.100000X-0.325000X1.100000X-0.325000X1.100000X0.325000X0*%
%TD*%
%TA.AperFunction,SMDPad,CuDef*%
%ADD24RoundRect,0.250000X-0.650000X1.000000X-0.650000X-1.000000X0.650000X-1.000000X0.650000X1.000000X0*%
%TD*%
%TA.AperFunction,SMDPad,CuDef*%
%ADD25RoundRect,0.250000X-0.650000X0.325000X-0.650000X-0.325000X0.650000X-0.325000X0.650000X0.325000X0*%
%TD*%
%TA.AperFunction,SMDPad,CuDef*%
%ADD26R,1.500000X3.302000*%
%TD*%
%TA.AperFunction,SMDPad,CuDef*%
%ADD27RoundRect,0.250000X0.250000X0.475000X-0.250000X0.475000X-0.250000X-0.475000X0.250000X-0.475000X0*%
%TD*%
%TA.AperFunction,SMDPad,CuDef*%
%ADD28RoundRect,0.150000X0.150000X-0.512500X0.150000X0.512500X-0.150000X0.512500X-0.150000X-0.512500X0*%
%TD*%
%TA.AperFunction,ComponentPad*%
%ADD29R,1.700000X1.700000*%
%TD*%
%TA.AperFunction,ComponentPad*%
%ADD30C,1.700000*%
%TD*%
%TA.AperFunction,SMDPad,CuDef*%
%ADD31R,0.980000X3.700000*%
%TD*%
%TA.AperFunction,SMDPad,CuDef*%
%ADD32RoundRect,0.250000X-0.325000X-0.650000X0.325000X-0.650000X0.325000X0.650000X-0.325000X0.650000X0*%
%TD*%
%TA.AperFunction,SMDPad,CuDef*%
%ADD33R,1.701800X0.812800*%
%TD*%
%TA.AperFunction,SMDPad,CuDef*%
%ADD34R,3.098800X2.209800*%
%TD*%
%TA.AperFunction,SMDPad,CuDef*%
%ADD35R,1.215800X0.711200*%
%TD*%
%TA.AperFunction,SMDPad,CuDef*%
%ADD36R,1.749200X0.838200*%
%TD*%
%TA.AperFunction,SMDPad,CuDef*%
%ADD37R,3.500000X1.000000*%
%TD*%
%TA.AperFunction,SMDPad,CuDef*%
%ADD38R,3.400000X1.500000*%
%TD*%
%TA.AperFunction,SMDPad,CuDef*%
%ADD39RoundRect,0.250000X0.475000X-0.250000X0.475000X0.250000X-0.475000X0.250000X-0.475000X-0.250000X0*%
%TD*%
%TA.AperFunction,ViaPad*%
%ADD40C,0.800000*%
%TD*%
%TA.AperFunction,ViaPad*%
%ADD41C,2.400000*%
%TD*%
%TA.AperFunction,Conductor*%
%ADD42C,1.000000*%
%TD*%
%TA.AperFunction,Conductor*%
%ADD43C,0.500000*%
%TD*%
%TA.AperFunction,Conductor*%
%ADD44C,0.150000*%
%TD*%
%TA.AperFunction,Conductor*%
%ADD45C,0.250000*%
%TD*%
G04 APERTURE END LIST*
D10*
%TO.N,Net-(U2-ILIM)*%
X117225000Y-61550000D02*
X117025000Y-61350000D01*
%TO.N,Net-(U3-FB)*%
X112025000Y-70150000D02*
X112025000Y-70650000D01*
%TO.N,Net-(U2-ILIM)*%
X118725000Y-61550000D02*
X117225000Y-61550000D01*
%TD*%
D11*
%TO.P,FD2,1*%
%TO.N,unconnected-(U1-GPIO23{slash}SCL-Pad6)*%
X86983300Y-78820000D03*
%TD*%
D12*
%TO.P,R14,1*%
%TO.N,Net-(U4-FB)*%
X101100000Y-81190000D03*
%TO.P,R14,2*%
%TO.N,GND*%
X102925000Y-81190000D03*
%TD*%
%TO.P,R4,1*%
%TO.N,Net-(U1-GPIO17{slash}RX)*%
X95212500Y-61730000D03*
%TO.P,R4,2*%
%TO.N,/LED_Y*%
X97037500Y-61730000D03*
%TD*%
D13*
%TO.P,R7,1*%
%TO.N,Net-(U2-ILIM)*%
X117037500Y-61350000D03*
%TO.P,R7,2*%
%TO.N,GND*%
X115212500Y-61350000D03*
%TD*%
D14*
%TO.P,U4,1,BOOT*%
%TO.N,Net-(U4-BOOT)*%
X101117500Y-77200000D03*
%TO.P,U4,2,GND*%
%TO.N,GND*%
X101117500Y-78150000D03*
%TO.P,U4,3,FB*%
%TO.N,Net-(U4-FB)*%
X101117500Y-79100000D03*
%TO.P,U4,4,EN*%
%TO.N,Net-(D1-+)*%
X103392500Y-79100000D03*
%TO.P,U4,5,VIN*%
X103392500Y-78150000D03*
%TO.P,U4,6,SW*%
%TO.N,Net-(U4-SW)*%
X103392500Y-77200000D03*
%TD*%
D15*
%TO.P,L1,1,1*%
%TO.N,/v boost/+VM*%
X107287500Y-64631450D03*
%TO.P,L1,2,2*%
%TO.N,Net-(U3-SW)*%
X107287500Y-68631450D03*
%TD*%
D13*
%TO.P,R11,1*%
%TO.N,Net-(U3-FB)*%
X112037500Y-70150000D03*
%TO.P,R11,2*%
%TO.N,GND*%
X110212500Y-70150000D03*
%TD*%
D16*
%TO.P,U1,1,GPIO0/A0*%
%TO.N,Net-(U1-GPIO0{slash}A0)*%
X74283300Y-79279000D03*
%TO.P,U1,2,GPIO1/A1*%
%TO.N,Net-(U1-GPIO1{slash}A1)*%
X76823300Y-79279000D03*
%TO.P,U1,3,GPIO2/A2*%
%TO.N,unconnected-(U1-GPIO2{slash}A2-Pad3)*%
X79363300Y-79279000D03*
%TO.P,U1,4,GPIO21*%
%TO.N,unconnected-(U1-GPIO21-Pad4)*%
X81903300Y-79279000D03*
%TO.P,U1,5,GPIO22/SDA*%
%TO.N,unconnected-(U1-GPIO22{slash}SDA-Pad5)*%
X84443300Y-79279000D03*
%TO.P,U1,6,GPIO23/SCL*%
%TO.N,unconnected-(U1-GPIO23{slash}SCL-Pad6)*%
X86983300Y-79279000D03*
%TO.P,U1,7,GPIO16/TX*%
%TO.N,/GPIO*%
X89523300Y-79279000D03*
%TO.P,U1,8,GPIO17/RX*%
%TO.N,Net-(U1-GPIO17{slash}RX)*%
X89523300Y-63114000D03*
%TO.P,U1,9,GPIO19/SCK*%
%TO.N,Net-(U1-GPIO19{slash}SCK)*%
X86983300Y-63114000D03*
%TO.P,U1,10,GPIO20/MISO*%
%TO.N,/motor driver/PCM_A*%
X84443300Y-63114000D03*
%TO.P,U1,11,GPIO18/MOSI*%
%TO.N,/motor driver/PCM_B*%
X81903300Y-63114000D03*
%TO.P,U1,12,3V3_OUT*%
%TO.N,3V3*%
X79363300Y-63114000D03*
%TO.P,U1,13,GND*%
%TO.N,GND*%
X76823300Y-63114000D03*
%TO.P,U1,14,VBUS*%
%TO.N,VBUS*%
X74283300Y-63114000D03*
D17*
%TO.P,U1,15,BAT+*%
%TO.N,VBAT*%
X87435000Y-73005400D03*
%TO.P,U1,16,BAT-*%
%TO.N,GND*%
X87435000Y-70465400D03*
%TD*%
D18*
%TO.P,J1,1,Pin_1*%
%TO.N,/MOTOR_P*%
X128950000Y-68710000D03*
D19*
%TO.P,J1,2,Pin_2*%
%TO.N,/RAIL_M*%
X128950000Y-69980000D03*
%TO.P,J1,3,Pin_3*%
X128950000Y-71250000D03*
%TO.P,J1,4,Pin_4*%
%TO.N,/RAIL_P*%
X128950000Y-72520000D03*
D18*
%TO.P,J1,5,Pin_5*%
X128950000Y-73790000D03*
%TD*%
D20*
%TO.P,U2,1,GND*%
%TO.N,GND*%
X122535000Y-61705000D03*
%TO.P,U2,2,IN2*%
%TO.N,/motor driver/PCM_B*%
X121265000Y-61705000D03*
%TO.P,U2,3,IN1*%
%TO.N,/motor driver/PCM_A*%
X119995000Y-61705000D03*
%TO.P,U2,4,ILIM*%
%TO.N,Net-(U2-ILIM)*%
X118725000Y-61705000D03*
%TO.P,U2,5,VM*%
%TO.N,/motor driver/+12V0*%
X118725000Y-67455000D03*
%TO.P,U2,6,OUT1*%
%TO.N,/MOTOR_M*%
X119995000Y-67455000D03*
%TO.P,U2,7,PGND*%
%TO.N,GND*%
X121265000Y-67455000D03*
%TO.P,U2,8,OUT2*%
%TO.N,/MOTOR_P*%
X122535000Y-67455000D03*
D21*
%TO.P,U2,9,PAD*%
%TO.N,GND*%
X120630000Y-64580000D03*
D22*
X120630000Y-64580000D03*
%TD*%
D12*
%TO.P,R2,1*%
%TO.N,3V3*%
X104852500Y-60700000D03*
%TO.P,R2,2*%
%TO.N,/v boost/+VM*%
X106677500Y-60700000D03*
%TD*%
D23*
%TO.P,C6,1*%
%TO.N,Net-(D1-+)*%
X105915000Y-77965000D03*
%TO.P,C6,2*%
%TO.N,GND*%
X105915000Y-80915000D03*
%TD*%
D24*
%TO.P,D3,1,A1*%
%TO.N,/PWR_IN+*%
X94250000Y-76375000D03*
%TO.P,D3,2,A2*%
%TO.N,/PWR_IN-*%
X94250000Y-80375000D03*
%TD*%
D11*
%TO.P,TP2,1,1*%
%TO.N,/v boost/+VM*%
X108775000Y-60890000D03*
%TD*%
D12*
%TO.P,R10,1*%
%TO.N,/v boost/+VM*%
X106412500Y-70650000D03*
%TO.P,R10,2*%
%TO.N,Net-(U3-FB)*%
X108237500Y-70650000D03*
%TD*%
D25*
%TO.P,C5,1*%
%TO.N,/motor driver/+12V0*%
X114580000Y-65090000D03*
%TO.P,C5,2*%
%TO.N,GND*%
X114580000Y-68040000D03*
%TD*%
D13*
%TO.P,R9,1*%
%TO.N,/motor driver/+12V0*%
X115437500Y-70150000D03*
%TO.P,R9,2*%
%TO.N,Net-(U3-FB)*%
X113612500Y-70150000D03*
%TD*%
D26*
%TO.P,REF\u002A\u002A,1*%
%TO.N,Net-(D2-A)*%
X99325000Y-73450000D03*
%TO.P,REF\u002A\u002A,2*%
%TO.N,Net-(U4-SW)*%
X103325000Y-73450000D03*
%TD*%
D12*
%TO.P,R12,1*%
%TO.N,VBAT*%
X104812500Y-62650000D03*
%TO.P,R12,2*%
%TO.N,/v boost/+VM*%
X106637500Y-62650000D03*
%TD*%
D27*
%TO.P,C4,1*%
%TO.N,/v boost/+VM*%
X110490000Y-62695000D03*
%TO.P,C4,2*%
%TO.N,GND*%
X112390000Y-62695000D03*
%TD*%
D12*
%TO.P,R13,1*%
%TO.N,Net-(D2-A)*%
X97570000Y-79870000D03*
%TO.P,R13,2*%
%TO.N,Net-(U4-FB)*%
X99395000Y-79870000D03*
%TD*%
D28*
%TO.P,U3,1,SW*%
%TO.N,Net-(U3-SW)*%
X110500000Y-67635000D03*
%TO.P,U3,2,GND*%
%TO.N,GND*%
X111450000Y-67635000D03*
%TO.P,U3,3,FB*%
%TO.N,Net-(U3-FB)*%
X112400000Y-67635000D03*
%TO.P,U3,4,EN*%
%TO.N,/v boost/+VM*%
X112400000Y-65360000D03*
%TO.P,U3,5,VOUT*%
%TO.N,/motor driver/+12V0*%
X111450000Y-65360000D03*
%TO.P,U3,6,VI*%
%TO.N,/v boost/+VM*%
X110500000Y-65360000D03*
%TD*%
D12*
%TO.P,R3,1*%
%TO.N,Net-(U1-GPIO19{slash}SCK)*%
X98902500Y-61730000D03*
%TO.P,R3,2*%
%TO.N,/LED_R*%
X100727500Y-61730000D03*
%TD*%
D29*
%TO.P,J4,1,Pin_1*%
%TO.N,GND*%
X94865000Y-68815000D03*
D30*
%TO.P,J4,2,Pin_2*%
%TO.N,3V3*%
X94865000Y-66275000D03*
%TO.P,J4,3,Pin_3*%
%TO.N,/GPIO*%
X97405000Y-68815000D03*
%TO.P,J4,4,Pin_4*%
%TO.N,/LED_Y*%
X97405000Y-66275000D03*
%TO.P,J4,5,Pin_5*%
%TO.N,VBAT*%
X99945000Y-68815000D03*
%TO.P,J4,6,Pin_6*%
%TO.N,/LED_R*%
X99945000Y-66275000D03*
%TO.P,J4,7,Pin_7*%
%TO.N,/MOTOR_M*%
X102485000Y-68815000D03*
%TO.P,J4,8,Pin_8*%
%TO.N,/MOTOR_P*%
X102485000Y-66275000D03*
%TD*%
D11*
%TO.P,FD1,1*%
%TO.N,VBUS*%
X74283300Y-63570000D03*
%TD*%
D31*
%TO.P,L2,1,1*%
%TO.N,Net-(U4-SW)*%
X102500000Y-73560000D03*
%TO.P,L2,2,2*%
%TO.N,Net-(D2-A)*%
X100130000Y-73560000D03*
%TD*%
D32*
%TO.P,C2,1*%
%TO.N,/motor driver/+12V0*%
X118520000Y-70200000D03*
%TO.P,C2,2*%
%TO.N,GND*%
X121470000Y-70200000D03*
%TD*%
D33*
%TO.P,J5,1*%
%TO.N,/BAT+*%
X115040500Y-77815000D03*
%TO.P,J5,2*%
%TO.N,GND*%
X115040500Y-76565000D03*
D34*
%TO.P,J5,3*%
X117940499Y-74015000D03*
%TO.P,J5,4*%
X117940499Y-80365000D03*
%TD*%
D11*
%TO.P,TP1,1,1*%
%TO.N,/motor driver/+12V0*%
X116525000Y-64360000D03*
%TD*%
D35*
%TO.P,D2,1,A*%
%TO.N,Net-(D2-A)*%
X96692100Y-72750000D03*
D36*
%TO.P,D2,2,K*%
%TO.N,VBUS*%
X94574600Y-72750000D03*
%TD*%
D37*
%TO.P,J3,1,1*%
%TO.N,GND*%
X110250000Y-77150000D03*
%TO.P,J3,2,2*%
%TO.N,/BAT+*%
X110250000Y-75150000D03*
D38*
%TO.P,J3,P1,P1*%
%TO.N,GND*%
X116000000Y-79500000D03*
%TO.P,J3,P2,P2*%
X116000000Y-72800000D03*
%TD*%
D39*
%TO.P,C7,1*%
%TO.N,Net-(D2-A)*%
X97962500Y-76230000D03*
%TO.P,C7,2*%
%TO.N,GND*%
X97962500Y-78130000D03*
%TD*%
D40*
%TO.N,/motor driver/+12V0*%
X116825000Y-67450000D03*
%TO.N,/PWR_IN-*%
X91500000Y-79875000D03*
%TO.N,/BAT+*%
X109375000Y-74000000D03*
X81500000Y-71125000D03*
X111250000Y-74000000D03*
X80000000Y-71125000D03*
%TO.N,/PWR_IN+*%
X91500000Y-77000000D03*
%TO.N,VBAT*%
X104284890Y-64937039D03*
D41*
X87435000Y-73250000D03*
D40*
%TO.N,GND*%
X73250000Y-72000000D03*
X109500000Y-78375000D03*
X116705000Y-76560000D03*
X107287500Y-66631450D03*
X114580000Y-66615000D03*
X76823300Y-65010000D03*
X103995000Y-81060000D03*
X111125000Y-69050000D03*
X111000000Y-78375000D03*
X102272500Y-79900000D03*
X96125000Y-80000000D03*
X98785000Y-63630000D03*
X102385000Y-62680000D03*
X84050000Y-75075000D03*
D41*
X87435000Y-70250000D03*
D40*
X76823300Y-61140000D03*
X113825000Y-61350000D03*
X99772500Y-78140000D03*
X113830000Y-62695000D03*
%TO.N,3V3*%
X102955000Y-60670000D03*
X122950000Y-70325000D03*
X80515000Y-60110000D03*
%TO.N,Net-(U1-GPIO0{slash}A0)*%
X85125000Y-66375000D03*
%TO.N,Net-(D1-+)*%
X105025000Y-76930000D03*
%TO.N,Net-(U1-GPIO1{slash}A1)*%
X98481250Y-81325000D03*
%TO.N,Net-(U4-BOOT)*%
X101325000Y-76350000D03*
%TO.N,Net-(U4-SW)*%
X102375000Y-76370000D03*
%TO.N,VBUS*%
X95000000Y-71750000D03*
X94125000Y-71750000D03*
%TO.N,/MOTOR_M*%
X119995000Y-71320000D03*
%TO.N,/MOTOR_P*%
X123520000Y-67455000D03*
%TO.N,/RAIL_M*%
X122225000Y-79150000D03*
%TO.N,/RAIL_P*%
X123325000Y-77750000D03*
%TD*%
D42*
%TO.N,/motor driver/+12V0*%
X116825000Y-68750000D02*
X116825000Y-65850000D01*
D43*
X114580000Y-65090000D02*
X114965000Y-65090000D01*
X114145000Y-65090000D02*
X113350000Y-64295000D01*
X113050000Y-63975000D02*
X111820000Y-63975000D01*
D42*
X118520000Y-70200000D02*
X118275000Y-70200000D01*
D10*
X116525000Y-64360000D02*
X116525000Y-64630000D01*
D42*
X118275000Y-70200000D02*
X117525000Y-69450000D01*
X116825000Y-65850000D02*
X116065000Y-65090000D01*
D43*
X113350000Y-64275000D02*
X113050000Y-63975000D01*
X114580000Y-65090000D02*
X114145000Y-65090000D01*
X113350000Y-64295000D02*
X113350000Y-64275000D01*
X111820000Y-63975000D02*
X111450000Y-64345000D01*
X111450000Y-64345000D02*
X111450000Y-65360000D01*
X118725000Y-69995000D02*
X118520000Y-70200000D01*
D44*
X118470000Y-70150000D02*
X118520000Y-70200000D01*
D43*
X118725000Y-67455000D02*
X118725000Y-69995000D01*
D45*
X115437500Y-70150000D02*
X116825000Y-70150000D01*
D10*
X116525000Y-64630000D02*
X116065000Y-65090000D01*
D43*
X118520000Y-69745000D02*
X118520000Y-70200000D01*
D45*
X116825000Y-70150000D02*
X117525000Y-69450000D01*
D42*
X117525000Y-69450000D02*
X116825000Y-68750000D01*
X116065000Y-65090000D02*
X114580000Y-65090000D01*
D10*
%TO.N,/LED_Y*%
X97037500Y-63632500D02*
X97037500Y-61730000D01*
X97405000Y-66275000D02*
X97405000Y-64000000D01*
X97405000Y-64000000D02*
X97037500Y-63632500D01*
%TO.N,/LED_R*%
X100727500Y-61730000D02*
X100727500Y-63327500D01*
X100727500Y-63327500D02*
X99945000Y-64110000D01*
X99945000Y-64110000D02*
X99945000Y-66275000D01*
D43*
%TO.N,/PWR_IN-*%
X94500000Y-80375000D02*
X94125000Y-80375000D01*
X93750000Y-79875000D02*
X94250000Y-80375000D01*
D10*
X94250000Y-80375000D02*
X94125000Y-80375000D01*
D43*
X91500000Y-79875000D02*
X93750000Y-79875000D01*
%TO.N,/BAT+*%
X112465000Y-75220000D02*
X110540000Y-75220000D01*
X109375000Y-74000000D02*
X109375000Y-75150000D01*
X113045000Y-75800000D02*
X112465000Y-75220000D01*
X110215000Y-75215000D02*
X110220000Y-75220000D01*
X113530000Y-77815000D02*
X113045000Y-77330000D01*
X111250000Y-74000000D02*
X111250000Y-75150000D01*
D10*
X110345000Y-75560000D02*
X110365000Y-75540000D01*
D43*
X115040500Y-77815000D02*
X113530000Y-77815000D01*
X113045000Y-77330000D02*
X113045000Y-75800000D01*
%TO.N,/PWR_IN+*%
X93625000Y-77000000D02*
X94250000Y-76375000D01*
X91500000Y-77000000D02*
X93625000Y-77000000D01*
D10*
%TO.N,/motor driver/PCM_B*%
X120491000Y-59260000D02*
X121265000Y-60034000D01*
X121265000Y-60034000D02*
X121265000Y-61705000D01*
X81903300Y-62761700D02*
X85405000Y-59260000D01*
X85405000Y-59260000D02*
X120491000Y-59260000D01*
X81903300Y-63114000D02*
X81903300Y-62761700D01*
%TO.N,/motor driver/PCM_A*%
X84443300Y-61221700D02*
X84443300Y-63114000D01*
X119995000Y-60020000D02*
X119563000Y-59588000D01*
X119995000Y-61705000D02*
X119995000Y-60020000D01*
X119563000Y-59588000D02*
X86077000Y-59588000D01*
X86077000Y-59588000D02*
X84443300Y-61221700D01*
%TO.N,VBAT*%
X87375000Y-73050000D02*
X87419600Y-73005400D01*
D43*
X104284890Y-64937039D02*
X104284890Y-64930110D01*
X104284890Y-64930110D02*
X104725000Y-64490000D01*
X104284890Y-64937039D02*
X104195000Y-64847149D01*
X104725000Y-64490000D02*
X104725000Y-62650000D01*
D10*
X87419600Y-73005400D02*
X87435000Y-73005400D01*
D45*
%TO.N,Net-(U3-FB)*%
X113612500Y-70150000D02*
X112037500Y-70150000D01*
D10*
X109025000Y-71437500D02*
X108237500Y-70650000D01*
D44*
X109025000Y-71450000D02*
X109025000Y-71437500D01*
X108537500Y-70150000D02*
X108537500Y-70262500D01*
D45*
X112425000Y-68950000D02*
X112425000Y-67660000D01*
X112037500Y-69337500D02*
X112425000Y-68950000D01*
X112037500Y-70150000D02*
X112037500Y-69337500D01*
D44*
X112037500Y-70150000D02*
X112037500Y-70437500D01*
D10*
X111025000Y-71450000D02*
X109025000Y-71450000D01*
X112037500Y-70437500D02*
X111025000Y-71450000D01*
D45*
X112425000Y-67660000D02*
X112400000Y-67635000D01*
D43*
%TO.N,Net-(U3-SW)*%
X110500000Y-67635000D02*
X109985000Y-68150000D01*
X110500000Y-68000000D02*
X110472500Y-68027500D01*
X107343750Y-68150000D02*
X107287500Y-68206250D01*
X109985000Y-68150000D02*
X107343750Y-68150000D01*
X110500000Y-67635000D02*
X110500000Y-68000000D01*
%TO.N,GND*%
X114580000Y-68040000D02*
X114580000Y-66615000D01*
X102272500Y-79900000D02*
X102502500Y-79900000D01*
X103942500Y-81007500D02*
X103995000Y-81060000D01*
X120630000Y-64580000D02*
X121355000Y-64580000D01*
X102092500Y-78150000D02*
X101117500Y-78150000D01*
X109425000Y-77170000D02*
X109405000Y-77150000D01*
X101117500Y-78150000D02*
X99782500Y-78150000D01*
X115040500Y-76565000D02*
X116700000Y-76565000D01*
X103995000Y-81060000D02*
X105770000Y-81060000D01*
X102942500Y-80340000D02*
X102925000Y-80322500D01*
X113830000Y-62695000D02*
X113510000Y-62695000D01*
D42*
X76823300Y-61140000D02*
X76823300Y-63114000D01*
D43*
X111450000Y-67635000D02*
X111450000Y-68725000D01*
X102925000Y-81190000D02*
X103092500Y-81190000D01*
X109405000Y-77150000D02*
X110250000Y-77150000D01*
D10*
X115212500Y-61350000D02*
X113825000Y-61350000D01*
D43*
X104002500Y-81052500D02*
X103995000Y-81060000D01*
X121355000Y-64580000D02*
X122535000Y-63400000D01*
X111450000Y-68725000D02*
X111125000Y-69050000D01*
X99772500Y-78140000D02*
X97752500Y-78140000D01*
X109480000Y-78355000D02*
X109480000Y-77635000D01*
X103995000Y-81060000D02*
X103055000Y-81060000D01*
D10*
X87415000Y-70460800D02*
X87419600Y-70465400D01*
D43*
X102272500Y-79900000D02*
X102272500Y-78330000D01*
D10*
X87419600Y-70465400D02*
X87435000Y-70465400D01*
D43*
X105770000Y-81060000D02*
X105915000Y-80915000D01*
D42*
X76823300Y-63114000D02*
X76823300Y-65010000D01*
D43*
X99782500Y-78150000D02*
X99772500Y-78140000D01*
X121265000Y-67455000D02*
X121265000Y-69995000D01*
X110212500Y-70150000D02*
X110212500Y-69962500D01*
X102925000Y-80322500D02*
X102925000Y-81190000D01*
X102502500Y-79900000D02*
X102925000Y-80322500D01*
X103055000Y-81060000D02*
X102925000Y-81190000D01*
X110980000Y-78355000D02*
X110980000Y-77635000D01*
X102272500Y-78330000D02*
X102092500Y-78150000D01*
X121265000Y-67455000D02*
X121265000Y-65215000D01*
X101167500Y-78200000D02*
X101117500Y-78150000D01*
X122535000Y-63400000D02*
X122535000Y-61705000D01*
X121265000Y-69995000D02*
X121470000Y-70200000D01*
X112390000Y-62695000D02*
X113830000Y-62695000D01*
X110212500Y-69962500D02*
X111125000Y-69050000D01*
X116700000Y-76565000D02*
X116705000Y-76560000D01*
X121265000Y-65215000D02*
X120630000Y-64580000D01*
%TO.N,3V3*%
X102985000Y-60700000D02*
X102955000Y-60670000D01*
D42*
X80515000Y-60110000D02*
X80025000Y-60110000D01*
X80025000Y-60110000D02*
X79363300Y-60771700D01*
D43*
X104765000Y-60700000D02*
X102985000Y-60700000D01*
D42*
X79363300Y-60771700D02*
X79363300Y-63114000D01*
D10*
%TO.N,Net-(U1-GPIO0{slash}A0)*%
X74283300Y-68216700D02*
X76125000Y-66375000D01*
X74283300Y-79279000D02*
X74283300Y-68216700D01*
X76125000Y-66375000D02*
X85125000Y-66375000D01*
D43*
%TO.N,Net-(D1-+)*%
X104635000Y-78150000D02*
X103392500Y-78150000D01*
X105170000Y-77965000D02*
X105025000Y-77820000D01*
D10*
X103392500Y-78150000D02*
X103392500Y-79100000D01*
D43*
X105025000Y-77820000D02*
X105025000Y-76930000D01*
X105915000Y-77965000D02*
X105170000Y-77965000D01*
D10*
%TO.N,Net-(D2-A)*%
X97570000Y-79707500D02*
X97570000Y-79870000D01*
X96725000Y-77500000D02*
X96725000Y-77220000D01*
D43*
X99930000Y-73760000D02*
X100130000Y-73560000D01*
D10*
X97715000Y-76230000D02*
X97962500Y-76230000D01*
D43*
X100130000Y-74865000D02*
X100130000Y-73560000D01*
D10*
X96725000Y-77220000D02*
X97715000Y-76230000D01*
D43*
X98762500Y-76240000D02*
X99222500Y-75780000D01*
D10*
X100130000Y-73560000D02*
X100130000Y-74385000D01*
X100130000Y-74385000D02*
X99755000Y-74760000D01*
D43*
X97752500Y-76240000D02*
X98762500Y-76240000D01*
X96692100Y-72750000D02*
X99517500Y-72750000D01*
D10*
X96725000Y-78110000D02*
X96725000Y-78862500D01*
D43*
X99222500Y-75772500D02*
X100130000Y-74865000D01*
D10*
X96725000Y-78862500D02*
X97570000Y-79707500D01*
D43*
X99222500Y-75780000D02*
X99222500Y-75772500D01*
D10*
X96725000Y-77500000D02*
X96725000Y-78110000D01*
%TO.N,Net-(U1-GPIO1{slash}A1)*%
X98481250Y-81481250D02*
X96962500Y-83000000D01*
X96962500Y-83000000D02*
X78500000Y-83000000D01*
X98481250Y-81325000D02*
X98481250Y-81481250D01*
X78500000Y-83000000D02*
X76823300Y-81323300D01*
X76823300Y-81323300D02*
X76823300Y-79279000D01*
%TO.N,Net-(U4-BOOT)*%
X101325000Y-76350000D02*
X101325000Y-76992500D01*
X101325000Y-76992500D02*
X101117500Y-77200000D01*
D43*
%TO.N,Net-(U4-SW)*%
X102500000Y-75025000D02*
X103362500Y-75887500D01*
X103362500Y-76370000D02*
X103362500Y-77170000D01*
D10*
X102375000Y-76370000D02*
X103362500Y-76370000D01*
D43*
X103362500Y-75887500D02*
X103362500Y-76370000D01*
X103362500Y-77170000D02*
X103392500Y-77200000D01*
X102500000Y-73560000D02*
X102500000Y-75025000D01*
D42*
%TO.N,VBUS*%
X74265000Y-63132300D02*
X74283300Y-63114000D01*
D43*
X94250000Y-72750000D02*
X94125000Y-72625000D01*
X94875000Y-72750000D02*
X95000000Y-72625000D01*
X94125000Y-72625000D02*
X94125000Y-71750000D01*
X94574600Y-72750000D02*
X94250000Y-72750000D01*
X94574600Y-72750000D02*
X94875000Y-72750000D01*
X95000000Y-72625000D02*
X95000000Y-71750000D01*
D10*
%TO.N,/GPIO*%
X89523300Y-72271700D02*
X91715000Y-70080000D01*
X96140000Y-70080000D02*
X97405000Y-68815000D01*
X89523300Y-79279000D02*
X89523300Y-72271700D01*
X91715000Y-70080000D02*
X96140000Y-70080000D01*
%TO.N,Net-(U1-GPIO19{slash}SCK)*%
X98902500Y-61730000D02*
X98902500Y-61477500D01*
X86983300Y-61101700D02*
X86983300Y-63114000D01*
X98902500Y-61427500D02*
X97425000Y-59950000D01*
X97425000Y-59950000D02*
X88135000Y-59950000D01*
X98902500Y-61730000D02*
X98902500Y-61427500D01*
X88135000Y-59950000D02*
X86983300Y-61101700D01*
%TO.N,Net-(U1-GPIO17{slash}RX)*%
X95212500Y-61730000D02*
X95212500Y-61577500D01*
X93960000Y-60325000D02*
X90260000Y-60325000D01*
X89515000Y-61070000D02*
X89523300Y-61078300D01*
X89523300Y-61078300D02*
X89523300Y-63114000D01*
X90260000Y-60325000D02*
X89515000Y-61070000D01*
X95212500Y-61577500D02*
X93960000Y-60325000D01*
%TO.N,Net-(U4-FB)*%
X99992500Y-79100000D02*
X101117500Y-79100000D01*
X99395000Y-79870000D02*
X99395000Y-79697500D01*
X99395000Y-79697500D02*
X99992500Y-79100000D01*
X101117500Y-81172500D02*
X101100000Y-81190000D01*
X101117500Y-79100000D02*
X101117500Y-79900000D01*
X99015000Y-79870000D02*
X99015000Y-79697500D01*
X101117500Y-79900000D02*
X101117500Y-81172500D01*
D43*
%TO.N,/v boost/+VM*%
X108625000Y-64250000D02*
X108625000Y-63550000D01*
D10*
X112400000Y-66225000D02*
X112150000Y-66475000D01*
D43*
X110445000Y-62650000D02*
X110490000Y-62695000D01*
D10*
X112150000Y-66475000D02*
X110750000Y-66475000D01*
D43*
X110500000Y-65360000D02*
X110500000Y-62705000D01*
X108775000Y-60890000D02*
X108775000Y-62512500D01*
X108637500Y-63537500D02*
X108637500Y-62650000D01*
D10*
X104925000Y-66040000D02*
X104925000Y-70050000D01*
D43*
X106725000Y-60700000D02*
X106725000Y-64068950D01*
D10*
X110750000Y-66475000D02*
X110500000Y-66225000D01*
X104925000Y-70050000D02*
X105525000Y-70650000D01*
D43*
X106725000Y-64068950D02*
X107287500Y-64631450D01*
D10*
X110500000Y-66225000D02*
X110500000Y-65360000D01*
X105525000Y-70650000D02*
X106412500Y-70650000D01*
D43*
X107287500Y-65056650D02*
X108418350Y-65056650D01*
D10*
X107287500Y-64631450D02*
X106333550Y-64631450D01*
D43*
X108637500Y-62650000D02*
X110445000Y-62650000D01*
X110500000Y-62705000D02*
X110490000Y-62695000D01*
X108637500Y-63537500D02*
X108625000Y-63550000D01*
X108775000Y-62512500D02*
X108637500Y-62650000D01*
D10*
X112400000Y-65360000D02*
X112400000Y-66225000D01*
D43*
X108418350Y-65056650D02*
X108637500Y-64837500D01*
X108243550Y-64631450D02*
X108625000Y-64250000D01*
X107287500Y-64631450D02*
X108243550Y-64631450D01*
D10*
X106333550Y-64631450D02*
X104925000Y-66040000D01*
D43*
%TO.N,/MOTOR_M*%
X119995000Y-71320000D02*
X119995000Y-67455000D01*
%TO.N,/MOTOR_P*%
X123520000Y-67455000D02*
X123520000Y-67745000D01*
X122535000Y-67455000D02*
X123520000Y-67455000D01*
X122535000Y-67455000D02*
X122535000Y-67960000D01*
X123525000Y-67450000D02*
X123520000Y-67455000D01*
X123520000Y-67745000D02*
X124485000Y-68710000D01*
X124485000Y-68710000D02*
X128950000Y-68710000D01*
X122535000Y-67455000D02*
X122535000Y-68160000D01*
%TO.N,/RAIL_M*%
X128920000Y-69950000D02*
X128950000Y-69980000D01*
X123125000Y-71250000D02*
X122225000Y-72150000D01*
X123125000Y-71250000D02*
X123825000Y-71250000D01*
X123825000Y-71250000D02*
X128950000Y-71250000D01*
X123825000Y-71250000D02*
X123825000Y-69950000D01*
X123825000Y-69950000D02*
X128920000Y-69950000D01*
X122225000Y-72150000D02*
X122225000Y-79150000D01*
%TO.N,/RAIL_P*%
X128950000Y-72520000D02*
X123555000Y-72520000D01*
X123325000Y-72750000D02*
X123325000Y-73750000D01*
X123325000Y-73750000D02*
X123325000Y-77850000D01*
X123325000Y-77850000D02*
X123325000Y-77750000D01*
X123555000Y-72520000D02*
X123325000Y-72750000D01*
X128950000Y-73790000D02*
X123365000Y-73790000D01*
X123365000Y-73790000D02*
X123325000Y-73750000D01*
%TD*%
%TA.AperFunction,Conductor*%
%TO.N,GND*%
G36*
X103958031Y-65776343D02*
G01*
X104022224Y-65802933D01*
X104022226Y-65802933D01*
X104022231Y-65802935D01*
X104196194Y-65837538D01*
X104196197Y-65837539D01*
X104196199Y-65837539D01*
X104200499Y-65837539D01*
X104209184Y-65840089D01*
X104218145Y-65838801D01*
X104242183Y-65849779D01*
X104267538Y-65857224D01*
X104273465Y-65864065D01*
X104281701Y-65867826D01*
X104295989Y-65890059D01*
X104313293Y-65910028D01*
X104315580Y-65920541D01*
X104319476Y-65926603D01*
X104324498Y-65961536D01*
X104324499Y-65961538D01*
X104324499Y-66119057D01*
X104324499Y-66119059D01*
X104324500Y-66129053D01*
X104324500Y-69963330D01*
X104324499Y-69963348D01*
X104324499Y-70129054D01*
X104324498Y-70129054D01*
X104329272Y-70146869D01*
X104359345Y-70259103D01*
X104365424Y-70281787D01*
X104379111Y-70305493D01*
X104379112Y-70305495D01*
X104444477Y-70418712D01*
X104444481Y-70418717D01*
X104563349Y-70537585D01*
X104563355Y-70537590D01*
X105040139Y-71014374D01*
X105040149Y-71014385D01*
X105044479Y-71018715D01*
X105044480Y-71018716D01*
X105156284Y-71130520D01*
X105235202Y-71176083D01*
X105293215Y-71209577D01*
X105349860Y-71224754D01*
X105358197Y-71228359D01*
X105378356Y-71245122D01*
X105400740Y-71258765D01*
X105406391Y-71268434D01*
X105411920Y-71273032D01*
X105415261Y-71283610D01*
X105426694Y-71303173D01*
X105465185Y-71419331D01*
X105465187Y-71419336D01*
X105494996Y-71467664D01*
X105557288Y-71568656D01*
X105681344Y-71692712D01*
X105830666Y-71784814D01*
X105997203Y-71839999D01*
X106099991Y-71850500D01*
X106725008Y-71850499D01*
X106725016Y-71850498D01*
X106725019Y-71850498D01*
X106781302Y-71844748D01*
X106827797Y-71839999D01*
X106994334Y-71784814D01*
X107143656Y-71692712D01*
X107237319Y-71599049D01*
X107298642Y-71565564D01*
X107368334Y-71570548D01*
X107412681Y-71599049D01*
X107506344Y-71692712D01*
X107655666Y-71784814D01*
X107822203Y-71839999D01*
X107924991Y-71850500D01*
X108524901Y-71850499D01*
X108591940Y-71870183D01*
X108612582Y-71886818D01*
X108656284Y-71930520D01*
X108656286Y-71930521D01*
X108656290Y-71930524D01*
X108780390Y-72002172D01*
X108793216Y-72009577D01*
X108945943Y-72050500D01*
X110938331Y-72050500D01*
X110938347Y-72050501D01*
X110945943Y-72050501D01*
X111104054Y-72050501D01*
X111104057Y-72050501D01*
X111256785Y-72009577D01*
X111316107Y-71975327D01*
X111393716Y-71930520D01*
X111505520Y-71818716D01*
X111505520Y-71818714D01*
X111515724Y-71808511D01*
X111515728Y-71808506D01*
X111937416Y-71386818D01*
X111998739Y-71353333D01*
X112025097Y-71350499D01*
X112350002Y-71350499D01*
X112350008Y-71350499D01*
X112452797Y-71339999D01*
X112619334Y-71284814D01*
X112759905Y-71198109D01*
X112827296Y-71179670D01*
X112890094Y-71198109D01*
X113030666Y-71284814D01*
X113197203Y-71339999D01*
X113299991Y-71350500D01*
X113925008Y-71350499D01*
X113925016Y-71350498D01*
X113925019Y-71350498D01*
X113981302Y-71344748D01*
X114027797Y-71339999D01*
X114194334Y-71284814D01*
X114343656Y-71192712D01*
X114437319Y-71099049D01*
X114498642Y-71065564D01*
X114568334Y-71070548D01*
X114612681Y-71099049D01*
X114706344Y-71192712D01*
X114855666Y-71284814D01*
X114926526Y-71308294D01*
X114983970Y-71348067D01*
X115010793Y-71412583D01*
X114998478Y-71481358D01*
X114950935Y-71532558D01*
X114887521Y-71550000D01*
X114252155Y-71550000D01*
X114192627Y-71556401D01*
X114192620Y-71556403D01*
X114057913Y-71606645D01*
X114057906Y-71606649D01*
X113942812Y-71692809D01*
X113942809Y-71692812D01*
X113856649Y-71807906D01*
X113856645Y-71807913D01*
X113806403Y-71942620D01*
X113806401Y-71942627D01*
X113800000Y-72002155D01*
X113800000Y-72550000D01*
X115750000Y-72550000D01*
X115750000Y-71547081D01*
X115720025Y-71492187D01*
X115725009Y-71422495D01*
X115766881Y-71366562D01*
X115828591Y-71342471D01*
X115852797Y-71339999D01*
X116019334Y-71284814D01*
X116168656Y-71192712D01*
X116292712Y-71068656D01*
X116384814Y-70919334D01*
X116404311Y-70860493D01*
X116444084Y-70803051D01*
X116508600Y-70776228D01*
X116522017Y-70775500D01*
X116886607Y-70775500D01*
X116947029Y-70763481D01*
X117007452Y-70751463D01*
X117044104Y-70736281D01*
X117121286Y-70704312D01*
X117182405Y-70663472D01*
X117212702Y-70653985D01*
X117242447Y-70642891D01*
X117245801Y-70643620D01*
X117249077Y-70642595D01*
X117279695Y-70650994D01*
X117310720Y-70657743D01*
X117314433Y-70660522D01*
X117316457Y-70661078D01*
X117338974Y-70678894D01*
X117408181Y-70748101D01*
X117441666Y-70809424D01*
X117444500Y-70835780D01*
X117444500Y-70900000D01*
X117444501Y-70900019D01*
X117455000Y-71002796D01*
X117455001Y-71002799D01*
X117510185Y-71169331D01*
X117510187Y-71169336D01*
X117545069Y-71225888D01*
X117593808Y-71304908D01*
X117602289Y-71318657D01*
X117621951Y-71338319D01*
X117655436Y-71399642D01*
X117650452Y-71469334D01*
X117608580Y-71525267D01*
X117543116Y-71549684D01*
X117534270Y-71550000D01*
X116250000Y-71550000D01*
X116250000Y-73765000D01*
X119989899Y-73765000D01*
X119989899Y-72862272D01*
X119989898Y-72862255D01*
X119983497Y-72802727D01*
X119983495Y-72802720D01*
X119933253Y-72668013D01*
X119933249Y-72668006D01*
X119847089Y-72552912D01*
X119847086Y-72552909D01*
X119731992Y-72466749D01*
X119731985Y-72466745D01*
X119597278Y-72416503D01*
X119597271Y-72416501D01*
X119537743Y-72410100D01*
X118324000Y-72410100D01*
X118256961Y-72390415D01*
X118211206Y-72337611D01*
X118200000Y-72286100D01*
X118200000Y-72002172D01*
X118199999Y-72002155D01*
X118193598Y-71942627D01*
X118193596Y-71942620D01*
X118143354Y-71807913D01*
X118143352Y-71807910D01*
X118136540Y-71798810D01*
X118112123Y-71733345D01*
X118126975Y-71665072D01*
X118176380Y-71615667D01*
X118235803Y-71600499D01*
X118895008Y-71600499D01*
X118895016Y-71600498D01*
X118895019Y-71600498D01*
X118918896Y-71598058D01*
X118997797Y-71589999D01*
X119006482Y-71587120D01*
X119076308Y-71584716D01*
X119136352Y-71620445D01*
X119160050Y-71657373D01*
X119196983Y-71746540D01*
X119196990Y-71746553D01*
X119295535Y-71894034D01*
X119295538Y-71894038D01*
X119420961Y-72019461D01*
X119420965Y-72019464D01*
X119568446Y-72118009D01*
X119568459Y-72118016D01*
X119660723Y-72156232D01*
X119732334Y-72185894D01*
X119732336Y-72185894D01*
X119732341Y-72185896D01*
X119906304Y-72220499D01*
X119906307Y-72220500D01*
X119906309Y-72220500D01*
X120083693Y-72220500D01*
X120083694Y-72220499D01*
X120141682Y-72208964D01*
X120257658Y-72185896D01*
X120257661Y-72185894D01*
X120257666Y-72185894D01*
X120421547Y-72118013D01*
X120569035Y-72019464D01*
X120694464Y-71894035D01*
X120793013Y-71746547D01*
X120830142Y-71656908D01*
X120873981Y-71602507D01*
X120940275Y-71580441D01*
X120983710Y-71586657D01*
X120992308Y-71589506D01*
X121095019Y-71599999D01*
X121219999Y-71599999D01*
X121220000Y-71599998D01*
X121220000Y-69185000D01*
X121139000Y-69185000D01*
X121071961Y-69165315D01*
X121026206Y-69112511D01*
X121015000Y-69061000D01*
X121015000Y-67579000D01*
X121034685Y-67511961D01*
X121087489Y-67466206D01*
X121139000Y-67455000D01*
X121391000Y-67455000D01*
X121458039Y-67474685D01*
X121503794Y-67527489D01*
X121515000Y-67579000D01*
X121515000Y-68670000D01*
X121596000Y-68670000D01*
X121663039Y-68689685D01*
X121708794Y-68742489D01*
X121720000Y-68794000D01*
X121720000Y-71542268D01*
X121713111Y-71565728D01*
X121710430Y-71590037D01*
X121702498Y-71601872D01*
X121700315Y-71609307D01*
X121692336Y-71620341D01*
X121688253Y-71625378D01*
X121642048Y-71671584D01*
X121604075Y-71728416D01*
X121600906Y-71733157D01*
X121600904Y-71733161D01*
X121559913Y-71794508D01*
X121503343Y-71931082D01*
X121503340Y-71931092D01*
X121474500Y-72076079D01*
X121474500Y-78614729D01*
X121454815Y-78681768D01*
X121453602Y-78683620D01*
X121426988Y-78723449D01*
X121426987Y-78723452D01*
X121359106Y-78887332D01*
X121359103Y-78887341D01*
X121324500Y-79061304D01*
X121324500Y-79238695D01*
X121359103Y-79412658D01*
X121359106Y-79412667D01*
X121426983Y-79576540D01*
X121426990Y-79576553D01*
X121525535Y-79724034D01*
X121525538Y-79724038D01*
X121650961Y-79849461D01*
X121650965Y-79849464D01*
X121798446Y-79948009D01*
X121798459Y-79948016D01*
X121911727Y-79994932D01*
X121962334Y-80015894D01*
X121962336Y-80015894D01*
X121962341Y-80015896D01*
X122136304Y-80050499D01*
X122136307Y-80050500D01*
X122136309Y-80050500D01*
X122313693Y-80050500D01*
X122313694Y-80050499D01*
X122410281Y-80031287D01*
X122487658Y-80015896D01*
X122487661Y-80015894D01*
X122487666Y-80015894D01*
X122651547Y-79948013D01*
X122799035Y-79849464D01*
X122924464Y-79724035D01*
X123023013Y-79576547D01*
X123090894Y-79412666D01*
X123102848Y-79352573D01*
X123125499Y-79238695D01*
X123125500Y-79238693D01*
X123125500Y-79061306D01*
X123125499Y-79061304D01*
X123090896Y-78887341D01*
X123090894Y-78887336D01*
X123090894Y-78887334D01*
X123059705Y-78812037D01*
X123052237Y-78742571D01*
X123083512Y-78680092D01*
X123143601Y-78644440D01*
X123198458Y-78642971D01*
X123221736Y-78647601D01*
X123236308Y-78650500D01*
X123236309Y-78650500D01*
X123413693Y-78650500D01*
X123413694Y-78650499D01*
X123476588Y-78637989D01*
X123587658Y-78615896D01*
X123587661Y-78615894D01*
X123587666Y-78615894D01*
X123727535Y-78557958D01*
X123751540Y-78548016D01*
X123751540Y-78548015D01*
X123751547Y-78548013D01*
X123899035Y-78449464D01*
X124024464Y-78324035D01*
X124123013Y-78176547D01*
X124190894Y-78012666D01*
X124191984Y-78007190D01*
X124219654Y-77868081D01*
X124225500Y-77838691D01*
X124225500Y-77661309D01*
X124225500Y-77661306D01*
X124225499Y-77661304D01*
X124190896Y-77487341D01*
X124190893Y-77487332D01*
X124183190Y-77468735D01*
X124123013Y-77323453D01*
X124123011Y-77323451D01*
X124123011Y-77323449D01*
X124096398Y-77283620D01*
X124075520Y-77216942D01*
X124075500Y-77214729D01*
X124075500Y-74914500D01*
X124095185Y-74847461D01*
X124147989Y-74801706D01*
X124199500Y-74790500D01*
X124475770Y-74790500D01*
X124542809Y-74810185D01*
X124588564Y-74862989D01*
X124598508Y-74932147D01*
X124590331Y-74961953D01*
X124574500Y-75000170D01*
X124574500Y-83575500D01*
X124554815Y-83642539D01*
X124502011Y-83688294D01*
X124450500Y-83699500D01*
X97411128Y-83699500D01*
X97389777Y-83693230D01*
X97367585Y-83691603D01*
X97356905Y-83683578D01*
X97344089Y-83679815D01*
X97329518Y-83662999D01*
X97311727Y-83649631D01*
X97307080Y-83637105D01*
X97298334Y-83627011D01*
X97295167Y-83604987D01*
X97287428Y-83584123D01*
X97290291Y-83571074D01*
X97288390Y-83557853D01*
X97297633Y-83537611D01*
X97302403Y-83515877D01*
X97313430Y-83503022D01*
X97317415Y-83494297D01*
X97323605Y-83487661D01*
X97330159Y-83481129D01*
X97331216Y-83480520D01*
X97443020Y-83368716D01*
X97443021Y-83368713D01*
X98563684Y-82248049D01*
X98625005Y-82214566D01*
X98627011Y-82214147D01*
X98743916Y-82190894D01*
X98907797Y-82123013D01*
X99055285Y-82024464D01*
X99180714Y-81899035D01*
X99279263Y-81751547D01*
X99347144Y-81587666D01*
X99352551Y-81560487D01*
X99381749Y-81413695D01*
X99381750Y-81413693D01*
X99381750Y-81236306D01*
X99378246Y-81218691D01*
X99384473Y-81149099D01*
X99427336Y-81093922D01*
X99493226Y-81070677D01*
X99499863Y-81070499D01*
X99707502Y-81070499D01*
X99707508Y-81070499D01*
X99810297Y-81059999D01*
X99923998Y-81022321D01*
X99993823Y-81019920D01*
X100053866Y-81055651D01*
X100085059Y-81118171D01*
X100087000Y-81140028D01*
X100087000Y-81690001D01*
X100087001Y-81690019D01*
X100097500Y-81792796D01*
X100097501Y-81792799D01*
X100152685Y-81959331D01*
X100152687Y-81959336D01*
X100171600Y-81989999D01*
X100244788Y-82108656D01*
X100368844Y-82232712D01*
X100518166Y-82324814D01*
X100684703Y-82379999D01*
X100787491Y-82390500D01*
X101412508Y-82390499D01*
X101412516Y-82390498D01*
X101412519Y-82390498D01*
X101468802Y-82384748D01*
X101515297Y-82379999D01*
X101681834Y-82324814D01*
X101831156Y-82232712D01*
X101925175Y-82138692D01*
X101986494Y-82105210D01*
X102056186Y-82110194D01*
X102100534Y-82138695D01*
X102194154Y-82232315D01*
X102343375Y-82324356D01*
X102343380Y-82324358D01*
X102509802Y-82379505D01*
X102509809Y-82379506D01*
X102612519Y-82389999D01*
X102674999Y-82389998D01*
X102675000Y-82389998D01*
X102675000Y-81314000D01*
X102694685Y-81246961D01*
X102747489Y-81201206D01*
X102799000Y-81190000D01*
X103051000Y-81190000D01*
X103118039Y-81209685D01*
X103163794Y-81262489D01*
X103175000Y-81314000D01*
X103175000Y-82389999D01*
X103237472Y-82389999D01*
X103237486Y-82389998D01*
X103340197Y-82379505D01*
X103506619Y-82324358D01*
X103506624Y-82324356D01*
X103655845Y-82232315D01*
X103779815Y-82108345D01*
X103871856Y-81959124D01*
X103871858Y-81959119D01*
X103927005Y-81792697D01*
X103927006Y-81792690D01*
X103937499Y-81689986D01*
X103937499Y-81683240D01*
X103957177Y-81616198D01*
X104009976Y-81570438D01*
X104079134Y-81560487D01*
X104142692Y-81589506D01*
X104167037Y-81618129D01*
X104222682Y-81708343D01*
X104346654Y-81832315D01*
X104495875Y-81924356D01*
X104495880Y-81924358D01*
X104662302Y-81979505D01*
X104662309Y-81979506D01*
X104765019Y-81989999D01*
X105664999Y-81989999D01*
X106165000Y-81989999D01*
X107064972Y-81989999D01*
X107064986Y-81989998D01*
X107167697Y-81979505D01*
X107334119Y-81924358D01*
X107334124Y-81924356D01*
X107483345Y-81832315D01*
X107607315Y-81708345D01*
X107699356Y-81559124D01*
X107699358Y-81559119D01*
X107754505Y-81392697D01*
X107754506Y-81392690D01*
X107764999Y-81289986D01*
X107765000Y-81289973D01*
X107765000Y-81165000D01*
X106165000Y-81165000D01*
X106165000Y-81989999D01*
X105664999Y-81989999D01*
X105665000Y-81989998D01*
X105665000Y-80665000D01*
X106165000Y-80665000D01*
X107764999Y-80665000D01*
X107764999Y-80540028D01*
X107764998Y-80540013D01*
X107754505Y-80437302D01*
X107699358Y-80270880D01*
X107699356Y-80270875D01*
X107607315Y-80121654D01*
X107483345Y-79997684D01*
X107334124Y-79905643D01*
X107334119Y-79905641D01*
X107167697Y-79850494D01*
X107167690Y-79850493D01*
X107064986Y-79840000D01*
X106165000Y-79840000D01*
X106165000Y-80665000D01*
X105665000Y-80665000D01*
X105665000Y-79840000D01*
X104765028Y-79840000D01*
X104765012Y-79840001D01*
X104662302Y-79850494D01*
X104504101Y-79902917D01*
X104434273Y-79905319D01*
X104374231Y-79869587D01*
X104343038Y-79807067D01*
X104350599Y-79737607D01*
X104377417Y-79697529D01*
X104423076Y-79651870D01*
X104423081Y-79651865D01*
X104506744Y-79510398D01*
X104552598Y-79352569D01*
X104555500Y-79315694D01*
X104555500Y-79156411D01*
X104575185Y-79089372D01*
X104627989Y-79043617D01*
X104692101Y-79033053D01*
X104764991Y-79040500D01*
X107065008Y-79040499D01*
X107167797Y-79029999D01*
X107334334Y-78974814D01*
X107483656Y-78882712D01*
X107607712Y-78758656D01*
X107699814Y-78609334D01*
X107754999Y-78442797D01*
X107765500Y-78340009D01*
X107765499Y-77798776D01*
X107785183Y-77731738D01*
X107837987Y-77685983D01*
X107907146Y-77676039D01*
X107970702Y-77705064D01*
X108005681Y-77755444D01*
X108056645Y-77892086D01*
X108056649Y-77892093D01*
X108142809Y-78007187D01*
X108142812Y-78007190D01*
X108257906Y-78093350D01*
X108257913Y-78093354D01*
X108392620Y-78143596D01*
X108392627Y-78143598D01*
X108452155Y-78149999D01*
X108452172Y-78150000D01*
X110000000Y-78150000D01*
X110000000Y-77400000D01*
X108000000Y-77400000D01*
X108000000Y-77460069D01*
X107980315Y-77527108D01*
X107927511Y-77572863D01*
X107858353Y-77582807D01*
X107794797Y-77553782D01*
X107757023Y-77495004D01*
X107755195Y-77487795D01*
X107754999Y-77487203D01*
X107699814Y-77320666D01*
X107607712Y-77171344D01*
X107483656Y-77047288D01*
X107362387Y-76972489D01*
X107334336Y-76955187D01*
X107334331Y-76955185D01*
X107285397Y-76938970D01*
X107167797Y-76900001D01*
X107167795Y-76900000D01*
X107065016Y-76889500D01*
X107065009Y-76889500D01*
X106036850Y-76889500D01*
X105969811Y-76869815D01*
X105924056Y-76817011D01*
X105915233Y-76789691D01*
X105890896Y-76667341D01*
X105890893Y-76667332D01*
X105823016Y-76503459D01*
X105823009Y-76503446D01*
X105724464Y-76355965D01*
X105724461Y-76355961D01*
X105599038Y-76230538D01*
X105599034Y-76230535D01*
X105451553Y-76131990D01*
X105451540Y-76131983D01*
X105287667Y-76064106D01*
X105287658Y-76064103D01*
X105113694Y-76029500D01*
X105113691Y-76029500D01*
X104936309Y-76029500D01*
X104936306Y-76029500D01*
X104762341Y-76064103D01*
X104762332Y-76064106D01*
X104598459Y-76131983D01*
X104598446Y-76131990D01*
X104450965Y-76230535D01*
X104450961Y-76230538D01*
X104324681Y-76356819D01*
X104263358Y-76390304D01*
X104193666Y-76385320D01*
X104137733Y-76343448D01*
X104113316Y-76277984D01*
X104113000Y-76269138D01*
X104113000Y-75813580D01*
X104101841Y-75757483D01*
X104097926Y-75737802D01*
X104104153Y-75668213D01*
X104147015Y-75613035D01*
X104176211Y-75597430D01*
X104182481Y-75595091D01*
X104182483Y-75595091D01*
X104317331Y-75544796D01*
X104432546Y-75458546D01*
X104518796Y-75343331D01*
X104569091Y-75208483D01*
X104575500Y-75148873D01*
X104575500Y-74602135D01*
X107999500Y-74602135D01*
X107999500Y-75697870D01*
X107999501Y-75697876D01*
X108005908Y-75757483D01*
X108056202Y-75892328D01*
X108056206Y-75892335D01*
X108142452Y-76007544D01*
X108142453Y-76007544D01*
X108142454Y-76007546D01*
X108171781Y-76029500D01*
X108200562Y-76051046D01*
X108242432Y-76106980D01*
X108247416Y-76176672D01*
X108213930Y-76237994D01*
X108200562Y-76249578D01*
X108142809Y-76292812D01*
X108056649Y-76407906D01*
X108056645Y-76407913D01*
X108006403Y-76542620D01*
X108006401Y-76542627D01*
X108000000Y-76602155D01*
X108000000Y-76900000D01*
X110126000Y-76900000D01*
X110193039Y-76919685D01*
X110238794Y-76972489D01*
X110250000Y-77024000D01*
X110250000Y-77150000D01*
X110376000Y-77150000D01*
X110443039Y-77169685D01*
X110488794Y-77222489D01*
X110500000Y-77274000D01*
X110500000Y-78150000D01*
X112047828Y-78150000D01*
X112047844Y-78149999D01*
X112107372Y-78143598D01*
X112107379Y-78143596D01*
X112242086Y-78093354D01*
X112242093Y-78093350D01*
X112357186Y-78007191D01*
X112401419Y-77948104D01*
X112457353Y-77906233D01*
X112527044Y-77901249D01*
X112588365Y-77934733D01*
X112768631Y-78114998D01*
X113051587Y-78397954D01*
X113055185Y-78400358D01*
X113055191Y-78400362D01*
X113058495Y-78402569D01*
X113174505Y-78480084D01*
X113231080Y-78503518D01*
X113311088Y-78536659D01*
X113427241Y-78559763D01*
X113446468Y-78563587D01*
X113456081Y-78565500D01*
X113456082Y-78565500D01*
X113456083Y-78565500D01*
X113603918Y-78565500D01*
X113676647Y-78565500D01*
X113743686Y-78585185D01*
X113789441Y-78637989D01*
X113799299Y-78698799D01*
X113800178Y-78698847D01*
X113800000Y-78702172D01*
X113800000Y-79250000D01*
X115876000Y-79250000D01*
X115943039Y-79269685D01*
X115988794Y-79322489D01*
X116000000Y-79374000D01*
X116000000Y-79626000D01*
X115980315Y-79693039D01*
X115927511Y-79738794D01*
X115876000Y-79750000D01*
X113800000Y-79750000D01*
X113800000Y-80297844D01*
X113806401Y-80357372D01*
X113806403Y-80357379D01*
X113856645Y-80492086D01*
X113856649Y-80492093D01*
X113942809Y-80607187D01*
X113942812Y-80607190D01*
X114057906Y-80693350D01*
X114057913Y-80693354D01*
X114192620Y-80743596D01*
X114192627Y-80743598D01*
X114252155Y-80749999D01*
X114252172Y-80750000D01*
X115767099Y-80750000D01*
X115834138Y-80769685D01*
X115879893Y-80822489D01*
X115891099Y-80874000D01*
X115891099Y-81517744D01*
X115897500Y-81577272D01*
X115897502Y-81577279D01*
X115947744Y-81711986D01*
X115947748Y-81711993D01*
X116033908Y-81827087D01*
X116033911Y-81827090D01*
X116149005Y-81913250D01*
X116149012Y-81913254D01*
X116283719Y-81963496D01*
X116283726Y-81963498D01*
X116343254Y-81969899D01*
X116343271Y-81969900D01*
X117690499Y-81969900D01*
X118190499Y-81969900D01*
X119537727Y-81969900D01*
X119537743Y-81969899D01*
X119597271Y-81963498D01*
X119597278Y-81963496D01*
X119731985Y-81913254D01*
X119731992Y-81913250D01*
X119847086Y-81827090D01*
X119847089Y-81827087D01*
X119933249Y-81711993D01*
X119933253Y-81711986D01*
X119983495Y-81577279D01*
X119983497Y-81577272D01*
X119989898Y-81517744D01*
X119989899Y-81517727D01*
X119989899Y-80615000D01*
X118190499Y-80615000D01*
X118190499Y-81969900D01*
X117690499Y-81969900D01*
X117690499Y-80489000D01*
X117710184Y-80421961D01*
X117762988Y-80376206D01*
X117814499Y-80365000D01*
X117940499Y-80365000D01*
X117940499Y-80239000D01*
X117960184Y-80171961D01*
X118012988Y-80126206D01*
X118064499Y-80115000D01*
X119989899Y-80115000D01*
X119989899Y-79212272D01*
X119989898Y-79212255D01*
X119983497Y-79152727D01*
X119983495Y-79152720D01*
X119933253Y-79018013D01*
X119933249Y-79018006D01*
X119847089Y-78902912D01*
X119847086Y-78902909D01*
X119731992Y-78816749D01*
X119731985Y-78816745D01*
X119597278Y-78766503D01*
X119597271Y-78766501D01*
X119537743Y-78760100D01*
X118317611Y-78760100D01*
X118250572Y-78740415D01*
X118204817Y-78687611D01*
X118194322Y-78649357D01*
X118193598Y-78642626D01*
X118193596Y-78642620D01*
X118143354Y-78507913D01*
X118143350Y-78507906D01*
X118057190Y-78392812D01*
X118057187Y-78392809D01*
X117942093Y-78306649D01*
X117942086Y-78306645D01*
X117807379Y-78256403D01*
X117807372Y-78256401D01*
X117747844Y-78250000D01*
X116515900Y-78250000D01*
X116448861Y-78230315D01*
X116403106Y-78177511D01*
X116391900Y-78126000D01*
X116391899Y-77360729D01*
X116391898Y-77360723D01*
X116387891Y-77323449D01*
X116385491Y-77301117D01*
X116359941Y-77232615D01*
X116354958Y-77162927D01*
X116359943Y-77145950D01*
X116384997Y-77078779D01*
X116384997Y-77078777D01*
X116391399Y-77019244D01*
X116391400Y-77019227D01*
X116391400Y-76815000D01*
X115164500Y-76815000D01*
X115097461Y-76795315D01*
X115051706Y-76742511D01*
X115040500Y-76691000D01*
X115040500Y-76565000D01*
X114914500Y-76565000D01*
X114847461Y-76545315D01*
X114801706Y-76492511D01*
X114790500Y-76441000D01*
X114790500Y-75658600D01*
X115290500Y-75658600D01*
X115290500Y-76315000D01*
X116391400Y-76315000D01*
X116391400Y-76110772D01*
X116391399Y-76110755D01*
X116384998Y-76051227D01*
X116384996Y-76051220D01*
X116334754Y-75916513D01*
X116334750Y-75916506D01*
X116261166Y-75818211D01*
X116236748Y-75752747D01*
X116251599Y-75684474D01*
X116301004Y-75635068D01*
X116360432Y-75619900D01*
X117690499Y-75619900D01*
X118190499Y-75619900D01*
X119537727Y-75619900D01*
X119537743Y-75619899D01*
X119597271Y-75613498D01*
X119597278Y-75613496D01*
X119731985Y-75563254D01*
X119731992Y-75563250D01*
X119847086Y-75477090D01*
X119847089Y-75477087D01*
X119933249Y-75361993D01*
X119933253Y-75361986D01*
X119983495Y-75227279D01*
X119983497Y-75227272D01*
X119989898Y-75167744D01*
X119989899Y-75167727D01*
X119989899Y-74265000D01*
X118190499Y-74265000D01*
X118190499Y-75619900D01*
X117690499Y-75619900D01*
X117690499Y-74265000D01*
X115891099Y-74265000D01*
X115891099Y-75167744D01*
X115897500Y-75227272D01*
X115897502Y-75227279D01*
X115947744Y-75361986D01*
X115947748Y-75361993D01*
X116021333Y-75460289D01*
X116045751Y-75525753D01*
X116030900Y-75594026D01*
X115981495Y-75643432D01*
X115922067Y-75658600D01*
X115290500Y-75658600D01*
X114790500Y-75658600D01*
X114141755Y-75658600D01*
X114082227Y-75665001D01*
X114082217Y-75665003D01*
X113940514Y-75717855D01*
X113870823Y-75722839D01*
X113809500Y-75689353D01*
X113776016Y-75628030D01*
X113775565Y-75625864D01*
X113769909Y-75597430D01*
X113766658Y-75581087D01*
X113737769Y-75511342D01*
X113710087Y-75444511D01*
X113710085Y-75444507D01*
X113710084Y-75444505D01*
X113667314Y-75380495D01*
X113627952Y-75321584D01*
X112943416Y-74637048D01*
X112852745Y-74576465D01*
X112820495Y-74554916D01*
X112820493Y-74554915D01*
X112820490Y-74554913D01*
X112683917Y-74498343D01*
X112683907Y-74498340D01*
X112532943Y-74468311D01*
X112533191Y-74467062D01*
X112474539Y-74443381D01*
X112449908Y-74414172D01*
X112449112Y-74414769D01*
X112357547Y-74292455D01*
X112357544Y-74292452D01*
X112242335Y-74206206D01*
X112242332Y-74206205D01*
X112242331Y-74206204D01*
X112231161Y-74202038D01*
X112175231Y-74160166D01*
X112150816Y-74094701D01*
X112150500Y-74085858D01*
X112150500Y-73911306D01*
X112150499Y-73911304D01*
X112115896Y-73737341D01*
X112115893Y-73737332D01*
X112058116Y-73597844D01*
X113800000Y-73597844D01*
X113806401Y-73657372D01*
X113806403Y-73657379D01*
X113856645Y-73792086D01*
X113856649Y-73792093D01*
X113942809Y-73907187D01*
X113942812Y-73907190D01*
X114057906Y-73993350D01*
X114057913Y-73993354D01*
X114192620Y-74043596D01*
X114192627Y-74043598D01*
X114252155Y-74049999D01*
X114252172Y-74050000D01*
X115750000Y-74050000D01*
X115750000Y-73050000D01*
X113800000Y-73050000D01*
X113800000Y-73597844D01*
X112058116Y-73597844D01*
X112048016Y-73573459D01*
X112048009Y-73573446D01*
X111949464Y-73425965D01*
X111949461Y-73425961D01*
X111824038Y-73300538D01*
X111824034Y-73300535D01*
X111676553Y-73201990D01*
X111676540Y-73201983D01*
X111512667Y-73134106D01*
X111512659Y-73134104D01*
X111443035Y-73120255D01*
X111443034Y-73120254D01*
X111338694Y-73099500D01*
X111338691Y-73099500D01*
X111161309Y-73099500D01*
X111161306Y-73099500D01*
X110987341Y-73134103D01*
X110987332Y-73134106D01*
X110823459Y-73201983D01*
X110823446Y-73201990D01*
X110675965Y-73300535D01*
X110675961Y-73300538D01*
X110550538Y-73425961D01*
X110550535Y-73425965D01*
X110451990Y-73573446D01*
X110451983Y-73573459D01*
X110427061Y-73633629D01*
X110383220Y-73688033D01*
X110316926Y-73710098D01*
X110249227Y-73692819D01*
X110201616Y-73641682D01*
X110197939Y-73633629D01*
X110173016Y-73573459D01*
X110173009Y-73573446D01*
X110074464Y-73425965D01*
X110074461Y-73425961D01*
X109949038Y-73300538D01*
X109949034Y-73300535D01*
X109801553Y-73201990D01*
X109801540Y-73201983D01*
X109637667Y-73134106D01*
X109637658Y-73134103D01*
X109463694Y-73099500D01*
X109463691Y-73099500D01*
X109286309Y-73099500D01*
X109286306Y-73099500D01*
X109112341Y-73134103D01*
X109112332Y-73134106D01*
X108948459Y-73201983D01*
X108948446Y-73201990D01*
X108800965Y-73300535D01*
X108800961Y-73300538D01*
X108675538Y-73425961D01*
X108675535Y-73425965D01*
X108576990Y-73573446D01*
X108576983Y-73573459D01*
X108509106Y-73737332D01*
X108509103Y-73737341D01*
X108474500Y-73911304D01*
X108474500Y-74039235D01*
X108454815Y-74106274D01*
X108402011Y-74152029D01*
X108393834Y-74155417D01*
X108257669Y-74206203D01*
X108257664Y-74206206D01*
X108142455Y-74292452D01*
X108142452Y-74292455D01*
X108056206Y-74407664D01*
X108056202Y-74407671D01*
X108005908Y-74542517D01*
X107999501Y-74602116D01*
X107999500Y-74602135D01*
X104575500Y-74602135D01*
X104575499Y-73425965D01*
X104575499Y-71751129D01*
X104575498Y-71751123D01*
X104575497Y-71751116D01*
X104570293Y-71702696D01*
X104569091Y-71691516D01*
X104518797Y-71556671D01*
X104518793Y-71556664D01*
X104432547Y-71441455D01*
X104432544Y-71441452D01*
X104317335Y-71355206D01*
X104317328Y-71355202D01*
X104182482Y-71304908D01*
X104182483Y-71304908D01*
X104122883Y-71298501D01*
X104122881Y-71298500D01*
X104122873Y-71298500D01*
X104122865Y-71298500D01*
X103316745Y-71298500D01*
X103249706Y-71278815D01*
X103242435Y-71273767D01*
X103232334Y-71266206D01*
X103232328Y-71266202D01*
X103097482Y-71215908D01*
X103097483Y-71215908D01*
X103037883Y-71209501D01*
X103037881Y-71209500D01*
X103037873Y-71209500D01*
X103037864Y-71209500D01*
X101962129Y-71209500D01*
X101962123Y-71209501D01*
X101902516Y-71215908D01*
X101767671Y-71266202D01*
X101767664Y-71266206D01*
X101652455Y-71352452D01*
X101652452Y-71352455D01*
X101566206Y-71467664D01*
X101566202Y-71467671D01*
X101515908Y-71602517D01*
X101510061Y-71656911D01*
X101509500Y-71662127D01*
X101509500Y-73556748D01*
X101509501Y-75325500D01*
X101506950Y-75334185D01*
X101508239Y-75343147D01*
X101497260Y-75367187D01*
X101489816Y-75392539D01*
X101482975Y-75398466D01*
X101479214Y-75406703D01*
X101456979Y-75420992D01*
X101437012Y-75438294D01*
X101426497Y-75440581D01*
X101420436Y-75444477D01*
X101385501Y-75449500D01*
X101244500Y-75449500D01*
X101177461Y-75429815D01*
X101131706Y-75377011D01*
X101120500Y-75325500D01*
X101120499Y-71662129D01*
X101120498Y-71662123D01*
X101120497Y-71662116D01*
X101114091Y-71602517D01*
X101114087Y-71602507D01*
X101063797Y-71467671D01*
X101063793Y-71467664D01*
X100977547Y-71352455D01*
X100977544Y-71352452D01*
X100862335Y-71266206D01*
X100862328Y-71266202D01*
X100727482Y-71215908D01*
X100727483Y-71215908D01*
X100667883Y-71209501D01*
X100667881Y-71209500D01*
X100667873Y-71209500D01*
X100667864Y-71209500D01*
X99592129Y-71209500D01*
X99592123Y-71209501D01*
X99532516Y-71215908D01*
X99397672Y-71266202D01*
X99397666Y-71266205D01*
X99387563Y-71273769D01*
X99322098Y-71298184D01*
X99313255Y-71298500D01*
X98527129Y-71298500D01*
X98527123Y-71298501D01*
X98467516Y-71304908D01*
X98332671Y-71355202D01*
X98332664Y-71355206D01*
X98217455Y-71441452D01*
X98217452Y-71441455D01*
X98131206Y-71556664D01*
X98131202Y-71556671D01*
X98080908Y-71691517D01*
X98074992Y-71746547D01*
X98074501Y-71751123D01*
X98074500Y-71751135D01*
X98074500Y-71875500D01*
X98054815Y-71942539D01*
X98002011Y-71988294D01*
X97950500Y-71999500D01*
X97648920Y-71999500D01*
X97581881Y-71979815D01*
X97574610Y-71974767D01*
X97542334Y-71950606D01*
X97542328Y-71950602D01*
X97407482Y-71900308D01*
X97407483Y-71900308D01*
X97347883Y-71893901D01*
X97347881Y-71893900D01*
X97347873Y-71893900D01*
X97347864Y-71893900D01*
X96036329Y-71893900D01*
X96033005Y-71894079D01*
X96032941Y-71892888D01*
X95968955Y-71881321D01*
X95917835Y-71833692D01*
X95900500Y-71770457D01*
X95900500Y-71661306D01*
X95900499Y-71661304D01*
X95865896Y-71487341D01*
X95865893Y-71487332D01*
X95861106Y-71475776D01*
X95837727Y-71419331D01*
X95798016Y-71323459D01*
X95798009Y-71323446D01*
X95699464Y-71175965D01*
X95699461Y-71175961D01*
X95574038Y-71050538D01*
X95574034Y-71050535D01*
X95426553Y-70951990D01*
X95426541Y-70951983D01*
X95347056Y-70919061D01*
X95292652Y-70875221D01*
X95270587Y-70808927D01*
X95287866Y-70741227D01*
X95339003Y-70693617D01*
X95394508Y-70680500D01*
X96053331Y-70680500D01*
X96053347Y-70680501D01*
X96060943Y-70680501D01*
X96219054Y-70680501D01*
X96219057Y-70680501D01*
X96371785Y-70639577D01*
X96466460Y-70584916D01*
X96508716Y-70560520D01*
X96620520Y-70448716D01*
X96620520Y-70448714D01*
X96630724Y-70438511D01*
X96630728Y-70438506D01*
X96920478Y-70148755D01*
X96981799Y-70115272D01*
X97046473Y-70118506D01*
X97088757Y-70132246D01*
X97298713Y-70165500D01*
X97298714Y-70165500D01*
X97511286Y-70165500D01*
X97511287Y-70165500D01*
X97721243Y-70132246D01*
X97923412Y-70066557D01*
X98112816Y-69970051D01*
X98275283Y-69852013D01*
X98284786Y-69845109D01*
X98284788Y-69845106D01*
X98284792Y-69845104D01*
X98435104Y-69694792D01*
X98435106Y-69694788D01*
X98435109Y-69694786D01*
X98560048Y-69522820D01*
X98560047Y-69522820D01*
X98560051Y-69522816D01*
X98564514Y-69514054D01*
X98612488Y-69463259D01*
X98680308Y-69446463D01*
X98746444Y-69468999D01*
X98785486Y-69514056D01*
X98789951Y-69522820D01*
X98914890Y-69694786D01*
X99065213Y-69845109D01*
X99237179Y-69970048D01*
X99237181Y-69970049D01*
X99237184Y-69970051D01*
X99426588Y-70066557D01*
X99628757Y-70132246D01*
X99838713Y-70165500D01*
X99838714Y-70165500D01*
X100051286Y-70165500D01*
X100051287Y-70165500D01*
X100261243Y-70132246D01*
X100463412Y-70066557D01*
X100652816Y-69970051D01*
X100815283Y-69852013D01*
X100824786Y-69845109D01*
X100824788Y-69845106D01*
X100824792Y-69845104D01*
X100975104Y-69694792D01*
X100975106Y-69694788D01*
X100975109Y-69694786D01*
X101100048Y-69522820D01*
X101100047Y-69522820D01*
X101100051Y-69522816D01*
X101104514Y-69514054D01*
X101152488Y-69463259D01*
X101220308Y-69446463D01*
X101286444Y-69468999D01*
X101325486Y-69514056D01*
X101329951Y-69522820D01*
X101454890Y-69694786D01*
X101605213Y-69845109D01*
X101777179Y-69970048D01*
X101777181Y-69970049D01*
X101777184Y-69970051D01*
X101966588Y-70066557D01*
X102168757Y-70132246D01*
X102378713Y-70165500D01*
X102378714Y-70165500D01*
X102591286Y-70165500D01*
X102591287Y-70165500D01*
X102801243Y-70132246D01*
X103003412Y-70066557D01*
X103192816Y-69970051D01*
X103355283Y-69852013D01*
X103364786Y-69845109D01*
X103364788Y-69845106D01*
X103364792Y-69845104D01*
X103515104Y-69694792D01*
X103515106Y-69694788D01*
X103515109Y-69694786D01*
X103640048Y-69522820D01*
X103640047Y-69522820D01*
X103640051Y-69522816D01*
X103736557Y-69333412D01*
X103802246Y-69131243D01*
X103835500Y-68921287D01*
X103835500Y-68708713D01*
X103802246Y-68498757D01*
X103736557Y-68296588D01*
X103640051Y-68107184D01*
X103640049Y-68107181D01*
X103640048Y-68107179D01*
X103515109Y-67935213D01*
X103364786Y-67784890D01*
X103192820Y-67659951D01*
X103192115Y-67659591D01*
X103184054Y-67655485D01*
X103133259Y-67607512D01*
X103116463Y-67539692D01*
X103138999Y-67473556D01*
X103184054Y-67434515D01*
X103192816Y-67430051D01*
X103245627Y-67391682D01*
X103364786Y-67305109D01*
X103364788Y-67305106D01*
X103364792Y-67305104D01*
X103515104Y-67154792D01*
X103515106Y-67154788D01*
X103515109Y-67154786D01*
X103640048Y-66982820D01*
X103640047Y-66982820D01*
X103640051Y-66982816D01*
X103736557Y-66793412D01*
X103802246Y-66591243D01*
X103835500Y-66381287D01*
X103835500Y-66168713D01*
X103802246Y-65958757D01*
X103792648Y-65929220D01*
X103792152Y-65911834D01*
X103786659Y-65895331D01*
X103791174Y-65877638D01*
X103790653Y-65859383D01*
X103799636Y-65844485D01*
X103803938Y-65827632D01*
X103817302Y-65815189D01*
X103826733Y-65799550D01*
X103842343Y-65791874D01*
X103855075Y-65780021D01*
X103873046Y-65776778D01*
X103889434Y-65768721D01*
X103906928Y-65770665D01*
X103923834Y-65767615D01*
X103958031Y-65776343D01*
G37*
%TD.AperFunction*%
%TA.AperFunction,Conductor*%
G36*
X93797531Y-70700185D02*
G01*
X93843286Y-70752989D01*
X93853230Y-70822147D01*
X93824205Y-70885703D01*
X93777944Y-70919061D01*
X93698458Y-70951983D01*
X93698446Y-70951990D01*
X93550965Y-71050535D01*
X93550961Y-71050538D01*
X93425538Y-71175961D01*
X93425535Y-71175965D01*
X93326990Y-71323446D01*
X93326983Y-71323459D01*
X93259106Y-71487332D01*
X93259103Y-71487341D01*
X93224500Y-71661304D01*
X93224500Y-71838695D01*
X93260294Y-72018641D01*
X93258423Y-72019013D01*
X93258963Y-72080027D01*
X93255864Y-72089479D01*
X93205908Y-72223417D01*
X93199501Y-72283016D01*
X93199500Y-72283035D01*
X93199500Y-73216970D01*
X93199501Y-73216976D01*
X93205908Y-73276583D01*
X93256202Y-73411428D01*
X93256206Y-73411435D01*
X93342452Y-73526644D01*
X93342455Y-73526647D01*
X93457664Y-73612893D01*
X93457671Y-73612897D01*
X93592517Y-73663191D01*
X93592516Y-73663191D01*
X93599444Y-73663935D01*
X93652127Y-73669600D01*
X95497072Y-73669599D01*
X95556683Y-73663191D01*
X95691531Y-73612896D01*
X95743938Y-73573663D01*
X95809399Y-73549246D01*
X95861580Y-73556747D01*
X95906369Y-73573453D01*
X95976717Y-73599691D01*
X95976716Y-73599691D01*
X95983644Y-73600435D01*
X96036327Y-73606100D01*
X97347872Y-73606099D01*
X97407483Y-73599691D01*
X97542331Y-73549396D01*
X97556978Y-73538431D01*
X97574610Y-73525233D01*
X97640074Y-73500816D01*
X97648920Y-73500500D01*
X97950501Y-73500500D01*
X98017540Y-73520185D01*
X98063295Y-73572989D01*
X98074501Y-73624500D01*
X98074501Y-75105500D01*
X98054816Y-75172539D01*
X98002012Y-75218294D01*
X97950501Y-75229500D01*
X97437498Y-75229500D01*
X97437480Y-75229501D01*
X97334703Y-75240000D01*
X97334700Y-75240001D01*
X97168168Y-75295185D01*
X97168163Y-75295187D01*
X97018842Y-75387289D01*
X96894789Y-75511342D01*
X96802687Y-75660663D01*
X96802685Y-75660668D01*
X96801249Y-75665003D01*
X96747501Y-75827203D01*
X96747501Y-75827204D01*
X96747500Y-75827204D01*
X96737000Y-75929983D01*
X96737000Y-76307402D01*
X96717315Y-76374441D01*
X96700681Y-76395083D01*
X96244481Y-76851282D01*
X96244480Y-76851284D01*
X96211678Y-76908100D01*
X96194361Y-76938094D01*
X96194359Y-76938096D01*
X96165425Y-76988209D01*
X96165424Y-76988210D01*
X96165423Y-76988215D01*
X96124499Y-77140943D01*
X96124499Y-77140945D01*
X96124499Y-77309046D01*
X96124500Y-77309059D01*
X96124500Y-78775830D01*
X96124499Y-78775848D01*
X96124499Y-78941554D01*
X96124498Y-78941554D01*
X96165423Y-79094285D01*
X96175556Y-79111835D01*
X96175557Y-79111838D01*
X96244475Y-79231209D01*
X96244481Y-79231217D01*
X96363349Y-79350085D01*
X96363355Y-79350090D01*
X96520681Y-79507416D01*
X96554166Y-79568739D01*
X96557000Y-79595097D01*
X96557000Y-80370001D01*
X96557001Y-80370019D01*
X96567500Y-80472796D01*
X96567501Y-80472799D01*
X96622685Y-80639331D01*
X96622687Y-80639336D01*
X96638517Y-80665000D01*
X96714788Y-80788656D01*
X96838844Y-80912712D01*
X96988166Y-81004814D01*
X97154703Y-81059999D01*
X97257491Y-81070500D01*
X97462637Y-81070499D01*
X97529676Y-81090183D01*
X97575431Y-81142987D01*
X97585375Y-81212145D01*
X97584257Y-81218674D01*
X97580750Y-81236309D01*
X97580750Y-81413691D01*
X97580750Y-81413693D01*
X97580749Y-81413693D01*
X97587533Y-81447793D01*
X97581306Y-81517385D01*
X97553597Y-81559666D01*
X96750084Y-82363181D01*
X96688761Y-82396666D01*
X96662403Y-82399500D01*
X78800097Y-82399500D01*
X78733058Y-82379815D01*
X78712416Y-82363181D01*
X77643760Y-81294525D01*
X77610275Y-81233202D01*
X77615259Y-81163510D01*
X77657131Y-81107577D01*
X77690763Y-81090888D01*
X77690506Y-81090244D01*
X77696337Y-81087914D01*
X77696343Y-81087910D01*
X77696349Y-81087909D01*
X77876707Y-80993698D01*
X78014940Y-80880983D01*
X78079335Y-80853875D01*
X78148165Y-80865884D01*
X78171657Y-80880981D01*
X78309893Y-80993698D01*
X78490251Y-81087909D01*
X78685882Y-81143886D01*
X78805263Y-81154500D01*
X79921336Y-81154499D01*
X80040718Y-81143886D01*
X80236349Y-81087909D01*
X80416707Y-80993698D01*
X80554940Y-80880983D01*
X80619335Y-80853875D01*
X80688165Y-80865884D01*
X80711657Y-80880981D01*
X80849893Y-80993698D01*
X81030251Y-81087909D01*
X81225882Y-81143886D01*
X81345263Y-81154500D01*
X82461336Y-81154499D01*
X82580718Y-81143886D01*
X82776349Y-81087909D01*
X82956707Y-80993698D01*
X83094940Y-80880983D01*
X83159335Y-80853875D01*
X83228165Y-80865884D01*
X83251657Y-80880981D01*
X83389893Y-80993698D01*
X83570251Y-81087909D01*
X83765882Y-81143886D01*
X83885263Y-81154500D01*
X85001336Y-81154499D01*
X85120718Y-81143886D01*
X85316349Y-81087909D01*
X85496707Y-80993698D01*
X85634940Y-80880983D01*
X85699335Y-80853875D01*
X85768165Y-80865884D01*
X85791657Y-80880981D01*
X85929893Y-80993698D01*
X86110251Y-81087909D01*
X86305882Y-81143886D01*
X86425263Y-81154500D01*
X87541336Y-81154499D01*
X87660718Y-81143886D01*
X87856349Y-81087909D01*
X88036707Y-80993698D01*
X88174940Y-80880983D01*
X88239335Y-80853875D01*
X88308165Y-80865884D01*
X88331657Y-80880981D01*
X88469893Y-80993698D01*
X88650251Y-81087909D01*
X88845882Y-81143886D01*
X88965263Y-81154500D01*
X90081336Y-81154499D01*
X90200718Y-81143886D01*
X90396349Y-81087909D01*
X90576707Y-80993698D01*
X90734409Y-80865109D01*
X90862998Y-80707407D01*
X90866813Y-80700104D01*
X90915298Y-80649796D01*
X90983285Y-80633687D01*
X91045612Y-80654410D01*
X91073453Y-80673013D01*
X91073456Y-80673014D01*
X91073457Y-80673015D01*
X91114444Y-80689992D01*
X91237334Y-80740894D01*
X91237336Y-80740894D01*
X91237341Y-80740896D01*
X91411304Y-80775499D01*
X91411307Y-80775500D01*
X91411309Y-80775500D01*
X91588693Y-80775500D01*
X91588694Y-80775499D01*
X91646682Y-80763964D01*
X91762658Y-80740896D01*
X91762661Y-80740894D01*
X91762666Y-80740894D01*
X91926547Y-80673013D01*
X91926550Y-80673010D01*
X91926552Y-80673010D01*
X91966378Y-80646399D01*
X92033055Y-80625520D01*
X92035270Y-80625500D01*
X92725501Y-80625500D01*
X92792540Y-80645185D01*
X92838295Y-80697989D01*
X92849501Y-80749500D01*
X92849501Y-81425018D01*
X92860000Y-81527796D01*
X92860001Y-81527799D01*
X92913753Y-81690009D01*
X92915186Y-81694334D01*
X93007288Y-81843656D01*
X93131344Y-81967712D01*
X93280666Y-82059814D01*
X93447203Y-82114999D01*
X93549991Y-82125500D01*
X94950008Y-82125499D01*
X95052797Y-82114999D01*
X95219334Y-82059814D01*
X95368656Y-81967712D01*
X95492712Y-81843656D01*
X95584814Y-81694334D01*
X95639999Y-81527797D01*
X95650500Y-81425009D01*
X95650499Y-79324992D01*
X95642838Y-79250000D01*
X95639999Y-79222203D01*
X95639998Y-79222200D01*
X95636703Y-79212255D01*
X95584814Y-79055666D01*
X95492712Y-78906344D01*
X95368656Y-78782288D01*
X95219334Y-78690186D01*
X95052797Y-78635001D01*
X95052795Y-78635000D01*
X94950010Y-78624500D01*
X93549998Y-78624500D01*
X93549981Y-78624501D01*
X93447203Y-78635000D01*
X93447200Y-78635001D01*
X93280668Y-78690185D01*
X93280663Y-78690187D01*
X93131342Y-78782289D01*
X93007289Y-78906342D01*
X93007288Y-78906344D01*
X92924541Y-79040500D01*
X92911395Y-79061813D01*
X92909600Y-79060706D01*
X92870313Y-79105337D01*
X92804092Y-79124500D01*
X92035270Y-79124500D01*
X91968231Y-79104815D01*
X91966378Y-79103601D01*
X91926552Y-79076989D01*
X91926547Y-79076987D01*
X91762667Y-79009106D01*
X91762658Y-79009103D01*
X91588694Y-78974500D01*
X91588691Y-78974500D01*
X91411309Y-78974500D01*
X91411306Y-78974500D01*
X91237341Y-79009103D01*
X91237341Y-79009104D01*
X91237338Y-79009105D01*
X91237334Y-79009106D01*
X91195248Y-79026538D01*
X91125781Y-79034006D01*
X91063302Y-79002730D01*
X91027650Y-78942641D01*
X91023799Y-78911976D01*
X91023799Y-78345971D01*
X91023799Y-78345964D01*
X91013186Y-78226582D01*
X90957209Y-78030951D01*
X90957209Y-78030950D01*
X90927923Y-77974886D01*
X90914331Y-77906351D01*
X90939949Y-77841348D01*
X90996645Y-77800514D01*
X91066416Y-77796814D01*
X91085281Y-77802912D01*
X91237334Y-77865894D01*
X91237336Y-77865894D01*
X91237341Y-77865896D01*
X91411304Y-77900499D01*
X91411307Y-77900500D01*
X91411309Y-77900500D01*
X91588693Y-77900500D01*
X91588694Y-77900499D01*
X91646682Y-77888964D01*
X91762658Y-77865896D01*
X91762661Y-77865894D01*
X91762666Y-77865894D01*
X91926547Y-77798013D01*
X91926550Y-77798010D01*
X91926552Y-77798010D01*
X91966378Y-77771399D01*
X92033055Y-77750520D01*
X92035270Y-77750500D01*
X92880622Y-77750500D01*
X92947661Y-77770185D01*
X92986159Y-77809401D01*
X93007288Y-77843656D01*
X93131344Y-77967712D01*
X93280666Y-78059814D01*
X93447203Y-78114999D01*
X93549991Y-78125500D01*
X94950008Y-78125499D01*
X95052797Y-78114999D01*
X95219334Y-78059814D01*
X95368656Y-77967712D01*
X95492712Y-77843656D01*
X95584814Y-77694334D01*
X95639999Y-77527797D01*
X95650500Y-77425009D01*
X95650499Y-75324992D01*
X95644101Y-75262364D01*
X95639999Y-75222203D01*
X95639998Y-75222200D01*
X95635452Y-75208482D01*
X95584814Y-75055666D01*
X95492712Y-74906344D01*
X95368656Y-74782288D01*
X95219334Y-74690186D01*
X95052797Y-74635001D01*
X95052795Y-74635000D01*
X94950010Y-74624500D01*
X93549998Y-74624500D01*
X93549981Y-74624501D01*
X93447203Y-74635000D01*
X93447200Y-74635001D01*
X93280668Y-74690185D01*
X93280663Y-74690187D01*
X93131342Y-74782289D01*
X93007289Y-74906342D01*
X92915187Y-75055663D01*
X92915185Y-75055668D01*
X92887349Y-75139670D01*
X92860001Y-75222203D01*
X92860001Y-75222204D01*
X92860000Y-75222204D01*
X92849500Y-75324983D01*
X92849500Y-76125500D01*
X92829815Y-76192539D01*
X92777011Y-76238294D01*
X92725500Y-76249500D01*
X92035270Y-76249500D01*
X91968231Y-76229815D01*
X91966378Y-76228601D01*
X91926552Y-76201989D01*
X91926547Y-76201987D01*
X91762667Y-76134106D01*
X91762658Y-76134103D01*
X91588694Y-76099500D01*
X91588691Y-76099500D01*
X91411309Y-76099500D01*
X91411306Y-76099500D01*
X91237341Y-76134103D01*
X91237332Y-76134106D01*
X91073459Y-76201983D01*
X91073446Y-76201990D01*
X90925965Y-76300535D01*
X90925961Y-76300538D01*
X90800538Y-76425961D01*
X90800535Y-76425965D01*
X90701990Y-76573446D01*
X90701983Y-76573459D01*
X90634106Y-76737332D01*
X90634103Y-76737341D01*
X90599500Y-76911304D01*
X90599500Y-77088695D01*
X90634103Y-77262658D01*
X90634105Y-77262664D01*
X90634106Y-77262666D01*
X90674724Y-77360728D01*
X90678732Y-77370403D01*
X90686200Y-77439873D01*
X90654924Y-77502352D01*
X90594835Y-77538004D01*
X90525010Y-77535509D01*
X90506759Y-77527764D01*
X90396348Y-77470090D01*
X90213688Y-77417825D01*
X90154650Y-77380457D01*
X90125187Y-77317104D01*
X90123800Y-77298609D01*
X90123800Y-72571797D01*
X90143485Y-72504758D01*
X90160119Y-72484116D01*
X91927416Y-70716819D01*
X91988739Y-70683334D01*
X92015097Y-70680500D01*
X93730492Y-70680500D01*
X93797531Y-70700185D01*
G37*
%TD.AperFunction*%
%TA.AperFunction,Conductor*%
G36*
X93726942Y-60945185D02*
G01*
X93747584Y-60961819D01*
X94163181Y-61377416D01*
X94196666Y-61438739D01*
X94199500Y-61465097D01*
X94199500Y-62230001D01*
X94199501Y-62230019D01*
X94210000Y-62332796D01*
X94210001Y-62332799D01*
X94265185Y-62499331D01*
X94265187Y-62499336D01*
X94289964Y-62539506D01*
X94357288Y-62648656D01*
X94481344Y-62772712D01*
X94630666Y-62864814D01*
X94797203Y-62919999D01*
X94899991Y-62930500D01*
X95525008Y-62930499D01*
X95525016Y-62930498D01*
X95525019Y-62930498D01*
X95603245Y-62922507D01*
X95627797Y-62919999D01*
X95794334Y-62864814D01*
X95943656Y-62772712D01*
X96037319Y-62679049D01*
X96040097Y-62677531D01*
X96041750Y-62674831D01*
X96070563Y-62660896D01*
X96098642Y-62645564D01*
X96101799Y-62645789D01*
X96104650Y-62644411D01*
X96136416Y-62648265D01*
X96168334Y-62650548D01*
X96171812Y-62652560D01*
X96174011Y-62652827D01*
X96184108Y-62659673D01*
X96204116Y-62671249D01*
X96208579Y-62674947D01*
X96306344Y-62772712D01*
X96385457Y-62821509D01*
X96392116Y-62827026D01*
X96407008Y-62849111D01*
X96424821Y-62868915D01*
X96427087Y-62878890D01*
X96431178Y-62884956D01*
X96431469Y-62898170D01*
X96437000Y-62922507D01*
X96437000Y-63545830D01*
X96436999Y-63545848D01*
X96436999Y-63711554D01*
X96436998Y-63711554D01*
X96477923Y-63864285D01*
X96485965Y-63878215D01*
X96503993Y-63909439D01*
X96555892Y-63999332D01*
X96556979Y-64001214D01*
X96556981Y-64001217D01*
X96675849Y-64120085D01*
X96675855Y-64120090D01*
X96768181Y-64212416D01*
X96801666Y-64273739D01*
X96804500Y-64300097D01*
X96804500Y-64989281D01*
X96784815Y-65056320D01*
X96736795Y-65099765D01*
X96697185Y-65119947D01*
X96697184Y-65119948D01*
X96525213Y-65244890D01*
X96374890Y-65395213D01*
X96249949Y-65567182D01*
X96245484Y-65575946D01*
X96197509Y-65626742D01*
X96129688Y-65643536D01*
X96063553Y-65620998D01*
X96024516Y-65575946D01*
X96020050Y-65567182D01*
X95895109Y-65395213D01*
X95744786Y-65244890D01*
X95572820Y-65119951D01*
X95383414Y-65023444D01*
X95383413Y-65023443D01*
X95383412Y-65023443D01*
X95181243Y-64957754D01*
X95181241Y-64957753D01*
X95181240Y-64957753D01*
X95019957Y-64932208D01*
X94971287Y-64924500D01*
X94758713Y-64924500D01*
X94710042Y-64932208D01*
X94548760Y-64957753D01*
X94346585Y-65023444D01*
X94157179Y-65119951D01*
X93985213Y-65244890D01*
X93834890Y-65395213D01*
X93709951Y-65567179D01*
X93613444Y-65756585D01*
X93547753Y-65958760D01*
X93514500Y-66168713D01*
X93514500Y-66381286D01*
X93547415Y-66589106D01*
X93547754Y-66591243D01*
X93601136Y-66755536D01*
X93613444Y-66793414D01*
X93709951Y-66982820D01*
X93834890Y-67154786D01*
X93985213Y-67305109D01*
X94157179Y-67430048D01*
X94157181Y-67430049D01*
X94157184Y-67430051D01*
X94346588Y-67526557D01*
X94548757Y-67592246D01*
X94758713Y-67625500D01*
X94758714Y-67625500D01*
X94971286Y-67625500D01*
X94971287Y-67625500D01*
X95181243Y-67592246D01*
X95383412Y-67526557D01*
X95572816Y-67430051D01*
X95625627Y-67391682D01*
X95744786Y-67305109D01*
X95744788Y-67305106D01*
X95744792Y-67305104D01*
X95895104Y-67154792D01*
X95895106Y-67154788D01*
X95895109Y-67154786D01*
X96020048Y-66982820D01*
X96020047Y-66982820D01*
X96020051Y-66982816D01*
X96024514Y-66974054D01*
X96072488Y-66923259D01*
X96140308Y-66906463D01*
X96206444Y-66928999D01*
X96245484Y-66974054D01*
X96249591Y-66982115D01*
X96249951Y-66982820D01*
X96374890Y-67154786D01*
X96525213Y-67305109D01*
X96697182Y-67430050D01*
X96705946Y-67434516D01*
X96756742Y-67482491D01*
X96773536Y-67550312D01*
X96750998Y-67616447D01*
X96705946Y-67655484D01*
X96697182Y-67659949D01*
X96525213Y-67784890D01*
X96374890Y-67935213D01*
X96249951Y-68107179D01*
X96153444Y-68296585D01*
X96087753Y-68498760D01*
X96057514Y-68689685D01*
X96054500Y-68708713D01*
X96054500Y-68921287D01*
X96066872Y-68999402D01*
X96087754Y-69131244D01*
X96087754Y-69131247D01*
X96101491Y-69173523D01*
X96101925Y-69188734D01*
X96107244Y-69202994D01*
X96102902Y-69222950D01*
X96103486Y-69243364D01*
X96095398Y-69257449D01*
X96092393Y-69271267D01*
X96071241Y-69299522D01*
X95927582Y-69443182D01*
X95866262Y-69476666D01*
X95839903Y-69479500D01*
X91801669Y-69479500D01*
X91801653Y-69479499D01*
X91794057Y-69479499D01*
X91635943Y-69479499D01*
X91521397Y-69510192D01*
X91483214Y-69520423D01*
X91479070Y-69522816D01*
X91471847Y-69526987D01*
X91471585Y-69527138D01*
X91471583Y-69527139D01*
X91346287Y-69599477D01*
X91346282Y-69599481D01*
X89042781Y-71902982D01*
X89042775Y-71902990D01*
X89002152Y-71973353D01*
X89002151Y-71973356D01*
X88976174Y-72018348D01*
X88925607Y-72066562D01*
X88856999Y-72079784D01*
X88802817Y-72061340D01*
X88748607Y-72027278D01*
X88583662Y-71969560D01*
X88576869Y-71968010D01*
X88577488Y-71965297D01*
X88528199Y-71945407D01*
X88381782Y-71833058D01*
X88381780Y-71833057D01*
X88381774Y-71833052D01*
X88188726Y-71721595D01*
X88188722Y-71721593D01*
X88181488Y-71718596D01*
X88127088Y-71674751D01*
X88105028Y-71608455D01*
X88114388Y-71556585D01*
X88131447Y-71515399D01*
X87435000Y-70818952D01*
X86738551Y-71515399D01*
X86755611Y-71556586D01*
X86763080Y-71626055D01*
X86731805Y-71688534D01*
X86688515Y-71718594D01*
X86681284Y-71721590D01*
X86681273Y-71721595D01*
X86503106Y-71824461D01*
X86488226Y-71833052D01*
X86408747Y-71894038D01*
X86341799Y-71945408D01*
X86292513Y-71965304D01*
X86293131Y-71968010D01*
X86286337Y-71969560D01*
X86121395Y-72027277D01*
X85973423Y-72120253D01*
X85849853Y-72243823D01*
X85756877Y-72391795D01*
X85699159Y-72556741D01*
X85699157Y-72556751D01*
X85684500Y-72686841D01*
X85684500Y-73323958D01*
X85699157Y-73454048D01*
X85699159Y-73454058D01*
X85756878Y-73619007D01*
X85775717Y-73648989D01*
X85790498Y-73682866D01*
X85821291Y-73797785D01*
X85906593Y-74003722D01*
X85906595Y-74003726D01*
X86018052Y-74196774D01*
X86018057Y-74196780D01*
X86018058Y-74196782D01*
X86153751Y-74373622D01*
X86153757Y-74373629D01*
X86311370Y-74531242D01*
X86311377Y-74531248D01*
X86432906Y-74624500D01*
X86488226Y-74666948D01*
X86681274Y-74778405D01*
X86887219Y-74863710D01*
X87102537Y-74921404D01*
X87323543Y-74950500D01*
X87323550Y-74950500D01*
X87546450Y-74950500D01*
X87546457Y-74950500D01*
X87767463Y-74921404D01*
X87982781Y-74863710D01*
X88188726Y-74778405D01*
X88381774Y-74666948D01*
X88558624Y-74531247D01*
X88632283Y-74457588D01*
X88711119Y-74378753D01*
X88772442Y-74345268D01*
X88842134Y-74350252D01*
X88898067Y-74392124D01*
X88922484Y-74457588D01*
X88922800Y-74466434D01*
X88922800Y-77298609D01*
X88903115Y-77365648D01*
X88850311Y-77411403D01*
X88832912Y-77417825D01*
X88650253Y-77470090D01*
X88650251Y-77470090D01*
X88650251Y-77470091D01*
X88469893Y-77564302D01*
X88469891Y-77564303D01*
X88469890Y-77564304D01*
X88331661Y-77677015D01*
X88267264Y-77704124D01*
X88198435Y-77692115D01*
X88174939Y-77677015D01*
X88111685Y-77625438D01*
X88036707Y-77564302D01*
X87856349Y-77470091D01*
X87856348Y-77470090D01*
X87856345Y-77470089D01*
X87704169Y-77426547D01*
X87660718Y-77414114D01*
X87660715Y-77414113D01*
X87660713Y-77414113D01*
X87594402Y-77408217D01*
X87541337Y-77403500D01*
X87541332Y-77403500D01*
X86425271Y-77403500D01*
X86425265Y-77403500D01*
X86425264Y-77403501D01*
X86413616Y-77404536D01*
X86305884Y-77414113D01*
X86110254Y-77470089D01*
X86076358Y-77487795D01*
X85929893Y-77564302D01*
X85929891Y-77564303D01*
X85929890Y-77564304D01*
X85791661Y-77677015D01*
X85727264Y-77704124D01*
X85658435Y-77692115D01*
X85634939Y-77677015D01*
X85571685Y-77625438D01*
X85496707Y-77564302D01*
X85316349Y-77470091D01*
X85316348Y-77470090D01*
X85316345Y-77470089D01*
X85164169Y-77426547D01*
X85120718Y-77414114D01*
X85120715Y-77414113D01*
X85120713Y-77414113D01*
X85054402Y-77408217D01*
X85001337Y-77403500D01*
X85001332Y-77403500D01*
X83885271Y-77403500D01*
X83885265Y-77403500D01*
X83885264Y-77403501D01*
X83873616Y-77404536D01*
X83765884Y-77414113D01*
X83570254Y-77470089D01*
X83536358Y-77487795D01*
X83389893Y-77564302D01*
X83389891Y-77564303D01*
X83389890Y-77564304D01*
X83251661Y-77677015D01*
X83187264Y-77704124D01*
X83118435Y-77692115D01*
X83094939Y-77677015D01*
X83031685Y-77625438D01*
X82956707Y-77564302D01*
X82776349Y-77470091D01*
X82776348Y-77470090D01*
X82776345Y-77470089D01*
X82624169Y-77426547D01*
X82580718Y-77414114D01*
X82580715Y-77414113D01*
X82580713Y-77414113D01*
X82514402Y-77408217D01*
X82461337Y-77403500D01*
X82461332Y-77403500D01*
X81345271Y-77403500D01*
X81345265Y-77403500D01*
X81345264Y-77403501D01*
X81333616Y-77404536D01*
X81225884Y-77414113D01*
X81030254Y-77470089D01*
X80996358Y-77487795D01*
X80849893Y-77564302D01*
X80849891Y-77564303D01*
X80849890Y-77564304D01*
X80711661Y-77677015D01*
X80647264Y-77704124D01*
X80578435Y-77692115D01*
X80554939Y-77677015D01*
X80491685Y-77625438D01*
X80416707Y-77564302D01*
X80236349Y-77470091D01*
X80236348Y-77470090D01*
X80236345Y-77470089D01*
X80084169Y-77426547D01*
X80040718Y-77414114D01*
X80040715Y-77414113D01*
X80040713Y-77414113D01*
X79974402Y-77408217D01*
X79921337Y-77403500D01*
X79921332Y-77403500D01*
X78805271Y-77403500D01*
X78805265Y-77403500D01*
X78805264Y-77403501D01*
X78793616Y-77404536D01*
X78685884Y-77414113D01*
X78490254Y-77470089D01*
X78456358Y-77487795D01*
X78309893Y-77564302D01*
X78309891Y-77564303D01*
X78309890Y-77564304D01*
X78171661Y-77677015D01*
X78107264Y-77704124D01*
X78038435Y-77692115D01*
X78014939Y-77677015D01*
X77951685Y-77625438D01*
X77876707Y-77564302D01*
X77696349Y-77470091D01*
X77696348Y-77470090D01*
X77696345Y-77470089D01*
X77544169Y-77426547D01*
X77500718Y-77414114D01*
X77500715Y-77414113D01*
X77500713Y-77414113D01*
X77434402Y-77408217D01*
X77381337Y-77403500D01*
X77381332Y-77403500D01*
X76265271Y-77403500D01*
X76265265Y-77403500D01*
X76265264Y-77403501D01*
X76253616Y-77404536D01*
X76145884Y-77414113D01*
X75950254Y-77470089D01*
X75916358Y-77487795D01*
X75769893Y-77564302D01*
X75769891Y-77564303D01*
X75769890Y-77564304D01*
X75631661Y-77677015D01*
X75567264Y-77704124D01*
X75498435Y-77692115D01*
X75474939Y-77677015D01*
X75411685Y-77625438D01*
X75336707Y-77564302D01*
X75156349Y-77470091D01*
X75156346Y-77470090D01*
X74973688Y-77417825D01*
X74914650Y-77380457D01*
X74885187Y-77317104D01*
X74883800Y-77298609D01*
X74883800Y-71036304D01*
X79099500Y-71036304D01*
X79099500Y-71213695D01*
X79134103Y-71387658D01*
X79134106Y-71387667D01*
X79201983Y-71551540D01*
X79201990Y-71551553D01*
X79300535Y-71699034D01*
X79300538Y-71699038D01*
X79425961Y-71824461D01*
X79425965Y-71824464D01*
X79573446Y-71923009D01*
X79573459Y-71923016D01*
X79685826Y-71969559D01*
X79737334Y-71990894D01*
X79737336Y-71990894D01*
X79737341Y-71990896D01*
X79911304Y-72025499D01*
X79911307Y-72025500D01*
X79911309Y-72025500D01*
X80088693Y-72025500D01*
X80088694Y-72025499D01*
X80146682Y-72013964D01*
X80262658Y-71990896D01*
X80262661Y-71990894D01*
X80262666Y-71990894D01*
X80408414Y-71930524D01*
X80426540Y-71923016D01*
X80426540Y-71923015D01*
X80426547Y-71923013D01*
X80574035Y-71824464D01*
X80613687Y-71784812D01*
X80662319Y-71736181D01*
X80723642Y-71702696D01*
X80793334Y-71707680D01*
X80837681Y-71736181D01*
X80925961Y-71824461D01*
X80925965Y-71824464D01*
X81073446Y-71923009D01*
X81073459Y-71923016D01*
X81185826Y-71969559D01*
X81237334Y-71990894D01*
X81237336Y-71990894D01*
X81237341Y-71990896D01*
X81411304Y-72025499D01*
X81411307Y-72025500D01*
X81411309Y-72025500D01*
X81588693Y-72025500D01*
X81588694Y-72025499D01*
X81646682Y-72013964D01*
X81762658Y-71990896D01*
X81762661Y-71990894D01*
X81762666Y-71990894D01*
X81908414Y-71930524D01*
X81926540Y-71923016D01*
X81926540Y-71923015D01*
X81926547Y-71923013D01*
X82074035Y-71824464D01*
X82199464Y-71699035D01*
X82298013Y-71551547D01*
X82301857Y-71542268D01*
X82312986Y-71515399D01*
X82365894Y-71387666D01*
X82372724Y-71353333D01*
X82395161Y-71240533D01*
X82400500Y-71213691D01*
X82400500Y-71036309D01*
X82400500Y-71036306D01*
X82400499Y-71036304D01*
X82365896Y-70862341D01*
X82365893Y-70862332D01*
X82298016Y-70698459D01*
X82298009Y-70698446D01*
X82199464Y-70550965D01*
X82199461Y-70550961D01*
X82074038Y-70425538D01*
X82074034Y-70425535D01*
X81926553Y-70326990D01*
X81926541Y-70326983D01*
X81762667Y-70259106D01*
X81762658Y-70259103D01*
X81588694Y-70224500D01*
X81588691Y-70224500D01*
X81411309Y-70224500D01*
X81411306Y-70224500D01*
X81237341Y-70259103D01*
X81237332Y-70259106D01*
X81073459Y-70326983D01*
X81073446Y-70326990D01*
X80925965Y-70425535D01*
X80925961Y-70425538D01*
X80837681Y-70513819D01*
X80776358Y-70547304D01*
X80706666Y-70542320D01*
X80662319Y-70513819D01*
X80574038Y-70425538D01*
X80574034Y-70425535D01*
X80426553Y-70326990D01*
X80426540Y-70326983D01*
X80262667Y-70259106D01*
X80262658Y-70259103D01*
X80088694Y-70224500D01*
X80088691Y-70224500D01*
X79911309Y-70224500D01*
X79911306Y-70224500D01*
X79737341Y-70259103D01*
X79737332Y-70259106D01*
X79573459Y-70326983D01*
X79573446Y-70326990D01*
X79425965Y-70425535D01*
X79425961Y-70425538D01*
X79300538Y-70550961D01*
X79300535Y-70550965D01*
X79201990Y-70698446D01*
X79201983Y-70698459D01*
X79134106Y-70862332D01*
X79134103Y-70862341D01*
X79099500Y-71036304D01*
X74883800Y-71036304D01*
X74883800Y-70146869D01*
X85685000Y-70146869D01*
X85685000Y-70783930D01*
X85699648Y-70913939D01*
X85757330Y-71078786D01*
X85850246Y-71226662D01*
X85973740Y-71350156D01*
X86110659Y-71436187D01*
X86110660Y-71436187D01*
X87081448Y-70465400D01*
X87081447Y-70465399D01*
X87788552Y-70465399D01*
X87788552Y-70465400D01*
X88759338Y-71436186D01*
X88896259Y-71350155D01*
X88896262Y-71350153D01*
X89019753Y-71226662D01*
X89112669Y-71078786D01*
X89170351Y-70913939D01*
X89184999Y-70783930D01*
X89185000Y-70783926D01*
X89185000Y-70146873D01*
X89184999Y-70146869D01*
X89170351Y-70016860D01*
X89112669Y-69852013D01*
X89019753Y-69704137D01*
X88896262Y-69580646D01*
X88759338Y-69494612D01*
X87788552Y-70465399D01*
X87081447Y-70465399D01*
X86110660Y-69494612D01*
X85973737Y-69580646D01*
X85850246Y-69704137D01*
X85757330Y-69852013D01*
X85699648Y-70016860D01*
X85685000Y-70146869D01*
X74883800Y-70146869D01*
X74883800Y-69415400D01*
X86738551Y-69415400D01*
X87435000Y-70111848D01*
X88131448Y-69415400D01*
X86738551Y-69415400D01*
X74883800Y-69415400D01*
X74883800Y-68516797D01*
X74903485Y-68449758D01*
X74920119Y-68429116D01*
X76337416Y-67011819D01*
X76398739Y-66978334D01*
X76425097Y-66975500D01*
X84400639Y-66975500D01*
X84467678Y-66995185D01*
X84488315Y-67011814D01*
X84521862Y-67045361D01*
X84550966Y-67074465D01*
X84698446Y-67173009D01*
X84698459Y-67173016D01*
X84821363Y-67223923D01*
X84862334Y-67240894D01*
X84862336Y-67240894D01*
X84862341Y-67240896D01*
X85036304Y-67275499D01*
X85036307Y-67275500D01*
X85036309Y-67275500D01*
X85213693Y-67275500D01*
X85213694Y-67275499D01*
X85306948Y-67256950D01*
X85387658Y-67240896D01*
X85387661Y-67240894D01*
X85387666Y-67240894D01*
X85551547Y-67173013D01*
X85699035Y-67074464D01*
X85824464Y-66949035D01*
X85923013Y-66801547D01*
X85990894Y-66637666D01*
X85997036Y-66606792D01*
X86025499Y-66463695D01*
X86025500Y-66463693D01*
X86025500Y-66286306D01*
X86025499Y-66286304D01*
X85990896Y-66112341D01*
X85990893Y-66112332D01*
X85923016Y-65948459D01*
X85923009Y-65948446D01*
X85824464Y-65800965D01*
X85824461Y-65800961D01*
X85699038Y-65675538D01*
X85699034Y-65675535D01*
X85551553Y-65576990D01*
X85551540Y-65576983D01*
X85387667Y-65509106D01*
X85387658Y-65509103D01*
X85213694Y-65474500D01*
X85213691Y-65474500D01*
X85036309Y-65474500D01*
X85036306Y-65474500D01*
X84862341Y-65509103D01*
X84862332Y-65509106D01*
X84698459Y-65576983D01*
X84698446Y-65576990D01*
X84550966Y-65675534D01*
X84519643Y-65706857D01*
X84488318Y-65738182D01*
X84426998Y-65771666D01*
X84400639Y-65774500D01*
X76045943Y-65774500D01*
X75893213Y-65815423D01*
X75849781Y-65840500D01*
X75849780Y-65840500D01*
X75756287Y-65894477D01*
X75756282Y-65894481D01*
X73802780Y-67847983D01*
X73791593Y-67867360D01*
X73783403Y-67881547D01*
X73723723Y-67984915D01*
X73682799Y-68137643D01*
X73682799Y-68137645D01*
X73682799Y-68305746D01*
X73682800Y-68305759D01*
X73682800Y-77298609D01*
X73663115Y-77365648D01*
X73610311Y-77411403D01*
X73592912Y-77417825D01*
X73410253Y-77470090D01*
X73410251Y-77470090D01*
X73410251Y-77470091D01*
X73229893Y-77564302D01*
X73229891Y-77564303D01*
X73229890Y-77564304D01*
X73072190Y-77692890D01*
X72943604Y-77850590D01*
X72943602Y-77850593D01*
X72898487Y-77936961D01*
X72849389Y-78030954D01*
X72793414Y-78226583D01*
X72793413Y-78226586D01*
X72789618Y-78269273D01*
X72783330Y-78340009D01*
X72782800Y-78345966D01*
X72782800Y-80212028D01*
X72782801Y-80212034D01*
X72793413Y-80331415D01*
X72849389Y-80527045D01*
X72849390Y-80527048D01*
X72849391Y-80527049D01*
X72943602Y-80707407D01*
X72943604Y-80707409D01*
X73072190Y-80865109D01*
X73130569Y-80912710D01*
X73212356Y-80979399D01*
X73251873Y-81037019D01*
X73253965Y-81106857D01*
X73217967Y-81166740D01*
X73155309Y-81197654D01*
X73133995Y-81199500D01*
X70199500Y-81199500D01*
X70132461Y-81179815D01*
X70086706Y-81127011D01*
X70075500Y-81075500D01*
X70075500Y-61424500D01*
X70095185Y-61357461D01*
X70147989Y-61311706D01*
X70199500Y-61300500D01*
X73002769Y-61300500D01*
X73069808Y-61320185D01*
X73115563Y-61372989D01*
X73125507Y-61442147D01*
X73096482Y-61505703D01*
X73081130Y-61520602D01*
X73072190Y-61527890D01*
X72943604Y-61685590D01*
X72943602Y-61685593D01*
X72899598Y-61769835D01*
X72849389Y-61865954D01*
X72804632Y-62022376D01*
X72797529Y-62047203D01*
X72793414Y-62061583D01*
X72793413Y-62061586D01*
X72792914Y-62067203D01*
X72783776Y-62169992D01*
X72782800Y-62180966D01*
X72782800Y-64047028D01*
X72782801Y-64047034D01*
X72793413Y-64166415D01*
X72849389Y-64362045D01*
X72849390Y-64362048D01*
X72849391Y-64362049D01*
X72943602Y-64542407D01*
X72943604Y-64542409D01*
X73072190Y-64700109D01*
X73127162Y-64744932D01*
X73229893Y-64828698D01*
X73410251Y-64922909D01*
X73605882Y-64978886D01*
X73725263Y-64989500D01*
X74841336Y-64989499D01*
X74960718Y-64978886D01*
X75156349Y-64922909D01*
X75336707Y-64828698D01*
X75475337Y-64715660D01*
X75539731Y-64688552D01*
X75608561Y-64700561D01*
X75632057Y-64715661D01*
X75770170Y-64828278D01*
X75950438Y-64922442D01*
X76145971Y-64978390D01*
X76145974Y-64978391D01*
X76265299Y-64988999D01*
X76265302Y-64989000D01*
X77381298Y-64989000D01*
X77381300Y-64988999D01*
X77500625Y-64978391D01*
X77500628Y-64978390D01*
X77696161Y-64922442D01*
X77876430Y-64828278D01*
X78014541Y-64715662D01*
X78078937Y-64688552D01*
X78147767Y-64700561D01*
X78171264Y-64715661D01*
X78309893Y-64828698D01*
X78490251Y-64922909D01*
X78685882Y-64978886D01*
X78805263Y-64989500D01*
X79921336Y-64989499D01*
X80040718Y-64978886D01*
X80236349Y-64922909D01*
X80416707Y-64828698D01*
X80554940Y-64715983D01*
X80619335Y-64688875D01*
X80688165Y-64700884D01*
X80711657Y-64715981D01*
X80849893Y-64828698D01*
X81030251Y-64922909D01*
X81225882Y-64978886D01*
X81345263Y-64989500D01*
X82461336Y-64989499D01*
X82580718Y-64978886D01*
X82776349Y-64922909D01*
X82956707Y-64828698D01*
X83094940Y-64715983D01*
X83159335Y-64688875D01*
X83228165Y-64700884D01*
X83251657Y-64715981D01*
X83389893Y-64828698D01*
X83570251Y-64922909D01*
X83765882Y-64978886D01*
X83885263Y-64989500D01*
X85001336Y-64989499D01*
X85120718Y-64978886D01*
X85316349Y-64922909D01*
X85496707Y-64828698D01*
X85634940Y-64715983D01*
X85699335Y-64688875D01*
X85768165Y-64700884D01*
X85791657Y-64715981D01*
X85929893Y-64828698D01*
X86110251Y-64922909D01*
X86305882Y-64978886D01*
X86425263Y-64989500D01*
X87541336Y-64989499D01*
X87660718Y-64978886D01*
X87856349Y-64922909D01*
X88036707Y-64828698D01*
X88174940Y-64715983D01*
X88239335Y-64688875D01*
X88308165Y-64700884D01*
X88331657Y-64715981D01*
X88469893Y-64828698D01*
X88650251Y-64922909D01*
X88845882Y-64978886D01*
X88965263Y-64989500D01*
X90081336Y-64989499D01*
X90200718Y-64978886D01*
X90396349Y-64922909D01*
X90576707Y-64828698D01*
X90734409Y-64700109D01*
X90862998Y-64542407D01*
X90957209Y-64362049D01*
X91013186Y-64166418D01*
X91023800Y-64047037D01*
X91023799Y-62180964D01*
X91013186Y-62061582D01*
X90961420Y-61880668D01*
X90957210Y-61865954D01*
X90957209Y-61865953D01*
X90957209Y-61865951D01*
X90862998Y-61685593D01*
X90793300Y-61600115D01*
X90734409Y-61527890D01*
X90607610Y-61424500D01*
X90576707Y-61399302D01*
X90396349Y-61305091D01*
X90396346Y-61305090D01*
X90391104Y-61303590D01*
X90386874Y-61300912D01*
X90381886Y-61300556D01*
X90357650Y-61282413D01*
X90332068Y-61266220D01*
X90329958Y-61261684D01*
X90325952Y-61258685D01*
X90315371Y-61230317D01*
X90302606Y-61202866D01*
X90303284Y-61197907D01*
X90301536Y-61193220D01*
X90307971Y-61163637D01*
X90312074Y-61133641D01*
X90315614Y-61128504D01*
X90316388Y-61124947D01*
X90337531Y-61096702D01*
X90472417Y-60961816D01*
X90533740Y-60928334D01*
X90560097Y-60925500D01*
X93659903Y-60925500D01*
X93726942Y-60945185D01*
G37*
%TD.AperFunction*%
%TA.AperFunction,Conductor*%
G36*
X102332667Y-79618006D02*
G01*
X102356855Y-79645921D01*
X102357139Y-79645702D01*
X102361179Y-79650911D01*
X102361732Y-79651548D01*
X102361919Y-79651865D01*
X102361921Y-79651867D01*
X102361923Y-79651870D01*
X102478129Y-79768076D01*
X102478132Y-79768078D01*
X102478135Y-79768081D01*
X102506810Y-79785039D01*
X102554493Y-79836107D01*
X102566997Y-79904848D01*
X102540353Y-79969438D01*
X102483018Y-80009369D01*
X102482694Y-80009477D01*
X102343378Y-80055642D01*
X102343375Y-80055643D01*
X102194157Y-80147682D01*
X102100534Y-80241305D01*
X102097032Y-80243217D01*
X102094907Y-80246591D01*
X102066619Y-80259823D01*
X102039210Y-80274789D01*
X102035232Y-80274504D01*
X102031619Y-80276195D01*
X102000671Y-80272032D01*
X101969519Y-80269805D01*
X101965185Y-80267260D01*
X101962372Y-80266882D01*
X101949687Y-80258160D01*
X101932508Y-80248073D01*
X101928711Y-80244843D01*
X101831156Y-80147288D01*
X101768858Y-80108862D01*
X101761655Y-80102735D01*
X101747471Y-80081100D01*
X101730178Y-80061874D01*
X101727691Y-80050931D01*
X101723346Y-80044304D01*
X101723227Y-80031287D01*
X101718000Y-80008285D01*
X101718000Y-79994932D01*
X101722748Y-79978760D01*
X101722709Y-79974437D01*
X101725161Y-79970543D01*
X101737685Y-79927893D01*
X101790489Y-79882138D01*
X101807393Y-79875859D01*
X101890398Y-79851744D01*
X102031865Y-79768081D01*
X102148081Y-79651865D01*
X102148267Y-79651549D01*
X102148477Y-79651353D01*
X102152861Y-79645702D01*
X102153772Y-79646409D01*
X102199336Y-79603866D01*
X102268077Y-79591362D01*
X102332667Y-79618006D01*
G37*
%TD.AperFunction*%
%TA.AperFunction,Conductor*%
G36*
X100413814Y-75930184D02*
G01*
X100459569Y-75982988D01*
X100469513Y-76052146D01*
X100461338Y-76081944D01*
X100459106Y-76087334D01*
X100459104Y-76087340D01*
X100459103Y-76087341D01*
X100424500Y-76261304D01*
X100424500Y-76332228D01*
X100404815Y-76399267D01*
X100352011Y-76445022D01*
X100349751Y-76446028D01*
X100344600Y-76448256D01*
X100203137Y-76531917D01*
X100203129Y-76531923D01*
X100086923Y-76648129D01*
X100086917Y-76648137D01*
X100003255Y-76789603D01*
X100003254Y-76789606D01*
X99957402Y-76947426D01*
X99957401Y-76947432D01*
X99954500Y-76984298D01*
X99954500Y-77415701D01*
X99957401Y-77452567D01*
X99957402Y-77452573D01*
X100003254Y-77610393D01*
X100003256Y-77610399D01*
X100004426Y-77612377D01*
X100004869Y-77614126D01*
X100006353Y-77617554D01*
X100005799Y-77617793D01*
X100021603Y-77680102D01*
X100006249Y-77732395D01*
X100006817Y-77732641D01*
X100004827Y-77737239D01*
X100004428Y-77738599D01*
X100003722Y-77739791D01*
X100003716Y-77739806D01*
X99957900Y-77897505D01*
X99957899Y-77897511D01*
X99957704Y-77899998D01*
X99957705Y-77900000D01*
X100223185Y-77900000D01*
X100286306Y-77917268D01*
X100344602Y-77951744D01*
X100386224Y-77963836D01*
X100502426Y-77997597D01*
X100502429Y-77997597D01*
X100502431Y-77997598D01*
X100539306Y-78000500D01*
X100539314Y-78000500D01*
X100993500Y-78000500D01*
X101002185Y-78003050D01*
X101011147Y-78001762D01*
X101035187Y-78012740D01*
X101060539Y-78020185D01*
X101066466Y-78027025D01*
X101074703Y-78030787D01*
X101088992Y-78053021D01*
X101106294Y-78072989D01*
X101108581Y-78083503D01*
X101112477Y-78089565D01*
X101117500Y-78124500D01*
X101117500Y-78175500D01*
X101097815Y-78242539D01*
X101045011Y-78288294D01*
X100993500Y-78299500D01*
X100539298Y-78299500D01*
X100502432Y-78302401D01*
X100502426Y-78302402D01*
X100344606Y-78348254D01*
X100344603Y-78348255D01*
X100286306Y-78382732D01*
X100223185Y-78400000D01*
X99957705Y-78400000D01*
X99951358Y-78406865D01*
X99942002Y-78451397D01*
X99892949Y-78501153D01*
X99864845Y-78512520D01*
X99760720Y-78540421D01*
X99760709Y-78540426D01*
X99623783Y-78619479D01*
X99610082Y-78633181D01*
X99583154Y-78647884D01*
X99557336Y-78664477D01*
X99551135Y-78665368D01*
X99548759Y-78666666D01*
X99522401Y-78669500D01*
X99300344Y-78669500D01*
X99233305Y-78649815D01*
X99187550Y-78597011D01*
X99176986Y-78532898D01*
X99187499Y-78429988D01*
X99187500Y-78429973D01*
X99187500Y-78380000D01*
X98086500Y-78380000D01*
X98019461Y-78360315D01*
X97973706Y-78307511D01*
X97962500Y-78256000D01*
X97962500Y-78004000D01*
X97982185Y-77936961D01*
X98034989Y-77891206D01*
X98086500Y-77880000D01*
X99187499Y-77880000D01*
X99187499Y-77830028D01*
X99187498Y-77830013D01*
X99177005Y-77727302D01*
X99121858Y-77560880D01*
X99121856Y-77560875D01*
X99029815Y-77411654D01*
X98905844Y-77287683D01*
X98905841Y-77287681D01*
X98902839Y-77285829D01*
X98901213Y-77284021D01*
X98900177Y-77283202D01*
X98900317Y-77283024D01*
X98856117Y-77233880D01*
X98844897Y-77164917D01*
X98872743Y-77100836D01*
X98882132Y-77090778D01*
X98891634Y-77081668D01*
X98906156Y-77072712D01*
X99026014Y-76952853D01*
X99026956Y-76951951D01*
X99030858Y-76949926D01*
X99065307Y-76926907D01*
X99117995Y-76905084D01*
X99191332Y-76856082D01*
X99240916Y-76822952D01*
X99805451Y-76258416D01*
X99813768Y-76245967D01*
X99829183Y-76227183D01*
X100109549Y-75946818D01*
X100136476Y-75932114D01*
X100162295Y-75915522D01*
X100168495Y-75914630D01*
X100170872Y-75913333D01*
X100197230Y-75910499D01*
X100346775Y-75910499D01*
X100413814Y-75930184D01*
G37*
%TD.AperFunction*%
%TA.AperFunction,Conductor*%
G36*
X111542539Y-67654685D02*
G01*
X111588294Y-67707489D01*
X111599500Y-67759000D01*
X111599500Y-68213201D01*
X111602401Y-68250067D01*
X111602402Y-68250073D01*
X111648254Y-68407893D01*
X111648255Y-68407896D01*
X111648256Y-68407898D01*
X111682732Y-68466194D01*
X111687082Y-68482094D01*
X111694977Y-68494379D01*
X111700000Y-68529314D01*
X111700000Y-68739047D01*
X111680315Y-68806086D01*
X111663680Y-68826728D01*
X111638770Y-68851639D01*
X111638767Y-68851642D01*
X111615344Y-68875065D01*
X111551641Y-68938767D01*
X111537016Y-68960655D01*
X111483402Y-69005459D01*
X111472924Y-69009466D01*
X111455669Y-69015184D01*
X111306345Y-69107287D01*
X111212327Y-69201305D01*
X111151003Y-69234789D01*
X111081312Y-69229805D01*
X111036965Y-69201304D01*
X110943345Y-69107684D01*
X110794124Y-69015643D01*
X110787579Y-69012592D01*
X110788689Y-69010210D01*
X110773084Y-68999402D01*
X110746360Y-68983266D01*
X110744595Y-68979671D01*
X110741304Y-68977392D01*
X110729325Y-68948569D01*
X110715568Y-68920548D01*
X110716026Y-68916570D01*
X110714490Y-68912873D01*
X110719995Y-68882150D01*
X110723572Y-68851138D01*
X110726108Y-68848039D01*
X110726815Y-68844099D01*
X110748055Y-68821231D01*
X110767832Y-68797074D01*
X110772571Y-68794837D01*
X110774365Y-68792906D01*
X110799513Y-68781520D01*
X110801308Y-68780937D01*
X110910398Y-68749244D01*
X110924184Y-68741090D01*
X110937240Y-68736857D01*
X110958996Y-68736248D01*
X110980093Y-68730895D01*
X110994900Y-68735242D01*
X111007083Y-68734902D01*
X111019714Y-68742529D01*
X111032397Y-68746253D01*
X111032644Y-68745684D01*
X111037255Y-68747679D01*
X111038612Y-68748078D01*
X111039801Y-68748781D01*
X111039806Y-68748783D01*
X111197505Y-68794599D01*
X111197511Y-68794600D01*
X111199998Y-68794795D01*
X111200000Y-68794795D01*
X111200000Y-68529314D01*
X111217267Y-68466194D01*
X111251744Y-68407898D01*
X111297598Y-68250069D01*
X111300500Y-68213194D01*
X111300500Y-67759000D01*
X111303050Y-67750314D01*
X111301762Y-67741353D01*
X111312740Y-67717312D01*
X111320185Y-67691961D01*
X111327025Y-67686033D01*
X111330787Y-67677797D01*
X111353021Y-67663507D01*
X111372989Y-67646206D01*
X111383503Y-67643918D01*
X111389565Y-67640023D01*
X111424500Y-67635000D01*
X111475500Y-67635000D01*
X111542539Y-67654685D01*
G37*
%TD.AperFunction*%
%TA.AperFunction,Conductor*%
G36*
X113331175Y-65914736D02*
G01*
X113361393Y-65918993D01*
X113366274Y-65922371D01*
X113369631Y-65923102D01*
X113397885Y-65944253D01*
X113461344Y-66007712D01*
X113610666Y-66099814D01*
X113777203Y-66154999D01*
X113879991Y-66165500D01*
X115280008Y-66165499D01*
X115382797Y-66154999D01*
X115549334Y-66099814D01*
X115549334Y-66099813D01*
X115556190Y-66097542D01*
X115556634Y-66098883D01*
X115561863Y-66095523D01*
X115596798Y-66090500D01*
X115599218Y-66090500D01*
X115666257Y-66110185D01*
X115686899Y-66126819D01*
X115788181Y-66228101D01*
X115821666Y-66289424D01*
X115824500Y-66315782D01*
X115824500Y-66978322D01*
X115804815Y-67045361D01*
X115752011Y-67091116D01*
X115682853Y-67101060D01*
X115635403Y-67083861D01*
X115549124Y-67030643D01*
X115549119Y-67030641D01*
X115382697Y-66975494D01*
X115382690Y-66975493D01*
X115279986Y-66965000D01*
X114830000Y-66965000D01*
X114830000Y-67916000D01*
X114810315Y-67983039D01*
X114757511Y-68028794D01*
X114706000Y-68040000D01*
X114454000Y-68040000D01*
X114386961Y-68020315D01*
X114341206Y-67967511D01*
X114330000Y-67916000D01*
X114330000Y-66965000D01*
X113880028Y-66965000D01*
X113880012Y-66965001D01*
X113777302Y-66975494D01*
X113610880Y-67030641D01*
X113610875Y-67030643D01*
X113461654Y-67122684D01*
X113412181Y-67172158D01*
X113350858Y-67205643D01*
X113281166Y-67200659D01*
X113225233Y-67158787D01*
X113200816Y-67093323D01*
X113200500Y-67084477D01*
X113200500Y-67056813D01*
X113200499Y-67056798D01*
X113197598Y-67019932D01*
X113197597Y-67019926D01*
X113151745Y-66862106D01*
X113151744Y-66862103D01*
X113151744Y-66862102D01*
X113068081Y-66720635D01*
X113068079Y-66720633D01*
X113068076Y-66720629D01*
X112969996Y-66622549D01*
X112936511Y-66561226D01*
X112940615Y-66493972D01*
X112944458Y-66482970D01*
X112959577Y-66456784D01*
X112979226Y-66383448D01*
X112980744Y-66379105D01*
X112992948Y-66362070D01*
X113010123Y-66332322D01*
X113068081Y-66274365D01*
X113151744Y-66132898D01*
X113188529Y-66006284D01*
X113191128Y-65997339D01*
X113193683Y-65993337D01*
X113194022Y-65988600D01*
X113212310Y-65964170D01*
X113228734Y-65938453D01*
X113233048Y-65936467D01*
X113235894Y-65932667D01*
X113264479Y-65922005D01*
X113292206Y-65909247D01*
X113296908Y-65909909D01*
X113301358Y-65908250D01*
X113331175Y-65914736D01*
G37*
%TD.AperFunction*%
%TA.AperFunction,Conductor*%
G36*
X109554063Y-63573581D02*
G01*
X109577487Y-63575257D01*
X109587172Y-63582507D01*
X109598853Y-63585656D01*
X109626034Y-63608169D01*
X109633702Y-63616630D01*
X109647288Y-63638656D01*
X109715329Y-63706697D01*
X109717380Y-63708960D01*
X109731321Y-63737771D01*
X109746666Y-63765872D01*
X109746441Y-63769015D01*
X109747814Y-63771853D01*
X109749500Y-63792230D01*
X109749500Y-64565170D01*
X109744576Y-64599765D01*
X109702402Y-64744926D01*
X109702401Y-64744932D01*
X109699500Y-64781798D01*
X109699500Y-65938201D01*
X109702401Y-65975067D01*
X109702402Y-65975073D01*
X109748254Y-66132893D01*
X109748255Y-66132896D01*
X109748256Y-66132898D01*
X109765687Y-66162372D01*
X109826037Y-66264420D01*
X109831919Y-66274365D01*
X109889873Y-66332319D01*
X109896296Y-66342547D01*
X109902989Y-66347779D01*
X109913378Y-66369747D01*
X109919253Y-66379102D01*
X109920773Y-66383455D01*
X109940423Y-66456785D01*
X109950503Y-66474244D01*
X109955540Y-66482969D01*
X109959384Y-66493971D01*
X109960582Y-66517687D01*
X109966182Y-66540764D01*
X109962314Y-66551941D01*
X109962911Y-66563752D01*
X109951098Y-66584349D01*
X109943332Y-66606792D01*
X109930004Y-66622549D01*
X109831920Y-66720633D01*
X109831917Y-66720637D01*
X109748255Y-66862103D01*
X109748254Y-66862106D01*
X109702402Y-67019926D01*
X109702401Y-67019932D01*
X109699500Y-67056798D01*
X109699500Y-67275500D01*
X109679815Y-67342539D01*
X109627011Y-67388294D01*
X109575500Y-67399500D01*
X109100907Y-67399500D01*
X109057574Y-67391682D01*
X109045982Y-67387358D01*
X109045983Y-67387358D01*
X108986383Y-67380951D01*
X108986381Y-67380950D01*
X108986373Y-67380950D01*
X108986365Y-67380950D01*
X105649500Y-67380950D01*
X105582461Y-67361265D01*
X105536706Y-67308461D01*
X105525500Y-67256950D01*
X105525500Y-66340096D01*
X105545185Y-66273057D01*
X105561815Y-66252419D01*
X105895966Y-65918267D01*
X105957289Y-65884783D01*
X105983647Y-65881949D01*
X108986371Y-65881949D01*
X108986372Y-65881949D01*
X109045983Y-65875541D01*
X109180831Y-65825246D01*
X109296046Y-65738996D01*
X109382296Y-65623781D01*
X109432591Y-65488933D01*
X109439000Y-65429323D01*
X109438999Y-63833578D01*
X109432591Y-63773967D01*
X109417971Y-63734771D01*
X109417108Y-63722704D01*
X109411840Y-63711816D01*
X109414663Y-63688504D01*
X109412988Y-63665081D01*
X109418785Y-63654463D01*
X109420240Y-63642453D01*
X109435218Y-63624368D01*
X109446472Y-63603758D01*
X109457090Y-63597959D01*
X109464807Y-63588643D01*
X109487184Y-63581527D01*
X109507795Y-63570273D01*
X109519862Y-63571135D01*
X109531391Y-63567470D01*
X109554063Y-63573581D01*
G37*
%TD.AperFunction*%
%TA.AperFunction,Conductor*%
G36*
X124517539Y-58820185D02*
G01*
X124563294Y-58872989D01*
X124574500Y-58924500D01*
X124574500Y-67024277D01*
X124554815Y-67091316D01*
X124502011Y-67137071D01*
X124432853Y-67147015D01*
X124369297Y-67117990D01*
X124335939Y-67071730D01*
X124318014Y-67028455D01*
X124318009Y-67028446D01*
X124219464Y-66880965D01*
X124219461Y-66880961D01*
X124094038Y-66755538D01*
X124094034Y-66755535D01*
X123946553Y-66656990D01*
X123946540Y-66656983D01*
X123782667Y-66589106D01*
X123782658Y-66589103D01*
X123608694Y-66554500D01*
X123608691Y-66554500D01*
X123578377Y-66554500D01*
X123511338Y-66534815D01*
X123465583Y-66482011D01*
X123455639Y-66412853D01*
X123479111Y-66356188D01*
X123523352Y-66297089D01*
X123523354Y-66297086D01*
X123573596Y-66162379D01*
X123573598Y-66162372D01*
X123579999Y-66102844D01*
X123580000Y-66102827D01*
X123580000Y-64830000D01*
X120754000Y-64830000D01*
X120686961Y-64810315D01*
X120641206Y-64757511D01*
X120630000Y-64706000D01*
X120630000Y-64454000D01*
X120649685Y-64386961D01*
X120702489Y-64341206D01*
X120754000Y-64330000D01*
X123580000Y-64330000D01*
X123580000Y-63057172D01*
X123579999Y-63057155D01*
X123573598Y-62997627D01*
X123573596Y-62997620D01*
X123523354Y-62862913D01*
X123523350Y-62862906D01*
X123437190Y-62747812D01*
X123334688Y-62671078D01*
X123292818Y-62615144D01*
X123285000Y-62571812D01*
X123285000Y-61955000D01*
X122659000Y-61955000D01*
X122591961Y-61935315D01*
X122546206Y-61882511D01*
X122535000Y-61831000D01*
X122535000Y-61705000D01*
X122409000Y-61705000D01*
X122341961Y-61685315D01*
X122296206Y-61632511D01*
X122285000Y-61581000D01*
X122285000Y-61455000D01*
X122785000Y-61455000D01*
X123285000Y-61455000D01*
X123285000Y-60557172D01*
X123284999Y-60557155D01*
X123278598Y-60497627D01*
X123278596Y-60497620D01*
X123228354Y-60362913D01*
X123228350Y-60362906D01*
X123142190Y-60247812D01*
X123142187Y-60247809D01*
X123027093Y-60161649D01*
X123027086Y-60161645D01*
X122892379Y-60111403D01*
X122892372Y-60111401D01*
X122832844Y-60105000D01*
X122785000Y-60105000D01*
X122785000Y-61455000D01*
X122285000Y-61455000D01*
X122285000Y-60105000D01*
X122237155Y-60105000D01*
X122177627Y-60111401D01*
X122177620Y-60111403D01*
X122034601Y-60164746D01*
X122033474Y-60161726D01*
X121980632Y-60173212D01*
X121915172Y-60148783D01*
X121873311Y-60092842D01*
X121865500Y-60049529D01*
X121865500Y-59954942D01*
X121864720Y-59952032D01*
X121863732Y-59948342D01*
X121824577Y-59802215D01*
X121762867Y-59695331D01*
X121745520Y-59665284D01*
X121633716Y-59553480D01*
X121633713Y-59553478D01*
X121092416Y-59012181D01*
X121058931Y-58950858D01*
X121063915Y-58881166D01*
X121105787Y-58825233D01*
X121171251Y-58800816D01*
X121180097Y-58800500D01*
X124450500Y-58800500D01*
X124517539Y-58820185D01*
G37*
%TD.AperFunction*%
%TA.AperFunction,Conductor*%
G36*
X98013334Y-62630548D02*
G01*
X98057681Y-62659049D01*
X98171344Y-62772712D01*
X98320666Y-62864814D01*
X98487203Y-62919999D01*
X98589991Y-62930500D01*
X99215008Y-62930499D01*
X99215016Y-62930498D01*
X99215019Y-62930498D01*
X99293245Y-62922507D01*
X99317797Y-62919999D01*
X99484334Y-62864814D01*
X99633656Y-62772712D01*
X99727319Y-62679049D01*
X99730097Y-62677531D01*
X99731750Y-62674831D01*
X99760563Y-62660896D01*
X99788642Y-62645564D01*
X99791799Y-62645789D01*
X99794650Y-62644411D01*
X99826416Y-62648265D01*
X99858334Y-62650548D01*
X99861812Y-62652560D01*
X99864011Y-62652827D01*
X99874108Y-62659673D01*
X99894116Y-62671249D01*
X99898579Y-62674947D01*
X99996344Y-62772712D01*
X100075457Y-62821509D01*
X100082116Y-62827026D01*
X100097008Y-62849111D01*
X100114821Y-62868915D01*
X100117087Y-62878890D01*
X100121178Y-62884956D01*
X100121469Y-62898170D01*
X100127000Y-62922507D01*
X100127000Y-63027402D01*
X100107315Y-63094441D01*
X100090681Y-63115083D01*
X99464481Y-63741282D01*
X99464479Y-63741285D01*
X99445610Y-63773968D01*
X99420055Y-63818232D01*
X99414361Y-63828094D01*
X99414359Y-63828096D01*
X99385425Y-63878209D01*
X99385424Y-63878210D01*
X99373974Y-63920943D01*
X99344499Y-64030943D01*
X99344499Y-64030945D01*
X99344499Y-64199046D01*
X99344500Y-64199059D01*
X99344500Y-64989281D01*
X99324815Y-65056320D01*
X99276795Y-65099765D01*
X99237185Y-65119947D01*
X99237184Y-65119948D01*
X99065213Y-65244890D01*
X98914890Y-65395213D01*
X98789949Y-65567182D01*
X98785484Y-65575946D01*
X98737509Y-65626742D01*
X98669688Y-65643536D01*
X98603553Y-65620998D01*
X98564516Y-65575946D01*
X98560050Y-65567182D01*
X98435109Y-65395213D01*
X98284786Y-65244890D01*
X98112815Y-65119948D01*
X98112814Y-65119947D01*
X98073205Y-65099765D01*
X98022409Y-65051791D01*
X98005500Y-64989281D01*
X98005500Y-63920944D01*
X98005500Y-63920943D01*
X98005381Y-63920500D01*
X97994051Y-63878215D01*
X97964577Y-63768216D01*
X97931865Y-63711557D01*
X97885524Y-63631290D01*
X97885521Y-63631286D01*
X97885520Y-63631284D01*
X97773716Y-63519480D01*
X97773715Y-63519479D01*
X97769385Y-63515149D01*
X97769374Y-63515139D01*
X97674319Y-63420084D01*
X97640834Y-63358761D01*
X97638000Y-63332403D01*
X97638000Y-62922507D01*
X97657685Y-62855468D01*
X97696903Y-62816968D01*
X97768656Y-62772712D01*
X97882319Y-62659049D01*
X97943642Y-62625564D01*
X98013334Y-62630548D01*
G37*
%TD.AperFunction*%
%TA.AperFunction,Conductor*%
G36*
X102025647Y-60197742D02*
G01*
X102057444Y-60205858D01*
X102059008Y-60207538D01*
X102061210Y-60208185D01*
X102082683Y-60232966D01*
X102105055Y-60256995D01*
X102105462Y-60259255D01*
X102106965Y-60260989D01*
X102111632Y-60293449D01*
X102117461Y-60325754D01*
X102116703Y-60328720D01*
X102116909Y-60330147D01*
X102108732Y-60359952D01*
X102089106Y-60407332D01*
X102089103Y-60407341D01*
X102054500Y-60581304D01*
X102054500Y-60758695D01*
X102089103Y-60932658D01*
X102089106Y-60932667D01*
X102156983Y-61096540D01*
X102156990Y-61096553D01*
X102255535Y-61244034D01*
X102255538Y-61244038D01*
X102380961Y-61369461D01*
X102380965Y-61369464D01*
X102528446Y-61468009D01*
X102528459Y-61468016D01*
X102628378Y-61509403D01*
X102692334Y-61535894D01*
X102692336Y-61535894D01*
X102692341Y-61535896D01*
X102866304Y-61570499D01*
X102866307Y-61570500D01*
X102866309Y-61570500D01*
X103043693Y-61570500D01*
X103043694Y-61570499D01*
X103122318Y-61554860D01*
X103217658Y-61535896D01*
X103217661Y-61535894D01*
X103217666Y-61535894D01*
X103381547Y-61468013D01*
X103381554Y-61468008D01*
X103386927Y-61465138D01*
X103445373Y-61450500D01*
X103824362Y-61450500D01*
X103834152Y-61453374D01*
X103844278Y-61452110D01*
X103867110Y-61463052D01*
X103891401Y-61470185D01*
X103899759Y-61478699D01*
X103907285Y-61482306D01*
X103929900Y-61509403D01*
X103973546Y-61580164D01*
X103991987Y-61647556D01*
X103971065Y-61714220D01*
X103961698Y-61725627D01*
X103961766Y-61725681D01*
X103957290Y-61731341D01*
X103865187Y-61880663D01*
X103865185Y-61880668D01*
X103855922Y-61908622D01*
X103810001Y-62047203D01*
X103810001Y-62047204D01*
X103810000Y-62047204D01*
X103799500Y-62149983D01*
X103799500Y-63150001D01*
X103799501Y-63150019D01*
X103810000Y-63252796D01*
X103810001Y-63252799D01*
X103865185Y-63419331D01*
X103865187Y-63419336D01*
X103882352Y-63447164D01*
X103956039Y-63566631D01*
X103974500Y-63631727D01*
X103974500Y-64008057D01*
X103954815Y-64075096D01*
X103902011Y-64120851D01*
X103897954Y-64122617D01*
X103858349Y-64139022D01*
X103858345Y-64139024D01*
X103710855Y-64237574D01*
X103710851Y-64237577D01*
X103585428Y-64363000D01*
X103585425Y-64363004D01*
X103486880Y-64510485D01*
X103486873Y-64510498D01*
X103418996Y-64674371D01*
X103418993Y-64674380D01*
X103384390Y-64848343D01*
X103384390Y-65015927D01*
X103364705Y-65082966D01*
X103311901Y-65128721D01*
X103242743Y-65138665D01*
X103195607Y-65121659D01*
X103192818Y-65119950D01*
X103003414Y-65023444D01*
X103003413Y-65023443D01*
X103003412Y-65023443D01*
X102801243Y-64957754D01*
X102801241Y-64957753D01*
X102801240Y-64957753D01*
X102639957Y-64932208D01*
X102591287Y-64924500D01*
X102378713Y-64924500D01*
X102330042Y-64932208D01*
X102168760Y-64957753D01*
X101966585Y-65023444D01*
X101777179Y-65119951D01*
X101605213Y-65244890D01*
X101454890Y-65395213D01*
X101329949Y-65567182D01*
X101325484Y-65575946D01*
X101277509Y-65626742D01*
X101209688Y-65643536D01*
X101143553Y-65620998D01*
X101104516Y-65575946D01*
X101100050Y-65567182D01*
X100975109Y-65395213D01*
X100824786Y-65244890D01*
X100652815Y-65119948D01*
X100652814Y-65119947D01*
X100613205Y-65099765D01*
X100562409Y-65051791D01*
X100545500Y-64989281D01*
X100545500Y-64410096D01*
X100565185Y-64343057D01*
X100581815Y-64322419D01*
X101086006Y-63818227D01*
X101086011Y-63818224D01*
X101096214Y-63808020D01*
X101096216Y-63808020D01*
X101208020Y-63696216D01*
X101270548Y-63587914D01*
X101271730Y-63585868D01*
X101287074Y-63559290D01*
X101287073Y-63559290D01*
X101287077Y-63559285D01*
X101328000Y-63406557D01*
X101328000Y-63248443D01*
X101328000Y-62922507D01*
X101347685Y-62855468D01*
X101386903Y-62816968D01*
X101458656Y-62772712D01*
X101582712Y-62648656D01*
X101674814Y-62499334D01*
X101729999Y-62332797D01*
X101740500Y-62230009D01*
X101740499Y-61229992D01*
X101737221Y-61197907D01*
X101729999Y-61127203D01*
X101729998Y-61127200D01*
X101719889Y-61096693D01*
X101674814Y-60960666D01*
X101582712Y-60811344D01*
X101458656Y-60687288D01*
X101312557Y-60597174D01*
X101309336Y-60595187D01*
X101309331Y-60595185D01*
X101284084Y-60586819D01*
X101142797Y-60540001D01*
X101142795Y-60540000D01*
X101040010Y-60529500D01*
X100414998Y-60529500D01*
X100414980Y-60529501D01*
X100312203Y-60540000D01*
X100312200Y-60540001D01*
X100145668Y-60595185D01*
X100145663Y-60595187D01*
X99996342Y-60687289D01*
X99902681Y-60780951D01*
X99841358Y-60814436D01*
X99771666Y-60809452D01*
X99727319Y-60780951D01*
X99633657Y-60687289D01*
X99633656Y-60687288D01*
X99487557Y-60597174D01*
X99484336Y-60595187D01*
X99484331Y-60595185D01*
X99459084Y-60586819D01*
X99317797Y-60540001D01*
X99317795Y-60540000D01*
X99215016Y-60529500D01*
X99215009Y-60529500D01*
X98905098Y-60529500D01*
X98838059Y-60509815D01*
X98817417Y-60493181D01*
X98724417Y-60400181D01*
X98690932Y-60338858D01*
X98695916Y-60269166D01*
X98737788Y-60213233D01*
X98803252Y-60188816D01*
X98812098Y-60188500D01*
X101994171Y-60188500D01*
X102025647Y-60197742D01*
G37*
%TD.AperFunction*%
%TA.AperFunction,Conductor*%
G36*
X114368516Y-60208185D02*
G01*
X114414271Y-60260989D01*
X114424215Y-60330147D01*
X114395190Y-60393703D01*
X114389158Y-60400181D01*
X114357684Y-60431654D01*
X114265643Y-60580875D01*
X114265641Y-60580880D01*
X114210494Y-60747302D01*
X114210493Y-60747309D01*
X114200000Y-60850013D01*
X114200000Y-61100000D01*
X115088500Y-61100000D01*
X115155539Y-61119685D01*
X115201294Y-61172489D01*
X115212500Y-61224000D01*
X115212500Y-61350000D01*
X115338500Y-61350000D01*
X115405539Y-61369685D01*
X115451294Y-61422489D01*
X115462500Y-61474000D01*
X115462500Y-62549999D01*
X115524972Y-62549999D01*
X115524986Y-62549998D01*
X115627697Y-62539505D01*
X115794119Y-62484358D01*
X115794124Y-62484356D01*
X115943342Y-62392317D01*
X116036964Y-62298695D01*
X116098287Y-62265210D01*
X116167979Y-62270194D01*
X116212327Y-62298695D01*
X116306344Y-62392712D01*
X116455666Y-62484814D01*
X116622203Y-62539999D01*
X116724991Y-62550500D01*
X117350008Y-62550499D01*
X117350016Y-62550498D01*
X117350019Y-62550498D01*
X117406302Y-62544748D01*
X117452797Y-62539999D01*
X117619334Y-62484814D01*
X117768656Y-62392712D01*
X117768659Y-62392708D01*
X117773587Y-62388812D01*
X117787585Y-62383164D01*
X117798990Y-62373282D01*
X117819327Y-62370357D01*
X117838382Y-62362670D01*
X117853208Y-62365486D01*
X117868148Y-62363338D01*
X117886839Y-62371874D01*
X117907024Y-62375708D01*
X117917974Y-62386092D01*
X117931704Y-62392363D01*
X117942812Y-62409648D01*
X117957721Y-62423787D01*
X117961922Y-62439384D01*
X117969478Y-62451141D01*
X117974501Y-62486076D01*
X117974501Y-62572186D01*
X117954816Y-62639225D01*
X117924812Y-62671452D01*
X117822812Y-62747809D01*
X117822809Y-62747812D01*
X117736649Y-62862906D01*
X117736645Y-62862913D01*
X117686403Y-62997620D01*
X117686401Y-62997627D01*
X117680000Y-63057155D01*
X117680000Y-63447164D01*
X117660315Y-63514203D01*
X117607511Y-63559958D01*
X117538353Y-63569902D01*
X117474797Y-63540877D01*
X117468319Y-63534845D01*
X117339648Y-63406174D01*
X117339646Y-63406172D01*
X117180405Y-63290476D01*
X117164410Y-63282326D01*
X117005029Y-63201117D01*
X116817826Y-63140290D01*
X116623422Y-63109500D01*
X116623417Y-63109500D01*
X116426583Y-63109500D01*
X116426578Y-63109500D01*
X116232173Y-63140290D01*
X116044970Y-63201117D01*
X115869594Y-63290476D01*
X115807022Y-63335938D01*
X115710354Y-63406172D01*
X115710352Y-63406174D01*
X115710351Y-63406174D01*
X115571174Y-63545351D01*
X115571174Y-63545352D01*
X115571172Y-63545354D01*
X115552441Y-63571135D01*
X115455476Y-63704594D01*
X115366117Y-63879970D01*
X115359008Y-63901847D01*
X115350244Y-63928821D01*
X115310808Y-63986494D01*
X115246449Y-64013692D01*
X115232315Y-64014500D01*
X114182230Y-64014500D01*
X114152789Y-64005855D01*
X114122803Y-63999332D01*
X114117787Y-63995577D01*
X114115191Y-63994815D01*
X114094549Y-63978181D01*
X113981861Y-63865493D01*
X113966439Y-63846701D01*
X113932956Y-63796589D01*
X113932952Y-63796584D01*
X113528421Y-63392052D01*
X113528418Y-63392049D01*
X113444441Y-63335938D01*
X113399636Y-63282326D01*
X113390433Y-63223168D01*
X113389839Y-63223138D01*
X113389984Y-63220283D01*
X113389975Y-63220224D01*
X113389999Y-63219983D01*
X113390000Y-63219975D01*
X113390000Y-62945000D01*
X112514000Y-62945000D01*
X112446961Y-62925315D01*
X112401206Y-62872511D01*
X112390000Y-62821000D01*
X112390000Y-62695000D01*
X112264000Y-62695000D01*
X112196961Y-62675315D01*
X112151206Y-62622511D01*
X112140000Y-62571000D01*
X112140000Y-62445000D01*
X112640000Y-62445000D01*
X113389999Y-62445000D01*
X113389999Y-62170028D01*
X113389998Y-62170013D01*
X113379505Y-62067302D01*
X113324358Y-61900880D01*
X113324356Y-61900875D01*
X113292967Y-61849986D01*
X114200001Y-61849986D01*
X114210494Y-61952697D01*
X114265641Y-62119119D01*
X114265643Y-62119124D01*
X114357684Y-62268345D01*
X114481654Y-62392315D01*
X114630875Y-62484356D01*
X114630880Y-62484358D01*
X114797302Y-62539505D01*
X114797309Y-62539506D01*
X114900019Y-62549999D01*
X114962499Y-62549998D01*
X114962500Y-62549998D01*
X114962500Y-61600000D01*
X114200001Y-61600000D01*
X114200001Y-61849986D01*
X113292967Y-61849986D01*
X113232315Y-61751654D01*
X113108345Y-61627684D01*
X112959124Y-61535643D01*
X112959119Y-61535641D01*
X112792697Y-61480494D01*
X112792690Y-61480493D01*
X112689986Y-61470000D01*
X112640000Y-61470000D01*
X112640000Y-62445000D01*
X112140000Y-62445000D01*
X112140000Y-61470000D01*
X112139999Y-61469999D01*
X112090029Y-61470000D01*
X112090011Y-61470001D01*
X111987302Y-61480494D01*
X111820880Y-61535641D01*
X111820875Y-61535643D01*
X111671654Y-61627684D01*
X111547683Y-61751655D01*
X111547679Y-61751660D01*
X111545826Y-61754665D01*
X111544018Y-61756290D01*
X111543202Y-61757323D01*
X111543025Y-61757183D01*
X111493874Y-61801385D01*
X111424911Y-61812601D01*
X111360831Y-61784752D01*
X111334753Y-61754653D01*
X111334737Y-61754628D01*
X111332712Y-61751344D01*
X111208656Y-61627288D01*
X111091231Y-61554860D01*
X111059336Y-61535187D01*
X111059331Y-61535185D01*
X111053811Y-61533356D01*
X110892797Y-61480001D01*
X110892795Y-61480000D01*
X110790010Y-61469500D01*
X110189998Y-61469500D01*
X110189980Y-61469501D01*
X110081008Y-61480633D01*
X110012315Y-61467863D01*
X109961431Y-61419982D01*
X109944511Y-61352192D01*
X109950473Y-61318967D01*
X109994709Y-61182826D01*
X110007827Y-61100000D01*
X110025500Y-60988422D01*
X110025500Y-60791577D01*
X109994709Y-60597173D01*
X109933882Y-60409970D01*
X109912902Y-60368795D01*
X109900006Y-60300125D01*
X109926283Y-60235385D01*
X109983389Y-60195128D01*
X110023387Y-60188500D01*
X114301477Y-60188500D01*
X114368516Y-60208185D01*
G37*
%TD.AperFunction*%
%TA.AperFunction,Conductor*%
G36*
X84782941Y-58820185D02*
G01*
X84828696Y-58872989D01*
X84838640Y-58942147D01*
X84809615Y-59005703D01*
X84803583Y-59012181D01*
X82608760Y-61207003D01*
X82547437Y-61240488D01*
X82510100Y-61242835D01*
X82488937Y-61240953D01*
X82461337Y-61238500D01*
X82461333Y-61238500D01*
X81345271Y-61238500D01*
X81345265Y-61238500D01*
X81345264Y-61238501D01*
X81339651Y-61239000D01*
X81225884Y-61249113D01*
X81030254Y-61305089D01*
X80948393Y-61347850D01*
X80849893Y-61399302D01*
X80849891Y-61399303D01*
X80849890Y-61399304D01*
X80711661Y-61512015D01*
X80682832Y-61524150D01*
X80654803Y-61538034D01*
X80650891Y-61537596D01*
X80647264Y-61539124D01*
X80616444Y-61533746D01*
X80585365Y-61530273D01*
X80580785Y-61527525D01*
X80578435Y-61527115D01*
X80555088Y-61512136D01*
X80554775Y-61511881D01*
X80416707Y-61399302D01*
X80415483Y-61398662D01*
X80409588Y-61393871D01*
X80393150Y-61369981D01*
X80374417Y-61347850D01*
X80372862Y-61340497D01*
X80369982Y-61336312D01*
X80369632Y-61325228D01*
X80363800Y-61297648D01*
X80363800Y-61237482D01*
X80383485Y-61170443D01*
X80400119Y-61149801D01*
X80403101Y-61146819D01*
X80464424Y-61113334D01*
X80490782Y-61110500D01*
X80613543Y-61110500D01*
X80743582Y-61084632D01*
X80806835Y-61072051D01*
X80988914Y-60996632D01*
X81152782Y-60887139D01*
X81292139Y-60747782D01*
X81401632Y-60583914D01*
X81404484Y-60577030D01*
X81426172Y-60524669D01*
X81477051Y-60401835D01*
X81504548Y-60263601D01*
X81515500Y-60208543D01*
X81515500Y-60011456D01*
X81477052Y-59818170D01*
X81477051Y-59818169D01*
X81477051Y-59818165D01*
X81426172Y-59695331D01*
X81401635Y-59636092D01*
X81401628Y-59636079D01*
X81292139Y-59472218D01*
X81292136Y-59472214D01*
X81152785Y-59332863D01*
X81152781Y-59332860D01*
X80988920Y-59223371D01*
X80988907Y-59223364D01*
X80806839Y-59147950D01*
X80806829Y-59147947D01*
X80613543Y-59109500D01*
X80613541Y-59109500D01*
X79926459Y-59109500D01*
X79926455Y-59109500D01*
X79829812Y-59128724D01*
X79733167Y-59147947D01*
X79733161Y-59147949D01*
X79679834Y-59170037D01*
X79679834Y-59170038D01*
X79634315Y-59188892D01*
X79551089Y-59223366D01*
X79551079Y-59223371D01*
X79387219Y-59332859D01*
X79317540Y-59402538D01*
X79247861Y-59472218D01*
X79247858Y-59472221D01*
X78725521Y-59994558D01*
X78725518Y-59994561D01*
X78670550Y-60049529D01*
X78586159Y-60133919D01*
X78476671Y-60297779D01*
X78476664Y-60297792D01*
X78431292Y-60407333D01*
X78431292Y-60407334D01*
X78401250Y-60479861D01*
X78401247Y-60479870D01*
X78392336Y-60524671D01*
X78362800Y-60673156D01*
X78362800Y-61297648D01*
X78362229Y-61299590D01*
X78362739Y-61301552D01*
X78352425Y-61332978D01*
X78343115Y-61364687D01*
X78341385Y-61366620D01*
X78340953Y-61367938D01*
X78334899Y-61373872D01*
X78317012Y-61393871D01*
X78311116Y-61398662D01*
X78309893Y-61399302D01*
X78171704Y-61511980D01*
X78171115Y-61512459D01*
X78138699Y-61526046D01*
X78106867Y-61539447D01*
X78106769Y-61539430D01*
X78106677Y-61539469D01*
X78071959Y-61533356D01*
X78038037Y-61527437D01*
X78037921Y-61527362D01*
X78037866Y-61527353D01*
X78037773Y-61527267D01*
X78014542Y-61512338D01*
X77876429Y-61399721D01*
X77696161Y-61305557D01*
X77500628Y-61249609D01*
X77500625Y-61249608D01*
X77381300Y-61239000D01*
X76265299Y-61239000D01*
X76145974Y-61249608D01*
X76145971Y-61249609D01*
X75950438Y-61305557D01*
X75770170Y-61399721D01*
X75632057Y-61512338D01*
X75567661Y-61539447D01*
X75498831Y-61527438D01*
X75475335Y-61512338D01*
X75423638Y-61470185D01*
X75336707Y-61399302D01*
X75156349Y-61305091D01*
X75156348Y-61305090D01*
X75156345Y-61305089D01*
X75039129Y-61271550D01*
X74960718Y-61249114D01*
X74960715Y-61249113D01*
X74960713Y-61249113D01*
X74887931Y-61242642D01*
X74841337Y-61238500D01*
X74841333Y-61238500D01*
X73799010Y-61238500D01*
X73731971Y-61218815D01*
X73686216Y-61166011D01*
X73678456Y-61112041D01*
X73675500Y-61112041D01*
X73675500Y-58924500D01*
X73695185Y-58857461D01*
X73747989Y-58811706D01*
X73799500Y-58800500D01*
X84715902Y-58800500D01*
X84782941Y-58820185D01*
G37*
%TD.AperFunction*%
%TD*%
M02*
