%TF.GenerationSoftware,KiCad,Pcbnew,9.0.5*%
%TF.CreationDate,2025-10-19T11:10:53+01:00*%
%TF.ProjectId,loco-decoder-v1a,6c6f636f-2d64-4656-936f-6465722d7631,rev?*%
%TF.SameCoordinates,Original*%
%TF.FileFunction,Legend,Top*%
%TF.FilePolarity,Positive*%
%FSLAX46Y46*%
G04 Gerber Fmt 4.6, Leading zero omitted, Abs format (unit mm)*
G04 Created by KiCad (PCBNEW 9.0.5) date 2025-10-19 11:10:53*
%MOMM*%
%LPD*%
G01*
G04 APERTURE LIST*
%ADD10C,0.150000*%
%ADD11C,0.250000*%
%ADD12C,0.120000*%
%ADD13C,0.100000*%
%ADD14C,0.504000*%
%ADD15C,0.300000*%
%ADD16C,0.508000*%
%ADD17C,0.152400*%
%ADD18C,0.127000*%
G04 APERTURE END LIST*
D10*
X73971779Y-83129819D02*
X73971779Y-82129819D01*
X73971779Y-82129819D02*
X74209874Y-82129819D01*
X74209874Y-82129819D02*
X74352731Y-82177438D01*
X74352731Y-82177438D02*
X74447969Y-82272676D01*
X74447969Y-82272676D02*
X74495588Y-82367914D01*
X74495588Y-82367914D02*
X74543207Y-82558390D01*
X74543207Y-82558390D02*
X74543207Y-82701247D01*
X74543207Y-82701247D02*
X74495588Y-82891723D01*
X74495588Y-82891723D02*
X74447969Y-82986961D01*
X74447969Y-82986961D02*
X74352731Y-83082200D01*
X74352731Y-83082200D02*
X74209874Y-83129819D01*
X74209874Y-83129819D02*
X73971779Y-83129819D01*
X74971779Y-83034580D02*
X75019398Y-83082200D01*
X75019398Y-83082200D02*
X74971779Y-83129819D01*
X74971779Y-83129819D02*
X74924160Y-83082200D01*
X74924160Y-83082200D02*
X74971779Y-83034580D01*
X74971779Y-83034580D02*
X74971779Y-83129819D01*
X75400350Y-82844104D02*
X75876540Y-82844104D01*
X75305112Y-83129819D02*
X75638445Y-82129819D01*
X75638445Y-82129819D02*
X75971778Y-83129819D01*
X76305112Y-83034580D02*
X76352731Y-83082200D01*
X76352731Y-83082200D02*
X76305112Y-83129819D01*
X76305112Y-83129819D02*
X76257493Y-83082200D01*
X76257493Y-83082200D02*
X76305112Y-83034580D01*
X76305112Y-83034580D02*
X76305112Y-83129819D01*
X77352730Y-83129819D02*
X77019397Y-82653628D01*
X76781302Y-83129819D02*
X76781302Y-82129819D01*
X76781302Y-82129819D02*
X77162254Y-82129819D01*
X77162254Y-82129819D02*
X77257492Y-82177438D01*
X77257492Y-82177438D02*
X77305111Y-82225057D01*
X77305111Y-82225057D02*
X77352730Y-82320295D01*
X77352730Y-82320295D02*
X77352730Y-82463152D01*
X77352730Y-82463152D02*
X77305111Y-82558390D01*
X77305111Y-82558390D02*
X77257492Y-82606009D01*
X77257492Y-82606009D02*
X77162254Y-82653628D01*
X77162254Y-82653628D02*
X76781302Y-82653628D01*
X78209873Y-82463152D02*
X78209873Y-83129819D01*
X77781302Y-82463152D02*
X77781302Y-82986961D01*
X77781302Y-82986961D02*
X77828921Y-83082200D01*
X77828921Y-83082200D02*
X77924159Y-83129819D01*
X77924159Y-83129819D02*
X78067016Y-83129819D01*
X78067016Y-83129819D02*
X78162254Y-83082200D01*
X78162254Y-83082200D02*
X78209873Y-83034580D01*
X78686064Y-83129819D02*
X78686064Y-82463152D01*
X78686064Y-82558390D02*
X78733683Y-82510771D01*
X78733683Y-82510771D02*
X78828921Y-82463152D01*
X78828921Y-82463152D02*
X78971778Y-82463152D01*
X78971778Y-82463152D02*
X79067016Y-82510771D01*
X79067016Y-82510771D02*
X79114635Y-82606009D01*
X79114635Y-82606009D02*
X79114635Y-83129819D01*
X79114635Y-82606009D02*
X79162254Y-82510771D01*
X79162254Y-82510771D02*
X79257492Y-82463152D01*
X79257492Y-82463152D02*
X79400349Y-82463152D01*
X79400349Y-82463152D02*
X79495588Y-82510771D01*
X79495588Y-82510771D02*
X79543207Y-82606009D01*
X79543207Y-82606009D02*
X79543207Y-83129819D01*
X80019397Y-83129819D02*
X80019397Y-82129819D01*
X80019397Y-82510771D02*
X80114635Y-82463152D01*
X80114635Y-82463152D02*
X80305111Y-82463152D01*
X80305111Y-82463152D02*
X80400349Y-82510771D01*
X80400349Y-82510771D02*
X80447968Y-82558390D01*
X80447968Y-82558390D02*
X80495587Y-82653628D01*
X80495587Y-82653628D02*
X80495587Y-82939342D01*
X80495587Y-82939342D02*
X80447968Y-83034580D01*
X80447968Y-83034580D02*
X80400349Y-83082200D01*
X80400349Y-83082200D02*
X80305111Y-83129819D01*
X80305111Y-83129819D02*
X80114635Y-83129819D01*
X80114635Y-83129819D02*
X80019397Y-83082200D01*
X81352730Y-83129819D02*
X81352730Y-82606009D01*
X81352730Y-82606009D02*
X81305111Y-82510771D01*
X81305111Y-82510771D02*
X81209873Y-82463152D01*
X81209873Y-82463152D02*
X81019397Y-82463152D01*
X81019397Y-82463152D02*
X80924159Y-82510771D01*
X81352730Y-83082200D02*
X81257492Y-83129819D01*
X81257492Y-83129819D02*
X81019397Y-83129819D01*
X81019397Y-83129819D02*
X80924159Y-83082200D01*
X80924159Y-83082200D02*
X80876540Y-82986961D01*
X80876540Y-82986961D02*
X80876540Y-82891723D01*
X80876540Y-82891723D02*
X80924159Y-82796485D01*
X80924159Y-82796485D02*
X81019397Y-82748866D01*
X81019397Y-82748866D02*
X81257492Y-82748866D01*
X81257492Y-82748866D02*
X81352730Y-82701247D01*
X81971778Y-83129819D02*
X81876540Y-83082200D01*
X81876540Y-83082200D02*
X81828921Y-82986961D01*
X81828921Y-82986961D02*
X81828921Y-82129819D01*
X82495588Y-83129819D02*
X82400350Y-83082200D01*
X82400350Y-83082200D02*
X82352731Y-82986961D01*
X82352731Y-82986961D02*
X82352731Y-82129819D01*
X83924160Y-83510771D02*
X83876541Y-83463152D01*
X83876541Y-83463152D02*
X83781303Y-83320295D01*
X83781303Y-83320295D02*
X83733684Y-83225057D01*
X83733684Y-83225057D02*
X83686065Y-83082200D01*
X83686065Y-83082200D02*
X83638446Y-82844104D01*
X83638446Y-82844104D02*
X83638446Y-82653628D01*
X83638446Y-82653628D02*
X83686065Y-82415533D01*
X83686065Y-82415533D02*
X83733684Y-82272676D01*
X83733684Y-82272676D02*
X83781303Y-82177438D01*
X83781303Y-82177438D02*
X83876541Y-82034580D01*
X83876541Y-82034580D02*
X83924160Y-81986961D01*
X84257494Y-82844104D02*
X84733684Y-82844104D01*
X84162256Y-83129819D02*
X84495589Y-82129819D01*
X84495589Y-82129819D02*
X84828922Y-83129819D01*
X85019399Y-82129819D02*
X85352732Y-83129819D01*
X85352732Y-83129819D02*
X85686065Y-82129819D01*
X86019399Y-82606009D02*
X86352732Y-82606009D01*
X86495589Y-83129819D02*
X86019399Y-83129819D01*
X86019399Y-83129819D02*
X86019399Y-82129819D01*
X86019399Y-82129819D02*
X86495589Y-82129819D01*
X86924161Y-83129819D02*
X86924161Y-82129819D01*
X86924161Y-82129819D02*
X87162256Y-82129819D01*
X87162256Y-82129819D02*
X87305113Y-82177438D01*
X87305113Y-82177438D02*
X87400351Y-82272676D01*
X87400351Y-82272676D02*
X87447970Y-82367914D01*
X87447970Y-82367914D02*
X87495589Y-82558390D01*
X87495589Y-82558390D02*
X87495589Y-82701247D01*
X87495589Y-82701247D02*
X87447970Y-82891723D01*
X87447970Y-82891723D02*
X87400351Y-82986961D01*
X87400351Y-82986961D02*
X87305113Y-83082200D01*
X87305113Y-83082200D02*
X87162256Y-83129819D01*
X87162256Y-83129819D02*
X86924161Y-83129819D01*
X87828923Y-83510771D02*
X87876542Y-83463152D01*
X87876542Y-83463152D02*
X87971780Y-83320295D01*
X87971780Y-83320295D02*
X88019399Y-83225057D01*
X88019399Y-83225057D02*
X88067018Y-83082200D01*
X88067018Y-83082200D02*
X88114637Y-82844104D01*
X88114637Y-82844104D02*
X88114637Y-82653628D01*
X88114637Y-82653628D02*
X88067018Y-82415533D01*
X88067018Y-82415533D02*
X88019399Y-82272676D01*
X88019399Y-82272676D02*
X87971780Y-82177438D01*
X87971780Y-82177438D02*
X87876542Y-82034580D01*
X87876542Y-82034580D02*
X87828923Y-81986961D01*
X89305114Y-82225057D02*
X89352733Y-82177438D01*
X89352733Y-82177438D02*
X89447971Y-82129819D01*
X89447971Y-82129819D02*
X89686066Y-82129819D01*
X89686066Y-82129819D02*
X89781304Y-82177438D01*
X89781304Y-82177438D02*
X89828923Y-82225057D01*
X89828923Y-82225057D02*
X89876542Y-82320295D01*
X89876542Y-82320295D02*
X89876542Y-82415533D01*
X89876542Y-82415533D02*
X89828923Y-82558390D01*
X89828923Y-82558390D02*
X89257495Y-83129819D01*
X89257495Y-83129819D02*
X89876542Y-83129819D01*
X90495590Y-82129819D02*
X90590828Y-82129819D01*
X90590828Y-82129819D02*
X90686066Y-82177438D01*
X90686066Y-82177438D02*
X90733685Y-82225057D01*
X90733685Y-82225057D02*
X90781304Y-82320295D01*
X90781304Y-82320295D02*
X90828923Y-82510771D01*
X90828923Y-82510771D02*
X90828923Y-82748866D01*
X90828923Y-82748866D02*
X90781304Y-82939342D01*
X90781304Y-82939342D02*
X90733685Y-83034580D01*
X90733685Y-83034580D02*
X90686066Y-83082200D01*
X90686066Y-83082200D02*
X90590828Y-83129819D01*
X90590828Y-83129819D02*
X90495590Y-83129819D01*
X90495590Y-83129819D02*
X90400352Y-83082200D01*
X90400352Y-83082200D02*
X90352733Y-83034580D01*
X90352733Y-83034580D02*
X90305114Y-82939342D01*
X90305114Y-82939342D02*
X90257495Y-82748866D01*
X90257495Y-82748866D02*
X90257495Y-82510771D01*
X90257495Y-82510771D02*
X90305114Y-82320295D01*
X90305114Y-82320295D02*
X90352733Y-82225057D01*
X90352733Y-82225057D02*
X90400352Y-82177438D01*
X90400352Y-82177438D02*
X90495590Y-82129819D01*
X91209876Y-82225057D02*
X91257495Y-82177438D01*
X91257495Y-82177438D02*
X91352733Y-82129819D01*
X91352733Y-82129819D02*
X91590828Y-82129819D01*
X91590828Y-82129819D02*
X91686066Y-82177438D01*
X91686066Y-82177438D02*
X91733685Y-82225057D01*
X91733685Y-82225057D02*
X91781304Y-82320295D01*
X91781304Y-82320295D02*
X91781304Y-82415533D01*
X91781304Y-82415533D02*
X91733685Y-82558390D01*
X91733685Y-82558390D02*
X91162257Y-83129819D01*
X91162257Y-83129819D02*
X91781304Y-83129819D01*
X92686066Y-82129819D02*
X92209876Y-82129819D01*
X92209876Y-82129819D02*
X92162257Y-82606009D01*
X92162257Y-82606009D02*
X92209876Y-82558390D01*
X92209876Y-82558390D02*
X92305114Y-82510771D01*
X92305114Y-82510771D02*
X92543209Y-82510771D01*
X92543209Y-82510771D02*
X92638447Y-82558390D01*
X92638447Y-82558390D02*
X92686066Y-82606009D01*
X92686066Y-82606009D02*
X92733685Y-82701247D01*
X92733685Y-82701247D02*
X92733685Y-82939342D01*
X92733685Y-82939342D02*
X92686066Y-83034580D01*
X92686066Y-83034580D02*
X92638447Y-83082200D01*
X92638447Y-83082200D02*
X92543209Y-83129819D01*
X92543209Y-83129819D02*
X92305114Y-83129819D01*
X92305114Y-83129819D02*
X92209876Y-83082200D01*
X92209876Y-83082200D02*
X92162257Y-83034580D01*
X109127969Y-83379819D02*
X108651779Y-83379819D01*
X108651779Y-83379819D02*
X108651779Y-82379819D01*
X109604160Y-83379819D02*
X109508922Y-83332200D01*
X109508922Y-83332200D02*
X109461303Y-83284580D01*
X109461303Y-83284580D02*
X109413684Y-83189342D01*
X109413684Y-83189342D02*
X109413684Y-82903628D01*
X109413684Y-82903628D02*
X109461303Y-82808390D01*
X109461303Y-82808390D02*
X109508922Y-82760771D01*
X109508922Y-82760771D02*
X109604160Y-82713152D01*
X109604160Y-82713152D02*
X109747017Y-82713152D01*
X109747017Y-82713152D02*
X109842255Y-82760771D01*
X109842255Y-82760771D02*
X109889874Y-82808390D01*
X109889874Y-82808390D02*
X109937493Y-82903628D01*
X109937493Y-82903628D02*
X109937493Y-83189342D01*
X109937493Y-83189342D02*
X109889874Y-83284580D01*
X109889874Y-83284580D02*
X109842255Y-83332200D01*
X109842255Y-83332200D02*
X109747017Y-83379819D01*
X109747017Y-83379819D02*
X109604160Y-83379819D01*
X110794636Y-83332200D02*
X110699398Y-83379819D01*
X110699398Y-83379819D02*
X110508922Y-83379819D01*
X110508922Y-83379819D02*
X110413684Y-83332200D01*
X110413684Y-83332200D02*
X110366065Y-83284580D01*
X110366065Y-83284580D02*
X110318446Y-83189342D01*
X110318446Y-83189342D02*
X110318446Y-82903628D01*
X110318446Y-82903628D02*
X110366065Y-82808390D01*
X110366065Y-82808390D02*
X110413684Y-82760771D01*
X110413684Y-82760771D02*
X110508922Y-82713152D01*
X110508922Y-82713152D02*
X110699398Y-82713152D01*
X110699398Y-82713152D02*
X110794636Y-82760771D01*
X111366065Y-83379819D02*
X111270827Y-83332200D01*
X111270827Y-83332200D02*
X111223208Y-83284580D01*
X111223208Y-83284580D02*
X111175589Y-83189342D01*
X111175589Y-83189342D02*
X111175589Y-82903628D01*
X111175589Y-82903628D02*
X111223208Y-82808390D01*
X111223208Y-82808390D02*
X111270827Y-82760771D01*
X111270827Y-82760771D02*
X111366065Y-82713152D01*
X111366065Y-82713152D02*
X111508922Y-82713152D01*
X111508922Y-82713152D02*
X111604160Y-82760771D01*
X111604160Y-82760771D02*
X111651779Y-82808390D01*
X111651779Y-82808390D02*
X111699398Y-82903628D01*
X111699398Y-82903628D02*
X111699398Y-83189342D01*
X111699398Y-83189342D02*
X111651779Y-83284580D01*
X111651779Y-83284580D02*
X111604160Y-83332200D01*
X111604160Y-83332200D02*
X111508922Y-83379819D01*
X111508922Y-83379819D02*
X111366065Y-83379819D01*
X113461303Y-83284580D02*
X113413684Y-83332200D01*
X113413684Y-83332200D02*
X113270827Y-83379819D01*
X113270827Y-83379819D02*
X113175589Y-83379819D01*
X113175589Y-83379819D02*
X113032732Y-83332200D01*
X113032732Y-83332200D02*
X112937494Y-83236961D01*
X112937494Y-83236961D02*
X112889875Y-83141723D01*
X112889875Y-83141723D02*
X112842256Y-82951247D01*
X112842256Y-82951247D02*
X112842256Y-82808390D01*
X112842256Y-82808390D02*
X112889875Y-82617914D01*
X112889875Y-82617914D02*
X112937494Y-82522676D01*
X112937494Y-82522676D02*
X113032732Y-82427438D01*
X113032732Y-82427438D02*
X113175589Y-82379819D01*
X113175589Y-82379819D02*
X113270827Y-82379819D01*
X113270827Y-82379819D02*
X113413684Y-82427438D01*
X113413684Y-82427438D02*
X113461303Y-82475057D01*
X114032732Y-83379819D02*
X113937494Y-83332200D01*
X113937494Y-83332200D02*
X113889875Y-83284580D01*
X113889875Y-83284580D02*
X113842256Y-83189342D01*
X113842256Y-83189342D02*
X113842256Y-82903628D01*
X113842256Y-82903628D02*
X113889875Y-82808390D01*
X113889875Y-82808390D02*
X113937494Y-82760771D01*
X113937494Y-82760771D02*
X114032732Y-82713152D01*
X114032732Y-82713152D02*
X114175589Y-82713152D01*
X114175589Y-82713152D02*
X114270827Y-82760771D01*
X114270827Y-82760771D02*
X114318446Y-82808390D01*
X114318446Y-82808390D02*
X114366065Y-82903628D01*
X114366065Y-82903628D02*
X114366065Y-83189342D01*
X114366065Y-83189342D02*
X114318446Y-83284580D01*
X114318446Y-83284580D02*
X114270827Y-83332200D01*
X114270827Y-83332200D02*
X114175589Y-83379819D01*
X114175589Y-83379819D02*
X114032732Y-83379819D01*
X114794637Y-82713152D02*
X114794637Y-83379819D01*
X114794637Y-82808390D02*
X114842256Y-82760771D01*
X114842256Y-82760771D02*
X114937494Y-82713152D01*
X114937494Y-82713152D02*
X115080351Y-82713152D01*
X115080351Y-82713152D02*
X115175589Y-82760771D01*
X115175589Y-82760771D02*
X115223208Y-82856009D01*
X115223208Y-82856009D02*
X115223208Y-83379819D01*
X115556542Y-82713152D02*
X115937494Y-82713152D01*
X115699399Y-82379819D02*
X115699399Y-83236961D01*
X115699399Y-83236961D02*
X115747018Y-83332200D01*
X115747018Y-83332200D02*
X115842256Y-83379819D01*
X115842256Y-83379819D02*
X115937494Y-83379819D01*
X116270828Y-83379819D02*
X116270828Y-82713152D01*
X116270828Y-82903628D02*
X116318447Y-82808390D01*
X116318447Y-82808390D02*
X116366066Y-82760771D01*
X116366066Y-82760771D02*
X116461304Y-82713152D01*
X116461304Y-82713152D02*
X116556542Y-82713152D01*
X117032733Y-83379819D02*
X116937495Y-83332200D01*
X116937495Y-83332200D02*
X116889876Y-83284580D01*
X116889876Y-83284580D02*
X116842257Y-83189342D01*
X116842257Y-83189342D02*
X116842257Y-82903628D01*
X116842257Y-82903628D02*
X116889876Y-82808390D01*
X116889876Y-82808390D02*
X116937495Y-82760771D01*
X116937495Y-82760771D02*
X117032733Y-82713152D01*
X117032733Y-82713152D02*
X117175590Y-82713152D01*
X117175590Y-82713152D02*
X117270828Y-82760771D01*
X117270828Y-82760771D02*
X117318447Y-82808390D01*
X117318447Y-82808390D02*
X117366066Y-82903628D01*
X117366066Y-82903628D02*
X117366066Y-83189342D01*
X117366066Y-83189342D02*
X117318447Y-83284580D01*
X117318447Y-83284580D02*
X117270828Y-83332200D01*
X117270828Y-83332200D02*
X117175590Y-83379819D01*
X117175590Y-83379819D02*
X117032733Y-83379819D01*
X117937495Y-83379819D02*
X117842257Y-83332200D01*
X117842257Y-83332200D02*
X117794638Y-83236961D01*
X117794638Y-83236961D02*
X117794638Y-82379819D01*
X118461305Y-83379819D02*
X118366067Y-83332200D01*
X118366067Y-83332200D02*
X118318448Y-83236961D01*
X118318448Y-83236961D02*
X118318448Y-82379819D01*
X119223210Y-83332200D02*
X119127972Y-83379819D01*
X119127972Y-83379819D02*
X118937496Y-83379819D01*
X118937496Y-83379819D02*
X118842258Y-83332200D01*
X118842258Y-83332200D02*
X118794639Y-83236961D01*
X118794639Y-83236961D02*
X118794639Y-82856009D01*
X118794639Y-82856009D02*
X118842258Y-82760771D01*
X118842258Y-82760771D02*
X118937496Y-82713152D01*
X118937496Y-82713152D02*
X119127972Y-82713152D01*
X119127972Y-82713152D02*
X119223210Y-82760771D01*
X119223210Y-82760771D02*
X119270829Y-82856009D01*
X119270829Y-82856009D02*
X119270829Y-82951247D01*
X119270829Y-82951247D02*
X118794639Y-83046485D01*
X119699401Y-83379819D02*
X119699401Y-82713152D01*
X119699401Y-82903628D02*
X119747020Y-82808390D01*
X119747020Y-82808390D02*
X119794639Y-82760771D01*
X119794639Y-82760771D02*
X119889877Y-82713152D01*
X119889877Y-82713152D02*
X119985115Y-82713152D01*
X120985116Y-82713152D02*
X121223211Y-83379819D01*
X121223211Y-83379819D02*
X121461306Y-82713152D01*
X122366068Y-83379819D02*
X121794640Y-83379819D01*
X122080354Y-83379819D02*
X122080354Y-82379819D01*
X122080354Y-82379819D02*
X121985116Y-82522676D01*
X121985116Y-82522676D02*
X121889878Y-82617914D01*
X121889878Y-82617914D02*
X121794640Y-82665533D01*
X122747021Y-83094104D02*
X123223211Y-83094104D01*
X122651783Y-83379819D02*
X122985116Y-82379819D01*
X122985116Y-82379819D02*
X123318449Y-83379819D01*
X101232142Y-83324819D02*
X100898809Y-82848628D01*
X100660714Y-83324819D02*
X100660714Y-82324819D01*
X100660714Y-82324819D02*
X101041666Y-82324819D01*
X101041666Y-82324819D02*
X101136904Y-82372438D01*
X101136904Y-82372438D02*
X101184523Y-82420057D01*
X101184523Y-82420057D02*
X101232142Y-82515295D01*
X101232142Y-82515295D02*
X101232142Y-82658152D01*
X101232142Y-82658152D02*
X101184523Y-82753390D01*
X101184523Y-82753390D02*
X101136904Y-82801009D01*
X101136904Y-82801009D02*
X101041666Y-82848628D01*
X101041666Y-82848628D02*
X100660714Y-82848628D01*
X102184523Y-83324819D02*
X101613095Y-83324819D01*
X101898809Y-83324819D02*
X101898809Y-82324819D01*
X101898809Y-82324819D02*
X101803571Y-82467676D01*
X101803571Y-82467676D02*
X101708333Y-82562914D01*
X101708333Y-82562914D02*
X101613095Y-82610533D01*
X103041666Y-82658152D02*
X103041666Y-83324819D01*
X102803571Y-82277200D02*
X102565476Y-82991485D01*
X102565476Y-82991485D02*
X103184523Y-82991485D01*
X95858333Y-60514819D02*
X95525000Y-60038628D01*
X95286905Y-60514819D02*
X95286905Y-59514819D01*
X95286905Y-59514819D02*
X95667857Y-59514819D01*
X95667857Y-59514819D02*
X95763095Y-59562438D01*
X95763095Y-59562438D02*
X95810714Y-59610057D01*
X95810714Y-59610057D02*
X95858333Y-59705295D01*
X95858333Y-59705295D02*
X95858333Y-59848152D01*
X95858333Y-59848152D02*
X95810714Y-59943390D01*
X95810714Y-59943390D02*
X95763095Y-59991009D01*
X95763095Y-59991009D02*
X95667857Y-60038628D01*
X95667857Y-60038628D02*
X95286905Y-60038628D01*
X96715476Y-59848152D02*
X96715476Y-60514819D01*
X96477381Y-59467200D02*
X96239286Y-60181485D01*
X96239286Y-60181485D02*
X96858333Y-60181485D01*
X116058333Y-60104819D02*
X115725000Y-59628628D01*
X115486905Y-60104819D02*
X115486905Y-59104819D01*
X115486905Y-59104819D02*
X115867857Y-59104819D01*
X115867857Y-59104819D02*
X115963095Y-59152438D01*
X115963095Y-59152438D02*
X116010714Y-59200057D01*
X116010714Y-59200057D02*
X116058333Y-59295295D01*
X116058333Y-59295295D02*
X116058333Y-59438152D01*
X116058333Y-59438152D02*
X116010714Y-59533390D01*
X116010714Y-59533390D02*
X115963095Y-59581009D01*
X115963095Y-59581009D02*
X115867857Y-59628628D01*
X115867857Y-59628628D02*
X115486905Y-59628628D01*
X116391667Y-59104819D02*
X117058333Y-59104819D01*
X117058333Y-59104819D02*
X116629762Y-60104819D01*
X104313095Y-75694819D02*
X104313095Y-76504342D01*
X104313095Y-76504342D02*
X104360714Y-76599580D01*
X104360714Y-76599580D02*
X104408333Y-76647200D01*
X104408333Y-76647200D02*
X104503571Y-76694819D01*
X104503571Y-76694819D02*
X104694047Y-76694819D01*
X104694047Y-76694819D02*
X104789285Y-76647200D01*
X104789285Y-76647200D02*
X104836904Y-76599580D01*
X104836904Y-76599580D02*
X104884523Y-76504342D01*
X104884523Y-76504342D02*
X104884523Y-75694819D01*
X105789285Y-76028152D02*
X105789285Y-76694819D01*
X105551190Y-75647200D02*
X105313095Y-76361485D01*
X105313095Y-76361485D02*
X105932142Y-76361485D01*
X108648333Y-63574819D02*
X108172143Y-63574819D01*
X108172143Y-63574819D02*
X108172143Y-62574819D01*
X109505476Y-63574819D02*
X108934048Y-63574819D01*
X109219762Y-63574819D02*
X109219762Y-62574819D01*
X109219762Y-62574819D02*
X109124524Y-62717676D01*
X109124524Y-62717676D02*
X109029286Y-62812914D01*
X109029286Y-62812914D02*
X108934048Y-62860533D01*
X110612142Y-72364819D02*
X110278809Y-71888628D01*
X110040714Y-72364819D02*
X110040714Y-71364819D01*
X110040714Y-71364819D02*
X110421666Y-71364819D01*
X110421666Y-71364819D02*
X110516904Y-71412438D01*
X110516904Y-71412438D02*
X110564523Y-71460057D01*
X110564523Y-71460057D02*
X110612142Y-71555295D01*
X110612142Y-71555295D02*
X110612142Y-71698152D01*
X110612142Y-71698152D02*
X110564523Y-71793390D01*
X110564523Y-71793390D02*
X110516904Y-71841009D01*
X110516904Y-71841009D02*
X110421666Y-71888628D01*
X110421666Y-71888628D02*
X110040714Y-71888628D01*
X111564523Y-72364819D02*
X110993095Y-72364819D01*
X111278809Y-72364819D02*
X111278809Y-71364819D01*
X111278809Y-71364819D02*
X111183571Y-71507676D01*
X111183571Y-71507676D02*
X111088333Y-71602914D01*
X111088333Y-71602914D02*
X110993095Y-71650533D01*
X112516904Y-72364819D02*
X111945476Y-72364819D01*
X112231190Y-72364819D02*
X112231190Y-71364819D01*
X112231190Y-71364819D02*
X112135952Y-71507676D01*
X112135952Y-71507676D02*
X112040714Y-71602914D01*
X112040714Y-71602914D02*
X111945476Y-71650533D01*
X74461779Y-59419819D02*
X74461779Y-60229342D01*
X74461779Y-60229342D02*
X74509398Y-60324580D01*
X74509398Y-60324580D02*
X74557017Y-60372200D01*
X74557017Y-60372200D02*
X74652255Y-60419819D01*
X74652255Y-60419819D02*
X74842731Y-60419819D01*
X74842731Y-60419819D02*
X74937969Y-60372200D01*
X74937969Y-60372200D02*
X74985588Y-60324580D01*
X74985588Y-60324580D02*
X75033207Y-60229342D01*
X75033207Y-60229342D02*
X75033207Y-59419819D01*
X76033207Y-60419819D02*
X75461779Y-60419819D01*
X75747493Y-60419819D02*
X75747493Y-59419819D01*
X75747493Y-59419819D02*
X75652255Y-59562676D01*
X75652255Y-59562676D02*
X75557017Y-59657914D01*
X75557017Y-59657914D02*
X75461779Y-59705533D01*
X123191666Y-74804819D02*
X123191666Y-75519104D01*
X123191666Y-75519104D02*
X123144047Y-75661961D01*
X123144047Y-75661961D02*
X123048809Y-75757200D01*
X123048809Y-75757200D02*
X122905952Y-75804819D01*
X122905952Y-75804819D02*
X122810714Y-75804819D01*
X124191666Y-75804819D02*
X123620238Y-75804819D01*
X123905952Y-75804819D02*
X123905952Y-74804819D01*
X123905952Y-74804819D02*
X123810714Y-74947676D01*
X123810714Y-74947676D02*
X123715476Y-75042914D01*
X123715476Y-75042914D02*
X123620238Y-75090533D01*
X122363095Y-59104819D02*
X122363095Y-59914342D01*
X122363095Y-59914342D02*
X122410714Y-60009580D01*
X122410714Y-60009580D02*
X122458333Y-60057200D01*
X122458333Y-60057200D02*
X122553571Y-60104819D01*
X122553571Y-60104819D02*
X122744047Y-60104819D01*
X122744047Y-60104819D02*
X122839285Y-60057200D01*
X122839285Y-60057200D02*
X122886904Y-60009580D01*
X122886904Y-60009580D02*
X122934523Y-59914342D01*
X122934523Y-59914342D02*
X122934523Y-59104819D01*
X123363095Y-59200057D02*
X123410714Y-59152438D01*
X123410714Y-59152438D02*
X123505952Y-59104819D01*
X123505952Y-59104819D02*
X123744047Y-59104819D01*
X123744047Y-59104819D02*
X123839285Y-59152438D01*
X123839285Y-59152438D02*
X123886904Y-59200057D01*
X123886904Y-59200057D02*
X123934523Y-59295295D01*
X123934523Y-59295295D02*
X123934523Y-59390533D01*
X123934523Y-59390533D02*
X123886904Y-59533390D01*
X123886904Y-59533390D02*
X123315476Y-60104819D01*
X123315476Y-60104819D02*
X123934523Y-60104819D01*
X102668333Y-61174819D02*
X102335000Y-60698628D01*
X102096905Y-61174819D02*
X102096905Y-60174819D01*
X102096905Y-60174819D02*
X102477857Y-60174819D01*
X102477857Y-60174819D02*
X102573095Y-60222438D01*
X102573095Y-60222438D02*
X102620714Y-60270057D01*
X102620714Y-60270057D02*
X102668333Y-60365295D01*
X102668333Y-60365295D02*
X102668333Y-60508152D01*
X102668333Y-60508152D02*
X102620714Y-60603390D01*
X102620714Y-60603390D02*
X102573095Y-60651009D01*
X102573095Y-60651009D02*
X102477857Y-60698628D01*
X102477857Y-60698628D02*
X102096905Y-60698628D01*
X103049286Y-60270057D02*
X103096905Y-60222438D01*
X103096905Y-60222438D02*
X103192143Y-60174819D01*
X103192143Y-60174819D02*
X103430238Y-60174819D01*
X103430238Y-60174819D02*
X103525476Y-60222438D01*
X103525476Y-60222438D02*
X103573095Y-60270057D01*
X103573095Y-60270057D02*
X103620714Y-60365295D01*
X103620714Y-60365295D02*
X103620714Y-60460533D01*
X103620714Y-60460533D02*
X103573095Y-60603390D01*
X103573095Y-60603390D02*
X103001667Y-61174819D01*
X103001667Y-61174819D02*
X103620714Y-61174819D01*
X108574580Y-79606666D02*
X108622200Y-79654285D01*
X108622200Y-79654285D02*
X108669819Y-79797142D01*
X108669819Y-79797142D02*
X108669819Y-79892380D01*
X108669819Y-79892380D02*
X108622200Y-80035237D01*
X108622200Y-80035237D02*
X108526961Y-80130475D01*
X108526961Y-80130475D02*
X108431723Y-80178094D01*
X108431723Y-80178094D02*
X108241247Y-80225713D01*
X108241247Y-80225713D02*
X108098390Y-80225713D01*
X108098390Y-80225713D02*
X107907914Y-80178094D01*
X107907914Y-80178094D02*
X107812676Y-80130475D01*
X107812676Y-80130475D02*
X107717438Y-80035237D01*
X107717438Y-80035237D02*
X107669819Y-79892380D01*
X107669819Y-79892380D02*
X107669819Y-79797142D01*
X107669819Y-79797142D02*
X107717438Y-79654285D01*
X107717438Y-79654285D02*
X107765057Y-79606666D01*
X107669819Y-78749523D02*
X107669819Y-78939999D01*
X107669819Y-78939999D02*
X107717438Y-79035237D01*
X107717438Y-79035237D02*
X107765057Y-79082856D01*
X107765057Y-79082856D02*
X107907914Y-79178094D01*
X107907914Y-79178094D02*
X108098390Y-79225713D01*
X108098390Y-79225713D02*
X108479342Y-79225713D01*
X108479342Y-79225713D02*
X108574580Y-79178094D01*
X108574580Y-79178094D02*
X108622200Y-79130475D01*
X108622200Y-79130475D02*
X108669819Y-79035237D01*
X108669819Y-79035237D02*
X108669819Y-78844761D01*
X108669819Y-78844761D02*
X108622200Y-78749523D01*
X108622200Y-78749523D02*
X108574580Y-78701904D01*
X108574580Y-78701904D02*
X108479342Y-78654285D01*
X108479342Y-78654285D02*
X108241247Y-78654285D01*
X108241247Y-78654285D02*
X108146009Y-78701904D01*
X108146009Y-78701904D02*
X108098390Y-78749523D01*
X108098390Y-78749523D02*
X108050771Y-78844761D01*
X108050771Y-78844761D02*
X108050771Y-79035237D01*
X108050771Y-79035237D02*
X108098390Y-79130475D01*
X108098390Y-79130475D02*
X108146009Y-79178094D01*
X108146009Y-79178094D02*
X108241247Y-79225713D01*
X94761905Y-83079819D02*
X94761905Y-82079819D01*
X94761905Y-82079819D02*
X95000000Y-82079819D01*
X95000000Y-82079819D02*
X95142857Y-82127438D01*
X95142857Y-82127438D02*
X95238095Y-82222676D01*
X95238095Y-82222676D02*
X95285714Y-82317914D01*
X95285714Y-82317914D02*
X95333333Y-82508390D01*
X95333333Y-82508390D02*
X95333333Y-82651247D01*
X95333333Y-82651247D02*
X95285714Y-82841723D01*
X95285714Y-82841723D02*
X95238095Y-82936961D01*
X95238095Y-82936961D02*
X95142857Y-83032200D01*
X95142857Y-83032200D02*
X95000000Y-83079819D01*
X95000000Y-83079819D02*
X94761905Y-83079819D01*
X95666667Y-82079819D02*
X96285714Y-82079819D01*
X96285714Y-82079819D02*
X95952381Y-82460771D01*
X95952381Y-82460771D02*
X96095238Y-82460771D01*
X96095238Y-82460771D02*
X96190476Y-82508390D01*
X96190476Y-82508390D02*
X96238095Y-82556009D01*
X96238095Y-82556009D02*
X96285714Y-82651247D01*
X96285714Y-82651247D02*
X96285714Y-82889342D01*
X96285714Y-82889342D02*
X96238095Y-82984580D01*
X96238095Y-82984580D02*
X96190476Y-83032200D01*
X96190476Y-83032200D02*
X96095238Y-83079819D01*
X96095238Y-83079819D02*
X95809524Y-83079819D01*
X95809524Y-83079819D02*
X95714286Y-83032200D01*
X95714286Y-83032200D02*
X95666667Y-82984580D01*
D11*
X92880619Y-75377568D02*
X92833000Y-75425187D01*
X92833000Y-75425187D02*
X92785380Y-75377568D01*
X92785380Y-75377568D02*
X92833000Y-75329949D01*
X92833000Y-75329949D02*
X92880619Y-75377568D01*
X92880619Y-75377568D02*
X92785380Y-75377568D01*
D10*
X111010180Y-59148095D02*
X111010180Y-59719523D01*
X110010180Y-59433809D02*
X111010180Y-59433809D01*
X110010180Y-60052857D02*
X111010180Y-60052857D01*
X111010180Y-60052857D02*
X111010180Y-60433809D01*
X111010180Y-60433809D02*
X110962561Y-60529047D01*
X110962561Y-60529047D02*
X110914942Y-60576666D01*
X110914942Y-60576666D02*
X110819704Y-60624285D01*
X110819704Y-60624285D02*
X110676847Y-60624285D01*
X110676847Y-60624285D02*
X110581609Y-60576666D01*
X110581609Y-60576666D02*
X110533990Y-60529047D01*
X110533990Y-60529047D02*
X110486371Y-60433809D01*
X110486371Y-60433809D02*
X110486371Y-60052857D01*
X110914942Y-61005238D02*
X110962561Y-61052857D01*
X110962561Y-61052857D02*
X111010180Y-61148095D01*
X111010180Y-61148095D02*
X111010180Y-61386190D01*
X111010180Y-61386190D02*
X110962561Y-61481428D01*
X110962561Y-61481428D02*
X110914942Y-61529047D01*
X110914942Y-61529047D02*
X110819704Y-61576666D01*
X110819704Y-61576666D02*
X110724466Y-61576666D01*
X110724466Y-61576666D02*
X110581609Y-61529047D01*
X110581609Y-61529047D02*
X110010180Y-60957619D01*
X110010180Y-60957619D02*
X110010180Y-61576666D01*
X106302142Y-72914819D02*
X105968809Y-72438628D01*
X105730714Y-72914819D02*
X105730714Y-71914819D01*
X105730714Y-71914819D02*
X106111666Y-71914819D01*
X106111666Y-71914819D02*
X106206904Y-71962438D01*
X106206904Y-71962438D02*
X106254523Y-72010057D01*
X106254523Y-72010057D02*
X106302142Y-72105295D01*
X106302142Y-72105295D02*
X106302142Y-72248152D01*
X106302142Y-72248152D02*
X106254523Y-72343390D01*
X106254523Y-72343390D02*
X106206904Y-72391009D01*
X106206904Y-72391009D02*
X106111666Y-72438628D01*
X106111666Y-72438628D02*
X105730714Y-72438628D01*
X107254523Y-72914819D02*
X106683095Y-72914819D01*
X106968809Y-72914819D02*
X106968809Y-71914819D01*
X106968809Y-71914819D02*
X106873571Y-72057676D01*
X106873571Y-72057676D02*
X106778333Y-72152914D01*
X106778333Y-72152914D02*
X106683095Y-72200533D01*
X107873571Y-71914819D02*
X107968809Y-71914819D01*
X107968809Y-71914819D02*
X108064047Y-71962438D01*
X108064047Y-71962438D02*
X108111666Y-72010057D01*
X108111666Y-72010057D02*
X108159285Y-72105295D01*
X108159285Y-72105295D02*
X108206904Y-72295771D01*
X108206904Y-72295771D02*
X108206904Y-72533866D01*
X108206904Y-72533866D02*
X108159285Y-72724342D01*
X108159285Y-72724342D02*
X108111666Y-72819580D01*
X108111666Y-72819580D02*
X108064047Y-72867200D01*
X108064047Y-72867200D02*
X107968809Y-72914819D01*
X107968809Y-72914819D02*
X107873571Y-72914819D01*
X107873571Y-72914819D02*
X107778333Y-72867200D01*
X107778333Y-72867200D02*
X107730714Y-72819580D01*
X107730714Y-72819580D02*
X107683095Y-72724342D01*
X107683095Y-72724342D02*
X107635476Y-72533866D01*
X107635476Y-72533866D02*
X107635476Y-72295771D01*
X107635476Y-72295771D02*
X107683095Y-72105295D01*
X107683095Y-72105295D02*
X107730714Y-72010057D01*
X107730714Y-72010057D02*
X107778333Y-71962438D01*
X107778333Y-71962438D02*
X107873571Y-71914819D01*
X114708333Y-63989580D02*
X114660714Y-64037200D01*
X114660714Y-64037200D02*
X114517857Y-64084819D01*
X114517857Y-64084819D02*
X114422619Y-64084819D01*
X114422619Y-64084819D02*
X114279762Y-64037200D01*
X114279762Y-64037200D02*
X114184524Y-63941961D01*
X114184524Y-63941961D02*
X114136905Y-63846723D01*
X114136905Y-63846723D02*
X114089286Y-63656247D01*
X114089286Y-63656247D02*
X114089286Y-63513390D01*
X114089286Y-63513390D02*
X114136905Y-63322914D01*
X114136905Y-63322914D02*
X114184524Y-63227676D01*
X114184524Y-63227676D02*
X114279762Y-63132438D01*
X114279762Y-63132438D02*
X114422619Y-63084819D01*
X114422619Y-63084819D02*
X114517857Y-63084819D01*
X114517857Y-63084819D02*
X114660714Y-63132438D01*
X114660714Y-63132438D02*
X114708333Y-63180057D01*
X115613095Y-63084819D02*
X115136905Y-63084819D01*
X115136905Y-63084819D02*
X115089286Y-63561009D01*
X115089286Y-63561009D02*
X115136905Y-63513390D01*
X115136905Y-63513390D02*
X115232143Y-63465771D01*
X115232143Y-63465771D02*
X115470238Y-63465771D01*
X115470238Y-63465771D02*
X115565476Y-63513390D01*
X115565476Y-63513390D02*
X115613095Y-63561009D01*
X115613095Y-63561009D02*
X115660714Y-63656247D01*
X115660714Y-63656247D02*
X115660714Y-63894342D01*
X115660714Y-63894342D02*
X115613095Y-63989580D01*
X115613095Y-63989580D02*
X115565476Y-64037200D01*
X115565476Y-64037200D02*
X115470238Y-64084819D01*
X115470238Y-64084819D02*
X115232143Y-64084819D01*
X115232143Y-64084819D02*
X115136905Y-64037200D01*
X115136905Y-64037200D02*
X115089286Y-63989580D01*
X117519819Y-70336666D02*
X117043628Y-70669999D01*
X117519819Y-70908094D02*
X116519819Y-70908094D01*
X116519819Y-70908094D02*
X116519819Y-70527142D01*
X116519819Y-70527142D02*
X116567438Y-70431904D01*
X116567438Y-70431904D02*
X116615057Y-70384285D01*
X116615057Y-70384285D02*
X116710295Y-70336666D01*
X116710295Y-70336666D02*
X116853152Y-70336666D01*
X116853152Y-70336666D02*
X116948390Y-70384285D01*
X116948390Y-70384285D02*
X116996009Y-70431904D01*
X116996009Y-70431904D02*
X117043628Y-70527142D01*
X117043628Y-70527142D02*
X117043628Y-70908094D01*
X117519819Y-69860475D02*
X117519819Y-69669999D01*
X117519819Y-69669999D02*
X117472200Y-69574761D01*
X117472200Y-69574761D02*
X117424580Y-69527142D01*
X117424580Y-69527142D02*
X117281723Y-69431904D01*
X117281723Y-69431904D02*
X117091247Y-69384285D01*
X117091247Y-69384285D02*
X116710295Y-69384285D01*
X116710295Y-69384285D02*
X116615057Y-69431904D01*
X116615057Y-69431904D02*
X116567438Y-69479523D01*
X116567438Y-69479523D02*
X116519819Y-69574761D01*
X116519819Y-69574761D02*
X116519819Y-69765237D01*
X116519819Y-69765237D02*
X116567438Y-69860475D01*
X116567438Y-69860475D02*
X116615057Y-69908094D01*
X116615057Y-69908094D02*
X116710295Y-69955713D01*
X116710295Y-69955713D02*
X116948390Y-69955713D01*
X116948390Y-69955713D02*
X117043628Y-69908094D01*
X117043628Y-69908094D02*
X117091247Y-69860475D01*
X117091247Y-69860475D02*
X117138866Y-69765237D01*
X117138866Y-69765237D02*
X117138866Y-69574761D01*
X117138866Y-69574761D02*
X117091247Y-69479523D01*
X117091247Y-69479523D02*
X117043628Y-69431904D01*
X117043628Y-69431904D02*
X116948390Y-69384285D01*
X102132142Y-63074819D02*
X101798809Y-62598628D01*
X101560714Y-63074819D02*
X101560714Y-62074819D01*
X101560714Y-62074819D02*
X101941666Y-62074819D01*
X101941666Y-62074819D02*
X102036904Y-62122438D01*
X102036904Y-62122438D02*
X102084523Y-62170057D01*
X102084523Y-62170057D02*
X102132142Y-62265295D01*
X102132142Y-62265295D02*
X102132142Y-62408152D01*
X102132142Y-62408152D02*
X102084523Y-62503390D01*
X102084523Y-62503390D02*
X102036904Y-62551009D01*
X102036904Y-62551009D02*
X101941666Y-62598628D01*
X101941666Y-62598628D02*
X101560714Y-62598628D01*
X103084523Y-63074819D02*
X102513095Y-63074819D01*
X102798809Y-63074819D02*
X102798809Y-62074819D01*
X102798809Y-62074819D02*
X102703571Y-62217676D01*
X102703571Y-62217676D02*
X102608333Y-62312914D01*
X102608333Y-62312914D02*
X102513095Y-62360533D01*
X103465476Y-62170057D02*
X103513095Y-62122438D01*
X103513095Y-62122438D02*
X103608333Y-62074819D01*
X103608333Y-62074819D02*
X103846428Y-62074819D01*
X103846428Y-62074819D02*
X103941666Y-62122438D01*
X103941666Y-62122438D02*
X103989285Y-62170057D01*
X103989285Y-62170057D02*
X104036904Y-62265295D01*
X104036904Y-62265295D02*
X104036904Y-62360533D01*
X104036904Y-62360533D02*
X103989285Y-62503390D01*
X103989285Y-62503390D02*
X103417857Y-63074819D01*
X103417857Y-63074819D02*
X104036904Y-63074819D01*
X112138333Y-61269580D02*
X112090714Y-61317200D01*
X112090714Y-61317200D02*
X111947857Y-61364819D01*
X111947857Y-61364819D02*
X111852619Y-61364819D01*
X111852619Y-61364819D02*
X111709762Y-61317200D01*
X111709762Y-61317200D02*
X111614524Y-61221961D01*
X111614524Y-61221961D02*
X111566905Y-61126723D01*
X111566905Y-61126723D02*
X111519286Y-60936247D01*
X111519286Y-60936247D02*
X111519286Y-60793390D01*
X111519286Y-60793390D02*
X111566905Y-60602914D01*
X111566905Y-60602914D02*
X111614524Y-60507676D01*
X111614524Y-60507676D02*
X111709762Y-60412438D01*
X111709762Y-60412438D02*
X111852619Y-60364819D01*
X111852619Y-60364819D02*
X111947857Y-60364819D01*
X111947857Y-60364819D02*
X112090714Y-60412438D01*
X112090714Y-60412438D02*
X112138333Y-60460057D01*
X112995476Y-60698152D02*
X112995476Y-61364819D01*
X112757381Y-60317200D02*
X112519286Y-61031485D01*
X112519286Y-61031485D02*
X113138333Y-61031485D01*
X97607142Y-82214819D02*
X97273809Y-81738628D01*
X97035714Y-82214819D02*
X97035714Y-81214819D01*
X97035714Y-81214819D02*
X97416666Y-81214819D01*
X97416666Y-81214819D02*
X97511904Y-81262438D01*
X97511904Y-81262438D02*
X97559523Y-81310057D01*
X97559523Y-81310057D02*
X97607142Y-81405295D01*
X97607142Y-81405295D02*
X97607142Y-81548152D01*
X97607142Y-81548152D02*
X97559523Y-81643390D01*
X97559523Y-81643390D02*
X97511904Y-81691009D01*
X97511904Y-81691009D02*
X97416666Y-81738628D01*
X97416666Y-81738628D02*
X97035714Y-81738628D01*
X98559523Y-82214819D02*
X97988095Y-82214819D01*
X98273809Y-82214819D02*
X98273809Y-81214819D01*
X98273809Y-81214819D02*
X98178571Y-81357676D01*
X98178571Y-81357676D02*
X98083333Y-81452914D01*
X98083333Y-81452914D02*
X97988095Y-81500533D01*
X98892857Y-81214819D02*
X99511904Y-81214819D01*
X99511904Y-81214819D02*
X99178571Y-81595771D01*
X99178571Y-81595771D02*
X99321428Y-81595771D01*
X99321428Y-81595771D02*
X99416666Y-81643390D01*
X99416666Y-81643390D02*
X99464285Y-81691009D01*
X99464285Y-81691009D02*
X99511904Y-81786247D01*
X99511904Y-81786247D02*
X99511904Y-82024342D01*
X99511904Y-82024342D02*
X99464285Y-82119580D01*
X99464285Y-82119580D02*
X99416666Y-82167200D01*
X99416666Y-82167200D02*
X99321428Y-82214819D01*
X99321428Y-82214819D02*
X99035714Y-82214819D01*
X99035714Y-82214819D02*
X98940476Y-82167200D01*
X98940476Y-82167200D02*
X98892857Y-82119580D01*
X99638333Y-60494819D02*
X99305000Y-60018628D01*
X99066905Y-60494819D02*
X99066905Y-59494819D01*
X99066905Y-59494819D02*
X99447857Y-59494819D01*
X99447857Y-59494819D02*
X99543095Y-59542438D01*
X99543095Y-59542438D02*
X99590714Y-59590057D01*
X99590714Y-59590057D02*
X99638333Y-59685295D01*
X99638333Y-59685295D02*
X99638333Y-59828152D01*
X99638333Y-59828152D02*
X99590714Y-59923390D01*
X99590714Y-59923390D02*
X99543095Y-59971009D01*
X99543095Y-59971009D02*
X99447857Y-60018628D01*
X99447857Y-60018628D02*
X99066905Y-60018628D01*
X99971667Y-59494819D02*
X100590714Y-59494819D01*
X100590714Y-59494819D02*
X100257381Y-59875771D01*
X100257381Y-59875771D02*
X100400238Y-59875771D01*
X100400238Y-59875771D02*
X100495476Y-59923390D01*
X100495476Y-59923390D02*
X100543095Y-59971009D01*
X100543095Y-59971009D02*
X100590714Y-60066247D01*
X100590714Y-60066247D02*
X100590714Y-60304342D01*
X100590714Y-60304342D02*
X100543095Y-60399580D01*
X100543095Y-60399580D02*
X100495476Y-60447200D01*
X100495476Y-60447200D02*
X100400238Y-60494819D01*
X100400238Y-60494819D02*
X100114524Y-60494819D01*
X100114524Y-60494819D02*
X100019286Y-60447200D01*
X100019286Y-60447200D02*
X99971667Y-60399580D01*
X93821666Y-63264819D02*
X93821666Y-63979104D01*
X93821666Y-63979104D02*
X93774047Y-64121961D01*
X93774047Y-64121961D02*
X93678809Y-64217200D01*
X93678809Y-64217200D02*
X93535952Y-64264819D01*
X93535952Y-64264819D02*
X93440714Y-64264819D01*
X94726428Y-63598152D02*
X94726428Y-64264819D01*
X94488333Y-63217200D02*
X94250238Y-63931485D01*
X94250238Y-63931485D02*
X94869285Y-63931485D01*
X105033333Y-74529819D02*
X104557143Y-74529819D01*
X104557143Y-74529819D02*
X104557143Y-73529819D01*
X105319048Y-73625057D02*
X105366667Y-73577438D01*
X105366667Y-73577438D02*
X105461905Y-73529819D01*
X105461905Y-73529819D02*
X105700000Y-73529819D01*
X105700000Y-73529819D02*
X105795238Y-73577438D01*
X105795238Y-73577438D02*
X105842857Y-73625057D01*
X105842857Y-73625057D02*
X105890476Y-73720295D01*
X105890476Y-73720295D02*
X105890476Y-73815533D01*
X105890476Y-73815533D02*
X105842857Y-73958390D01*
X105842857Y-73958390D02*
X105271429Y-74529819D01*
X105271429Y-74529819D02*
X105890476Y-74529819D01*
X121458333Y-72389580D02*
X121410714Y-72437200D01*
X121410714Y-72437200D02*
X121267857Y-72484819D01*
X121267857Y-72484819D02*
X121172619Y-72484819D01*
X121172619Y-72484819D02*
X121029762Y-72437200D01*
X121029762Y-72437200D02*
X120934524Y-72341961D01*
X120934524Y-72341961D02*
X120886905Y-72246723D01*
X120886905Y-72246723D02*
X120839286Y-72056247D01*
X120839286Y-72056247D02*
X120839286Y-71913390D01*
X120839286Y-71913390D02*
X120886905Y-71722914D01*
X120886905Y-71722914D02*
X120934524Y-71627676D01*
X120934524Y-71627676D02*
X121029762Y-71532438D01*
X121029762Y-71532438D02*
X121172619Y-71484819D01*
X121172619Y-71484819D02*
X121267857Y-71484819D01*
X121267857Y-71484819D02*
X121410714Y-71532438D01*
X121410714Y-71532438D02*
X121458333Y-71580057D01*
X121839286Y-71580057D02*
X121886905Y-71532438D01*
X121886905Y-71532438D02*
X121982143Y-71484819D01*
X121982143Y-71484819D02*
X122220238Y-71484819D01*
X122220238Y-71484819D02*
X122315476Y-71532438D01*
X122315476Y-71532438D02*
X122363095Y-71580057D01*
X122363095Y-71580057D02*
X122410714Y-71675295D01*
X122410714Y-71675295D02*
X122410714Y-71770533D01*
X122410714Y-71770533D02*
X122363095Y-71913390D01*
X122363095Y-71913390D02*
X121791667Y-72484819D01*
X121791667Y-72484819D02*
X122410714Y-72484819D01*
X121257165Y-80469819D02*
X121257165Y-81184104D01*
X121257165Y-81184104D02*
X121209546Y-81326961D01*
X121209546Y-81326961D02*
X121114308Y-81422200D01*
X121114308Y-81422200D02*
X120971451Y-81469819D01*
X120971451Y-81469819D02*
X120876213Y-81469819D01*
X122209546Y-80469819D02*
X121733356Y-80469819D01*
X121733356Y-80469819D02*
X121685737Y-80946009D01*
X121685737Y-80946009D02*
X121733356Y-80898390D01*
X121733356Y-80898390D02*
X121828594Y-80850771D01*
X121828594Y-80850771D02*
X122066689Y-80850771D01*
X122066689Y-80850771D02*
X122161927Y-80898390D01*
X122161927Y-80898390D02*
X122209546Y-80946009D01*
X122209546Y-80946009D02*
X122257165Y-81041247D01*
X122257165Y-81041247D02*
X122257165Y-81279342D01*
X122257165Y-81279342D02*
X122209546Y-81374580D01*
X122209546Y-81374580D02*
X122161927Y-81422200D01*
X122161927Y-81422200D02*
X122066689Y-81469819D01*
X122066689Y-81469819D02*
X121828594Y-81469819D01*
X121828594Y-81469819D02*
X121733356Y-81422200D01*
X121733356Y-81422200D02*
X121685737Y-81374580D01*
X117170180Y-65438095D02*
X117170180Y-66009523D01*
X116170180Y-65723809D02*
X117170180Y-65723809D01*
X116170180Y-66342857D02*
X117170180Y-66342857D01*
X117170180Y-66342857D02*
X117170180Y-66723809D01*
X117170180Y-66723809D02*
X117122561Y-66819047D01*
X117122561Y-66819047D02*
X117074942Y-66866666D01*
X117074942Y-66866666D02*
X116979704Y-66914285D01*
X116979704Y-66914285D02*
X116836847Y-66914285D01*
X116836847Y-66914285D02*
X116741609Y-66866666D01*
X116741609Y-66866666D02*
X116693990Y-66819047D01*
X116693990Y-66819047D02*
X116646371Y-66723809D01*
X116646371Y-66723809D02*
X116646371Y-66342857D01*
X116170180Y-67866666D02*
X116170180Y-67295238D01*
X116170180Y-67580952D02*
X117170180Y-67580952D01*
X117170180Y-67580952D02*
X117027323Y-67485714D01*
X117027323Y-67485714D02*
X116932085Y-67390476D01*
X116932085Y-67390476D02*
X116884466Y-67295238D01*
X95636905Y-71579819D02*
X95636905Y-70579819D01*
X95636905Y-70579819D02*
X95875000Y-70579819D01*
X95875000Y-70579819D02*
X96017857Y-70627438D01*
X96017857Y-70627438D02*
X96113095Y-70722676D01*
X96113095Y-70722676D02*
X96160714Y-70817914D01*
X96160714Y-70817914D02*
X96208333Y-71008390D01*
X96208333Y-71008390D02*
X96208333Y-71151247D01*
X96208333Y-71151247D02*
X96160714Y-71341723D01*
X96160714Y-71341723D02*
X96113095Y-71436961D01*
X96113095Y-71436961D02*
X96017857Y-71532200D01*
X96017857Y-71532200D02*
X95875000Y-71579819D01*
X95875000Y-71579819D02*
X95636905Y-71579819D01*
X96589286Y-70675057D02*
X96636905Y-70627438D01*
X96636905Y-70627438D02*
X96732143Y-70579819D01*
X96732143Y-70579819D02*
X96970238Y-70579819D01*
X96970238Y-70579819D02*
X97065476Y-70627438D01*
X97065476Y-70627438D02*
X97113095Y-70675057D01*
X97113095Y-70675057D02*
X97160714Y-70770295D01*
X97160714Y-70770295D02*
X97160714Y-70865533D01*
X97160714Y-70865533D02*
X97113095Y-71008390D01*
X97113095Y-71008390D02*
X96541667Y-71579819D01*
X96541667Y-71579819D02*
X97160714Y-71579819D01*
X109981204Y-81064075D02*
X109981204Y-81779350D01*
X109981204Y-81779350D02*
X109933519Y-81922405D01*
X109933519Y-81922405D02*
X109838149Y-82017776D01*
X109838149Y-82017776D02*
X109695094Y-82065461D01*
X109695094Y-82065461D02*
X109599724Y-82065461D01*
X110362685Y-81064075D02*
X110982590Y-81064075D01*
X110982590Y-81064075D02*
X110648795Y-81445555D01*
X110648795Y-81445555D02*
X110791850Y-81445555D01*
X110791850Y-81445555D02*
X110887220Y-81493240D01*
X110887220Y-81493240D02*
X110934905Y-81540925D01*
X110934905Y-81540925D02*
X110982590Y-81636295D01*
X110982590Y-81636295D02*
X110982590Y-81874720D01*
X110982590Y-81874720D02*
X110934905Y-81970090D01*
X110934905Y-81970090D02*
X110887220Y-82017776D01*
X110887220Y-82017776D02*
X110791850Y-82065461D01*
X110791850Y-82065461D02*
X110505740Y-82065461D01*
X110505740Y-82065461D02*
X110410370Y-82017776D01*
X110410370Y-82017776D02*
X110362685Y-81970090D01*
X96484580Y-77291666D02*
X96532200Y-77339285D01*
X96532200Y-77339285D02*
X96579819Y-77482142D01*
X96579819Y-77482142D02*
X96579819Y-77577380D01*
X96579819Y-77577380D02*
X96532200Y-77720237D01*
X96532200Y-77720237D02*
X96436961Y-77815475D01*
X96436961Y-77815475D02*
X96341723Y-77863094D01*
X96341723Y-77863094D02*
X96151247Y-77910713D01*
X96151247Y-77910713D02*
X96008390Y-77910713D01*
X96008390Y-77910713D02*
X95817914Y-77863094D01*
X95817914Y-77863094D02*
X95722676Y-77815475D01*
X95722676Y-77815475D02*
X95627438Y-77720237D01*
X95627438Y-77720237D02*
X95579819Y-77577380D01*
X95579819Y-77577380D02*
X95579819Y-77482142D01*
X95579819Y-77482142D02*
X95627438Y-77339285D01*
X95627438Y-77339285D02*
X95675057Y-77291666D01*
X95579819Y-76958332D02*
X95579819Y-76291666D01*
X95579819Y-76291666D02*
X96579819Y-76720237D01*
D12*
%TO.C,R14*%
X101785436Y-80455000D02*
X102239564Y-80455000D01*
X101785436Y-81925000D02*
X102239564Y-81925000D01*
%TO.C,R4*%
X95897936Y-60995000D02*
X96352064Y-60995000D01*
X95897936Y-62465000D02*
X96352064Y-62465000D01*
%TO.C,R7*%
X116352064Y-60615000D02*
X115897936Y-60615000D01*
X116352064Y-62085000D02*
X115897936Y-62085000D01*
%TO.C,U4*%
X102255000Y-76590000D02*
X101455000Y-76590000D01*
X102255000Y-76590000D02*
X103055000Y-76590000D01*
X102255000Y-79710000D02*
X101455000Y-79710000D01*
X102255000Y-79710000D02*
X103055000Y-79710000D01*
X100055000Y-77150000D02*
X99855000Y-77250000D01*
X99855000Y-77050000D01*
X100055000Y-77150000D01*
G36*
X100055000Y-77150000D02*
G01*
X99855000Y-77250000D01*
X99855000Y-77050000D01*
X100055000Y-77150000D01*
G37*
%TO.C,R11*%
X111352064Y-69415000D02*
X110897936Y-69415000D01*
X111352064Y-70885000D02*
X110897936Y-70885000D01*
D13*
%TO.C,U1*%
X71366300Y-64239000D02*
X71366300Y-78209000D01*
X92321300Y-78209000D02*
X92321300Y-64239000D01*
X71314720Y-64239000D02*
G75*
G02*
X72825000Y-62334001I1956580J0D01*
G01*
X72825000Y-80114000D02*
G75*
G02*
X71311627Y-78209000I442300J1905001D01*
G01*
X90825000Y-62334000D02*
G75*
G02*
X92364648Y-64239000I-408700J-1905000D01*
G01*
X92364648Y-78209000D02*
G75*
G02*
X90825000Y-80114000I-1948350J1D01*
G01*
D14*
X72034300Y-80324000D02*
G75*
G02*
X71530300Y-80324000I-252000J0D01*
G01*
X71530300Y-80324000D02*
G75*
G02*
X72034300Y-80324000I252000J0D01*
G01*
D10*
%TO.C,U2*%
X118055000Y-62505000D02*
X118055000Y-66655000D01*
X123205000Y-62505000D02*
X123205000Y-66655000D01*
D12*
X123435000Y-62145000D02*
X123105000Y-61905000D01*
X123435000Y-61665000D01*
X123435000Y-62145000D01*
G36*
X123435000Y-62145000D02*
G01*
X123105000Y-61905000D01*
X123435000Y-61665000D01*
X123435000Y-62145000D01*
G37*
%TO.C,R2*%
X105537936Y-59965000D02*
X105992064Y-59965000D01*
X105537936Y-61435000D02*
X105992064Y-61435000D01*
%TO.C,C6*%
X104555000Y-78728748D02*
X104555000Y-80151252D01*
X107275000Y-78728748D02*
X107275000Y-80151252D01*
%TO.C,R10*%
X107097936Y-69915000D02*
X107552064Y-69915000D01*
X107097936Y-71385000D02*
X107552064Y-71385000D01*
%TO.C,C5*%
X113670000Y-65853748D02*
X113670000Y-67276252D01*
X115490000Y-65853748D02*
X115490000Y-67276252D01*
%TO.C,R9*%
X114752064Y-69415000D02*
X114297936Y-69415000D01*
X114752064Y-70885000D02*
X114297936Y-70885000D01*
%TO.C,R12*%
X105497936Y-61915000D02*
X105952064Y-61915000D01*
X105497936Y-63385000D02*
X105952064Y-63385000D01*
%TO.C,C4*%
X111178748Y-61960000D02*
X111701252Y-61960000D01*
X111178748Y-63430000D02*
X111701252Y-63430000D01*
%TO.C,R13*%
X98255436Y-79135000D02*
X98709564Y-79135000D01*
X98255436Y-80605000D02*
X98709564Y-80605000D01*
%TO.C,U3*%
X109890000Y-66497500D02*
X109890000Y-65697500D01*
X109890000Y-66497500D02*
X109890000Y-67297500D01*
X113010000Y-66497500D02*
X113010000Y-65697500D01*
X113010000Y-66497500D02*
X113010000Y-67297500D01*
X110550000Y-68897500D02*
X110350000Y-68897500D01*
X110450000Y-68697500D01*
X110550000Y-68897500D01*
G36*
X110550000Y-68897500D02*
G01*
X110350000Y-68897500D01*
X110450000Y-68697500D01*
X110550000Y-68897500D01*
G37*
%TO.C,R3*%
X99587936Y-60995000D02*
X100042064Y-60995000D01*
X99587936Y-62465000D02*
X100042064Y-62465000D01*
%TO.C,J4*%
X93485000Y-64895000D02*
X103865000Y-64895000D01*
X93485000Y-67545000D02*
X93485000Y-64895000D01*
X93485000Y-70195000D02*
X93485000Y-68815000D01*
X94865000Y-70195000D02*
X93485000Y-70195000D01*
X96135000Y-67545000D02*
X93485000Y-67545000D01*
X96135000Y-70195000D02*
X96135000Y-67545000D01*
X96135000Y-70195000D02*
X103865000Y-70195000D01*
X103865000Y-70195000D02*
X103865000Y-64895000D01*
D15*
%TO.C,L2*%
X104215000Y-75560000D02*
G75*
G02*
X104015000Y-75560000I-100000J0D01*
G01*
X104015000Y-75560000D02*
G75*
G02*
X104215000Y-75560000I100000J0D01*
G01*
D12*
%TO.C,C2*%
X119283748Y-69290000D02*
X120706252Y-69290000D01*
X119283748Y-71110000D02*
X120706252Y-71110000D01*
D16*
%TO.C,J5*%
X113326000Y-80190000D02*
G75*
G02*
X112564000Y-80190000I-381000J0D01*
G01*
X112564000Y-80190000D02*
G75*
G02*
X113326000Y-80190000I381000J0D01*
G01*
D17*
%TO.C,D2*%
X94026800Y-73575500D02*
X96973200Y-73575500D01*
X96973200Y-71924500D02*
X94026800Y-71924500D01*
%TO.C,J3*%
D18*
X108713500Y-78050000D02*
G75*
G02*
X108586500Y-78050000I-63500J0D01*
G01*
X108586500Y-78050000D02*
G75*
G02*
X108713500Y-78050000I63500J0D01*
G01*
D12*
%TO.C,C7*%
X97227500Y-76918748D02*
X97227500Y-77441252D01*
X98697500Y-76918748D02*
X98697500Y-77441252D01*
%TD*%
M02*
